<?xml version="1.0" encoding="UTF-8"?>
<svg width="669px" height="84px" viewBox="0 0 669 84" version="1.1" xmlns="http://www.w3.org/2000/svg" xmlns:xlink="http://www.w3.org/1999/xlink">
    <!-- Generator: Sketch 50.2 (55047) - http://www.bohemiancoding.com/sketch -->
    <title>Group 4</title>
    <desc>Created with Sketch.</desc>
    <defs>
        <polygon id="path-1" points="0 84 202 84 202 0 0 0"></polygon>
    </defs>
    <g id="Page-1" stroke="none" stroke-width="1" fill="none" fill-rule="evenodd">
        <g id="Group-4">
            <g id="Group-16-Copy">
                <path d="M88,20 L87.9774837,71.4514508 C87.9774837,77.7464434 82.9509801,84 76.275423,84 L66.5086949,84 L66.5086949,75.7487946 L68.3164349,75.7487946 C73.1070531,75.7487946 75.231094,73.2026647 75.231094,70.0611657 L75.2525381,28.359157 L24,28.359157 L24,20 L88,20 Z" id="Fill-1" fill="#000000"></path>
                <path d="M20,75 L20,68.2127654 L20,33 L66,33.0162141 L66,63.1074765 C66,70.4870673 61.5815692,74.9827049 56.167198,74.9827049 L37.279145,74.9827049 L37.2738699,66.7134989 L48.6164079,66.7134989 C51.3299236,66.7134989 53.5296438,64.8813023 53.5296438,61.1823189 L53.5296438,41.2205636 L32.5030619,41.2065114 L32.4798514,75 L20,75 Z" id="Fill-3" fill="#000000"></path>
                <mask id="mask-2" fill="white">
                    <use xlink:href="#path-1"></use>
                </mask>
                <g id="Clip-6"></g>
                <polygon id="Fill-5" fill="#000000" mask="url(#mask-2)" points="0 82 13 82 13 33 0 33"></polygon>
                <path d="M37,6.23954868 L37,14 L7.20070977,14 C3.22337655,14 0,10.7749168 0,6.797483 L0,0 L12.5557082,0 L12.5557082,2.84840156 C12.5557082,4.7206712 14.0742108,6.23954868 15.9463954,6.23954868 L37,6.23954868 Z" id="Fill-7" fill="#000000" mask="url(#mask-2)"></path>
                <path d="M88,6.23954868 L88,14 L58.2007098,14 C54.2233765,14 51,10.7749168 51,6.797483 L51,0 L63.5557082,0 L63.5557082,2.84840156 C63.5557082,4.7206712 65.0742108,6.23954868 66.9463954,6.23954868 L88,6.23954868 Z" id="Fill-8" fill="#000000" mask="url(#mask-2)"></path>
                <polygon id="Fill-9" fill="#000000" mask="url(#mask-2)" points="33.0220562 49 54.9867663 49 55 58 33 58"></polygon>
                <polygon id="Fill-10" fill="#000000" mask="url(#mask-2)" points="189 23.969664 189 32.4670193 151.36098 32.4670193 151.36098 84 138.637947 84 138.637947 32.4670193 101 32.4670193 101 23.969664 138.637947 23.969664 138.637947 0 151.36098 0 151.36098 23.969664"></polygon>
                <path d="M125,38 L125,74.6591815 C125,79.8174957 121.281952,84 116.696359,84 L101,84 L101,75.4861938 L108.708753,75.4861938 C110.94268,75.4861938 112.754196,73.4493929 112.754196,70.9360086 L112.754196,38 L125,38 Z" id="Fill-11" fill="#000000" mask="url(#mask-2)"></path>
                <path d="M189,75.5299818 L189,84 L173.279458,84 C168.706604,84 165,79.8496482 165,74.7305596 L165,38 L177.250376,38 L177.250376,70.8845455 C177.250376,73.4499837 179.108841,75.5299818 181.400946,75.5299818 L189,75.5299818 Z" id="Fill-12" fill="#000000" mask="url(#mask-2)"></path>
                <path d="M108.408168,8.08272251 L105,8.08272251 L105,0 L117.479153,0 C121.042335,0 123.930939,2.98115183 123.930939,6.65759162 L125,18 L112.324139,18 L111.582211,11.0188482 C111.404747,9.34764398 110.037417,8.08272251 108.408168,8.08272251" id="Fill-13" fill="#000000" mask="url(#mask-2)"></path>
                <path d="M181.603592,8.08272251 L185,8.08272251 L185,0 L172.520847,0 C168.957665,0 166.069061,2.98115183 166.069061,6.65759162 L165,18 L177.675861,18 L178.41672,11.0303665 C178.594184,9.35287958 179.967928,8.08272251 181.603592,8.08272251" id="Fill-14" fill="#000000" mask="url(#mask-2)"></path>
                <path d="M18,23.7597911 L18,29 L3.29764699,29 C1.47672754,29 0,27.3163185 0,25.2402089 L0,20 L14.702353,20 C16.5232725,20 18,21.6836815 18,23.7597911" id="Fill-15" fill="#000000" mask="url(#mask-2)"></path>
            </g>
            <rect id="Rectangle-13" fill="#252525" x="229" y="2" width="6" height="81"></rect>
            <path d="M275,7 L307.232305,7 C325.744102,7 335,14.1596639 335,28.5784314 C335,43.0966387 325.635209,50.3557423 307.014519,50.3557423 L286.869328,50.3557423 L286.869328,78 L275,78 L275,7 Z M286,16 L286,41 L305.243243,41 C311.081081,41 315.297297,40 318,38 C320.594595,36 322,32.8 322,28.4 C322,24 320.594595,20.8 317.891892,19 C315.189189,17 310.972973,16 305.243243,16 L286,16 Z M349,7 L360,7 L360,78 L349,78 L349,7 Z M379,7 L390.972789,7 L430.70068,59.802521 L431.136054,59.802521 L431.136054,7 L443,7 L443,78 L431.462585,78 L391.29932,24.6008403 L390.863946,24.6008403 L390.863946,78 L379,78 L379,7 Z M495.859112,6 C505.753446,6 513.58193,7.99460916 519.344564,12.1832884 C524.88974,16.1725067 528.369066,22.0566038 529.782542,30.0350404 L517.822358,30.0350404 C516.735069,25.2479784 514.343032,21.6576819 510.646248,19.2641509 C506.949464,16.7708895 501.947933,15.574124 495.859112,15.574124 C488.356815,15.574124 482.376723,17.8679245 477.918836,22.6549865 C473.134763,27.6415094 470.851455,34.5229111 470.851455,43.2991914 C470.851455,51.8760108 472.917305,58.458221 477.266462,63.0458221 C481.833078,68.032345 489.009188,70.5256065 498.686064,70.5256065 C502.491577,70.5256065 506.079632,70.0269542 509.45023,69.2291105 C512.712098,68.4312668 515.539051,67.2345013 518.148545,65.7385445 L518.148545,50.2803235 L496.728943,50.2803235 L496.728943,41.0053908 L530,41.0053908 L530,70.9245283 C525.977029,73.8167116 521.301685,76.0107817 515.973966,77.606469 C510.320061,79.2021563 504.122511,80 497.381317,80 C484.986217,80 475.41807,76.4097035 468.568147,69.2291105 C462.153139,62.5471698 459,53.8706199 459,43.2991914 C459,32.6280323 462.153139,23.851752 468.568147,16.9703504 C475.309342,9.5902965 484.442573,6 495.859112,6 Z M567.762376,28 L577.346535,28 L577.346535,48.5940594 L600,48.5940594 L600,57.3069307 L577.346535,57.3069307 L577.346535,78 L567.762376,78 L567.762376,57.3069307 L545,57.3069307 L545,48.5940594 L567.762376,48.5940594 L567.762376,28 Z M636.762376,28 L646.346535,28 L646.346535,48.5940594 L669,48.5940594 L669,57.3069307 L646.346535,57.3069307 L646.346535,78 L636.762376,78 L636.762376,57.3069307 L614,57.3069307 L614,48.5940594 L636.762376,48.5940594 L636.762376,28 Z" id="PING++-Copy-3" fill="#252525"></path>
        </g>
    </g>
</svg>