<?xml version="1.0" standalone="no"?>
<!DOCTYPE svg PUBLIC "-//W3C//DTD SVG 1.1//EN" "http://www.w3.org/Graphics/SVG/1.1/DTD/svg11.dtd" >
<svg xmlns="http://www.w3.org/2000/svg">
<metadata>
Created by FontPrep 20130207 at Tue Apr  5 16:30:44 2016
 By He Lu
copyright missing
</metadata>
<defs>
<font id="f1e9b05794e933027e209a5958137292" horiz-adv-x='1024' >
  <font-face 
    font-family="PingFont-Medium"
    font-weight="500"
    font-stretch="normal"
    units-per-em="2048"
    panose-1="0 0 6 0 0 0 0 0 0 0"
    ascent="1532"
    descent="-516"
    x-height="999"
    cap-height="1409"
    bbox="-356 -641 2447 2073"
    underline-thickness="102"
    underline-position="-102"
    unicode-range="U+0020-FB04"
  />
<missing-glyph horiz-adv-x="1458" 
d="M733 641l258 -264l107 106l-260 267l260 266l-107 106l-258 -264l-258 264l-106 -106l258 -266l-258 -267l106 -106zM0 1475h1458v-1475h-1458v1475z" />
    <glyph glyph-name="f_b" unicode="fb" horiz-adv-x="1900" 
d="M1044 500q0 -162 77 -254t197 -92t196 96t77 257q0 161 -75 250q-76 89 -196 89t-196 -88t-80 -242v-16zM823 1319h-239q-92 0 -130 -42t-38 -136v-142h211v-172h-211v-827h-221v827h-189v172h189v142q0 182 87 270t273 88h489v-313q0 -205 -10 -336h8q88 174 332 174
q195 0 321 -137t126 -379t-132 -387t-345 -145t-302 174h-8v-150h-211v1319z" />
    <glyph glyph-name="f_f_b" unicode="ffb" horiz-adv-x="2527" 
d="M1671 500q0 -160 77 -253t197 -93q121 0 197 96t76 257t-76 250t-194 89t-196 -88q-77 -88 -81 -242v-16zM823 827h-407v-827h-221v827h-189v172h189v142q0 182 87 270t273 88h111v-180h-82q-92 0 -130 -42t-38 -136v-142h407v142q0 182 87 270t272 88h489v-313
q0 -205 -10 -336h8q88 174 332 174q197 0 321 -137t125 -379q0 -242 -132 -387q-133 -145 -345 -145t-301 174h-8v-150h-211v1319h-238q-92 0 -130 -42t-38 -136v-142h248v-172h-248v-827h-221v827z" />
    <glyph glyph-name="f_f_h" unicode="ffh" horiz-adv-x="2490" 
d="M823 827h-407v-827h-221v827h-189v172h189v142q0 182 87 270t273 88h111v-180h-82q-92 0 -130 -42t-38 -136v-142h407v142q0 182 87 270t272 88h489v-309q0 -203 -10 -336h8q86 170 309 170q166 0 272 -99t105 -319v-606h-221v578q0 266 -213 266q-109 0 -179 -86
t-71 -232v-526h-221v1319h-238q-92 0 -130 -42t-38 -136v-142h248v-172h-248v-827h-221v827z" />
    <glyph glyph-name="f_f_j" unicode="ffj" horiz-adv-x="1820" 
d="M1442 1499h237v-225h-237v225zM823 827h-407v-827h-221v827h-189v172h189v142q0 182 87 270t273 88h123v-180h-94q-92 0 -130 -42t-38 -136v-142h407v142q0 182 87 270t272 88h112v-180h-82q-92 0 -130 -42t-38 -136v-142h627v-1144q0 -147 -73 -227t-240 -79h-76v181h51
q63 0 90 36t27 113v948h-406v-827h-221v827z" />
    <glyph glyph-name="f_f_k" unicode="ffk" horiz-adv-x="2379" 
d="M823 827h-407v-827h-221v827h-189v172h189v142q0 182 87 270t273 88h111v-180h-82q-92 0 -130 -42t-38 -136v-142h407v142q0 182 87 270t272 88h489v-948l404 448h258l-373 -399l412 -600h-258l-302 440l-141 -151v-289h-221v1319h-238q-92 0 -130 -42t-38 -136v-142h248
v-172h-248v-827h-221v827z" />
    <glyph glyph-name="f_f_t" unicode="fft" horiz-adv-x="1961" 
d="M823 827h-407v-827h-221v827h-189v172h189v142q0 182 87 270t273 88h111v-180h-82q-92 0 -130 -42t-38 -136v-142h407v142q0 182 87 270t272 88h112v-180h-82q-92 0 -130 -42t-38 -136v-142h394v304h221v-304h254v-172h-254v-495q0 -78 32 -113t101 -35h121v-184h-154
q-170 0 -246 76t-75 243v508h-394v-827h-221v827z" />
    <glyph glyph-name="f_h" unicode="fh" horiz-adv-x="1863" 
d="M823 1319h-239q-92 0 -130 -42t-38 -136v-142h211v-172h-211v-827h-221v827h-189v172h189v142q0 182 87 270t273 88h489v-309q0 -203 -10 -336h8q86 170 310 170q166 0 271 -99t106 -319v-606h-224v578q0 266 -211 266q-110 0 -180 -87t-70 -233v-524h-221v1319z" />
    <glyph glyph-name="f_j" unicode="fj" horiz-adv-x="1193" 
d="M815 1499h238v-225h-238v225zM707 -270q63 0 90 36t26 113v948h-407v-827h-221v827h-189v172h189v142q0 182 87 270t273 88h111v-180h-82q-92 0 -130 -42t-38 -136v-142h628v-1144q0 -147 -72 -227q-73 -79 -243 -79h-74v181h52z" />
    <glyph glyph-name="f_k" unicode="fk" horiz-adv-x="1751" 
d="M823 1319h-239q-92 0 -130 -42t-38 -136v-142h211v-172h-211v-827h-221v827h-189v172h189v142q0 182 87 270t273 88h489v-946l404 446h256l-371 -399l410 -600h-258l-299 440l-142 -151v-289h-221v1319z" />
    <glyph glyph-name="f_t" unicode="ft" horiz-adv-x="1335" 
d="M809 827h-393v-827h-221v827h-189v172h189v142q0 182 87 270t273 88h111v-180h-82q-92 0 -130 -42t-38 -136v-142h393v304h223v-304h254v-172h-254v-495q0 -78 32 -113t101 -35h121v-184h-153q-170 0 -247 76t-77 243v508z" />
    <glyph glyph-name="fi" unicode="fi" horiz-adv-x="1193" 
d="M815 1499h238v-225h-238v225zM823 827h-407v-827h-221v827h-189v172h189v142q0 182 87 270t273 88h111v-180h-82q-92 0 -130 -42t-38 -136v-142h628v-999h-221v827z" />
    <glyph glyph-name="fl" unicode="fl" horiz-adv-x="1193" 
d="M195 827h-189v172h189v142q0 182 87 270t273 88h489v-1499h-221v1319h-239q-92 0 -130 -42t-38 -136v-142h211v-172h-211v-827h-221v827z" />
    <glyph glyph-name="ff" unicode="ff" horiz-adv-x="1292" 
d="M195 827h-189v172h189v142q0 182 87 270t273 88h111v-180h-82q-92 0 -130 -42t-38 -136v-142h407v142q0 182 87 270t272 88h133v-180h-103q-92 0 -130 -42t-38 -136v-142h238v-172h-238v-827h-221v827h-407v-827h-221v827z" />
    <glyph glyph-name="ffi" unicode="ffi" horiz-adv-x="1820" 
d="M1442 1499h237v-225h-237v225zM823 827h-407v-827h-221v827h-189v172h189v142q0 182 87 270t273 88h123v-180h-94q-92 0 -130 -42t-38 -136v-142h407v142q0 182 87 270t272 88h112v-180h-82q-92 0 -130 -42t-38 -136v-142h627v-999h-221v827h-406v-827h-221v827z" />
    <glyph glyph-name="ffl" unicode="ffl" horiz-adv-x="1820" 
d="M823 827h-407v-827h-221v827h-189v172h189v142q0 182 87 270t273 88h111v-180h-82q-92 0 -130 -42t-38 -136v-142h407v142q0 182 87 270t272 88h489v-1499h-221v1319h-238q-92 0 -130 -42t-38 -136v-142h248v-172h-248v-827h-221v827z" />
    <glyph glyph-name=".notdef" horiz-adv-x="1458" 
d="M733 641l258 -264l107 106l-260 267l260 266l-107 106l-258 -264l-258 264l-106 -106l258 -266l-258 -267l106 -106zM0 1475h1458v-1475h-1458v1475z" />
    <glyph glyph-name=".null" horiz-adv-x="0" 
 />
    <glyph glyph-name="nonmarkingreturn" horiz-adv-x="681" 
 />
    <glyph glyph-name="space" unicode=" " horiz-adv-x="450" 
 />
    <glyph glyph-name="exclam" unicode="!" horiz-adv-x="581" 
d="M168 246h244v-246h-244v246zM166 1409h250v-389l-64 -614h-125l-61 614v389z" />
    <glyph glyph-name="quotedbl" unicode="&#x22;" horiz-adv-x="841" 
d="M506 1409h211v-186l-35 -361h-141l-35 361v186zM125 1409h211v-186l-35 -361h-141l-35 361v186z" />
    <glyph glyph-name="numbersign" unicode="#" horiz-adv-x="1275" 
d="M465 494h274l74 428h-274zM125 1081h254l57 328h189l-58 -328h275l57 328h188l-57 -328h209v-159h-238l-73 -428h223v-162h-252l-57 -332h-189l58 332h-275l-57 -332h-189l58 332h-211v162h239l74 428h-225v159z" />
    <glyph glyph-name="dollar" unicode="$" horiz-adv-x="1163" 
d="M576 147q118 -1 191 61t73 162t-58 144q-58 45 -178 82l-174 53q-119 36 -220 125t-100 251q1 163 101 268t264 132v222h197v-222q154 -25 254 -123t110 -249h-221q-12 104 -78 155q-66 52 -166 52t-167 -52q-66 -52 -66 -145q0 -94 50 -139t169 -82l174 -54
q170 -51 254 -145t84 -255q-1 -162 -109 -272t-288 -134v-228h-197v228q-180 25 -286 134q-105 110 -111 281h221q8 -119 83 -185q76 -66 194 -65z" />
    <glyph glyph-name="percent" unicode="%" horiz-adv-x="1624" 
d="M1118 352q0 -230 138 -229q138 0 139 229q0 229 -138 230q-139 0 -139 -230zM1258 -16q-158 0 -238 102t-80 266t81 266t237 102t236 -102q79 -102 79 -266t-79 -266t-236 -102zM368 827q138 -1 138 229t-138 230t-138 -230t138 -229zM369 688q-156 0 -237 102t-81 267
q0 164 81 266t237 102q155 0 235 -102t80 -266q0 -165 -80 -267t-235 -102zM381 -25q485 994 713 1459h151l-713 -1459h-151z" />
    <glyph glyph-name="ampersand" unicode="&#x26;" horiz-adv-x="1474" 
d="M635 147q186 0 303 99l-410 407q-104 -53 -160 -114t-56 -162t90 -165q92 -64 233 -65zM449 1108q-1 -66 31 -118t112 -132q123 58 186 112q64 54 64 132t-51 125t-145 47t-145 -50q-52 -50 -52 -116zM88 369q0 147 85 239t235 166q-92 98 -128 166t-36 150
q0 141 108 242q109 102 297 102t296 -89t108 -229t-89 -224q-89 -83 -251 -155l340 -340q55 119 55 285v23h199v-41q0 -223 -115 -406l258 -258h-264l-119 117q-168 -141 -430 -141t-406 106q-143 107 -143 287z" />
    <glyph glyph-name="quotesingle" unicode="'" horiz-adv-x="460" 
d="M125 1409h211v-186l-35 -361h-141l-35 361v186z" />
    <glyph glyph-name="parenleft" unicode="(" horiz-adv-x="608" 
d="M39 532q0 295 101 554t235 438h203q-116 -150 -222 -425t-106 -565t106 -566q106 -275 222 -435h-203q-133 176 -235 440q-101 264 -101 559z" />
    <glyph glyph-name="parenright" unicode=")" horiz-adv-x="608" 
d="M358 533q0 289 -106 565t-221 426h200q133 -178 235 -438t101 -554q0 -295 -101 -559t-235 -440h-200q115 160 221 435t106 565z" />
    <glyph glyph-name="asterisk" unicode="*" horiz-adv-x="948" 
d="M559 1425l-33 -264l240 115l53 -164l-260 -51l180 -191l-137 -100l-129 229l-127 -227l-137 98l176 193l-254 49l51 164l238 -111l-31 260h170z" />
    <glyph glyph-name="plus" unicode="+" horiz-adv-x="1163" 
d="M117 610h370v373h189v-373h371v-180h-371v-371h-189v371h-370v180z" />
    <glyph glyph-name="comma" unicode="," horiz-adv-x="559" 
d="M147 0v262h265v-246l-103 -348h-116l67 332h-113z" />
    <glyph glyph-name="hyphen" unicode="-" horiz-adv-x="811" 
d="M115 612h581v-192h-581v192z" />
    <glyph glyph-name="period" unicode="." horiz-adv-x="559" 
d="M147 262h265v-262h-265v262z" />
    <glyph glyph-name="slash" unicode="/" horiz-adv-x="845" 
d="M643 1434h191l-631 -1459h-191z" />
    <glyph glyph-name="zero" unicode="0" horiz-adv-x="1163" 
d="M582 166q272 0 272 539t-272 538t-272 -539t272 -538zM582 -25q-256 0 -380 200t-124 530q0 329 124 529t380 200t380 -200t124 -530t-124 -529q-124 -200 -380 -200z" />
    <glyph glyph-name="one" unicode="1" horiz-adv-x="1163" 
d="M733 1409v-1225h328v-184h-899v184h350v951l-301 -207l-96 164l463 317h155z" />
    <glyph glyph-name="two" unicode="2" horiz-adv-x="1163" 
d="M821 1024q0 92 -59 159t-176 66q-236 0 -254 -264h-209q10 236 140 342q130 107 330 107t326 -109q125 -109 125 -289t-91 -280q-48 -53 -91 -87t-119 -83l-157 -105q-131 -85 -176 -153t-54 -144h699l2 -184h-955q8 234 86 372t252 251l160 104q181 118 208 203
q13 41 13 94z" />
    <glyph glyph-name="three" unicode="3" horiz-adv-x="1163" 
d="M303 426q0 -135 74 -204q73 -68 195 -68t197 63t75 175t-78 178t-193 67h-108v182h108q98 1 165 63t67 161t-67 155t-166 57q-98 0 -164 -60t-66 -175h-201q0 190 120 302q121 112 315 112t317 -106t123 -275q0 -99 -60 -191t-145 -125v-8q113 -33 185 -128t73 -222
q0 -186 -140 -295q-139 -109 -361 -109t-352 113t-130 338h217z" />
    <glyph glyph-name="four" unicode="4" horiz-adv-x="1163" 
d="M692 514v569l-413 -569h413zM913 1409v-895h193v-184h-193v-330h-221v330h-635v149l672 930h184z" />
    <glyph glyph-name="five" unicode="5" horiz-adv-x="1163" 
d="M848 436q0 131 -76 208t-202 77t-232 -133l-203 16l43 805h811v-190h-612l-23 -404h8q92 86 272 86t307 -121q128 -122 128 -340t-141 -342t-354 -123q-213 0 -341 108q-127 108 -143 294h221q14 -92 81 -157q67 -64 183 -64q117 0 195 74t78 206z" />
    <glyph glyph-name="six" unicode="6" horiz-adv-x="1163" 
d="M614 721q-114 0 -192 -80t-78 -202q0 -123 74 -203t190 -80t191 76t75 205q0 128 -73 206q-74 78 -187 78zM88 672q0 206 45 358t123 237q153 167 363 167q209 0 317 -102t127 -275h-219q-27 197 -217 196q-125 0 -211 -124t-97 -394q41 74 135 120t201 46
q189 0 315 -123t126 -337t-142 -340t-342 -126q-236 0 -380 166t-144 531z" />
    <glyph glyph-name="seven" unicode="7" horiz-adv-x="1163" 
d="M98 1212v197h983v-145l-583 -1264h-230l574 1212h-744z" />
    <glyph glyph-name="eight" unicode="8" horiz-adv-x="1163" 
d="M582 154q124 0 200 63t76 175t-79 178t-197 67q-118 -1 -198 -67q-79 -66 -79 -178t76 -175t201 -63zM582 819q102 1 170 63t68 161t-68 159t-170 60t-170 -60t-68 -158q0 -100 68 -162t170 -63zM80 379q0 127 73 222t185 128v8q-88 31 -147 120q-58 89 -58 194
q0 172 123 277q123 106 326 106q204 0 326 -106t122 -277q0 -103 -58 -193t-147 -121v-8q113 -33 186 -128t72 -222q0 -188 -137 -296t-364 -108t-365 108q-137 108 -137 296z" />
    <glyph glyph-name="nine" unicode="9" horiz-adv-x="1163" 
d="M548 688q112 0 190 80t79 202q0 122 -74 202q-73 80 -187 81q-114 -1 -190 -77t-77 -204q0 -128 74 -206q73 -78 185 -78zM1073 737q0 -762 -526 -762q-203 1 -314 101t-135 276h219q35 -197 232 -196q135 0 209 120t82 398q-41 -76 -133 -121t-199 -45q-193 0 -318 122
q-124 122 -124 337t142 341t341 126q236 0 380 -166t144 -531z" />
    <glyph glyph-name="colon" unicode=":" horiz-adv-x="559" 
d="M147 262h265v-262h-265v262zM147 999h265v-262h-265v262z" />
    <glyph glyph-name="semicolon" unicode=";" horiz-adv-x="559" 
d="M147 0v262h265v-246l-103 -348h-116l67 332h-113zM147 999h265v-262h-265v262z" />
    <glyph glyph-name="less" unicode="&#x3c;" horiz-adv-x="1163" 
d="M147 612l869 367v-195l-656 -260l656 -262v-201l-869 369v182z" />
    <glyph glyph-name="equal" unicode="=" horiz-adv-x="1163" 
d="M115 393h934v-180h-934v180zM115 827h934v-180h-934v180z" />
    <glyph glyph-name="greater" unicode="&#x3e;" horiz-adv-x="1163" 
d="M1016 428l-869 -367v195l656 260l-656 262v201l869 -369v-182z" />
    <glyph glyph-name="question" unicode="?" horiz-adv-x="1044" 
d="M389 246h244v-246h-244v246zM406 467q0 104 35 181q36 77 88 121q53 44 105 81q124 88 124 186q0 99 -60 156t-174 57t-177 -74q-62 -75 -62 -192h-215q0 190 118 321q120 130 334 130t338 -102t123 -275q0 -94 -38 -164t-91 -113t-106 -82q-130 -96 -130 -215v-69h-212
v53z" />
    <glyph glyph-name="at" unicode="@" horiz-adv-x="2115" 
d="M815 276q0 -66 46 -104q47 -38 143 -39q96 0 173 71t76 206v92q-29 -35 -102 -47l-178 -29q-158 -25 -158 -150zM596 262q0 252 334 303l194 31q82 14 106 28t23 50q-1 184 -199 184t-210 -176h-209q10 156 121 249q110 93 308 93t304 -97t107 -282v-307q0 -219 149 -219
q94 1 160 111t65 327q0 336 -220 535q-220 198 -572 198q-351 0 -571 -234t-220 -586t212 -572q212 -221 550 -222q287 0 434 148h219q-221 -291 -641 -291t-681 264t-261 673q0 408 268 686t691 278q422 0 691 -242t269 -635q0 -289 -123 -432t-305 -143q-225 0 -293 161
q-104 -168 -362 -168q-160 0 -249 79t-89 208z" />
    <glyph glyph-name="A" unicode="A" horiz-adv-x="1361" 
d="M674 1180l-230 -645h465l-227 645h-8zM545 1409h272l524 -1409h-243l-121 342h-602l-121 -342h-234z" />
    <glyph glyph-name="B" unicode="B" horiz-adv-x="1396" 
d="M397 635v-445h414q127 0 193 62t66 164t-66 161q-66 58 -193 58h-414zM397 1219v-398h373q119 1 181 59t63 152q0 186 -242 187h-375zM166 1409h622q227 0 342 -96t115 -273q0 -104 -56 -182t-165 -110v-9q129 -23 204 -111t75 -210q0 -186 -124 -302t-350 -116h-663
v1409z" />
    <glyph glyph-name="C" unicode="C" horiz-adv-x="1478" 
d="M774 -25q-308 0 -496 204q-188 203 -188 523t192 526t500 206q250 0 409 -129t202 -351h-236q-76 274 -375 275q-204 1 -328 -145t-124 -377t124 -379t322 -148q305 0 381 275h236q-43 -221 -205 -351t-414 -129z" />
    <glyph glyph-name="D" unicode="D" horiz-adv-x="1474" 
d="M403 1212v-1015h228q264 0 388 142q124 141 124 365t-124 366t-388 142h-228zM172 1409h469q356 0 550 -194q193 -195 193 -511t-194 -510t-549 -194h-469v1409z" />
    <glyph glyph-name="E" unicode="E" horiz-adv-x="1282" 
d="M172 1409h987v-197h-756v-399h607v-190h-607v-426h775v-197h-1006v1409z" />
    <glyph glyph-name="F" unicode="F" horiz-adv-x="1208" 
d="M172 1409h967v-197h-736v-469h586v-194h-586v-549h-231v1409z" />
    <glyph glyph-name="G" unicode="G" horiz-adv-x="1570" 
d="M784 -25q-308 0 -500 206q-194 207 -194 525t197 523t512 205q253 0 417 -126t205 -323h-235q-33 106 -131 175t-256 69q-211 -1 -340 -147t-129 -377t129 -377t321 -148q192 0 312 98q121 98 120 265v24h-413v187h620v-754h-149l-31 186h-6q-141 -211 -449 -211z" />
    <glyph glyph-name="H" unicode="H" horiz-adv-x="1517" 
d="M172 1409h231v-598h709v598h234v-1409h-234v614h-709v-614h-231v1409z" />
    <glyph glyph-name="I" unicode="I" horiz-adv-x="577" 
d="M172 1409h231v-1409h-231v1409z" />
    <glyph glyph-name="J" unicode="J" horiz-adv-x="1093" 
d="M74 477h229v-53q0 -252 205 -252t205 258v979h231v-987q0 -446 -436 -447q-203 -1 -319 105t-115 332v65z" />
    <glyph glyph-name="K" unicode="K" horiz-adv-x="1380" 
d="M172 1409h231v-713l662 713h270l-575 -610l604 -799h-264l-490 641l-207 -219v-422h-231v1409z" />
    <glyph glyph-name="L" unicode="L" horiz-adv-x="1148" 
d="M172 1409h231v-1210h682v-199h-913v1409z" />
    <glyph glyph-name="M" unicode="M" horiz-adv-x="1886" 
d="M172 1409h299l473 -1096h6l467 1096h295v-1409h-231l18 1073h-8l-459 -1073h-178l-459 1055h-8l16 -1055h-231v1409z" />
    <glyph glyph-name="N" unicode="N" horiz-adv-x="1533" 
d="M172 1409h215l741 -1016h9l-9 1016h234v-1409h-213l-746 1012h-8l8 -1012h-231v1409z" />
    <glyph glyph-name="O" unicode="O" horiz-adv-x="1587" 
d="M330 705q0 -229 128 -377t336 -148t336 148t127 376q0 230 -128 377q-127 147 -335 147t-336 -146q-128 -148 -128 -377zM90 705q0 319 194 524t506 205t510 -206t197 -523q0 -317 -198 -523q-197 -206 -509 -207t-506 205t-194 525z" />
    <glyph glyph-name="P" unicode="P" horiz-adv-x="1341" 
d="M403 1217v-549h330q139 0 213 78t74 202q0 123 -74 196t-213 73h-330zM172 1409h571q242 0 376 -126t134 -334t-135 -340t-375 -132h-340v-477h-231v1409z" />
    <glyph glyph-name="Q" unicode="Q" horiz-adv-x="1593" 
d="M330 705q0 -229 128 -377t336 -148t336 148t127 376q0 230 -128 377q-127 147 -335 147t-336 -146q-128 -148 -128 -377zM90 705q0 319 194 524t506 205t510 -206t197 -530q0 -324 -213 -532l264 -277l-151 -149l-287 303q-145 -68 -317 -68q-315 -1 -509 205t-194 525z
" />
    <glyph glyph-name="R" unicode="R" horiz-adv-x="1378" 
d="M403 1217v-496h336q131 0 203 72q72 73 72 185t-72 175t-203 64h-336zM172 1409h569q246 0 376 -113t130 -315q0 -155 -78 -267t-225 -157l354 -557h-251l-338 530h-306v-530h-231v1409z" />
    <glyph glyph-name="S" unicode="S" horiz-adv-x="1347" 
d="M338 401q0 -111 89 -179t243 -66q154 0 242 62t89 175q0 70 -48 115t-125 65q-77 21 -169 37t-185 40t-170 62t-125 114t-48 190q1 184 147 301t388 117t386 -109t144 -295h-227q0 104 -84 164t-218 59q-133 0 -219 -56t-86 -159q0 -131 175 -178q78 -20 171 -36
q220 -37 357 -103q78 -39 126 -117t48 -192q0 -199 -152 -318q-153 -119 -419 -119t-413 115q-146 115 -146 311h229z" />
    <glyph glyph-name="T" unicode="T" horiz-adv-x="1232" 
d="M16 1409h1201v-195h-486v-1214h-231v1214h-484v195z" />
    <glyph glyph-name="U" unicode="U" horiz-adv-x="1460" 
d="M143 1409h232v-846q0 -184 89 -283q89 -100 265 -100t265 98t89 285v846h232v-848q0 -586 -586 -586q-274 1 -430 141t-156 445v848z" />
    <glyph glyph-name="V" unicode="V" horiz-adv-x="1320" 
d="M16 1409h244l399 -1180h9l403 1180h234l-512 -1409h-267z" />
    <glyph glyph-name="W" unicode="W" horiz-adv-x="1959" 
d="M23 1409h245l277 -1163h8l305 1163h258l309 -1163h9l266 1163h237l-362 -1409h-289l-299 1128h-8l-299 -1128h-289z" />
    <glyph glyph-name="X" unicode="X" horiz-adv-x="1280" 
d="M506 719l-473 690h264l342 -514l340 514h252l-465 -684l498 -725h-263l-368 547l-363 -547h-254z" />
    <glyph glyph-name="Y" unicode="Y" horiz-adv-x="1304" 
d="M764 0h-232v545l-509 864h262l364 -635h8l379 635h244l-516 -854v-555z" />
    <glyph glyph-name="Z" unicode="Z" horiz-adv-x="1224" 
d="M106 1409h1047v-141l-784 -1075h778v-193h-1075v141l784 1076h-750v192z" />
    <glyph glyph-name="bracketleft" unicode="[" horiz-adv-x="696" 
d="M666 -291v-176h-498v1991h498v-176h-297v-1639h297z" />
    <glyph glyph-name="backslash" unicode="\" horiz-adv-x="845" 
d="M12 1434h191l631 -1459h-191z" />
    <glyph glyph-name="bracketright" unicode="]" horiz-adv-x="696" 
d="M328 -291v1639h-297v176h499v-1991h-499v176h297z" />
    <glyph glyph-name="asciicircum" unicode="^" horiz-adv-x="1163" 
d="M672 1409v-2l12 2l379 -688h-213l-270 510l-271 -510h-207l379 688h191z" />
    <glyph glyph-name="underscore" unicode="_" horiz-adv-x="1024" 
d="M1024 -147v-175h-1024v175h1024z" />
    <glyph glyph-name="grave" unicode="`" horiz-adv-x="1173" 
d="M211 1499h246l209 -336h-156z" />
    <glyph glyph-name="a" unicode="a" horiz-adv-x="1107" 
d="M313 279q0 -63 44 -101q43 -38 141 -37q98 0 175 70t77 199v92q-29 -35 -103 -47l-172 -29q-162 -25 -162 -147zM92 255q0 128 80 203t254 103l195 33q77 12 103 26t26 42q0 197 -197 196q-97 0 -151 -47t-60 -129h-211q10 156 123 249q114 93 310 93t301 -94t106 -273
v-657h-211v125h-10q-92 -150 -320 -150q-162 0 -250 76t-88 204z" />
    <glyph glyph-name="b" unicode="b" horiz-adv-x="1228" 
d="M371 500q1 -160 77 -253t197 -93t197 96t76 257t-76 250t-195 89t-195 -88t-81 -242v-16zM150 1499h221v-313q0 -205 -9 -336h9q88 174 331 174q195 0 321 -137t126 -379t-132 -387t-345 -145t-301 174h-9v-150h-212v1499z" />
    <glyph glyph-name="c" unicode="c" horiz-adv-x="1093" 
d="M78 497q0 243 139 385t348 142t328 -102t137 -265h-219q-13 85 -73 137t-170 52t-186 -96t-75 -250q0 -154 76 -250t192 -96q201 0 236 188h219q-18 -164 -136 -265t-334 -101t-349 138q-133 140 -133 383z" />
    <glyph glyph-name="d" unicode="d" horiz-adv-x="1228" 
d="M309 493q0 -161 76 -250t197 -89q122 0 198 92t76 254t-77 254t-197 92t-196 -96q-77 -96 -77 -257zM80 492q0 242 132 387t331 145q227 0 315 -174h8q-10 131 -10 336v313h221v-1499h-211v150h-8q-88 -174 -332 -175q-194 -1 -320 137t-126 380z" />
    <glyph glyph-name="e" unicode="e" horiz-adv-x="1114" 
d="M573 852q-99 0 -167 -64t-91 -176h500q-27 240 -242 240zM78 493q0 241 139 386t354 145t342 -129t127 -358v-74h-735q10 -145 84 -229q75 -84 183 -84t166 44t75 109h217q-24 -139 -146 -233t-304 -95q-240 1 -371 139t-131 379z" />
    <glyph glyph-name="f" unicode="f" horiz-adv-x="665" 
d="M195 827h-189v172h189v142q0 182 87 270t273 88h133v-180h-104q-92 0 -130 -42t-38 -136v-142h239v-172h-239v-827h-221v827z" />
    <glyph glyph-name="g" unicode="g" horiz-adv-x="1228" 
d="M309 493q0 -161 76 -250t197 -89q122 0 198 92t76 254v16q-4 154 -80 242t-194 88t-196 -96q-77 -96 -77 -257zM567 -301q299 0 299 352v99h-8q-88 -174 -332 -175q-194 -1 -320 137t-126 380t132 387t331 145q227 0 315 -174h8v149h211v-948q0 -268 -137 -393
q-136 -125 -358 -125t-348 88t-128 256h209q2 -82 72 -130t180 -48z" />
    <glyph glyph-name="h" unicode="h" horiz-adv-x="1189" 
d="M150 1499h221v-309q0 -205 -9 -336h9q86 170 309 170q166 0 270 -99t105 -319v-606h-221v578q0 266 -213 266q-109 0 -180 -89t-70 -235v-520h-221v1499z" />
    <glyph glyph-name="i" unicode="i" horiz-adv-x="522" 
d="M150 999h221v-999h-221v999zM141 1499h238v-225h-238v225z" />
    <glyph glyph-name="j" unicode="j" horiz-adv-x="522" 
d="M150 999h221v-1144q0 -147 -72 -227t-242 -79h-75v181h51q63 0 90 36t27 113v1120zM141 1499h238v-225h-238v225z" />
    <glyph glyph-name="k" unicode="k" horiz-adv-x="1079" 
d="M150 1499h221v-948l405 448h256l-373 -399l412 -600h-258l-301 440l-141 -151v-289h-221v1499z" />
    <glyph glyph-name="l" unicode="l" horiz-adv-x="522" 
d="M150 1499h221v-1499h-221v1499z" />
    <glyph glyph-name="m" unicode="m" horiz-adv-x="1816" 
d="M150 999h212v-145h9q85 170 313 170t307 -199q96 199 336 199q160 0 257 -97t97 -309v-618h-221v592q0 135 -47 193q-47 59 -147 59t-170 -86t-70 -232v-526h-221v592q0 135 -49 193q-50 59 -148 59t-168 -87t-69 -233v-524h-221v999z" />
    <glyph glyph-name="n" unicode="n" horiz-adv-x="1189" 
d="M150 999h212v-145h9q86 170 309 170q166 0 270 -99t105 -319v-606h-221v578q0 266 -213 266q-109 0 -180 -87t-70 -235v-522h-221v999z" />
    <glyph glyph-name="o" unicode="o" horiz-adv-x="1181" 
d="M309 500q0 -156 77 -251t204 -95t204 95q76 95 76 254t-76 251q-77 92 -204 92t-204 -95t-77 -251zM594 1024q230 0 368 -140t138 -382t-142 -384t-372 -142t-368 140t-138 382t142 384t372 142z" />
    <glyph glyph-name="p" unicode="p" horiz-adv-x="1228" 
d="M918 507q0 161 -76 250t-195 89t-195 -88t-81 -242v-16q1 -160 77 -253t197 -93t197 96t76 257zM371 -451h-221v1450h212v-149h9q88 174 331 174q195 0 321 -137t126 -379t-132 -387t-345 -145t-301 174h-9q8 -131 9 -336v-265z" />
    <glyph glyph-name="q" unicode="q" horiz-adv-x="1222" 
d="M309 493q0 -161 76 -250t196 -89q119 0 195 88t80 241v17q0 162 -77 254t-197 92t-196 -96q-77 -96 -77 -257zM856 -186q0 205 10 336h-8q-88 -174 -332 -175q-194 -1 -320 137t-126 380t132 387t331 145q227 0 315 -174h8v149h211v-1450h-221v265z" />
    <glyph glyph-name="r" unicode="r" horiz-adv-x="772" 
d="M150 999h212v-145h7q78 170 264 170q80 0 139 -41l-57 -197q-66 33 -123 33q-106 0 -164 -90t-57 -229v-500h-221v999z" />
    <glyph glyph-name="s" unicode="s" horiz-adv-x="1042" 
d="M287 287q-1 -78 65 -117t156 -39q229 0 229 145q0 53 -37 81t-114 40l-185 33q-301 49 -301 275q0 151 118 235t301 84t298 -77t115 -226h-207q0 71 -57 109q-56 38 -148 38t-149 -37t-57 -94t37 -85q38 -28 128 -44l185 -30q137 -23 216 -84t78 -191q0 -160 -122 -244
t-322 -84q-202 0 -320 80t-118 232h211z" />
    <glyph glyph-name="t" unicode="t" horiz-adv-x="706" 
d="M180 827h-188v172h188v304h221v-304h256v-172h-256v-495q0 -80 32 -114t108 -34h116v-184h-153q-172 0 -248 76t-76 243v508z" />
    <glyph glyph-name="u" unicode="u" horiz-adv-x="1181" 
d="M133 999h221v-577q0 -266 213 -266q109 0 177 88t67 239v516h221v-999h-211v145h-8q-86 -170 -303 -170q-166 -1 -271 99t-106 319v606z" />
    <glyph glyph-name="v" unicode="v" horiz-adv-x="1009" 
d="M8 999h242l260 -770h8l260 770h223l-362 -999h-258z" />
    <glyph glyph-name="w" unicode="w" horiz-adv-x="1536" 
d="M10 999h226l194 -776h8l215 776h236l217 -776h8l193 776h219l-289 -999h-258l-207 774h-8l-207 -774h-258z" />
    <glyph glyph-name="x" unicode="x" horiz-adv-x="991" 
d="M375 504l-346 495h254l225 -337l219 337h236l-347 -493l355 -506h-254l-234 350l-227 -350h-236z" />
    <glyph glyph-name="y" unicode="y" horiz-adv-x="1009" 
d="M207 -467h-111v182h66q172 0 241 195l31 90h-53l-373 999h242l260 -770h8l260 770h223l-411 -1138q-117 -328 -383 -328z" />
    <glyph glyph-name="z" unicode="z" horiz-adv-x="944" 
d="M66 999h804v-137l-516 -688h525v-174h-807v125l528 700h-534v174z" />
    <glyph glyph-name="braceleft" unicode="{" horiz-adv-x="757" 
d="M262 188q0 156 -46 213t-183 58v155q137 0 183 58t46 213v319q0 166 77 243t263 77h125v-170h-102q-92 0 -126 -37t-34 -127v-375q0 -113 -47 -179t-158 -95v-9q111 -30 158 -96t47 -178v-391q0 -90 34 -127t126 -37h102v-170h-125q-186 0 -263 77t-77 243v335z" />
    <glyph glyph-name="bar" unicode="|" horiz-adv-x="555" 
d="M180 1556h195v-2048h-195v2048z" />
    <glyph glyph-name="braceright" unicode="}" horiz-adv-x="757" 
d="M133 -297q92 0 126 37t34 127v391q0 112 47 178t158 96v9q-111 31 -158 97t-47 177v375q0 90 -34 127t-126 37h-102v170h123q188 0 264 -77t76 -243v-319q0 -156 46 -213t183 -58v-155q-137 1 -183 -57t-46 -214v-335q0 -166 -76 -243t-264 -77h-123v170h102z" />
    <glyph glyph-name="asciitilde" unicode="~" horiz-adv-x="1163" 
d="M106 367q0 165 78 249t195 84q80 0 156 -36t137 -75q61 -38 108 -38q102 0 103 154h176q0 -164 -77 -249t-189 -85q-80 0 -158 40q-78 41 -141 79t-109 38q-102 0 -102 -161h-177z" />
    <glyph glyph-name="exclamdown" unicode="&#xa1;" horiz-adv-x="581" 
d="M414 -410h-246v390l59 614h125l62 -614v-390zM168 999h244v-245h-244v245z" />
    <glyph glyph-name="cent" unicode="&#xa2;" horiz-adv-x="1163" 
d="M102 710q0 212 115 350t299 169v205h197v-205q156 -25 249 -122t109 -237h-219q-14 84 -76 136t-176 53q-116 0 -192 -96t-76 -250t77 -250t191 -96t176 52q61 52 76 136h219q-16 -141 -110 -239t-256 -121v-220h-197v220q-190 31 -298 167t-108 348z" />
    <glyph glyph-name="sterling" unicode="&#xa3;" horiz-adv-x="1163" 
d="M238 94q92 0 129 139q-72 43 -119 43t-75 -26t-28 -67t24 -65t69 -24zM623 1268q-74 0 -122 -48t-48 -138t69 -283h320v-140h-273q29 -99 29 -195t-31 -196q173 -116 250 -116q123 0 131 196h178q-20 -373 -301 -373q-81 0 -155 40t-166 114q-98 -154 -268 -154
q-102 1 -166 55t-64 152t68 158t178 61q68 0 135 -28q2 19 2 83t-45 203h-221v140h170q-59 160 -60 274q0 164 108 262q108 99 285 99t274 -92t108 -269h-209q-20 195 -176 195z" />
    <glyph glyph-name="currency" unicode="&#xa4;" horiz-adv-x="1163" 
d="M582 512q80 0 132 53t52 139t-52 140q-52 53 -132 53t-132 -53t-52 -139q0 -85 52 -139t132 -54zM236 706q0 96 61 185l-123 123l105 102l120 -125q85 49 181 49t182 -49l123 125l104 -102l-123 -123q124 -182 2 -371l123 -123l-104 -102l-123 123q-76 -49 -184 -49
t-181 49l-123 -123l-104 102l121 123q-57 90 -57 186z" />
    <glyph glyph-name="yen" unicode="&#xa5;" horiz-adv-x="1163" 
d="M174 618h297v5l-453 786h254l314 -571h8l315 571h236l-453 -788v-3h297v-124h-297v-146h297v-125h-297v-223h-221v223h-297v125h297v146h-297v124z" />
    <glyph glyph-name="brokenbar" unicode="&#xa6;" horiz-adv-x="555" 
d="M180 385h195v-721h-195v721zM180 1409h195v-721h-195v721z" />
    <glyph glyph-name="section" unicode="&#xa7;" horiz-adv-x="1175" 
d="M858 475q0 82 -48 128t-157 81l-127 37q-100 -25 -154 -86t-54 -143t48 -130t156 -79l115 -35q106 25 164 85q57 60 57 142zM813 -138q0 76 -46 114t-146 69l-195 57q-315 92 -315 359q0 106 63 191t174 128q-197 92 -196 293q0 166 120 263q121 98 323 98q201 0 321 -82
t133 -244h-207q-8 86 -74 128t-174 42t-170 -47t-62 -125t46 -116t145 -68l197 -58q313 -92 313 -358q1 -106 -63 -192t-175 -130q199 -90 199 -290q0 -166 -121 -264t-323 -97q-202 0 -322 82t-131 244h207q16 -170 246 -170q108 0 171 48q62 48 62 125z" />
    <glyph glyph-name="dieresis" unicode="&#xa8;" horiz-adv-x="1173" 
d="M696 1442h209v-213h-209v213zM266 1442h211v-213h-211v213z" />
    <glyph glyph-name="copyright" unicode="&#xa9;" horiz-adv-x="1589" 
d="M780 352q-144 0 -242 102t-98 258q0 155 98 258t242 103q144 1 227 -65t101 -177h-160q-33 104 -151 105q-83 0 -137 -65t-54 -159t53 -160q53 -65 138 -65q119 0 151 107h160q-18 -110 -101 -176t-227 -66zM1360 712q0 254 -159 418t-407 164t-406 -164
q-159 -164 -159 -418q0 -253 160 -429q160 -177 404 -177q243 0 405 176t162 430zM795 -25q-311 -1 -517 213t-206 524t204 516q206 206 516 206t518 -207t208 -516t-206 -523t-517 -213z" />
    <glyph glyph-name="ordfeminine" unicode="&#xaa;" horiz-adv-x="808" 
d="M258 905q0 -90 109 -90q71 0 117 43t46 123v61q-18 -25 -67 -30l-103 -13q-102 -14 -102 -94zM307 688q-111 0 -173 55t-62 146q0 182 235 215l133 16q50 6 70 18t20 53q0 40 -30 72q-31 32 -92 31q-123 0 -132 -114h-174q8 125 94 186t212 61q309 0 309 -262v-460h-180
v83h-7q-65 -100 -223 -100z" />
    <glyph glyph-name="guillemotleft" unicode="&#xab;" horiz-adv-x="1099" 
d="M815 934h182l-233 -418l233 -418h-182l-293 418zM102 516l293 418h183l-234 -418l234 -418h-183z" />
    <glyph glyph-name="logicalnot" unicode="&#xac;" horiz-adv-x="1163" 
d="M117 610h930v-553h-191v373h-739v180z" />
    <glyph glyph-name="uni00AD" unicode="&#xad;" horiz-adv-x="811" 
d="M115 612h581v-192h-581v192z" />
    <glyph glyph-name="registered" unicode="&#xae;" horiz-adv-x="1589" 
d="M666 930v-191h161q55 0 84 27t29 72q0 92 -113 92h-161zM500 1065h334q132 0 202 -59t70 -166q0 -72 -41 -128t-113 -85l178 -267h-178l-153 246h-133v-246h-166v705zM1360 712q0 254 -159 418t-407 164t-406 -164q-159 -164 -159 -418q0 -253 160 -429
q160 -177 404 -177q243 0 405 176t162 430zM795 -25q-311 -1 -517 213t-206 524t204 516q206 206 516 206t518 -207t208 -516t-206 -523t-517 -213z" />
    <glyph glyph-name="macron" unicode="&#xaf;" horiz-adv-x="1173" 
d="M289 1411h588v-160h-588v160z" />
    <glyph glyph-name="degree" unicode="&#xb0;" horiz-adv-x="774" 
d="M526 1140q0 68 -39 108t-99 40t-100 -41t-40 -107t40 -106q40 -41 100 -41t99 40t39 107zM387 846q-131 0 -218 82t-87 212t87 212t218 82t218 -82t87 -212t-87 -212t-218 -82z" />
    <glyph glyph-name="plusminus" unicode="&#xb1;" horiz-adv-x="1163" 
d="M115 180h934v-180h-934v180zM119 838h368v344h189v-344h373v-179h-373v-344h-189v344h-368v179z" />
    <glyph glyph-name="acute" unicode="&#xb4;" horiz-adv-x="1173" 
d="M717 1499h246l-299 -336h-156z" />
    <glyph glyph-name="uni00B5" unicode="&#xb5;" horiz-adv-x="1191" 
d="M369 -309v-142h-224v1450h224v-577q0 -142 53 -204t160 -62q106 0 174 88t67 235v520h221v-999h-210v145h-9q-84 -170 -301 -170q-96 0 -174 48h-6q25 -197 25 -332z" />
    <glyph glyph-name="paragraph" unicode="&#xb6;" horiz-adv-x="1286" 
d="M893 1409h209v-1409h-209v1409zM82 966q0 198 138 320q138 123 378 123h135v-1409h-209v510q-206 20 -324 139t-118 317z" />
    <glyph glyph-name="periodcentered" unicode="&#xb7;" horiz-adv-x="559" 
d="M147 643h265v-254h-265v254z" />
    <glyph glyph-name="cedilla" unicode="&#xb8;" horiz-adv-x="1173" 
d="M625 0v-76q90 -4 139 -54t49 -131t-61 -135t-179 -55h-124v121h108q100 0 100 77t-100 77h-68l62 176h74z" />
    <glyph glyph-name="ordmasculine" unicode="&#xba;" horiz-adv-x="862" 
d="M254 1058q0 -98 48 -160t129 -62t129 61t48 161t-48 160t-129 60t-129 -61t-48 -159zM429 688q-169 0 -268 99t-99 269t100 270q102 101 271 101t269 -100t100 -269q0 -170 -102 -270t-271 -100z" />
    <glyph glyph-name="guillemotright" unicode="&#xbb;" horiz-adv-x="1099" 
d="M756 516l-234 418h183l292 -418l-292 -418h-183zM336 516l-234 418h183l293 -418l-293 -418h-183z" />
    <glyph glyph-name="onequarter" unicode="&#xbc;" horiz-adv-x="1624" 
d="M1292 262v219l-174 -219h174zM1473 707v-445h96v-137h-96v-125h-181v125h-358v106l385 476h154zM487 1409v-561h189v-143h-572v143h201v348l-151 -88l-74 125l297 176h110zM455 -25q306 619 712 1459h154l-713 -1459h-153z" />
    <glyph glyph-name="onehalf" unicode="&#xbd;" horiz-adv-x="1624" 
d="M950 0q0 147 64 225t174 131l43 21q141 66 141 121q0 88 -116 88t-126 -121h-172q4 129 90 192t214 63t208 -56t80 -152t-56 -147t-167 -103l-41 -20q-123 -55 -123 -99h385v-143h-598zM487 1409v-561h189v-143h-572v143h201v348l-151 -88l-74 125l297 176h110zM408 -25
q306 619 712 1459h154l-713 -1459h-153z" />
    <glyph glyph-name="threequarters" unicode="&#xbe;" horiz-adv-x="1624" 
d="M1292 262v219l-174 -219h174zM1473 707v-445h96v-137h-96v-125h-181v125h-358v106l385 476h154zM240 920q0 -51 34 -80t94 -29q58 0 94 26q36 25 36 73t-36 74t-97 26h-50v114h50q119 0 118 90q0 88 -114 89q-53 0 -84 -27t-31 -74h-168q2 106 80 164t207 59
q129 0 206 -55t76 -143q0 -59 -31 -102q-32 -42 -85 -54v-6q63 -14 101 -59t38 -111q0 -99 -81 -153t-228 -54q-297 0 -299 232h170zM426 -25q485 994 713 1459h151l-712 -1459h-152z" />
    <glyph glyph-name="questiondown" unicode="&#xbf;" horiz-adv-x="1044" 
d="M432 516v70h215v-54q0 -104 -36 -181t-88 -121t-104 -80q-124 -87 -124 -186q0 -98 60 -156t173 -58t175 75t63 191h217q0 -190 -119 -320t-334 -130q-216 0 -338 102t-122 275q0 174 127 276q53 43 107 82q128 92 128 215zM418 999h244v-245h-244v245z" />
    <glyph glyph-name="Agrave" unicode="&#xc0;" horiz-adv-x="1361" 
d="M674 1180l-230 -645h465l-227 645h-8zM545 1409h272l524 -1409h-243l-121 342h-602l-121 -342h-234zM303 1909h246l209 -336h-156z" />
    <glyph glyph-name="Aacute" unicode="&#xc1;" horiz-adv-x="1361" 
d="M674 1180l-230 -645h465l-227 645h-8zM545 1409h272l524 -1409h-243l-121 342h-602l-121 -342h-234zM809 1909h246l-299 -336h-156z" />
    <glyph glyph-name="Acircumflex" unicode="&#xc2;" horiz-adv-x="1361" 
d="M674 1180l-230 -645h465l-227 645h-8zM545 1409h272l524 -1409h-243l-121 342h-602l-121 -342h-234zM588 1909h182l262 -336h-194l-160 217l-158 -217h-194z" />
    <glyph glyph-name="Atilde" unicode="&#xc3;" horiz-adv-x="1361" 
d="M674 1180l-230 -645h465l-227 645h-8zM545 1409h272l524 -1409h-243l-121 342h-602l-121 -342h-234zM522 1860q82 0 178 -48t129 -47q70 0 86 99h111q-4 -108 -56 -174t-134 -66t-179 47q-98 47 -129 47q-74 0 -86 -98h-110q4 108 56 174t134 66z" />
    <glyph glyph-name="Adieresis" unicode="&#xc4;" horiz-adv-x="1361" 
d="M674 1180l-230 -645h465l-227 645h-8zM545 1409h272l524 -1409h-243l-121 342h-602l-121 -342h-234zM788 1851h209v-213h-209v213zM358 1851h211v-213h-211v213z" />
    <glyph glyph-name="Aring" unicode="&#xc5;" horiz-adv-x="1361" 
d="M674 1180l-230 -645h465l-227 645h-8zM545 1409h272l524 -1409h-243l-121 342h-602l-121 -342h-234zM575 1757q0 -43 31 -73t73 -29q42 -1 73 29t30 73q0 43 -30 73q-31 30 -74 30t-73 -30t-30 -73zM678 1554q-88 0 -150 58t-61 145q0 87 62 145q61 58 149 58t150 -57
t62 -145t-62 -146t-150 -58z" />
    <glyph glyph-name="AE" unicode="&#xc6;" horiz-adv-x="2234" 
d="M1122 512v649h-8l-465 -649h473zM2111 1409v-197h-757v-399h606v-190h-606v-426h776v-197h-1008v322h-608l-229 -322h-269l1018 1409h1077z" />
    <glyph glyph-name="Ccedilla" unicode="&#xc7;" horiz-adv-x="1478" 
d="M90 709q0 313 192 519t500 206q250 0 409 -129t202 -351h-236q-76 274 -375 275q-204 1 -328 -145t-124 -377t124 -379t322 -148q305 0 381 275h236q-41 -211 -192 -339t-386 -139v-53q90 -4 139 -54q50 -50 50 -131t-62 -135t-178 -55h-125v121h109q100 0 100 77
t-100 77h-68l53 153q-291 15 -467 217t-176 515z" />
    <glyph glyph-name="Egrave" unicode="&#xc8;" horiz-adv-x="1282" 
d="M172 1409h987v-197h-756v-399h607v-190h-607v-426h775v-197h-1006v1409zM293 1909h246l209 -336h-156z" />
    <glyph glyph-name="Eacute" unicode="&#xc9;" horiz-adv-x="1282" 
d="M172 1409h987v-197h-756v-399h607v-190h-607v-426h775v-197h-1006v1409zM799 1909h245l-299 -336h-155z" />
    <glyph glyph-name="Ecircumflex" unicode="&#xca;" horiz-adv-x="1282" 
d="M172 1409h987v-197h-756v-399h607v-190h-607v-426h775v-197h-1006v1409zM578 1909h182l262 -336h-195l-159 217l-158 -217h-195z" />
    <glyph glyph-name="Edieresis" unicode="&#xcb;" horiz-adv-x="1282" 
d="M172 1409h987v-197h-756v-399h607v-190h-607v-426h775v-197h-1006v1409zM778 1851h209v-213h-209v213zM348 1851h211v-213h-211v213z" />
    <glyph glyph-name="Igrave" unicode="&#xcc;" horiz-adv-x="577" 
d="M172 1409h231v-1409h-231v1409zM-86 1909h246l209 -336h-156z" />
    <glyph glyph-name="Iacute" unicode="&#xcd;" horiz-adv-x="577" 
d="M172 1409h231v-1409h-231v1409zM420 1909h246l-299 -336h-156z" />
    <glyph glyph-name="Icircumflex" unicode="&#xce;" horiz-adv-x="577" 
d="M172 1409h231v-1409h-231v1409zM199 1909h182l262 -336h-194l-160 217l-158 -217h-194z" />
    <glyph glyph-name="Idieresis" unicode="&#xcf;" horiz-adv-x="577" 
d="M172 1409h231v-1409h-231v1409zM399 1851h209v-213h-209v213zM-31 1851h211v-213h-211v213z" />
    <glyph glyph-name="Eth" unicode="&#xd0;" horiz-adv-x="1474" 
d="M403 1212v-424h318v-161h-318v-430h228q264 0 388 142q124 141 124 365t-124 366t-388 142h-228zM8 788h164v621h469q356 0 550 -194q193 -195 193 -511t-194 -510t-549 -194h-469v627h-164v161z" />
    <glyph glyph-name="Ntilde" unicode="&#xd1;" horiz-adv-x="1533" 
d="M172 1409h215l741 -1016h9l-9 1016h234v-1409h-213l-746 1012h-8l8 -1012h-231v1409zM610 1860q82 0 178 -48t130 -47q70 0 86 99h110q-4 -108 -56 -174t-134 -66t-179 47q-98 47 -129 47q-74 0 -86 -98h-110q4 108 56 174t134 66z" />
    <glyph glyph-name="Ograve" unicode="&#xd2;" horiz-adv-x="1587" 
d="M330 705q0 -229 128 -377t336 -148t336 148t127 376q0 230 -128 377q-127 147 -335 147t-336 -146q-128 -148 -128 -377zM90 705q0 319 194 524t506 205t510 -206t197 -523q0 -317 -198 -523q-197 -206 -509 -207t-506 205t-194 525zM418 1909h246l208 -336h-155z" />
    <glyph glyph-name="Oacute" unicode="&#xd3;" horiz-adv-x="1587" 
d="M330 705q0 -229 128 -377t336 -148t336 148t127 376q0 230 -128 377q-127 147 -335 147t-336 -146q-128 -148 -128 -377zM90 705q0 319 194 524t506 205t510 -206t197 -523q0 -317 -198 -523q-197 -206 -509 -207t-506 205t-194 525zM924 1909h245l-299 -336h-155z" />
    <glyph glyph-name="Ocircumflex" unicode="&#xd4;" horiz-adv-x="1587" 
d="M330 705q0 -229 128 -377t336 -148t336 148t127 376q0 230 -128 377q-127 147 -335 147t-336 -146q-128 -148 -128 -377zM90 705q0 319 194 524t506 205t510 -206t197 -523q0 -317 -198 -523q-197 -206 -509 -207t-506 205t-194 525zM702 1909h183l262 -336h-195
l-159 217l-158 -217h-195z" />
    <glyph glyph-name="Otilde" unicode="&#xd5;" horiz-adv-x="1587" 
d="M330 705q0 -229 128 -377t336 -148t336 148t127 376q0 230 -128 377q-127 147 -335 147t-336 -146q-128 -148 -128 -377zM90 705q0 319 194 524t506 205t510 -206t197 -523q0 -317 -198 -523q-197 -206 -509 -207t-506 205t-194 525zM636 1860q81 0 178 -48t130 -47
q70 0 86 99h111q-5 -108 -57 -174t-133 -66t-179 47t-129 47q-74 0 -86 -98h-111q4 108 56 174t134 66z" />
    <glyph glyph-name="Odieresis" unicode="&#xd6;" horiz-adv-x="1587" 
d="M330 705q0 -229 128 -377t336 -148t336 148t127 376q0 230 -128 377q-127 147 -335 147t-336 -146q-128 -148 -128 -377zM90 705q0 319 194 524t506 205t510 -206t197 -523q0 -317 -198 -523q-197 -206 -509 -207t-506 205t-194 525zM903 1851h209v-213h-209v213z
M473 1851h211v-213h-211v213z" />
    <glyph glyph-name="multiply" unicode="&#xd7;" horiz-adv-x="1163" 
d="M274 958l308 -311l307 311l129 -127l-309 -311l311 -313l-129 -127l-309 311l-310 -311l-129 127l312 313l-310 311z" />
    <glyph glyph-name="Oslash" unicode="&#xd8;" horiz-adv-x="1587" 
d="M793 180q209 0 337 148t127 363q0 215 -102 356l-633 -781q115 -86 271 -86zM793 1229q-207 1 -335 -147t-128 -366t100 -356l633 781q-117 88 -270 88zM90 702q0 320 196 526t507 206q231 0 407 -125l100 125h170l-170 -209q197 -209 197 -522t-199 -521t-505 -207
q-236 0 -410 121l-98 -121h-168l168 207q-195 200 -195 520z" />
    <glyph glyph-name="Ugrave" unicode="&#xd9;" horiz-adv-x="1460" 
d="M143 1409h232v-846q0 -184 89 -283q89 -100 265 -100t265 98t89 285v846h232v-848q0 -586 -586 -586q-274 1 -430 141t-156 445v848zM354 1909h246l209 -336h-156z" />
    <glyph glyph-name="Uacute" unicode="&#xda;" horiz-adv-x="1460" 
d="M143 1409h232v-846q0 -184 89 -283q89 -100 265 -100t265 98t89 285v846h232v-848q0 -586 -586 -586q-274 1 -430 141t-156 445v848zM860 1909h246l-299 -336h-156z" />
    <glyph glyph-name="Ucircumflex" unicode="&#xdb;" horiz-adv-x="1460" 
d="M143 1409h232v-846q0 -184 89 -283q89 -100 265 -100t265 98t89 285v846h232v-848q0 -586 -586 -586q-274 1 -430 141t-156 445v848zM639 1909h182l262 -336h-194l-160 217l-158 -217h-194z" />
    <glyph glyph-name="Udieresis" unicode="&#xdc;" horiz-adv-x="1460" 
d="M143 1409h232v-846q0 -184 89 -283q89 -100 265 -100t265 98t89 285v846h232v-848q0 -586 -586 -586q-274 1 -430 141t-156 445v848zM840 1851h209v-213h-209v213zM410 1851h211v-213h-211v213z" />
    <glyph glyph-name="Yacute" unicode="&#xdd;" horiz-adv-x="1304" 
d="M764 0h-232v545l-509 864h262l364 -635h8l379 635h244l-516 -854v-555zM782 1909h246l-299 -336h-156z" />
    <glyph glyph-name="Thorn" unicode="&#xde;" horiz-adv-x="1341" 
d="M403 993v-549h330q139 0 213 79t74 201t-74 196t-213 73h-330zM172 1409h231v-223h340q242 0 376 -126t134 -334t-135 -341t-375 -133h-340v-252h-231v1409z" />
    <glyph glyph-name="germandbls" unicode="&#xdf;" horiz-adv-x="1210" 
d="M150 1036q0 242 128 365t336 123t309 -93t101 -227q0 -70 -32 -129t-70 -91q-102 -87 -101 -150q0 -64 117 -145q49 -34 98 -74q49 -39 83 -105t34 -150q0 -172 -114 -266t-291 -94h-195v176h180q92 0 146 43q53 43 53 111t-33 111q-33 44 -79 75t-93 64t-80 91t-33 133
t32 132t71 89q102 84 102 173q0 62 -53 108t-160 46q-108 0 -172 -75t-63 -235v-1042h-221v1036z" />
    <glyph glyph-name="agrave" unicode="&#xe0;" horiz-adv-x="1107" 
d="M313 279q0 -63 44 -101q43 -38 141 -37q98 0 175 70t77 199v92q-29 -35 -103 -47l-172 -29q-162 -25 -162 -147zM92 255q0 128 80 203t254 103l195 33q77 12 103 26t26 42q0 197 -197 196q-97 0 -151 -47t-60 -129h-211q10 156 123 249q114 93 310 93t301 -94t106 -273
v-657h-211v125h-10q-92 -150 -320 -150q-162 0 -250 76t-88 204zM188 1499h246l209 -336h-156z" />
    <glyph glyph-name="aacute" unicode="&#xe1;" horiz-adv-x="1107" 
d="M313 279q0 -63 44 -101q43 -38 141 -37q98 0 175 70t77 199v92q-29 -35 -103 -47l-172 -29q-162 -25 -162 -147zM92 255q0 128 80 203t254 103l195 33q77 12 103 26t26 42q0 197 -197 196q-97 0 -151 -47t-60 -129h-211q10 156 123 249q114 93 310 93t301 -94t106 -273
v-657h-211v125h-10q-92 -150 -320 -150q-162 0 -250 76t-88 204zM662 1499h245l-299 -336h-155z" />
    <glyph glyph-name="acircumflex" unicode="&#xe2;" horiz-adv-x="1107" 
d="M313 279q0 -63 44 -101q43 -38 141 -37q98 0 175 70t77 199v92q-29 -35 -103 -47l-172 -29q-162 -25 -162 -147zM92 255q0 128 80 203t254 103l195 33q77 12 103 26t26 42q0 197 -197 196q-97 0 -151 -47t-60 -129h-211q10 156 123 249q114 93 310 93t301 -94t106 -273
v-657h-211v125h-10q-92 -150 -320 -150q-162 0 -250 76t-88 204zM457 1499h182l262 -336h-194l-160 217l-158 -217h-194z" />
    <glyph glyph-name="atilde" unicode="&#xe3;" horiz-adv-x="1107" 
d="M313 279q0 -63 44 -101q43 -38 141 -37q98 0 175 70t77 199v92q-29 -35 -103 -47l-172 -29q-162 -25 -162 -147zM92 255q0 128 80 203t254 103l195 33q77 12 103 26t26 42q0 197 -197 196q-97 0 -151 -47t-60 -129h-211q10 156 123 249q114 93 310 93t301 -94t106 -273
v-657h-211v125h-10q-92 -150 -320 -150q-162 0 -250 76t-88 204zM390 1450q82 0 178 -47t130 -47q70 0 86 98h111q-4 -108 -56 -174q-51 -66 -133 -66t-180 48t-129 47q-74 0 -86 -99h-110q4 108 56 174q51 66 133 66z" />
    <glyph glyph-name="adieresis" unicode="&#xe4;" horiz-adv-x="1107" 
d="M313 279q0 -63 44 -101q43 -38 141 -37q98 0 175 70t77 199v92q-29 -35 -103 -47l-172 -29q-162 -25 -162 -147zM92 255q0 128 80 203t254 103l195 33q77 12 103 26t26 42q0 197 -197 196q-97 0 -151 -47t-60 -129h-211q10 156 123 249q114 93 310 93t301 -94t106 -273
v-657h-211v125h-10q-92 -150 -320 -150q-162 0 -250 76t-88 204zM657 1442h209v-213h-209v213zM227 1442h211v-213h-211v213z" />
    <glyph glyph-name="aring" unicode="&#xe5;" horiz-adv-x="1107" 
d="M313 279q0 -63 44 -101q43 -38 141 -37q98 0 175 70t77 199v92q-29 -35 -103 -47l-172 -29q-162 -25 -162 -147zM92 255q0 128 80 203t254 103l195 33q77 12 103 26t26 42q0 197 -197 196q-97 0 -151 -47t-60 -129h-211q10 156 123 249q114 93 310 93t301 -94t106 -273
v-657h-211v125h-10q-92 -150 -320 -150q-162 0 -250 76t-88 204zM548 1245q42 0 73 30t30 73q-1 42 -31 72t-73 30t-73 -30t-30 -72t31 -73q31 -30 73 -30zM547 1145q-88 0 -150 57q-61 58 -61 146t62 145t150 57t149 -57q63 -57 63 -145t-62 -146t-151 -57z" />
    <glyph glyph-name="ae" unicode="&#xe6;" horiz-adv-x="1753" 
d="M313 279q0 -137 170 -138q115 0 191 68t76 201v92q-29 -35 -103 -47l-172 -29q-162 -27 -162 -147zM1226 852q-98 0 -162 -64t-87 -178h473q-8 114 -66 178t-158 64zM553 1024q240 0 338 -133q123 133 331 133t332 -130t125 -357v-74h-710q8 -150 79 -232t185 -81
q178 0 219 153h217q-23 -137 -143 -232t-295 -96q-274 0 -393 201q-119 -201 -396 -201q-168 0 -259 76t-91 205q0 252 334 305l195 33q81 12 105 28t24 52q0 80 -50 132t-143 52q-94 0 -151 -45t-64 -131h-211q12 172 130 257t292 85z" />
    <glyph glyph-name="ccedilla" unicode="&#xe7;" horiz-adv-x="1093" 
d="M78 503q0 237 139 379t348 142t328 -102t137 -265h-219q-13 85 -73 137t-170 52t-186 -96t-75 -250q0 -154 76 -250t192 -96q201 0 236 188h219q-18 -154 -124 -254t-292 -111v-53q90 -4 140 -54t49 -131q1 -81 -61 -135t-179 -55h-125v121h109q100 0 100 77t-100 77h-68
l53 153q-214 13 -334 151t-120 375z" />
    <glyph glyph-name="egrave" unicode="&#xe8;" horiz-adv-x="1114" 
d="M573 852q-99 0 -167 -64t-91 -176h500q-27 240 -242 240zM78 493q0 241 139 386t354 145t342 -129t127 -358v-74h-735q10 -145 84 -229q75 -84 183 -84t166 44t75 109h217q-24 -139 -146 -233t-304 -95q-240 1 -371 139t-131 379zM199 1499h245l209 -336h-155z" />
    <glyph glyph-name="eacute" unicode="&#xe9;" horiz-adv-x="1114" 
d="M573 852q-99 0 -167 -64t-91 -176h500q-27 240 -242 240zM78 493q0 241 139 386t354 145t342 -129t127 -358v-74h-735q10 -145 84 -229q75 -84 183 -84t166 44t75 109h217q-24 -139 -146 -233t-304 -95q-240 1 -371 139t-131 379zM705 1499h245l-299 -336h-155z" />
    <glyph glyph-name="ecircumflex" unicode="&#xea;" horiz-adv-x="1114" 
d="M573 852q-99 0 -167 -64t-91 -176h500q-27 240 -242 240zM78 493q0 241 139 386t354 145t342 -129t127 -358v-74h-735q10 -145 84 -229q75 -84 183 -84t166 44t75 109h217q-24 -139 -146 -233t-304 -95q-240 1 -371 139t-131 379zM483 1499h183l262 -336h-195l-160 217
l-157 -217h-195z" />
    <glyph glyph-name="edieresis" unicode="&#xeb;" horiz-adv-x="1114" 
d="M573 852q-99 0 -167 -64t-91 -176h500q-27 240 -242 240zM78 493q0 241 139 386t354 145t342 -129t127 -358v-74h-735q10 -145 84 -229q75 -84 183 -84t166 44t75 109h217q-24 -139 -146 -233t-304 -95q-240 1 -371 139t-131 379zM684 1442h209v-213h-209v213zM254 1442
h211v-213h-211v213z" />
    <glyph glyph-name="igrave" unicode="&#xec;" horiz-adv-x="522" 
d="M150 999h221v-999h-221v999zM-115 1499h246l209 -336h-156z" />
    <glyph glyph-name="iacute" unicode="&#xed;" horiz-adv-x="522" 
d="M150 999h221v-999h-221v999zM391 1499h246l-299 -336h-156z" />
    <glyph glyph-name="icircumflex" unicode="&#xee;" horiz-adv-x="522" 
d="M150 999h221v-999h-221v999zM170 1499h182l262 -336h-194l-160 217l-158 -217h-194z" />
    <glyph glyph-name="idieresis" unicode="&#xef;" horiz-adv-x="522" 
d="M150 999h221v-999h-221v999zM371 1442h209v-213h-209v213zM-59 1442h211v-213h-211v213z" />
    <glyph glyph-name="eth" unicode="&#xf0;" horiz-adv-x="1214" 
d="M317 467q0 -137 80 -225t207 -88t207 87t80 227t-79 226t-207 86t-208 -88t-80 -225zM1122 553v-4q0 -277 -141 -425t-377 -148t-375 136t-139 353t141 355t341 138t296 -112h11q-66 227 -232 352l-219 -149l-74 104l172 119q-102 51 -243 94l53 158q213 -61 354 -140
l199 138l72 -107l-154 -106q155 -117 235 -295t80 -461z" />
    <glyph glyph-name="ntilde" unicode="&#xf1;" horiz-adv-x="1189" 
d="M150 999h212v-145h9q86 170 309 170q166 0 270 -99t105 -319v-606h-221v578q0 266 -213 266q-109 0 -180 -87t-70 -235v-522h-221v999zM444 1450q82 0 178 -47q97 -47 130 -47q70 0 86 98h110q-4 -108 -56 -174t-134 -66t-178 48q-98 48 -129 47q-74 0 -86 -99h-111
q4 108 56 174t134 66z" />
    <glyph glyph-name="ograve" unicode="&#xf2;" horiz-adv-x="1181" 
d="M309 500q0 -156 77 -251t204 -95t204 95q76 95 76 254t-76 251q-77 92 -204 92t-204 -95t-77 -251zM594 1024q230 0 368 -140t138 -382t-142 -384t-372 -142t-368 140t-138 382t142 384t372 142zM215 1499h246l209 -336h-156z" />
    <glyph glyph-name="oacute" unicode="&#xf3;" horiz-adv-x="1181" 
d="M309 500q0 -156 77 -251t204 -95t204 95q76 95 76 254t-76 251q-77 92 -204 92t-204 -95t-77 -251zM594 1024q230 0 368 -140t138 -382t-142 -384t-372 -142t-368 140t-138 382t142 384t372 142zM721 1499h246l-299 -336h-156z" />
    <glyph glyph-name="ocircumflex" unicode="&#xf4;" horiz-adv-x="1181" 
d="M309 500q0 -156 77 -251t204 -95t204 95q76 95 76 254t-76 251q-77 92 -204 92t-204 -95t-77 -251zM594 1024q230 0 368 -140t138 -382t-142 -384t-372 -142t-368 140t-138 382t142 384t372 142zM500 1499h182l262 -336h-194l-160 217l-158 -217h-194z" />
    <glyph glyph-name="otilde" unicode="&#xf5;" horiz-adv-x="1181" 
d="M309 500q0 -156 77 -251t204 -95t204 95q76 95 76 254t-76 251q-77 92 -204 92t-204 -95t-77 -251zM594 1024q230 0 368 -140t138 -382t-142 -384t-372 -142t-368 140t-138 382t142 384t372 142zM434 1450q82 0 178 -47t129 -47q70 0 86 98h111q-4 -108 -56 -174
t-134 -66t-179 48q-98 48 -129 47q-74 0 -86 -99h-110q4 108 56 174t134 66z" />
    <glyph glyph-name="odieresis" unicode="&#xf6;" horiz-adv-x="1181" 
d="M309 500q0 -156 77 -251t204 -95t204 95q76 95 76 254t-76 251q-77 92 -204 92t-204 -95t-77 -251zM594 1024q230 0 368 -140t138 -382t-142 -384t-372 -142t-368 140t-138 382t142 384t372 142zM700 1442h209v-213h-209v213zM270 1442h211v-213h-211v213z" />
    <glyph glyph-name="divide" unicode="&#xf7;" horiz-adv-x="1163" 
d="M473 260h217v-221h-217v221zM115 610h934v-180h-934v180zM473 999h217v-221h-217v221z" />
    <glyph glyph-name="oslash" unicode="&#xf8;" horiz-adv-x="1177" 
d="M868 478q0 134 -43 220l-401 -489q68 -55 164 -55q127 0 204 95q76 95 76 229zM307 518q0 -138 45 -223l404 491q-70 60 -182 60t-190 -95q-77 -95 -77 -233zM78 501q0 237 142 380t368 143q172 0 297 -80l65 80h144l-125 -152q131 -142 131 -376t-142 -377t-370 -144
q-170 0 -293 76l-62 -76h-141l119 146q-133 143 -133 380z" />
    <glyph glyph-name="ugrave" unicode="&#xf9;" horiz-adv-x="1181" 
d="M133 999h221v-577q0 -266 213 -266q109 0 177 88t67 239v516h221v-999h-211v145h-8q-86 -170 -303 -170q-166 -1 -271 99t-106 319v606zM219 1499h246l209 -336h-156z" />
    <glyph glyph-name="uacute" unicode="&#xfa;" horiz-adv-x="1181" 
d="M133 999h221v-577q0 -266 213 -266q109 0 177 88t67 239v516h221v-999h-211v145h-8q-86 -170 -303 -170q-166 -1 -271 99t-106 319v606zM725 1499h246l-299 -336h-156z" />
    <glyph glyph-name="ucircumflex" unicode="&#xfb;" horiz-adv-x="1181" 
d="M133 999h221v-577q0 -266 213 -266q109 0 177 88t67 239v516h221v-999h-211v145h-8q-86 -170 -303 -170q-166 -1 -271 99t-106 319v606zM504 1499h182l262 -336h-194l-160 217l-158 -217h-194z" />
    <glyph glyph-name="udieresis" unicode="&#xfc;" horiz-adv-x="1181" 
d="M133 999h221v-577q0 -266 213 -266q109 0 177 88t67 239v516h221v-999h-211v145h-8q-86 -170 -303 -170q-166 -1 -271 99t-106 319v606zM705 1442h208v-213h-208v213zM274 1442h211v-213h-211v213z" />
    <glyph glyph-name="yacute" unicode="&#xfd;" horiz-adv-x="1009" 
d="M207 -467h-111v182h66q172 0 241 195l31 90h-53l-373 999h242l260 -770h8l260 770h223l-411 -1138q-117 -328 -383 -328zM633 1499h246l-299 -336h-156z" />
    <glyph glyph-name="thorn" unicode="&#xfe;" horiz-adv-x="1228" 
d="M918 507q0 161 -76 250t-195 89t-195 -88t-81 -242v-16q1 -160 77 -253t197 -93t197 96t76 257zM1149 508q0 -242 -132 -387t-345 -145t-301 174h-9q8 -133 9 -336v-265h-221v1950h221v-313q0 -205 -9 -336h9q88 174 331 174q195 0 321 -137t126 -379z" />
    <glyph glyph-name="ydieresis" unicode="&#xff;" horiz-adv-x="1009" 
d="M207 -467h-111v182h66q172 0 241 195l31 90h-53l-373 999h242l260 -770h8l260 770h223l-411 -1138q-117 -328 -383 -328zM612 1442h209v-213h-209v213zM182 1442h211v-213h-211v213z" />
    <glyph glyph-name="Amacron" unicode="&#x100;" horiz-adv-x="1361" 
d="M674 1180l-230 -645h465l-227 645h-8zM545 1409h272l524 -1409h-243l-121 342h-602l-121 -342h-234zM381 1821h588v-160h-588v160z" />
    <glyph glyph-name="amacron" unicode="&#x101;" horiz-adv-x="1107" 
d="M313 279q0 -63 44 -101q43 -38 141 -37q98 0 175 70t77 199v92q-29 -35 -103 -47l-172 -29q-162 -25 -162 -147zM92 255q0 128 80 203t254 103l195 33q77 12 103 26t26 42q0 197 -197 196q-97 0 -151 -47t-60 -129h-211q10 156 123 249q114 93 310 93t301 -94t106 -273
v-657h-211v125h-10q-92 -150 -320 -150q-162 0 -250 76t-88 204zM250 1411h588v-160h-588v160z" />
    <glyph glyph-name="Abreve" unicode="&#x102;" horiz-adv-x="1361" 
d="M674 1180l-230 -645h465l-227 645h-8zM545 1409h272l524 -1409h-243l-121 342h-602l-121 -342h-234zM679 1591q-118 0 -205 72t-101 227h129q28 -166 178 -166t176 166h129q-14 -156 -101 -228t-205 -71z" />
    <glyph glyph-name="abreve" unicode="&#x103;" horiz-adv-x="1107" 
d="M313 279q0 -63 44 -101q43 -38 141 -37q98 0 175 70t77 199v92q-29 -35 -103 -47l-172 -29q-162 -25 -162 -147zM92 255q0 128 80 203t254 103l195 33q77 12 103 26t26 42q0 197 -197 196q-97 0 -151 -47t-60 -129h-211q10 156 123 249q114 93 310 93t301 -94t106 -273
v-657h-211v125h-10q-92 -150 -320 -150q-162 0 -250 76t-88 204zM548 1182q-118 0 -205 72t-101 227h129q27 -166 177 -166t177 166h129q-14 -155 -101 -227t-205 -72z" />
    <glyph glyph-name="Aogonek" unicode="&#x104;" horiz-adv-x="1361" 
d="M674 1180l-230 -645h465l-227 645h-8zM1063 -262q0 125 166 262h-131l-121 342h-602l-121 -342h-234l525 1409h272l524 -1409h2q-123 -129 -122 -221q0 -94 108 -94h60v-136h-82q-119 1 -181 51t-63 138z" />
    <glyph glyph-name="aogonek" unicode="&#x105;" horiz-adv-x="1107" 
d="M313 279q0 -63 44 -101q43 -38 141 -37q98 0 175 70t77 199v92q-29 -35 -103 -47l-172 -29q-162 -25 -162 -147zM690 -262q0 125 166 262h-96v125h-10q-92 -150 -320 -150q-162 0 -250 76t-88 204t80 203t254 103l195 33q77 12 103 26t26 42q0 197 -197 196
q-97 0 -151 -47t-60 -129h-211q10 156 123 249q114 93 310 93t301 -94t106 -273v-657q-123 -129 -123 -222t108 -93h60v-136h-82q-120 1 -182 51t-62 138z" />
    <glyph glyph-name="Cacute" unicode="&#x106;" horiz-adv-x="1478" 
d="M774 -25q-308 0 -496 204q-188 203 -188 523t192 526t500 206q250 0 409 -129t202 -351h-236q-76 274 -375 275q-204 1 -328 -145t-124 -377t124 -379t322 -148q305 0 381 275h236q-43 -221 -205 -351t-414 -129zM913 1909h246l-299 -336h-155z" />
    <glyph glyph-name="cacute" unicode="&#x107;" horiz-adv-x="1093" 
d="M78 497q0 243 139 385t348 142t328 -102t137 -265h-219q-13 85 -73 137t-170 52t-186 -96t-75 -250q0 -154 76 -250t192 -96q201 0 236 188h219q-18 -164 -136 -265t-334 -101t-349 138q-133 140 -133 383zM707 1499h245l-299 -336h-155z" />
    <glyph glyph-name="Ccircumflex" unicode="&#x108;" horiz-adv-x="1478" 
d="M774 -25q-308 0 -496 204q-188 203 -188 523t192 526t500 206q250 0 409 -129t202 -351h-236q-76 274 -375 275q-204 1 -328 -145t-124 -377t124 -379t322 -148q305 0 381 275h236q-43 -221 -205 -351t-414 -129zM692 1909h182l263 -336h-195l-160 217l-157 -217h-195z
" />
    <glyph glyph-name="ccircumflex" unicode="&#x109;" horiz-adv-x="1093" 
d="M78 497q0 243 139 385t348 142t328 -102t137 -265h-219q-13 85 -73 137t-170 52t-186 -96t-75 -250q0 -154 76 -250t192 -96q201 0 236 188h219q-18 -164 -136 -265t-334 -101t-349 138q-133 140 -133 383zM485 1499h183l262 -336h-195l-160 217l-157 -217h-195z" />
    <glyph glyph-name="Cdotaccent" unicode="&#x10a;" horiz-adv-x="1478" 
d="M774 -25q-308 0 -496 204q-188 203 -188 523t192 526t500 206q250 0 409 -129t202 -351h-236q-76 274 -375 275q-204 1 -328 -145t-124 -377t124 -379t322 -148q305 0 381 275h236q-43 -221 -205 -351t-414 -129zM678 1851h211v-213h-211v213z" />
    <glyph glyph-name="cdotaccent" unicode="&#x10b;" horiz-adv-x="1093" 
d="M78 497q0 243 139 385t348 142t328 -102t137 -265h-219q-13 85 -73 137t-170 52t-186 -96t-75 -250q0 -154 76 -250t192 -96q201 0 236 188h219q-18 -164 -136 -265t-334 -101t-349 138q-133 140 -133 383zM471 1442h211v-213h-211v213z" />
    <glyph glyph-name="Ccaron" unicode="&#x10c;" horiz-adv-x="1478" 
d="M774 -25q-308 0 -496 204q-188 203 -188 523t192 526t500 206q250 0 409 -129t202 -351h-236q-76 274 -375 275q-204 1 -328 -145t-124 -377t124 -379t322 -148q305 0 381 275h236q-43 -221 -205 -351t-414 -129zM430 1909h195l157 -217l160 217h195l-263 -336h-182z" />
    <glyph glyph-name="ccaron" unicode="&#x10d;" horiz-adv-x="1093" 
d="M78 497q0 243 139 385t348 142t328 -102t137 -265h-219q-13 85 -73 137t-170 52t-186 -96t-75 -250q0 -154 76 -250t192 -96q201 0 236 188h219q-18 -164 -136 -265t-334 -101t-349 138q-133 140 -133 383zM223 1499h195l157 -217l160 217h195l-262 -336h-183z" />
    <glyph glyph-name="Dcaron" unicode="&#x10e;" horiz-adv-x="1474" 
d="M403 1212v-1015h228q264 0 388 142q124 141 124 365t-124 366t-388 142h-228zM172 1409h469q356 0 550 -194q193 -195 193 -511t-194 -510t-549 -194h-469v1409zM328 1909h194l158 -217l160 217h194l-262 -336h-182z" />
    <glyph glyph-name="dcaron" unicode="&#x10f;" horiz-adv-x="1228" 
d="M309 493q0 -161 76 -250t196 -89q119 0 195 88t80 241v17q0 162 -77 254t-197 92t-196 -96q-77 -96 -77 -257zM1229 1286v213h223v-192l-94 -250h-103l66 229h-92zM80 492q0 242 132 387t331 145q227 0 315 -174h8q-10 131 -10 336v313h221v-1499h-211v150h-8
q-88 -174 -332 -175q-194 -1 -320 137t-126 380z" />
    <glyph glyph-name="Dcroat" unicode="&#x110;" horiz-adv-x="1474" 
d="M403 1212v-424h318v-161h-318v-430h228q264 0 388 142q124 141 124 365t-124 366t-388 142h-228zM8 788h164v621h469q356 0 550 -194q193 -195 193 -511t-194 -510t-549 -194h-469v627h-164v161z" />
    <glyph glyph-name="dcroat" unicode="&#x111;" horiz-adv-x="1228" 
d="M309 493q0 -161 76 -250t197 -89q122 0 198 92t76 254v16q-4 154 -80 242t-194 88t-196 -96q-77 -96 -77 -257zM563 1341h293v158h221v-158h152v-133h-152v-1208h-211v150h-8q-88 -174 -332 -175q-194 -1 -320 137t-126 380t132 387t331 145q227 0 315 -174h8
q-10 131 -10 336v22h-293v133z" />
    <glyph glyph-name="Emacron" unicode="&#x112;" horiz-adv-x="1282" 
d="M172 1409h987v-197h-756v-399h607v-190h-607v-426h775v-197h-1006v1409zM371 1821h587v-160h-587v160z" />
    <glyph glyph-name="emacron" unicode="&#x113;" horiz-adv-x="1114" 
d="M573 852q-99 0 -167 -64t-91 -176h500q-27 240 -242 240zM78 493q0 241 139 386t354 145t342 -129t127 -358v-74h-735q10 -145 84 -229q75 -84 183 -84t166 44t75 109h217q-24 -139 -146 -233t-304 -95q-240 1 -371 139t-131 379zM276 1411h588v-160h-588v160z" />
    <glyph glyph-name="Ebreve" unicode="&#x114;" horiz-adv-x="1282" 
d="M172 1409h987v-197h-756v-399h607v-190h-607v-426h775v-197h-1006v1409zM669 1591q-118 0 -205 72t-102 227h130q28 -166 178 -166t176 166h129q-14 -156 -101 -228t-205 -71z" />
    <glyph glyph-name="ebreve" unicode="&#x115;" horiz-adv-x="1114" 
d="M573 852q-99 0 -167 -64t-91 -176h500q-27 240 -242 240zM78 493q0 241 139 386t354 145t342 -129t127 -358v-74h-735q10 -145 84 -229q75 -84 183 -84t166 44t75 109h217q-24 -139 -146 -233t-304 -95q-240 1 -371 139t-131 379zM574 1182q-118 0 -204 72t-102 227h129
q27 -166 177 -166t178 166h129q-13 -155 -101 -227t-206 -72z" />
    <glyph glyph-name="Edotaccent" unicode="&#x116;" horiz-adv-x="1282" 
d="M172 1409h987v-197h-756v-399h607v-190h-607v-426h775v-197h-1006v1409zM563 1851h211v-213h-211v213z" />
    <glyph glyph-name="edotaccent" unicode="&#x117;" horiz-adv-x="1114" 
d="M573 852q-99 0 -167 -64t-91 -176h500q-27 240 -242 240zM78 493q0 241 139 386t354 145t342 -129t127 -358v-74h-735q10 -145 84 -229q75 -84 183 -84t166 44t75 109h217q-24 -139 -146 -233t-304 -95q-240 1 -371 139t-131 379zM469 1442h211v-213h-211v213z" />
    <glyph glyph-name="Eogonek" unicode="&#x118;" horiz-adv-x="1282" 
d="M172 1409h987v-197h-756v-399h607v-190h-607v-426h775v-197h2q-123 -129 -123 -222t108 -93h60v-136h-82q-119 1 -181 51t-63 138q0 125 166 262h-893v1409z" />
    <glyph glyph-name="eogonek" unicode="&#x119;" horiz-adv-x="1114" 
d="M573 852q-99 0 -167 -64t-91 -176h500q-27 240 -242 240zM440 -252q0 125 160 227h-20q-240 1 -371 139t-131 379t139 386t354 145t342 -129t127 -358v-74h-735q10 -145 84 -229q75 -84 183 -84t166 44t75 109h217q-29 -162 -188 -262q-240 -150 -240 -256
q0 -100 109 -100h59v-136h-82q-248 0 -248 199z" />
    <glyph glyph-name="Ecaron" unicode="&#x11a;" horiz-adv-x="1282" 
d="M172 1409h987v-197h-756v-399h607v-190h-607v-426h775v-197h-1006v1409zM315 1909h195l158 -217l159 217h195l-262 -336h-182z" />
    <glyph glyph-name="ecaron" unicode="&#x11b;" horiz-adv-x="1114" 
d="M573 852q-99 0 -167 -64t-91 -176h500q-27 240 -242 240zM78 493q0 241 139 386t354 145t342 -129t127 -358v-74h-735q10 -145 84 -229q75 -84 183 -84t166 44t75 109h217q-24 -139 -146 -233t-304 -95q-240 1 -371 139t-131 379zM221 1499h195l157 -217l160 217h195
l-262 -336h-183z" />
    <glyph glyph-name="Gcircumflex" unicode="&#x11c;" horiz-adv-x="1570" 
d="M784 -25q-308 0 -500 206q-194 207 -194 525t197 523t512 205q253 0 417 -126t205 -323h-235q-33 106 -131 175t-256 69q-211 -1 -340 -147t-129 -377t129 -377t321 -148q192 0 312 98q121 98 120 265v24h-413v187h620v-754h-149l-31 186h-6q-141 -211 -449 -211z
M709 1909h182l262 -336h-195l-159 217l-158 -217h-195z" />
    <glyph glyph-name="gcircumflex" unicode="&#x11d;" horiz-adv-x="1228" 
d="M309 493q0 -161 76 -250t197 -89q122 0 198 92t76 254v16q-4 154 -80 242t-194 88t-196 -96q-77 -96 -77 -257zM567 -301q299 0 299 352v99h-8q-88 -174 -332 -175q-194 -1 -320 137t-126 380t132 387t331 145q227 0 315 -174h8v149h211v-948q0 -268 -137 -393
q-136 -125 -358 -125t-348 88t-128 256h209q2 -82 72 -130t180 -48zM492 1499h182l262 -336h-195l-159 217l-158 -217h-195z" />
    <glyph glyph-name="Gbreve" unicode="&#x11e;" horiz-adv-x="1570" 
d="M784 -25q-308 0 -500 206q-194 207 -194 525t197 523t512 205q253 0 417 -126t205 -323h-235q-33 106 -131 175t-256 69q-211 -1 -340 -147t-129 -377t129 -377t321 -148q192 0 312 98q121 98 120 265v24h-413v187h620v-754h-149l-31 186h-6q-141 -211 -449 -211z
M800 1591q-118 0 -205 72t-101 227h129q27 -166 177 -166t177 166h129q-14 -156 -101 -228t-205 -71z" />
    <glyph glyph-name="gbreve" unicode="&#x11f;" horiz-adv-x="1228" 
d="M309 493q0 -161 76 -250t197 -89q122 0 198 92t76 254v16q-4 154 -80 242t-194 88t-196 -96q-77 -96 -77 -257zM567 -301q299 0 299 352v99h-8q-88 -174 -332 -175q-194 -1 -320 137t-126 380t132 387t331 145q227 0 315 -174h8v149h211v-948q0 -268 -137 -393
q-136 -125 -358 -125t-348 88t-128 256h209q2 -82 72 -130t180 -48zM583 1182q-118 0 -205 72t-102 227h130q28 -166 178 -166t176 166h129q-14 -155 -101 -227t-205 -72z" />
    <glyph glyph-name="Gdotaccent" unicode="&#x120;" horiz-adv-x="1570" 
d="M784 -25q-308 0 -500 206q-194 207 -194 525t197 523t512 205q253 0 417 -126t205 -323h-235q-33 106 -131 175t-256 69q-211 -1 -340 -147t-129 -377t129 -377t321 -148q192 0 312 98q121 98 120 265v24h-413v187h620v-754h-149l-31 186h-6q-141 -211 -449 -211z
M694 1851h211v-213h-211v213z" />
    <glyph glyph-name="gdotaccent" unicode="&#x121;" horiz-adv-x="1228" 
d="M309 493q0 -161 76 -250t197 -89q122 0 198 92t76 254v16q-4 154 -80 242t-194 88t-196 -96q-77 -96 -77 -257zM567 -301q299 0 299 352v99h-8q-88 -174 -332 -175q-194 -1 -320 137t-126 380t132 387t331 145q227 0 315 -174h8v149h211v-948q0 -268 -137 -393
q-136 -125 -358 -125t-348 88t-128 256h209q2 -82 72 -130t180 -48zM477 1442h211v-213h-211v213z" />
    <glyph glyph-name="Gcommaaccent" unicode="&#x122;" horiz-adv-x="1570" 
d="M893 -131v-170l-88 -217h-96l61 192h-88v195h211zM784 -25q-308 0 -500 206q-194 207 -194 525t197 523t512 205q253 0 417 -126t205 -323h-235q-33 106 -131 175t-256 69q-211 -1 -340 -147t-129 -377t129 -377t321 -148q192 0 312 98q121 98 120 265v24h-413v187h620
v-754h-149l-31 186h-6q-141 -211 -449 -211z" />
    <glyph glyph-name="gcommaaccent" unicode="&#x123;" horiz-adv-x="1228" 
d="M309 493q0 -161 76 -250t197 -89q122 0 198 92t76 254v16q-4 154 -80 242t-194 88t-196 -96q-77 -96 -77 -257zM567 -301q299 0 299 352v99h-8q-88 -174 -332 -175q-194 -1 -320 137t-126 380t132 387t331 145q227 0 315 -174h8v149h211v-948q0 -268 -137 -393
q-136 -125 -358 -125t-348 88t-128 256h209q2 -82 72 -130t180 -48zM688 1356v-193h-211v170l88 215h97l-62 -192h88z" />
    <glyph glyph-name="Hcircumflex" unicode="&#x124;" horiz-adv-x="1517" 
d="M172 1409h231v-598h709v598h234v-1409h-234v614h-709v-614h-231v1409zM668 1909h182l262 -336h-194l-160 217l-158 -217h-194z" />
    <glyph glyph-name="hcircumflex" unicode="&#x125;" horiz-adv-x="1189" 
d="M150 1499h221v-309q0 -205 -9 -336h9q86 170 309 170q166 0 270 -99t105 -319v-606h-221v578q0 266 -213 266q-109 0 -180 -89t-70 -235v-520h-221v1499zM170 1993h182l262 -336h-194l-160 217l-158 -217h-194z" />
    <glyph glyph-name="Hbar" unicode="&#x126;" horiz-adv-x="1517" 
d="M403 811h709v227h-709v-227zM2 1200h170v209h231v-209h709v209h234v-209h170v-162h-170v-1038h-234v614h-709v-614h-231v1038h-170v162z" />
    <glyph glyph-name="hbar" unicode="&#x127;" horiz-adv-x="1189" 
d="M0 1341h150v158h221v-158h295v-133h-295v-18q0 -205 -9 -336h9q86 170 309 170q166 0 270 -99t105 -319v-606h-221v578q0 266 -213 266q-109 0 -180 -87t-70 -233v-524h-221v1208h-150v133z" />
    <glyph glyph-name="Itilde" unicode="&#x128;" horiz-adv-x="577" 
d="M172 1409h231v-1409h-231v1409zM132 1860q81 0 178 -48t130 -47q70 0 86 99h111q-4 -108 -56 -174q-51 -66 -133 -66t-180 47t-129 47q-74 0 -86 -98h-110q4 108 56 174t133 66z" />
    <glyph glyph-name="itilde" unicode="&#x129;" horiz-adv-x="522" 
d="M150 999h221v-999h-221v999zM104 1450q82 0 178 -47q97 -47 130 -47q70 0 86 98h110q-4 -108 -56 -174t-134 -66t-178 48q-98 48 -129 47q-74 0 -86 -99h-111q4 108 56 174t134 66z" />
    <glyph glyph-name="Imacron" unicode="&#x12a;" horiz-adv-x="577" 
d="M172 1409h231v-1409h-231v1409zM-8 1821h588v-160h-588v160z" />
    <glyph glyph-name="imacron" unicode="&#x12b;" horiz-adv-x="522" 
d="M150 999h221v-999h-221v999zM-37 1411h588v-160h-588v160z" />
    <glyph glyph-name="Ibreve" unicode="&#x12c;" horiz-adv-x="577" 
d="M172 1409h231v-1409h-231v1409zM290 1591q-118 0 -205 72t-101 227h129q27 -166 177 -166t177 166h129q-14 -156 -101 -228t-205 -71z" />
    <glyph glyph-name="ibreve" unicode="&#x12d;" horiz-adv-x="522" 
d="M150 999h221v-999h-221v999zM261 1182q-118 0 -205 72t-101 227h129q28 -166 178 -166t176 166h129q-14 -155 -101 -227t-205 -72z" />
    <glyph glyph-name="Iogonek" unicode="&#x12e;" horiz-adv-x="577" 
d="M172 1409h231v-1409h-2q-123 -129 -122 -221q0 -94 108 -94h59v-136h-81q-119 1 -181 51t-63 138q0 125 166 262h-115v1409z" />
    <glyph glyph-name="iogonek" unicode="&#x12f;" horiz-adv-x="522" 
d="M150 999h221v-999h2q-123 -129 -123 -222t108 -93h60v-136h-82q-119 1 -181 51t-63 138q0 125 166 262h-108v999zM141 1499h238v-225h-238v225z" />
    <glyph glyph-name="Idotaccent" unicode="&#x130;" horiz-adv-x="577" 
d="M172 1409h231v-1409h-231v1409zM184 1851h211v-213h-211v213z" />
    <glyph glyph-name="dotlessi" unicode="&#x131;" horiz-adv-x="522" 
d="M150 999h221v-999h-221v999z" />
    <glyph glyph-name="IJ" unicode="&#x132;" horiz-adv-x="1677" 
d="M657 477h230v-59q0 -246 205 -246t204 250v987h232v-987q0 -446 -436 -447q-203 -1 -319 105t-116 332v65zM172 1409h231v-1409h-231v1409z" />
    <glyph glyph-name="ij" unicode="&#x133;" horiz-adv-x="1042" 
d="M672 999h221v-1144q0 -147 -73 -227t-240 -79h-76v181h51q63 0 90 36t27 113v1120zM150 999h221v-999h-221v999zM664 1499h237v-225h-237v225zM141 1499h238v-225h-238v225z" />
    <glyph glyph-name="Jcircumflex" unicode="&#x134;" horiz-adv-x="1093" 
d="M74 477h229v-53q0 -252 205 -252t205 258v979h231v-987q0 -446 -436 -447q-203 -1 -319 105t-115 332v65zM743 1909h183l262 -336h-195l-159 217l-158 -217h-195z" />
    <glyph glyph-name="jcircumflex" unicode="&#x135;" horiz-adv-x="522" 
d="M150 999h221v-1144q0 -147 -72 -227t-242 -79h-75v181h51q63 0 90 36t27 113v1120zM170 1499h182l262 -336h-194l-160 217l-158 -217h-194z" />
    <glyph glyph-name="Kcommaaccent" unicode="&#x136;" horiz-adv-x="1380" 
d="M821 -131v-170l-88 -217h-96l61 192h-88v195h211zM172 1409h231v-713l662 713h270l-575 -610l604 -799h-264l-490 641l-207 -219v-422h-231v1409z" />
    <glyph glyph-name="kcommaaccent" unicode="&#x137;" horiz-adv-x="1079" 
d="M678 -131v-170l-88 -217h-96l61 192h-88v195h211zM150 1499h221v-948l405 448h256l-373 -399l412 -600h-258l-301 440l-141 -151v-289h-221v1499z" />
    <glyph glyph-name="Lacute" unicode="&#x139;" horiz-adv-x="1148" 
d="M172 1409h231v-1210h682v-199h-913v1409zM416 1909h246l-300 -336h-155z" />
    <glyph glyph-name="lacute" unicode="&#x13a;" horiz-adv-x="522" 
d="M150 1499h221v-1499h-221v1499zM391 1993h246l-299 -336h-156z" />
    <glyph glyph-name="Lcommaaccent" unicode="&#x13b;" horiz-adv-x="1148" 
d="M725 -131v-170l-88 -217h-96l61 192h-88v195h211zM172 1409h231v-1210h682v-199h-913v1409z" />
    <glyph glyph-name="lcommaaccent" unicode="&#x13c;" horiz-adv-x="522" 
d="M367 -131v-170l-88 -217h-97l62 192h-88v195h211zM150 1499h221v-1499h-221v1499z" />
    <glyph glyph-name="Lcaron" unicode="&#x13d;" horiz-adv-x="1148" 
d="M670 1196v213h223v-192l-94 -250h-101l66 229h-94zM172 1409h231v-1210h682v-199h-913v1409z" />
    <glyph glyph-name="lcaron" unicode="&#x13e;" horiz-adv-x="522" 
d="M522 1286v213h223v-192l-94 -250h-100l63 229h-92zM150 1499h221v-1499h-221v1499z" />
    <glyph glyph-name="Ldot" unicode="&#x13f;" horiz-adv-x="1148" 
d="M643 848h223v-225h-223v225zM172 1409h231v-1210h682v-199h-913v1409z" />
    <glyph glyph-name="ldot" unicode="&#x140;" horiz-adv-x="718" 
d="M516 795h223v-226h-223v226zM150 1499h221v-1499h-221v1499z" />
    <glyph glyph-name="Lslash" unicode="&#x141;" horiz-adv-x="1148" 
d="M172 1409h231v-590l261 187l94 -127l-355 -254v-426h682v-199h-913v459l-119 -84l-94 129l213 151v754z" />
    <glyph glyph-name="lslash" unicode="&#x142;" horiz-adv-x="522" 
d="M150 1499h221v-606l114 106l88 -106l-202 -186v-707h-221v504l-107 -98l-88 106l195 178v809z" />
    <glyph glyph-name="Nacute" unicode="&#x143;" horiz-adv-x="1533" 
d="M172 1409h215l741 -1016h9l-9 1016h234v-1409h-213l-746 1012h-8l8 -1012h-231v1409zM897 1909h246l-299 -336h-156z" />
    <glyph glyph-name="nacute" unicode="&#x144;" horiz-adv-x="1189" 
d="M150 999h212v-145h9q86 170 309 170q166 0 270 -99t105 -319v-606h-221v578q0 266 -213 266q-109 0 -180 -87t-70 -235v-522h-221v999zM731 1499h246l-299 -336h-156z" />
    <glyph glyph-name="Ncommaaccent" unicode="&#x145;" horiz-adv-x="1533" 
d="M872 -131v-170l-88 -217h-96l62 192h-88v195h210zM172 1409h215l741 -1016h9l-9 1016h234v-1409h-213l-746 1012h-8l8 -1012h-231v1409z" />
    <glyph glyph-name="ncommaaccent" unicode="&#x146;" horiz-adv-x="1189" 
d="M698 -131v-170l-88 -217h-96l61 192h-88v195h211zM150 999h212v-145h9q86 170 309 170q166 0 270 -99t105 -319v-606h-221v578q0 266 -213 266q-109 0 -180 -87t-70 -235v-522h-221v999z" />
    <glyph glyph-name="Ncaron" unicode="&#x147;" horiz-adv-x="1533" 
d="M172 1409h215l741 -1016h9l-9 1016h234v-1409h-213l-746 1012h-8l8 -1012h-231v1409zM414 1909h194l158 -217l160 217h194l-262 -336h-182z" />
    <glyph glyph-name="ncaron" unicode="&#x148;" horiz-adv-x="1189" 
d="M150 999h212v-145h9q86 170 309 170q166 0 270 -99t105 -319v-606h-221v578q0 266 -213 266q-109 0 -180 -87t-70 -235v-522h-221v999zM248 1499h194l158 -217l160 217h194l-262 -336h-182z" />
    <glyph glyph-name="napostrophe" unicode="&#x149;" horiz-adv-x="1189" 
d="M150 999h212v-145h9q86 170 309 170q166 0 270 -99t105 -319v-606h-221v578q0 266 -213 266q-109 0 -180 -87t-70 -235v-522h-221v999zM152 1356v192h210v-170l-88 -215h-96l62 193h-88z" />
    <glyph glyph-name="Eng" unicode="&#x14a;" horiz-adv-x="1533" 
d="M172 1409h215l743 -1016h9l-11 1016h234v-1462q0 -219 -91 -308t-290 -90h-109v195h86q92 0 136 50q43 50 43 165v57l-734 996h-8l8 -1012h-231v1409z" />
    <glyph glyph-name="eng" unicode="&#x14b;" horiz-adv-x="1189" 
d="M834 578q0 266 -213 266q-109 0 -180 -87t-70 -233v-524h-221v999h212v-145h9q86 170 309 170q166 0 270 -99t105 -319v-751q0 -147 -73 -227t-241 -79h-75v181h51q63 0 90 36t27 113v699z" />
    <glyph glyph-name="Omacron" unicode="&#x14c;" horiz-adv-x="1587" 
d="M330 705q0 -229 128 -377t336 -148t336 148t127 376q0 230 -128 377q-127 147 -335 147t-336 -146q-128 -148 -128 -377zM90 705q0 319 194 524t506 205t510 -206t197 -523q0 -317 -198 -523q-197 -206 -509 -207t-506 205t-194 525zM496 1821h587v-160h-587v160z" />
    <glyph glyph-name="omacron" unicode="&#x14d;" horiz-adv-x="1181" 
d="M309 500q0 -156 77 -251t204 -95t204 95q76 95 76 254t-76 251q-77 92 -204 92t-204 -95t-77 -251zM594 1024q230 0 368 -140t138 -382t-142 -384t-372 -142t-368 140t-138 382t142 384t372 142zM293 1411h588v-160h-588v160z" />
    <glyph glyph-name="Obreve" unicode="&#x14e;" horiz-adv-x="1587" 
d="M330 705q0 -229 128 -377t336 -148t336 148t127 376q0 230 -128 377q-127 147 -335 147t-336 -146q-128 -148 -128 -377zM90 705q0 319 194 524t506 205t510 -206t197 -523q0 -317 -198 -523q-197 -206 -509 -207t-506 205t-194 525zM794 1591q-118 0 -205 72t-102 227
h129q27 -166 178 -166t177 166h129q-14 -156 -101 -228t-205 -71z" />
    <glyph glyph-name="obreve" unicode="&#x14f;" horiz-adv-x="1181" 
d="M309 500q0 -156 77 -251t204 -95t204 95q76 95 76 254t-76 251q-77 92 -204 92t-204 -95t-77 -251zM594 1024q230 0 368 -140t138 -382t-142 -384t-372 -142t-368 140t-138 382t142 384t372 142zM591 1182q-118 0 -205 72t-101 227h129q28 -166 178 -166t176 166h129
q-14 -155 -101 -227t-205 -72z" />
    <glyph glyph-name="Ohungarumlaut" unicode="&#x150;" horiz-adv-x="1587" 
d="M330 705q0 -229 128 -377t336 -148t336 148t127 376q0 230 -128 377q-127 147 -335 147t-336 -146q-128 -148 -128 -377zM90 705q0 319 194 524t506 205t510 -206t197 -523q0 -317 -198 -523q-197 -206 -509 -207t-506 205t-194 525zM1116 1909h244l-299 -336h-154z
M727 1909h246l-299 -336h-156z" />
    <glyph glyph-name="ohungarumlaut" unicode="&#x151;" horiz-adv-x="1181" 
d="M309 500q0 -156 77 -251t204 -95t204 95q76 95 76 254t-76 251q-77 92 -204 92t-204 -95t-77 -251zM594 1024q230 0 368 -140t138 -382t-142 -384t-372 -142t-368 140t-138 382t142 384t372 142zM913 1499h244l-299 -336h-153zM524 1499h246l-299 -336h-156z" />
    <glyph glyph-name="OE" unicode="&#x152;" horiz-adv-x="2158" 
d="M330 705q0 -223 124 -365t388 -143h202v1015h-202q-264 0 -388 -142t-124 -365zM834 0q-358 0 -551 194t-193 511t193 511t551 193h1202v-197h-760v-399h610v-190h-610v-426h778v-197h-1220z" />
    <glyph glyph-name="oe" unicode="&#x153;" horiz-adv-x="1894" 
d="M307 500q0 -156 77 -251t204 -95t204 94q76 94 76 253t-75 252q-76 93 -204 93t-205 -95t-77 -251zM1356 852q-98 0 -167 -65t-91 -177h497q-24 242 -239 242zM78 499q0 239 141 382t369 143q264 0 391 -188q133 188 377 188q213 0 339 -129t126 -358v-74h-734
q10 -147 83 -231q74 -84 182 -82q108 0 167 44q58 44 74 109h219q-24 -139 -146 -233t-304 -95q-262 0 -389 185q-133 -184 -375 -184t-382 142q-138 142 -138 381z" />
    <glyph glyph-name="Racute" unicode="&#x154;" horiz-adv-x="1378" 
d="M403 1217v-496h336q131 0 203 72q72 73 72 185t-72 175t-203 64h-336zM172 1409h569q246 0 376 -113t130 -315q0 -155 -78 -267t-225 -157l354 -557h-251l-338 530h-306v-530h-231v1409zM784 1909h246l-299 -336h-156z" />
    <glyph glyph-name="racute" unicode="&#x155;" horiz-adv-x="772" 
d="M150 999h212v-145h7q78 170 264 170q80 0 139 -41l-57 -197q-66 33 -123 33q-106 0 -164 -90t-57 -229v-500h-221v999zM594 1499h246l-299 -336h-156z" />
    <glyph glyph-name="Rcommaaccent" unicode="&#x156;" horiz-adv-x="1378" 
d="M795 -131v-170l-88 -217h-97l62 192h-88v195h211zM403 1217v-496h336q131 0 203 72q72 73 72 185t-72 175t-203 64h-336zM172 1409h569q246 0 376 -113t130 -315q0 -155 -78 -267t-225 -157l354 -557h-251l-338 530h-306v-530h-231v1409z" />
    <glyph glyph-name="rcommaaccent" unicode="&#x157;" horiz-adv-x="772" 
d="M365 -131v-170l-89 -217h-96l62 192h-88v195h211zM150 999h212v-145h7q78 170 264 170q80 0 139 -41l-57 -197q-66 33 -123 33q-106 0 -164 -90t-57 -229v-500h-221v999z" />
    <glyph glyph-name="Rcaron" unicode="&#x158;" horiz-adv-x="1378" 
d="M403 1217v-496h336q131 0 203 72q72 73 72 185t-72 175t-203 64h-336zM172 1409h569q246 0 376 -113t130 -315q0 -155 -78 -267t-225 -157l354 -557h-251l-338 530h-306v-530h-231v1409zM301 1909h195l157 -217l160 217h195l-263 -336h-182z" />
    <glyph glyph-name="rcaron" unicode="&#x159;" horiz-adv-x="772" 
d="M150 999h212v-145h7q78 170 264 170q80 0 139 -41l-57 -197q-66 33 -123 33q-106 0 -164 -90t-57 -229v-500h-221v999zM111 1499h194l158 -217l160 217h194l-262 -336h-182z" />
    <glyph glyph-name="Sacute" unicode="&#x15a;" horiz-adv-x="1347" 
d="M338 401q0 -111 89 -179t243 -66q154 0 242 62t89 175q0 70 -48 115t-125 65q-77 21 -169 37t-185 40t-170 62t-125 114t-48 190q1 184 147 301t388 117t386 -109t144 -295h-227q0 104 -84 164t-218 59q-133 0 -219 -56t-86 -159q0 -131 175 -178q78 -20 171 -36
q220 -37 357 -103q78 -39 126 -117t48 -192q0 -199 -152 -318q-153 -119 -419 -119t-413 115q-146 115 -146 311h229zM799 1909h245l-299 -336h-155z" />
    <glyph glyph-name="sacute" unicode="&#x15b;" horiz-adv-x="1042" 
d="M287 287q-1 -78 65 -117t156 -39q229 0 229 145q0 53 -37 81t-114 40l-185 33q-301 49 -301 275q0 151 118 235t301 84t298 -77t115 -226h-207q0 71 -57 109q-56 38 -148 38t-149 -37t-57 -94t37 -85q38 -28 128 -44l185 -30q137 -23 216 -84t78 -191q0 -160 -122 -244
t-322 -84q-202 0 -320 80t-118 232h211zM649 1499h246l-299 -336h-156z" />
    <glyph glyph-name="Scircumflex" unicode="&#x15c;" horiz-adv-x="1347" 
d="M338 401q0 -111 89 -179t243 -66q154 0 242 62t89 175q0 70 -48 115t-125 65q-77 21 -169 37t-185 40t-170 62t-125 114t-48 190q1 184 147 301t388 117t386 -109t144 -295h-227q0 104 -84 164t-218 59q-133 0 -219 -56t-86 -159q0 -131 175 -178q78 -20 171 -36
q220 -37 357 -103q78 -39 126 -117t48 -192q0 -199 -152 -318q-153 -119 -419 -119t-413 115q-146 115 -146 311h229zM578 1909h182l262 -336h-195l-159 217l-158 -217h-195z" />
    <glyph glyph-name="scircumflex" unicode="&#x15d;" horiz-adv-x="1042" 
d="M287 287q-1 -78 65 -117t156 -39q229 0 229 145q0 53 -37 81t-114 40l-185 33q-301 49 -301 275q0 151 118 235t301 84t298 -77t115 -226h-207q0 71 -57 109q-56 38 -148 38t-149 -37t-57 -94t37 -85q38 -28 128 -44l185 -30q137 -23 216 -84t78 -191q0 -160 -122 -244
t-322 -84q-202 0 -320 80t-118 232h211zM428 1499h182l262 -336h-194l-160 217l-158 -217h-194z" />
    <glyph glyph-name="Scedilla" unicode="&#x15e;" horiz-adv-x="1347" 
d="M109 401h229q0 -111 89 -179t243 -66q154 0 242 62t89 175q0 70 -48 115t-125 65q-77 21 -169 37t-185 40t-170 62t-125 114t-48 190q1 184 147 301t388 117t386 -109t144 -295h-227q0 104 -84 164t-218 59q-133 0 -219 -56t-86 -159q0 -131 175 -178q78 -20 171 -36
q220 -37 357 -103q78 -39 126 -117t48 -192q0 -190 -141 -310t-393 -127v-51q90 -4 139 -54t49 -131q1 -81 -61 -135t-179 -55h-125v121h109q100 0 100 77t-100 77h-68l54 153q-246 8 -380 122t-134 302z" />
    <glyph glyph-name="scedilla" unicode="&#x15f;" horiz-adv-x="1042" 
d="M76 287h211q-1 -78 65 -117t156 -39q229 0 229 145q0 53 -37 81t-114 40l-185 33q-301 49 -301 275q0 151 118 235t301 84t298 -77t115 -226h-207q0 71 -57 109q-56 38 -148 38t-149 -37t-57 -94t37 -85q38 -28 128 -44l185 -30q137 -23 216 -84q78 -61 78 -202
q0 -142 -112 -224t-299 -91v-53q90 -4 139 -54t49 -131t-61 -135t-178 -55h-125v121h108q100 0 101 78q0 76 -101 76h-67l53 153q-177 7 -283 87t-106 223z" />
    <glyph glyph-name="Scaron" unicode="&#x160;" horiz-adv-x="1347" 
d="M338 401q0 -111 89 -179t243 -66q154 0 242 62t89 175q0 70 -48 115t-125 65q-77 21 -169 37t-185 40t-170 62t-125 114t-48 190q1 184 147 301t388 117t386 -109t144 -295h-227q0 104 -84 164t-218 59q-133 0 -219 -56t-86 -159q0 -131 175 -178q78 -20 171 -36
q220 -37 357 -103q78 -39 126 -117t48 -192q0 -199 -152 -318q-153 -119 -419 -119t-413 115q-146 115 -146 311h229zM315 1909h195l158 -217l159 217h195l-262 -336h-182z" />
    <glyph glyph-name="scaron" unicode="&#x161;" horiz-adv-x="1042" 
d="M287 287q-1 -78 65 -117t156 -39q229 0 229 145q0 53 -37 81t-114 40l-185 33q-301 49 -301 275q0 151 118 235t301 84t298 -77t115 -226h-207q0 71 -57 109q-56 38 -148 38t-149 -37t-57 -94t37 -85q38 -28 128 -44l185 -30q137 -23 216 -84t78 -191q0 -160 -122 -244
t-322 -84q-202 0 -320 80t-118 232h211zM166 1499h194l158 -217l160 217h194l-262 -336h-182z" />
    <glyph glyph-name="uni0162" unicode="&#x162;" horiz-adv-x="1232" 
d="M500 0v1214h-484v195h1201v-195h-486v-1214h-74v-76q89 -4 139 -54t50 -131t-62 -135t-178 -55h-125v121h109q100 0 100 77t-100 77h-68l62 176h-84z" />
    <glyph glyph-name="uni0163" unicode="&#x163;" horiz-adv-x="706" 
d="M180 827h-188v172h188v304h221v-304h256v-172h-256v-495q0 -80 32 -114t108 -34h116v-184h-153q-41 0 -60 2v-78q90 -4 140 -54t49 -131q1 -81 -61 -135t-179 -55h-127v121h109q102 0 102 77t-102 77h-68l58 192q-184 49 -185 303v508z" />
    <glyph glyph-name="Tcaron" unicode="&#x164;" horiz-adv-x="1232" 
d="M16 1409h1201v-195h-486v-1214h-231v1214h-484v195zM260 1909h195l157 -217l160 217h195l-262 -336h-183z" />
    <glyph glyph-name="tcaron" unicode="&#x165;" horiz-adv-x="706" 
d="M180 827h-188v172h188v304h221v-304h256v-172h-256v-495q0 -80 32 -114t108 -34h116v-184h-153q-172 0 -248 76t-76 243v508zM498 1343v213h223v-192l-94 -250h-101l64 229h-92z" />
    <glyph glyph-name="Tbar" unicode="&#x166;" horiz-adv-x="1232" 
d="M16 1409h1201v-195h-486v-497h369v-154h-369v-563h-231v563h-367v154h367v497h-484v195z" />
    <glyph glyph-name="tbar" unicode="&#x167;" horiz-adv-x="706" 
d="M-8 584h188v243h-188v172h188v304h221v-304h256v-172h-256v-243h256v-133h-256v-123q0 -78 32 -111t108 -33h116v-184h-155q-166 0 -244 74t-78 233v144h-188v133z" />
    <glyph glyph-name="Utilde" unicode="&#x168;" horiz-adv-x="1460" 
d="M143 1409h232v-846q0 -184 89 -283q89 -100 265 -100t265 98t89 285v846h232v-848q0 -586 -586 -586q-274 1 -430 141t-156 445v848zM572 1860q82 0 179 -48t130 -47q70 0 86 99h110q-4 -108 -56 -174q-51 -66 -133 -66t-180 47t-128 47q-74 0 -86 -98h-111q4 108 56 174
q51 66 133 66z" />
    <glyph glyph-name="utilde" unicode="&#x169;" horiz-adv-x="1181" 
d="M133 999h221v-577q0 -266 213 -266q109 0 177 88t67 239v516h221v-999h-211v145h-8q-86 -170 -303 -170q-166 -1 -271 99t-106 319v606zM438 1450q82 0 178 -47t129 -47q70 0 86 98h111q-4 -108 -56 -174t-134 -66t-179 48q-98 48 -129 47q-74 0 -86 -99h-110
q4 108 56 174t134 66z" />
    <glyph glyph-name="Umacron" unicode="&#x16a;" horiz-adv-x="1460" 
d="M143 1409h232v-846q0 -184 89 -283q89 -100 265 -100t265 98t89 285v846h232v-848q0 -586 -586 -586q-274 1 -430 141t-156 445v848zM432 1821h588v-160h-588v160z" />
    <glyph glyph-name="umacron" unicode="&#x16b;" horiz-adv-x="1181" 
d="M133 999h221v-577q0 -266 213 -266q109 0 177 88t67 239v516h221v-999h-211v145h-8q-86 -170 -303 -170q-166 -1 -271 99t-106 319v606zM297 1411h588v-160h-588v160z" />
    <glyph glyph-name="Ubreve" unicode="&#x16c;" horiz-adv-x="1460" 
d="M143 1409h232v-846q0 -184 89 -283q89 -100 265 -100t265 98t89 285v846h232v-848q0 -586 -586 -586q-274 1 -430 141t-156 445v848zM730 1591q-118 0 -205 72t-101 227h129q27 -166 177 -166t177 166h129q-14 -156 -101 -228t-205 -71z" />
    <glyph glyph-name="ubreve" unicode="&#x16d;" horiz-adv-x="1181" 
d="M133 999h221v-577q0 -266 213 -266q109 0 177 88t67 239v516h221v-999h-211v145h-8q-86 -170 -303 -170q-166 -1 -271 99t-106 319v606zM595 1182q-118 0 -205 72t-101 227h129q28 -166 178 -166t176 166h129q-14 -155 -101 -227t-205 -72z" />
    <glyph glyph-name="Uring" unicode="&#x16e;" horiz-adv-x="1460" 
d="M143 1409h232v-846q0 -184 89 -283q89 -100 265 -100t265 98t89 285v846h232v-848q0 -586 -586 -586q-274 1 -430 141t-156 445v848zM730 1655q42 -1 73 29t31 73t-31 73t-74 30t-73 -30t-30 -73t31 -73q31 -29 73 -29zM729 1554q-88 0 -149 58t-62 145q0 87 62 145
t150 58t150 -57t62 -145t-62 -146t-151 -58z" />
    <glyph glyph-name="uring" unicode="&#x16f;" horiz-adv-x="1181" 
d="M133 999h221v-577q0 -266 213 -266q109 0 177 88t67 239v516h221v-999h-211v145h-8q-86 -170 -303 -170q-166 -1 -271 99t-106 319v606zM595 1245q42 0 73 30t30 73q0 42 -30 72t-74 30q-43 0 -73 -30q-29 -30 -29 -72t30 -73q30 -30 73 -30zM594 1145q-88 0 -150 57
q-61 58 -61 146t62 145q61 57 149 57t150 -57t62 -145t-62 -146t-150 -57z" />
    <glyph glyph-name="Uhungarumlaut" unicode="&#x170;" horiz-adv-x="1460" 
d="M143 1409h232v-846q0 -184 89 -283q89 -100 265 -100t265 98t89 285v846h232v-848q0 -586 -586 -586q-274 1 -430 141t-156 445v848zM1053 1909h243l-299 -336h-153zM664 1909h245l-299 -336h-155z" />
    <glyph glyph-name="uhungarumlaut" unicode="&#x171;" horiz-adv-x="1181" 
d="M133 999h221v-577q0 -266 213 -266q109 0 177 88t67 239v516h221v-999h-211v145h-8q-86 -170 -303 -170q-166 -1 -271 99t-106 319v606zM918 1499h243l-299 -336h-153zM528 1499h246l-299 -336h-156z" />
    <glyph glyph-name="Uogonek" unicode="&#x172;" horiz-adv-x="1460" 
d="M653 -252q0 127 158 232q-53 -4 -82 -5q-274 1 -430 141t-156 445v848h232v-846q0 -184 89 -283q89 -100 265 -100t265 98t89 285v846h232v-848q0 -379 -268 -524q-107 -57 -169 -124t-63 -128q0 -100 109 -100h59v-136h-82q-248 0 -248 199z" />
    <glyph glyph-name="uogonek" unicode="&#x173;" horiz-adv-x="1181" 
d="M754 -262q0 125 166 262h-99v145h-8q-86 -170 -303 -170q-166 -1 -271 99t-106 319v606h221v-577q0 -266 213 -266q109 0 177 88t67 239v516h221v-999h2q-123 -129 -123 -222t109 -93h59v-136h-82q-119 1 -181 51t-62 138z" />
    <glyph glyph-name="Wcircumflex" unicode="&#x174;" horiz-adv-x="1959" 
d="M23 1409h245l277 -1163h8l305 1163h258l309 -1163h9l266 1163h237l-362 -1409h-289l-299 1128h-8l-299 -1128h-289zM893 1909h182l262 -336h-194l-160 217l-158 -217h-194z" />
    <glyph glyph-name="wcircumflex" unicode="&#x175;" horiz-adv-x="1536" 
d="M10 999h226l194 -776h8l215 776h236l217 -776h8l193 776h219l-289 -999h-258l-207 774h-8l-207 -774h-258zM678 1499h182l262 -336h-194l-160 217l-158 -217h-194z" />
    <glyph glyph-name="Ycircumflex" unicode="&#x176;" horiz-adv-x="1304" 
d="M764 0h-232v545l-509 864h262l364 -635h8l379 635h244l-516 -854v-555zM561 1909h182l263 -336h-195l-160 217l-157 -217h-195z" />
    <glyph glyph-name="ycircumflex" unicode="&#x177;" horiz-adv-x="1009" 
d="M207 -467h-111v182h66q172 0 241 195l31 90h-53l-373 999h242l260 -770h8l260 770h223l-411 -1138q-117 -328 -383 -328zM412 1499h182l262 -336h-194l-160 217l-158 -217h-194z" />
    <glyph glyph-name="Ydieresis" unicode="&#x178;" horiz-adv-x="1304" 
d="M764 0h-232v545l-509 864h262l364 -635h8l379 635h244l-516 -854v-555zM762 1851h209v-213h-209v213zM332 1851h211v-213h-211v213z" />
    <glyph glyph-name="Zacute" unicode="&#x179;" horiz-adv-x="1224" 
d="M106 1409h1047v-141l-784 -1075h778v-193h-1075v141l784 1076h-750v192zM743 1909h246l-299 -336h-155z" />
    <glyph glyph-name="zacute" unicode="&#x17a;" horiz-adv-x="944" 
d="M66 999h804v-137l-516 -688h525v-174h-807v125l528 700h-534v174zM600 1499h246l-299 -336h-156z" />
    <glyph glyph-name="Zdotaccent" unicode="&#x17b;" horiz-adv-x="1224" 
d="M106 1409h1047v-141l-784 -1075h778v-193h-1075v141l784 1076h-750v192zM508 1851h211v-213h-211v213z" />
    <glyph glyph-name="zdotaccent" unicode="&#x17c;" horiz-adv-x="944" 
d="M66 999h804v-137l-516 -688h525v-174h-807v125l528 700h-534v174zM365 1442h210v-213h-210v213z" />
    <glyph glyph-name="Zcaron" unicode="&#x17d;" horiz-adv-x="1224" 
d="M106 1409h1047v-141l-784 -1075h778v-193h-1075v141l784 1076h-750v192zM260 1909h195l157 -217l160 217h195l-262 -336h-183z" />
    <glyph glyph-name="zcaron" unicode="&#x17e;" horiz-adv-x="944" 
d="M66 999h804v-137l-516 -688h525v-174h-807v125l528 700h-534v174zM117 1499h194l158 -217l160 217h194l-262 -336h-182z" />
    <glyph glyph-name="longs" unicode="&#x17f;" horiz-adv-x="665" 
d="M195 827h-189v172h189v150q0 178 87 264t267 86h139v-180h-104q-94 0 -131 -42t-37 -136v-1141h-221v827z" />
    <glyph glyph-name="florin" unicode="&#x192;" horiz-adv-x="1163" 
d="M170 731h258l37 350q37 352 356 353q309 0 289 -320l-6 -86h-195l6 78q9 158 -101 158t-128 -183l-37 -350h303v-147h-319l-64 -625q-37 -352 -356 -352q-309 0 -289 319l6 86h195l-6 -78q-10 -158 100 -157q111 0 129 182l64 625h-242v147z" />
    <glyph glyph-name="AEacute" unicode="&#x1fc;" horiz-adv-x="2234" 
d="M1122 512v649h-8l-465 -649h473zM2111 1409v-197h-757v-399h606v-190h-606v-426h776v-197h-1008v322h-608l-229 -322h-269l1018 1409h1077zM1372 1909h246l-299 -336h-156z" />
    <glyph glyph-name="aeacute" unicode="&#x1fd;" horiz-adv-x="1753" 
d="M313 279q0 -137 170 -138q115 0 191 68t76 201v92q-29 -35 -103 -47l-172 -29q-162 -27 -162 -147zM1226 852q-98 0 -162 -64t-87 -178h473q-8 114 -66 178t-158 64zM553 1024q240 0 338 -133q123 133 331 133t332 -130t125 -357v-74h-710q8 -150 79 -232t185 -81
q178 0 219 153h217q-23 -137 -143 -232t-295 -96q-274 0 -393 201q-119 -201 -396 -201q-168 0 -259 76t-91 205q0 252 334 305l195 33q81 12 105 28t24 52q0 80 -50 132t-143 52q-94 0 -151 -45t-64 -131h-211q12 172 130 257t292 85zM995 1499h246l-299 -336h-156z" />
    <glyph glyph-name="Oslashacute" unicode="&#x1fe;" horiz-adv-x="1587" 
d="M793 180q209 0 337 148t127 363q0 215 -102 356l-633 -781q115 -86 271 -86zM793 1229q-207 1 -335 -147t-128 -366t100 -356l633 781q-117 88 -270 88zM90 702q0 320 196 526t507 206q231 0 407 -125l100 125h170l-170 -209q197 -209 197 -522t-199 -521t-505 -207
q-236 0 -410 121l-98 -121h-168l168 207q-195 200 -195 520zM924 1909h245l-299 -336h-155z" />
    <glyph glyph-name="oslashacute" unicode="&#x1ff;" horiz-adv-x="1177" 
d="M868 478q0 134 -43 220l-401 -489q68 -55 164 -55q127 0 204 95q76 95 76 229zM307 518q0 -138 45 -223l404 491q-70 60 -182 60t-190 -95q-77 -95 -77 -233zM78 501q0 237 142 380t368 143q172 0 297 -80l65 80h144l-125 -152q131 -142 131 -376t-142 -377t-370 -144
q-170 0 -293 76l-62 -76h-141l119 146q-133 143 -133 380zM719 1499h246l-299 -336h-156z" />
    <glyph glyph-name="Scommaaccent" unicode="&#x218;" horiz-adv-x="1347" 
d="M772 -131v-170l-88 -217h-96l61 192h-88v195h211zM338 401q0 -111 89 -179t243 -66q154 0 242 62t89 175q0 70 -48 115t-125 65q-77 21 -169 37t-185 40t-170 62t-125 114t-48 190q1 184 147 301t388 117t386 -109t144 -295h-227q0 104 -84 164t-218 59q-133 0 -219 -56
t-86 -159q0 -131 175 -178q78 -20 171 -36q220 -37 357 -103q78 -39 126 -117t48 -192q0 -199 -152 -318q-153 -119 -419 -119t-413 115q-146 115 -146 311h229z" />
    <glyph glyph-name="scommaaccent" unicode="&#x219;" horiz-adv-x="1042" 
d="M614 -131v-170l-88 -217h-96l62 192h-89v195h211zM287 287q-1 -78 65 -117t156 -39q229 0 229 145q0 53 -37 81t-114 40l-185 33q-301 49 -301 275q0 151 118 235t301 84t298 -77t115 -226h-207q0 71 -57 109q-56 38 -148 38t-149 -37t-57 -94t37 -85q38 -28 128 -44
l185 -30q137 -23 216 -84t78 -191q0 -160 -122 -244t-322 -84q-202 0 -320 80t-118 232h211z" />
    <glyph glyph-name="uni021A" unicode="&#x21a;" horiz-adv-x="1232" 
d="M725 -131v-170l-88 -217h-96l61 192h-88v195h211zM16 1409h1201v-195h-486v-1214h-231v1214h-484v195z" />
    <glyph glyph-name="uni021B" unicode="&#x21b;" horiz-adv-x="706" 
d="M514 -131v-170l-88 -217h-96l61 192h-88v195h211zM180 827h-188v172h188v304h221v-304h256v-172h-256v-495q0 -80 32 -114t108 -34h116v-184h-153q-172 0 -248 76t-76 243v508z" />
    <glyph glyph-name="circumflex" unicode="&#x2c6;" horiz-adv-x="1173" 
d="M496 1499h182l262 -336h-195l-159 217l-158 -217h-195z" />
    <glyph glyph-name="caron" unicode="&#x2c7;" horiz-adv-x="1173" 
d="M233 1499h195l158 -217l159 217h195l-262 -336h-182z" />
    <glyph glyph-name="uni02C9" unicode="&#x2c9;" horiz-adv-x="1173" 
d="M289 1411h588v-160h-588v160z" />
    <glyph glyph-name="breve" unicode="&#x2d8;" horiz-adv-x="1173" 
d="M587 1182q-118 0 -205 72t-101 227h129q28 -166 178 -166t176 166h129q-14 -155 -101 -227t-205 -72z" />
    <glyph glyph-name="dotaccent" unicode="&#x2d9;" horiz-adv-x="1173" 
d="M481 1442h211v-213h-211v213z" />
    <glyph glyph-name="ring" unicode="&#x2da;" horiz-adv-x="1173" 
d="M587 1245q43 0 73 30t30 73q0 42 -31 72t-73 30t-73 -30q-30 -30 -30 -72t31 -73q31 -30 73 -30zM586 1145q-88 0 -150 57q-61 58 -61 146t62 145q61 57 149 57t150 -57t62 -145t-62 -146t-150 -57z" />
    <glyph glyph-name="ogonek" unicode="&#x2db;" horiz-adv-x="1173" 
d="M418 -262q0 125 166 262h114q-123 -129 -123 -222t109 -93h59v-136h-81q-120 1 -182 51t-62 138z" />
    <glyph glyph-name="tilde" unicode="&#x2dc;" horiz-adv-x="1173" 
d="M429 1450q81 0 178 -47t130 -47q70 0 86 98h111q-4 -108 -56 -174t-134 -66t-179 48q-98 48 -129 47q-74 0 -86 -99h-110q4 108 56 174t133 66z" />
    <glyph glyph-name="hungarumlaut" unicode="&#x2dd;" horiz-adv-x="1173" 
d="M909 1499h244l-299 -336h-154zM520 1499h246l-299 -336h-156z" />
    <glyph glyph-name="uni0394" unicode="&#x394;" horiz-adv-x="1335" 
d="M659 1180l-337 -996h679l-333 996h-9zM541 1409h254l499 -1409h-1251z" />
    <glyph glyph-name="uni03A9" unicode="&#x3a9;" horiz-adv-x="1425" 
d="M1112 864q0 168 -111 279t-289 111t-288 -112q-111 -110 -111 -278t85 -272t200 -137v-455h-483v176h288v174q-143 68 -230 199t-87 305q0 248 174 414t453 166t453 -166t173 -414q0 -174 -87 -305t-230 -199v-174h289v-176h-484v455q115 33 200 137t85 272z" />
    <glyph glyph-name="uni03BC" unicode="&#x3bc;" horiz-adv-x="1191" 
d="M369 -309v-142h-224v1450h224v-577q0 -142 53 -204t160 -62q106 0 174 88t67 235v520h221v-999h-210v145h-9q-84 -170 -301 -170q-96 0 -174 48h-6q25 -197 25 -332z" />
    <glyph glyph-name="pi" unicode="&#x3c0;" horiz-adv-x="1226" 
d="M162 999h903v-999h-223v819h-457v-819h-223v999z" />
    <glyph glyph-name="Wgrave" unicode="&#x1e80;" horiz-adv-x="1959" 
d="M23 1409h245l277 -1163h8l305 1163h258l309 -1163h9l266 1163h237l-362 -1409h-289l-299 1128h-8l-299 -1128h-289zM608 1909h246l209 -336h-156z" />
    <glyph glyph-name="wgrave" unicode="&#x1e81;" horiz-adv-x="1536" 
d="M10 999h226l194 -776h8l215 776h236l217 -776h8l193 776h219l-289 -999h-258l-207 774h-8l-207 -774h-258zM393 1499h246l209 -336h-156z" />
    <glyph glyph-name="Wacute" unicode="&#x1e82;" horiz-adv-x="1959" 
d="M23 1409h245l277 -1163h8l305 1163h258l309 -1163h9l266 1163h237l-362 -1409h-289l-299 1128h-8l-299 -1128h-289zM1114 1909h246l-299 -336h-156z" />
    <glyph glyph-name="wacute" unicode="&#x1e83;" horiz-adv-x="1536" 
d="M10 999h226l194 -776h8l215 776h236l217 -776h8l193 776h219l-289 -999h-258l-207 774h-8l-207 -774h-258zM899 1499h246l-299 -336h-156z" />
    <glyph glyph-name="Wdieresis" unicode="&#x1e84;" horiz-adv-x="1959" 
d="M23 1409h245l277 -1163h8l305 1163h258l309 -1163h9l266 1163h237l-362 -1409h-289l-299 1128h-8l-299 -1128h-289zM1094 1851h209v-213h-209v213zM664 1851h210v-213h-210v213z" />
    <glyph glyph-name="wdieresis" unicode="&#x1e85;" horiz-adv-x="1536" 
d="M10 999h226l194 -776h8l215 776h236l217 -776h8l193 776h219l-289 -999h-258l-207 774h-8l-207 -774h-258zM879 1442h208v-213h-208v213zM449 1442h210v-213h-210v213z" />
    <glyph glyph-name="Ygrave" unicode="&#x1ef2;" horiz-adv-x="1304" 
d="M764 0h-232v545l-509 864h262l364 -635h8l379 635h244l-516 -854v-555zM276 1909h246l209 -336h-156z" />
    <glyph glyph-name="ygrave" unicode="&#x1ef3;" horiz-adv-x="1009" 
d="M207 -467h-111v182h66q172 0 241 195l31 90h-53l-373 999h242l260 -770h8l260 770h223l-411 -1138q-117 -328 -383 -328zM127 1499h246l209 -336h-156z" />
    <glyph glyph-name="endash" unicode="&#x2013;" horiz-adv-x="1138" 
d="M115 612h909v-192h-909v192z" />
    <glyph glyph-name="emdash" unicode="&#x2014;" horiz-adv-x="1720" 
d="M115 612h1491v-192h-1491v192z" />
    <glyph glyph-name="quoteleft" unicode="&#x2018;" horiz-adv-x="522" 
d="M381 1104v-242h-240v225l88 322h111l-61 -305h102z" />
    <glyph glyph-name="quoteright" unicode="&#x2019;" horiz-adv-x="522" 
d="M141 1167v242h240v-225l-88 -322h-111l64 305h-105z" />
    <glyph glyph-name="quotesinglbase" unicode="&#x201a;" horiz-adv-x="522" 
d="M141 0v242h240v-226l-88 -321h-111l64 305h-105z" />
    <glyph glyph-name="quotedblleft" unicode="&#x201c;" horiz-adv-x="917" 
d="M776 1104v-242h-239v225l88 322h110l-61 -305h102zM381 1104v-242h-240v225l88 322h111l-61 -305h102z" />
    <glyph glyph-name="quotedblright" unicode="&#x201d;" horiz-adv-x="917" 
d="M537 1167v242h239v-225l-88 -322h-110l63 305h-104zM141 1167v242h240v-225l-88 -322h-111l64 305h-105z" />
    <glyph glyph-name="quotedblbase" unicode="&#x201e;" horiz-adv-x="917" 
d="M537 0v242h239v-226l-88 -321h-110l63 305h-104zM141 0v242h240v-226l-88 -321h-111l64 305h-105z" />
    <glyph glyph-name="dagger" unicode="&#x2020;" horiz-adv-x="931" 
d="M90 1065h279v344h194v-344h279v-168h-279v-897h-194v897h-279v168z" />
    <glyph glyph-name="daggerdbl" unicode="&#x2021;" horiz-adv-x="931" 
d="M90 1077h279v332h194v-332h279v-170h-279v-413h279v-170h-279v-324h-194v324h-279v170h279v413h-279v170z" />
    <glyph glyph-name="bullet" unicode="&#x2022;" horiz-adv-x="999" 
d="M500 164q-150 0 -251 101t-102 251t101 251t252 101t251 -101t101 -251t-101 -251t-251 -101z" />
    <glyph glyph-name="ellipsis" unicode="&#x2026;" horiz-adv-x="1652" 
d="M1241 262h264v-262h-264v262zM694 262h264v-262h-264v262zM147 262h265v-262h-265v262z" />
    <glyph glyph-name="perthousand" unicode="&#x2030;" horiz-adv-x="2361" 
d="M1856 352q0 -230 138 -229q138 0 138 229t-139 230q-137 0 -137 -230zM1118 352q0 -230 138 -229q138 0 139 229q0 229 -138 230q-139 0 -139 -230zM2310 352q0 -164 -80 -266t-236 -102q-157 0 -237 102t-80 266t80 266t237 102q156 0 236 -102t80 -266zM1258 -16
q-158 0 -238 102t-80 266t81 266t237 102t236 -102q79 -102 79 -266t-79 -266t-236 -102zM368 827q138 -1 138 229t-138 230t-138 -230t138 -229zM369 688q-156 0 -237 102t-81 267q0 164 81 266t237 102q155 0 235 -102t80 -266q0 -165 -80 -267t-235 -102zM381 -25
q485 994 713 1459h151l-713 -1459h-151z" />
    <glyph glyph-name="guilsinglleft" unicode="&#x2039;" horiz-adv-x="681" 
d="M102 516l295 418h183l-234 -418l234 -418h-183z" />
    <glyph glyph-name="guilsinglright" unicode="&#x203a;" horiz-adv-x="681" 
d="M336 516l-234 418h183l295 -418l-295 -418h-183z" />
    <glyph glyph-name="fraction" unicode="&#x2044;" horiz-adv-x="153" 
d="M356 1434h154l-713 -1459h-153z" />
    <glyph glyph-name="uni2070" unicode="&#x2070;" 
d="M506 1368q0 229 -138 229t-138 -229t138 -229t138 229zM369 999q-156 1 -237 103t-81 266t81 266t237 102q155 0 235 -102t80 -266t-80 -266t-235 -103z" />
    <glyph glyph-name="uni2074" unicode="&#x2074;" 
d="M403 1278v219l-174 -219h174zM584 1722v-444h96v-137h-96v-125h-181v125h-358v106l385 475h154z" />
    <glyph glyph-name="uni2075" unicode="&#x2075;" 
d="M375 1120q49 0 82 31t33 87t-33 84t-82 28q-76 0 -107 -64l-168 14l27 420h500v-143h-346l-15 -160h8q41 53 148 53q106 0 176 -55t70 -172t-82 -180t-205 -64q-270 0 -293 205h176q16 -84 111 -84z" />
    <glyph glyph-name="uni2076" unicode="&#x2076;" 
d="M375 1350q-49 0 -82 -28t-33 -84t33 -87t82 -31t82 31t33 87t-33 84t-82 28zM475 1530q1 34 -25 58t-74 24t-84 -44t-42 -163q20 29 68 47t102 18q110 0 178 -55t68 -171t-82 -180t-203 -65q-311 0 -311 353q0 385 317 385q125 -1 191 -57t71 -150h-174z" />
    <glyph glyph-name="uni2077" unicode="&#x2077;" 
d="M66 1567v153h608v-110l-328 -594h-192l307 551h-395z" />
    <glyph glyph-name="uni2078" unicode="&#x2078;" 
d="M240 1221q0 -47 34 -73t94 -26q58 0 94 26t36 74t-36 74t-93 25q-129 0 -129 -100zM368 1614q-114 0 -114 -89t115 -89t114 90q-1 88 -115 88zM57 1202q0 68 38 114t102 58v8q-53 12 -85 54t-32 102q0 88 78 143t210 55t210 -54q78 -56 77 -144q1 -59 -31 -101t-85 -55
v-8q63 -12 101 -58t38 -114q0 -98 -81 -150t-228 -52t-229 52t-83 150z" />
    <glyph glyph-name="uni2079" unicode="&#x2079;" 
d="M351 1386q48 0 82 28t34 84t-33 87t-81 31t-82 -31q-33 -31 -33 -87t32 -84t81 -28zM364 1124q104 0 111 205q-14 -27 -60 -45t-98 -18q-115 0 -185 54t-71 167q0 113 82 181t205 69q309 0 309 -353q0 -385 -303 -385q-126 -1 -198 57t-78 150h174q2 -34 33 -58t79 -24z
" />
    <glyph glyph-name="parenleft.superior" unicode="&#x207d;" horiz-adv-x="471" 
d="M123 1368q0 148 49 284t115 216h168q-61 -76 -113 -215t-51 -285q0 -146 51 -284q51 -140 113 -216h-168q-66 80 -115 216t-49 284z" />
    <glyph glyph-name="parenright.superior" unicode="&#x207e;" horiz-adv-x="471" 
d="M180 1368q0 146 -51 284q-51 140 -113 216h168q66 -80 115 -216t49 -284t-49 -284t-115 -216h-168q61 76 113 215q51 139 51 285z" />
    <glyph glyph-name="n.superior" unicode="&#x207f;" horiz-adv-x="858" 
d="M100 1720h179v-104h8q55 123 221 123q114 0 186 -68t72 -211v-444h-186v401q0 170 -138 170q-68 0 -112 -52t-43 -146v-373h-187v704z" />
    <glyph glyph-name="uni2080" unicode="&#x2080;" 
d="M506 41q0 229 -138 229t-138 -229t138 -229t138 229zM369 -328q-156 0 -237 102t-81 267q0 164 81 266q81 103 237 103q155 0 235 -102t80 -267t-80 -267t-235 -102z" />
    <glyph glyph-name="uni2081" unicode="&#x2081;" 
d="M487 393v-561h189v-143h-572v143h201v348l-151 -88l-74 125l297 176h110z" />
    <glyph glyph-name="uni2082" unicode="&#x2082;" 
d="M61 -311q-1 147 63 225t175 131l43 21q141 66 141 120q1 88 -117 88t-124 -120h-172q4 129 89 192q85 64 214 64t209 -58t80 -152t-56 -146t-168 -103l-43 -21q-121 -57 -121 -98h385v-143h-598z" />
    <glyph glyph-name="uni2083" unicode="&#x2083;" 
d="M240 -96q0 -51 34 -80t94 -29q58 0 94 26t36 74q0 47 -36 73t-97 26h-50v115h50q119 0 118 90q0 88 -114 88q-53 0 -84 -27t-31 -74h-168q2 106 80 164t207 60q129 0 206 -56t76 -143q1 -59 -31 -101t-85 -55v-6q63 -14 101 -59t38 -111q0 -100 -81 -153t-228 -54
q-297 0 -299 232h170z" />
    <glyph glyph-name="uni2084" unicode="&#x2084;" 
d="M403 -49v219l-174 -219h174zM584 395v-444h96v-137h-96v-125h-181v125h-358v106l385 475h154z" />
    <glyph glyph-name="uni2085" unicode="&#x2085;" 
d="M375 -207q49 0 82 31t33 87t-33 84t-82 28q-76 0 -107 -64l-168 14l27 420h500v-143h-346l-15 -160h8q41 53 148 53q106 0 176 -55t70 -172t-82 -180t-205 -64q-270 0 -293 205h176q16 -84 111 -84z" />
    <glyph glyph-name="uni2086" unicode="&#x2086;" 
d="M375 23q-49 0 -82 -28t-33 -84t33 -87t82 -31t82 31t33 87t-33 84t-82 28zM475 203q1 35 -25 59t-74 23q-48 0 -84 -44t-42 -163q20 29 68 47t102 18q110 0 178 -55t68 -171q0 -117 -82 -181t-203 -64q-311 0 -311 353q0 385 317 385q125 0 191 -56t71 -151h-174z" />
    <glyph glyph-name="uni2087" unicode="&#x2087;" 
d="M66 240v153h608v-110l-328 -594h-192l307 551h-395z" />
    <glyph glyph-name="uni2088" unicode="&#x2088;" 
d="M240 -106q0 -47 34 -73t94 -26q58 0 94 26t36 74q0 47 -36 73t-93 26q-129 0 -129 -100zM368 287q-114 0 -114 -89t115 -89t114 90q-1 88 -115 88zM57 -125q0 68 38 114t102 58v8q-53 13 -85 55t-32 101q0 88 78 143q78 56 210 56t210 -56t77 -143q1 -59 -31 -101
t-85 -55v-8q63 -12 101 -58t38 -114q0 -98 -81 -150q-81 -53 -228 -53t-229 52t-83 151z" />
    <glyph glyph-name="uni2089" unicode="&#x2089;" 
d="M351 59q48 0 82 28t34 84t-33 87t-81 31t-82 -31q-33 -31 -33 -87t32 -84t81 -28zM364 -203q104 0 111 205q-14 -27 -60 -45t-98 -18q-115 0 -185 54t-71 167q0 114 82 182t205 68q309 0 309 -353q0 -385 -303 -385q-126 0 -198 58t-78 149h174q2 -33 33 -57t79 -25z" />
    <glyph glyph-name="parenleft.inferior" unicode="&#x208d;" horiz-adv-x="471" 
d="M123 40q0 148 49 284t115 217h168q-61 -76 -113 -215q-52 -138 -51 -284q0 -146 51 -286t113 -215h-168q-66 80 -115 216q-49 135 -49 283z" />
    <glyph glyph-name="parenright.inferior" unicode="&#x208e;" horiz-adv-x="471" 
d="M180 40q0 146 -51 286t-113 215h168q66 -80 115 -216q49 -135 49 -283t-49 -284t-115 -217h-168q61 76 113 215q51 138 51 284z" />
    <glyph glyph-name="Euro" unicode="&#x20ac;" horiz-adv-x="1163" 
d="M688 1249q-229 0 -287 -325h396l-37 -125h-373q-2 -31 -2 -88t2 -82h365l-37 -127h-316q51 -342 289 -342q88 0 139 40t82 128h213q-84 -352 -440 -353q-219 1 -348 143t-166 384h-182l37 127h133q-2 25 -2 82t2 88h-131l36 125h109q41 236 169 372t343 138
q377 0 451 -383h-211q-31 102 -85 150t-149 48z" />
    <glyph glyph-name="uni2113" unicode="&#x2113;" horiz-adv-x="843" 
d="M598 1171q0 186 -113 187q-139 0 -139 -367v-289l4 -2q248 211 248 471zM186 338v151l-4 3l-121 -84l-24 49q78 63 149 125v278q0 209 37 322q37 114 113 182t173 68t153 -71t55 -179q0 -203 -138 -361q-67 -76 -114 -120t-119 -99v-223q0 -283 186 -283q129 0 242 164
l45 -33q-49 -119 -139 -185t-216 -67q-126 0 -202 81t-76 282z" />
    <glyph glyph-name="uni2116" unicode="&#x2116;" horiz-adv-x="2484" 
d="M1622 143h741v-143h-741v143zM1622 502h741v-144h-741v144zM1993 1280q-82 0 -129 -60t-47 -162q0 -100 48 -162t129 -62t129 61t48 163t-48 162t-130 60zM166 1409h219l737 -1020h8l-8 1020h232v-1409h-219l-738 1016h-8l8 -1016h-231v1409zM1622 1056q0 169 102 270
t272 101t268 -100q99 -100 99 -269q0 -170 -101 -270t-271 -100t-270 99q-99 100 -99 269z" />
    <glyph glyph-name="trademark" unicode="&#x2122;" horiz-adv-x="1671" 
d="M743 1409h234l186 -481h8l187 481h235v-704h-168l9 493h-9l-190 -493h-133l-191 493h-8l8 -493h-168v704zM8 1409h643v-141h-235v-563h-168v563h-240v141z" />
    <glyph glyph-name="uni2126" unicode="&#x2126;" horiz-adv-x="1425" 
d="M1112 864q0 168 -111 279t-289 111t-288 -112q-111 -110 -111 -278t85 -272t200 -137v-455h-483v176h288v174q-143 68 -230 199t-87 305q0 248 174 414t453 166t453 -166t173 -414q0 -174 -87 -305t-230 -199v-174h289v-176h-484v455q115 33 200 137t85 272z" />
    <glyph glyph-name="estimated" unicode="&#x212e;" horiz-adv-x="1740" 
d="M1378 727q8 0 8 12v396q0 29 -20 49q-201 205 -492 205t-495 -211q-23 -23 -23 -54v-385q0 -12 15 -12h1007zM874 20q156 0 291 64t232 176h119q-113 -131 -282 -208t-362 -77q-338 0 -576 213q-238 212 -237 516q0 304 239 517q238 213 574 213t574 -213t237 -516v-21
h-1312q-14 0 -15 -8v-397q1 -23 21 -48q201 -211 497 -211z" />
    <glyph glyph-name="uni2153" unicode="&#x2153;" horiz-adv-x="1624" 
d="M1128 215q0 -51 35 -80t94 -29t95 26q35 26 34 73q0 100 -133 100h-49v115h49q119 0 119 89t-115 89q-53 0 -83 -27t-31 -73h-166q2 106 79 164t206 59q130 0 206 -55t76 -144q0 -59 -32 -101t-85 -54v-7q63 -14 101 -59t39 -111q0 -100 -81 -153t-229 -53
q-295 0 -296 231h167zM487 1409v-561h189v-143h-572v143h201v348l-151 -88l-74 125l297 176h110zM418 -25q489 990 712 1459h154l-713 -1459h-153z" />
    <glyph glyph-name="uni2154" unicode="&#x2154;" horiz-adv-x="1624" 
d="M1128 215q0 -51 35 -80t94 -29t95 26q35 26 34 73q0 100 -133 100h-49v115h49q119 0 119 89t-115 89q-53 0 -83 -27t-31 -73h-166q2 106 79 164t206 59q130 0 206 -55t76 -144q0 -59 -32 -101t-85 -54v-7q63 -14 101 -59t39 -111q0 -100 -81 -153t-229 -53
q-295 0 -296 231h167zM61 705q-1 147 63 225t175 131l43 20q141 66 141 121q1 88 -117 88t-124 -121h-172q4 129 89 193t214 63q129 0 209 -57q80 -56 80 -152t-56 -147t-168 -102l-43 -21q-121 -57 -121 -98h385v-143h-598zM416 -25q306 619 712 1459h154l-713 -1459h-153z
" />
    <glyph glyph-name="uni2155" unicode="&#x2155;" horiz-adv-x="1624" 
d="M1266 104q47 0 81 31q33 31 33 87t-32 84q-33 28 -82 28q-78 0 -107 -64l-170 15l27 420h502v-144h-349l-14 -160h8q41 53 148 53t177 -54q70 -56 68 -173q0 -117 -82 -180t-204 -63q-272 0 -291 204h174q16 -84 113 -84zM487 1409v-561h189v-143h-572v143h201v348
l-151 -88l-74 125l297 176h110zM406 -25q306 619 712 1459h154l-713 -1459h-153z" />
    <glyph glyph-name="uni2156" unicode="&#x2156;" horiz-adv-x="1624" 
d="M1266 104q47 0 81 31q33 31 33 87t-32 84q-33 28 -82 28q-78 0 -107 -64l-170 15l27 420h502v-144h-349l-14 -160h8q41 53 148 53t177 -54q70 -56 68 -173q0 -117 -82 -180t-204 -63q-272 0 -291 204h174q16 -84 113 -84zM61 705q-1 147 63 225t175 131l43 20
q141 66 141 121q1 88 -117 88t-124 -121h-172q4 129 89 193t214 63q129 0 209 -57q80 -56 80 -152t-56 -147t-168 -102l-43 -21q-121 -57 -121 -98h385v-143h-598zM406 -25q628 1287 712 1459h152l-713 -1459h-151z" />
    <glyph glyph-name="uni2157" unicode="&#x2157;" horiz-adv-x="1624" 
d="M1266 104q47 0 81 31q33 31 33 87t-32 84q-33 28 -82 28q-78 0 -107 -64l-170 15l27 420h502v-144h-349l-14 -160h8q41 53 148 53t177 -54q70 -56 68 -173q0 -117 -82 -180t-204 -63q-272 0 -291 204h174q16 -84 113 -84zM240 920q0 -51 34 -80t94 -29q58 0 94 26
q36 25 36 73t-36 74t-97 26h-50v114h50q119 0 118 90q0 88 -114 89q-53 0 -84 -27t-31 -74h-168q2 106 80 164t207 59q129 0 206 -55t76 -143q0 -59 -31 -102q-32 -42 -85 -54v-6q63 -14 101 -59t38 -111q0 -99 -81 -153t-228 -54q-297 0 -299 232h170zM383 -25
q485 994 713 1459h151l-712 -1459h-152z" />
    <glyph glyph-name="uni2158" unicode="&#x2158;" horiz-adv-x="1624" 
d="M1266 104q47 0 81 31q33 31 33 87t-32 84q-33 28 -82 28q-78 0 -107 -64l-170 15l27 420h502v-144h-349l-14 -160h8q41 53 148 53t177 -54q70 -56 68 -173q0 -117 -82 -180t-204 -63q-272 0 -291 204h174q16 -84 113 -84zM403 967v219l-174 -219h174zM584 1411v-444h96
v-138h-96v-124h-181v124h-358v107l385 475h154zM387 -25q485 994 713 1459h151l-712 -1459h-152z" />
    <glyph glyph-name="uni2159" unicode="&#x2159;" horiz-adv-x="1624" 
d="M1264 334q-49 0 -82 -28t-33 -84t33 -87t82 -31t82 31q32 31 32 87t-32 84q-33 28 -82 28zM1364 514q0 34 -26 58t-74 24t-83 -45q-36 -45 -42 -164h8q43 68 157 68q114 1 182 -55t68 -172t-82 -180t-202 -64q-311 0 -312 352q0 203 86 294t222 91t202 -56t70 -151h-174z
M487 1409v-561h189v-143h-572v143h201v348l-151 -88l-74 125l297 176h110zM424 -25q353 715 713 1459h153l-712 -1459h-154z" />
    <glyph glyph-name="uni215A" unicode="&#x215a;" horiz-adv-x="1624" 
d="M1264 334q-49 0 -82 -28t-33 -84t33 -87t82 -31t82 31q32 31 32 87t-32 84q-33 28 -82 28zM1364 514q0 34 -26 58t-74 24t-83 -45q-36 -45 -42 -164h8q43 68 157 68q114 1 182 -55t68 -172t-82 -180t-202 -64q-311 0 -312 352q0 203 86 294t222 91t202 -56t70 -151h-174z
M375 809q49 0 82 31t33 87t-33 84t-82 27q-76 0 -107 -63l-168 14l27 420h500v-143h-346l-15 -160h8q41 53 148 53q106 0 176 -55t70 -172t-82 -180t-205 -64q-270 0 -293 205h176q16 -84 111 -84zM381 -25q485 994 713 1459h151l-713 -1459h-151z" />
    <glyph glyph-name="uni215B" unicode="&#x215b;" horiz-adv-x="1624" 
d="M1128 205q0 -47 35 -73t94 -26t95 26q35 26 34 73q0 100 -129 100t-129 -100zM1143 509q1 -89 115 -89t114 89t-114 89t-115 -89zM946 186q0 68 38 114t101 58v9q-53 12 -85 55t-31 100q0 88 78 144q77 56 209 55q132 0 210 -55t78 -144q0 -59 -32 -101t-85 -54v-9
q63 -12 101 -58t39 -114q0 -98 -81 -150q-80 -52 -228 -52t-230 52t-82 150zM487 1409v-561h189v-143h-572v143h201v348l-151 -88l-74 125l297 176h110zM416 -25q306 619 712 1459h154l-713 -1459h-153z" />
    <glyph glyph-name="uni215C" unicode="&#x215c;" horiz-adv-x="1624" 
d="M1128 205q0 -47 35 -73t94 -26t95 26q35 26 34 73q0 100 -129 100t-129 -100zM1143 509q1 -89 115 -89t114 89t-114 89t-115 -89zM946 186q0 68 38 114t101 58v9q-53 12 -85 55t-31 100q0 88 78 144q77 56 209 55q132 0 210 -55t78 -144q0 -59 -32 -101t-85 -54v-9
q63 -12 101 -58t39 -114q0 -98 -81 -150q-80 -52 -228 -52t-230 52t-82 150zM240 920q0 -51 34 -80t94 -29q58 0 94 26q36 25 36 73t-36 74t-97 26h-50v114h50q119 0 118 90q0 88 -114 89q-53 0 -84 -27t-31 -74h-168q2 106 80 164t207 59q129 0 206 -55t76 -143
q0 -59 -31 -102q-32 -42 -85 -54v-6q63 -14 101 -59t38 -111q0 -99 -81 -153t-228 -54q-297 0 -299 232h170zM381 -25q353 715 713 1459h153l-712 -1459h-154z" />
    <glyph glyph-name="uni215D" unicode="&#x215d;" horiz-adv-x="1624" 
d="M1128 205q0 -47 35 -73t94 -26t95 26q35 26 34 73q0 100 -129 100t-129 -100zM1143 509q1 -89 115 -89t114 89t-114 89t-115 -89zM946 186q0 68 38 114t101 58v9q-53 12 -85 55t-31 100q0 88 78 144q77 56 209 55q132 0 210 -55t78 -144q0 -59 -32 -101t-85 -54v-9
q63 -12 101 -58t39 -114q0 -98 -81 -150q-80 -52 -228 -52t-230 52t-82 150zM375 809q49 0 82 31t33 87t-33 84t-82 27q-76 0 -107 -63l-168 14l27 420h500v-143h-346l-15 -160h8q41 53 148 53q106 0 176 -55t70 -172t-82 -180t-205 -64q-270 0 -293 205h176q16 -84 111 -84
zM381 -25q485 994 713 1459h151l-713 -1459h-151z" />
    <glyph glyph-name="uni215E" unicode="&#x215e;" horiz-adv-x="1624" 
d="M1128 205q0 -47 35 -73t94 -26t95 26q35 26 34 73q0 100 -129 100t-129 -100zM1143 509q1 -89 115 -89t114 89t-114 89t-115 -89zM946 186q0 68 38 114t101 58v9q-53 12 -85 55t-31 100q0 88 78 144q77 56 209 55q132 0 210 -55t78 -144q0 -59 -32 -101t-85 -54v-9
q63 -12 101 -58t39 -114q0 -98 -81 -150q-80 -52 -228 -52t-230 52t-82 150zM66 1255v154h608v-111l-328 -593h-192l307 550h-395zM324 -25q628 1287 712 1459h152l-713 -1459h-151z" />
    <glyph glyph-name="arrowleft" unicode="&#x2190;" horiz-adv-x="1351" 
d="M690 600h604v-168h-604q-207 0 -338 8l334 -329l-117 -107l-512 512l512 512l117 -106l-334 -330q131 8 338 8z" />
    <glyph glyph-name="arrowup" unicode="&#x2191;" horiz-adv-x="1351" 
d="M764 502v-604h-168v604q0 207 8 338l-330 -334l-106 117l512 512l514 -512l-109 -117l-329 334q8 -131 8 -338z" />
    <glyph glyph-name="arrowright" unicode="&#x2192;" horiz-adv-x="1351" 
d="M662 432h-605v168h605q207 0 335 -8l-331 330l116 106l512 -512l-512 -512l-116 107l331 329q-129 -8 -335 -8z" />
    <glyph glyph-name="arrowdown" unicode="&#x2193;" horiz-adv-x="1351" 
d="M592 530v605h168v-605q0 -207 -8 -337l329 333l107 -116l-512 -512l-512 512l106 116l330 -333q-8 131 -8 337z" />
    <glyph glyph-name="uni2196" unicode="&#x2196;" horiz-adv-x="1351" 
d="M938 987v-153h-461q75 -65 153 -143l515 -517l-115 -123l-426 430q-139 133 -235 246v-465h-156v725h725z" />
    <glyph glyph-name="uni2197" unicode="&#x2197;" horiz-adv-x="1351" 
d="M420 987h725v-725h-154v465q-74 -84 -235 -246l-426 -430l-117 123l426 426q184 184 242 234h-461v153z" />
    <glyph glyph-name="uni2198" unicode="&#x2198;" horiz-adv-x="1351" 
d="M420 207h461q-100 86 -242 233l-426 426l117 121l426 -428q162 -162 235 -246v463h154v-725h-725v156z" />
    <glyph glyph-name="uni2199" unicode="&#x2199;" horiz-adv-x="1351" 
d="M938 207v-156h-725v725h156v-463q96 113 235 246l426 428l115 -121l-424 -426q-172 -172 -244 -233h461z" />
    <glyph glyph-name="partialdiff" unicode="&#x2202;" horiz-adv-x="1163" 
d="M506 156q110 0 199 93q88 93 88 214t-65 189q-64 68 -182 69q-118 0 -201 -87q-83 -88 -83 -218t67 -195t177 -65zM37 395q0 233 143 369t348 137q106 0 196 -44t126 -116q2 29 2 84q0 223 -73 325t-185 103q-199 0 -242 -196h-217q37 174 157 275q120 102 320 102
t333 -151q132 -151 132 -460q0 -643 -382 -805q-103 -43 -224 -43q-182 -1 -308 113t-126 307z" />
    <glyph glyph-name="uni2206" unicode="&#x2206;" horiz-adv-x="1335" 
d="M659 1180l-337 -996h679l-333 996h-9zM541 1409h254l499 -1409h-1251z" />
    <glyph glyph-name="product" unicode="&#x220f;" horiz-adv-x="1499" 
d="M178 1409h1143v-1409h-221v1225h-699v-1225h-223v1409z" />
    <glyph glyph-name="summation" unicode="&#x2211;" horiz-adv-x="1103" 
d="M55 1409h975v-182h-678l391 -520l-413 -525h725v-182h-1016v109l457 585l-441 592v123z" />
    <glyph glyph-name="minus" unicode="&#x2212;" horiz-adv-x="1163" 
d="M117 610h930v-180h-930v180z" />
    <glyph glyph-name="uni2215" unicode="&#x2215;" horiz-adv-x="153" 
d="M356 1434h154l-713 -1459h-153z" />
    <glyph glyph-name="uni2219" unicode="&#x2219;" horiz-adv-x="559" 
d="M147 643h265v-254h-265v254z" />
    <glyph glyph-name="radical" unicode="&#x221a;" horiz-adv-x="1224" 
d="M55 778l316 101l245 -637h9l405 1167h215l-497 -1409h-246l-266 655l-181 -57v180z" />
    <glyph glyph-name="infinity" unicode="&#x221e;" horiz-adv-x="1449" 
d="M1067 344q72 0 116 51t44 123t-44 123t-116 51q-115 0 -242 -174q127 -174 242 -174zM383 344q115 0 242 174q-127 174 -242 174q-72 0 -116 -51t-44 -123t44 -123t116 -51zM389 180q-150 0 -244 94t-94 244t94 244t244 94q193 0 340 -209q150 209 332 209q150 0 244 -94
t94 -244t-94 -244t-244 -94q-195 0 -340 207q-152 -207 -332 -207z" />
    <glyph glyph-name="integral" unicode="&#x222b;" horiz-adv-x="745" 
d="M115 -197q92 0 136 46t46 124t-2 181l-62 1020q-26 384 170 478q80 38 201 38h82v-181h-59q-93 0 -137 -46t-46 -124t2 -180l62 -1020q12 -232 -53 -363q-75 -153 -318 -153h-82v180h60z" />
    <glyph glyph-name="approxequal" unicode="&#x2248;" horiz-adv-x="1163" 
d="M106 131q0 164 78 249t195 85q80 0 156 -38t137 -75t108 -37q102 0 103 154h176q0 -164 -77 -249t-189 -85q-80 0 -158 39t-141 78t-109 39q-102 0 -102 -160h-177zM106 578q0 166 78 250t195 83q80 0 156 -38q76 -39 137 -75t108 -36q102 0 103 153h176q0 -165 -77 -249
t-189 -84q-80 0 -158 39t-141 77t-109 39q-102 0 -102 -159h-177z" />
    <glyph glyph-name="notequal" unicode="&#x2260;" horiz-adv-x="1163" 
d="M115 827h534l152 283l143 -78l-110 -205h215v-180h-312l-135 -254h447v-180h-543l-152 -283l-143 78l108 205h-204v180h301l137 254h-438v180z" />
    <glyph glyph-name="lessequal" unicode="&#x2264;" horiz-adv-x="1163" 
d="M147 180h869v-180h-869v180zM147 846l869 358v-194l-651 -252l651 -254v-201l-869 361v182z" />
    <glyph glyph-name="greaterequal" unicode="&#x2265;" horiz-adv-x="1163" 
d="M147 180h869v-180h-869v180zM1016 662l-869 -359v195l652 252l-652 254v200l869 -358v-184z" />
    <glyph glyph-name="filledbox" unicode="&#x25a0;" horiz-adv-x="1409" 
d="M0 1409h1409v-1409h-1409v1409z" />
    <glyph glyph-name="uni25A1" unicode="&#x25a1;" horiz-adv-x="1409" 
d="M1212 184v1041h-1015v-1041h1015zM0 1409h1409v-1409h-1409v1409z" />
    <glyph glyph-name="uni25B6" unicode="&#x25b6;" horiz-adv-x="1028" 
d="M90 1024l914 -524l-914 -525v1049z" />
    <glyph glyph-name="uni25B7" unicode="&#x25b7;" horiz-adv-x="1028" 
d="M684 500l-418 231v-463zM90 1024l914 -524l-914 -525v1049z" />
    <glyph glyph-name="uni25C0" unicode="&#x25c0;" horiz-adv-x="1028" 
d="M938 1024v-1049l-913 525z" />
    <glyph glyph-name="uni25C1" unicode="&#x25c1;" horiz-adv-x="1028" 
d="M762 268v463l-418 -231zM938 1024v-1049l-913 525z" />
    <glyph glyph-name="lozenge" unicode="&#x25ca;" horiz-adv-x="1337" 
d="M662 1227l-365 -518l371 -527h8l364 516l-368 529h-10zM61 705l504 704h207l504 -704l-504 -705h-207z" />
    <glyph glyph-name="circle" unicode="&#x25cb;" horiz-adv-x="1130" 
d="M240 501q0 -153 93 -252t235 -99t233 98q90 98 90 251t-93 252q-94 99 -236 99t-232 -98t-90 -251zM564 -25q-220 0 -370 150t-149 373q0 222 151 374q150 152 370 152t370 -150t150 -372t-152 -375q-150 -152 -370 -152z" />
    <glyph glyph-name="uni25CF" unicode="&#x25cf;" horiz-adv-x="1130" 
d="M564 -25q-220 0 -370 150t-149 373q0 222 151 374q150 152 370 152t370 -150t150 -372t-152 -375q-150 -152 -370 -152z" />
    <glyph glyph-name="uni25FB" unicode="&#x25fb;" horiz-adv-x="999" 
d="M811 174v651h-623v-651h623zM0 999h999v-999h-999v999z" />
    <glyph glyph-name="uni25FC" unicode="&#x25fc;" horiz-adv-x="999" 
d="M0 999h999v-999h-999v999z" />
    <glyph glyph-name="uni2605" unicode="&#x2605;" horiz-adv-x="1118" 
d="M356 401l-331 222l10 32l399 -18l109 387h32l107 -387l401 18l11 -32l-334 -222l141 -374l-29 -21l-313 248l-313 -248l-29 21z" />
    <glyph glyph-name="dotlessi.sc" unicode="&#xe08e;" horiz-adv-x="567" 
d="M172 1065h223v-1065h-223v1065z" />
    <glyph glyph-name="g.superior" unicode="&#xe0a3;" horiz-adv-x="890" 
d="M428 1591q-76 -1 -124 -63t-48 -164t47 -160t126 -59q79 0 127 60t48 163v10q-2 96 -51 154t-125 59zM420 823q193 0 192 240v61h-6q-59 -125 -235 -125q-131 -1 -219 95t-88 269t94 274t225 102q162 0 223 -127h6v108h179v-659q1 -201 -97 -288t-262 -87
q-334 0 -346 244h176q2 -51 45 -79t113 -28z" />
    <glyph glyph-name="germandbls.sc" unicode="&#xe0a4;" horiz-adv-x="2215" 
d="M1413 305q0 -78 65 -121t175 -43q240 0 239 156q0 55 -50 87t-126 41q-174 21 -325 71q-76 26 -126 92t-51 166q0 150 120 242t325 94q205 0 317 -88t113 -234h-213q0 72 -59 114t-159 42t-160 -37t-60 -108t70 -103t172 -46q102 -13 202 -36q100 -22 171 -90t71 -185
q0 -159 -123 -251t-344 -92t-342 87q-121 88 -121 242h219zM305 305q0 -78 65 -121t175 -43q240 0 239 156q0 55 -50 87t-126 41q-174 21 -325 71q-76 26 -126 92t-51 166q0 150 120 242t325 94q205 0 317 -88t113 -234h-213q0 72 -59 114t-159 42t-160 -37t-60 -108
t70 -103t171 -46q99 -13 201 -36q102 -22 173 -90t71 -185q0 -159 -123 -251t-344 -92t-342 87q-121 88 -121 242h219z" />
    <glyph glyph-name="uniE105" unicode="&#xe105;" 
d="M487 1720v-561h189v-143h-572v143h201v348l-151 -88l-74 125l297 176h110z" />
    <glyph glyph-name="uniE107" unicode="&#xe107;" 
d="M61 1016q-1 147 63 225t175 131l43 21q141 66 141 120q1 89 -117 89t-124 -121h-172q4 129 89 192t214 63t209 -56q80 -58 80 -153t-56 -147t-168 -102l-43 -21q-121 -57 -121 -98h385v-143h-598z" />
    <glyph glyph-name="uniE108" unicode="&#xe108;" 
d="M240 1231q0 -51 34 -80t94 -29q58 0 94 26t36 74t-36 74t-97 25h-50v115h50q119 0 118 90q0 88 -114 88q-53 0 -84 -27t-31 -74h-168q2 107 80 165t207 58t206 -54q77 -56 76 -144q1 -59 -31 -101t-85 -55v-6q63 -14 101 -59t38 -111q0 -100 -81 -153t-228 -54
q-297 0 -299 232h170z" />
    <glyph glyph-name="cent.denominator" unicode="&#xf629;" 
d="M70 350q0 106 62 176t177 86v109h144v-109q96 -16 151 -71t62 -125h-179q-18 76 -106 76q-59 0 -93 -38t-34 -104t34 -104t93 -37q88 0 106 76h179q-6 -72 -62 -127t-151 -72v-102h-144v102q-115 18 -177 88t-62 176z" />
    <glyph glyph-name="dollar.denominator" unicode="&#xf62a;" 
d="M366 104q58 0 94 22t36 62t-44 60t-106 30t-124 28q-62 16 -106 64t-44 130t59 141t166 74v112h141v-112q96 -13 154 -67t63 -130h-174q-13 80 -123 80t-110 -78q0 -68 149 -95q61 -11 123 -29t108 -64q44 -47 44 -132q0 -84 -60 -142t-174 -70v-127h-141v127
q-115 14 -176 70t-64 147h168q4 -45 43 -73q40 -28 98 -28z" />
    <glyph glyph-name="hyphen.denominator" unicode="&#xf62b;" horiz-adv-x="577" 
d="M72 432h432v-151h-432v151z" />
    <glyph glyph-name="parenleft.denominator" unicode="&#xf62c;" horiz-adv-x="471" 
d="M123 352q0 148 49 284t115 216h168q-61 -76 -113 -215t-51 -285q0 -146 51 -284q51 -139 113 -215h-168q-66 80 -115 216t-49 283z" />
    <glyph glyph-name="parenright.denominator" unicode="&#xf62d;" horiz-adv-x="471" 
d="M180 352q0 144 -51 284t-113 216h168q66 -80 115 -216t49 -284t-49 -283q-49 -136 -115 -216h-168q61 76 113 215q51 139 51 284z" />
    <glyph glyph-name="cent.numerator" unicode="&#xf62e;" 
d="M70 1055q0 106 62 176t177 86v108h144v-108q96 -15 151 -71t62 -126h-179q-18 76 -106 76q-59 0 -93 -38t-34 -104t34 -103q34 -38 93 -38q88 0 106 76h179q-6 -72 -62 -127t-151 -71v-103h-144v103q-115 18 -177 88t-62 176z" />
    <glyph glyph-name="dollar.numerator" unicode="&#xf62f;" 
d="M366 809q58 -1 94 21t36 62t-44 60t-106 30t-124 28t-106 65t-44 129t59 142t166 73v113h141v-113q96 -14 154 -67t63 -129h-174q-13 80 -123 80t-110 -78q0 -69 149 -96q61 -11 123 -28t108 -65q44 -48 44 -132q0 -85 -60 -142t-174 -70v-127h-141v127q-115 14 -176 70
t-64 147h168q4 -45 43 -73q40 -28 98 -27z" />
    <glyph glyph-name="hyphen.numerator" unicode="&#xf630;" horiz-adv-x="577" 
d="M72 1137h432v-152h-432v152z" />
    <glyph glyph-name="parenleft.numerator" unicode="&#xf631;" horiz-adv-x="471" 
d="M123 1056q0 148 49 284t115 216h168q-61 -76 -113 -215t-51 -284q0 -145 51 -285t113 -215h-168q-66 80 -115 216q-49 135 -49 283z" />
    <glyph glyph-name="parenright.numerator" unicode="&#xf632;" horiz-adv-x="471" 
d="M180 1056q0 146 -51 285t-113 215h168q66 -80 115 -216t49 -283t-49 -283t-115 -217h-168q61 76 113 215q51 138 51 284z" />
    <glyph glyph-name="h.superior" unicode="&#xf637;" horiz-adv-x="858" 
d="M100 2073h187v-224q0 -131 -8 -233h8q55 123 221 123q114 0 186 -68t72 -211v-444h-186v401q0 170 -138 170q-70 0 -112 -54t-43 -147v-370h-187v1057z" />
    <glyph glyph-name="zero.denominator" unicode="&#xf655;" 
d="M230 352q0 -230 138 -229q138 0 138 229t-137 230q-139 0 -139 -230zM369 -16q-156 0 -237 102t-81 266t81 266t237 102q155 0 235 -102t80 -266t-80 -266t-235 -102z" />
    <glyph glyph-name="one.denominator" unicode="&#xf656;" 
d="M487 705v-562h189v-143h-572v143h201v349l-151 -89l-74 125l297 177h110z" />
    <glyph glyph-name="two.denominator" unicode="&#xf657;" 
d="M61 0q-1 147 63 225t175 131l43 21q141 66 141 121q1 88 -117 88t-124 -121h-172q4 129 89 192t214 63t209 -56t80 -152t-56 -147t-168 -103l-43 -20q-121 -57 -121 -99h385v-143h-598z" />
    <glyph glyph-name="three.denominator" unicode="&#xf658;" 
d="M240 215q0 -51 34 -80t94 -29q58 0 94 26t36 74t-36 74t-97 25h-50v115h50q119 0 118 90q0 88 -114 88q-53 0 -84 -27t-31 -73h-168q2 106 80 164t207 59q129 0 206 -55t76 -144q1 -59 -31 -101t-85 -54v-7q63 -14 101 -59t38 -111q0 -100 -81 -153t-228 -53
q-297 0 -299 231h170z" />
    <glyph glyph-name="four.denominator" unicode="&#xf659;" 
d="M403 262v219l-174 -219h174zM584 707v-445h96v-137h-96v-125h-181v125h-358v106l385 476h154z" />
    <glyph glyph-name="five.denominator" unicode="&#xf65a;" 
d="M375 104q49 0 82 31t33 87t-33 84t-82 28q-76 0 -107 -64l-168 15l27 420h500v-144h-346l-15 -160h8q41 53 148 53q106 0 176 -54q70 -56 70 -173t-82 -180t-205 -63q-270 0 -293 204h176q16 -84 111 -84z" />
    <glyph glyph-name="six.denominator" unicode="&#xf65b;" 
d="M375 334q-49 0 -82 -28t-33 -84t33 -87t82 -31t82 31t33 87t-33 84t-82 28zM475 514q1 34 -25 58t-74 24t-84 -44t-42 -163q20 29 68 47t102 19q110 1 178 -55t68 -172t-82 -180t-203 -64q-311 0 -311 352q0 385 317 385q125 0 191 -56t71 -151h-174z" />
    <glyph glyph-name="seven.denominator" unicode="&#xf65c;" 
d="M66 551v154h608v-111l-328 -594h-192l307 551h-395z" />
    <glyph glyph-name="eight.denominator" unicode="&#xf65d;" 
d="M240 205q0 -47 34 -73t94 -26q58 0 94 26t36 74t-36 74t-93 25q-129 0 -129 -100zM368 598q-114 0 -114 -89t115 -89t114 90q-1 88 -115 88zM57 186q0 68 38 114t102 58v9q-53 12 -85 54t-32 101q0 88 78 144t210 55q132 0 210 -55t77 -144q1 -59 -31 -101t-85 -54v-9
q63 -12 101 -58t38 -114q0 -98 -81 -150t-228 -52t-230 52q-82 52 -82 150z" />
    <glyph glyph-name="nine.denominator" unicode="&#xf65e;" 
d="M351 371q48 -1 82 27t34 84t-33 87t-81 31t-82 -31q-33 -31 -33 -87t32 -84q33 -27 81 -27zM317 250q-115 0 -185 54t-71 167q0 113 82 181t205 69q309 0 309 -352q0 -385 -303 -385q-126 0 -198 57t-78 149h174q2 -34 33 -58t79 -24q104 1 111 205q-14 -27 -60 -45
t-98 -18z" />
    <glyph glyph-name="comma.denominator" unicode="&#xf65f;" horiz-adv-x="395" 
d="M102 201h191v-193l-60 -246h-96l47 238h-82v201z" />
    <glyph glyph-name="period.denominator" unicode="&#xf660;" horiz-adv-x="395" 
d="M102 201h191v-201h-191v201z" />
    <glyph glyph-name="zero.numerator" unicode="&#xf661;" 
d="M368 827q138 -1 138 229t-138 230t-138 -230t138 -229zM369 688q-156 0 -237 102t-81 267q0 164 81 266t237 102q155 0 235 -102t80 -266q0 -165 -80 -267t-235 -102z" />
    <glyph glyph-name="one.numerator" unicode="&#xf662;" 
d="M487 1409v-561h189v-143h-572v143h201v348l-151 -88l-74 125l297 176h110z" />
    <glyph glyph-name="two.numerator" unicode="&#xf663;" 
d="M61 705q-1 147 63 225t175 131l43 20q141 66 141 121q1 88 -117 88t-124 -121h-172q4 129 89 193t214 63q129 0 209 -57q80 -56 80 -152t-56 -147t-168 -102l-43 -21q-121 -57 -121 -98h385v-143h-598z" />
    <glyph glyph-name="three.numerator" unicode="&#xf664;" 
d="M240 920q0 -51 34 -80t94 -29q58 0 94 26q36 25 36 73t-36 74t-97 26h-50v114h50q119 0 118 90q0 88 -114 89q-53 0 -84 -27t-31 -74h-168q2 106 80 164t207 59q129 0 206 -55t76 -143q0 -59 -31 -102q-32 -42 -85 -54v-6q63 -14 101 -59t38 -111q0 -99 -81 -153
t-228 -54q-297 0 -299 232h170z" />
    <glyph glyph-name="four.numerator" unicode="&#xf665;" 
d="M403 967v219l-174 -219h174zM584 1411v-444h96v-138h-96v-124h-181v124h-358v107l385 475h154z" />
    <glyph glyph-name="five.numerator" unicode="&#xf666;" 
d="M375 809q49 0 82 31t33 87t-33 84t-82 27q-76 0 -107 -63l-168 14l27 420h500v-143h-346l-15 -160h8q41 53 148 53q106 0 176 -55t70 -172t-82 -180t-205 -64q-270 0 -293 205h176q16 -84 111 -84z" />
    <glyph glyph-name="six.numerator" unicode="&#xf667;" 
d="M375 1038q-49 0 -82 -28t-33 -83q0 -56 33 -87t82 -31t82 31t33 87t-33 84q-33 27 -82 27zM475 1219q1 35 -25 59t-74 22q-48 0 -84 -44t-42 -162q20 29 68 47t102 18q110 0 178 -55t68 -171q0 -117 -82 -181t-203 -64q-311 0 -311 352q0 385 317 385q125 0 191 -56
t71 -150h-174z" />
    <glyph glyph-name="seven.numerator" unicode="&#xf668;" 
d="M66 1255v154h608v-111l-328 -593h-192l307 550h-395z" />
    <glyph glyph-name="eight.numerator" unicode="&#xf669;" 
d="M240 909q0 -47 34 -73t94 -25q58 0 94 26q36 25 36 73t-36 74t-93 26q-129 -1 -129 -101zM368 1302q-114 0 -114 -89t115 -89t114 90q-1 88 -115 88zM57 891q0 68 38 114t102 58v8q-53 12 -85 54t-32 102q0 88 78 143t210 55t210 -55t77 -143q0 -59 -31 -102
q-32 -42 -85 -54v-8q63 -12 101 -58t38 -114q0 -99 -81 -151t-228 -52t-230 52q-82 53 -82 151z" />
    <glyph glyph-name="nine.numerator" unicode="&#xf66a;" 
d="M351 1075q48 0 82 28t34 84t-33 87t-81 31t-82 -31q-33 -31 -33 -87t32 -84t81 -28zM364 813q104 0 111 205q-14 -27 -60 -45t-98 -19q-115 0 -185 54t-71 168q0 114 82 182t205 67q309 0 309 -352q0 -385 -303 -385q-126 0 -198 57t-78 150h174q2 -33 33 -57t79 -25z
" />
    <glyph glyph-name="comma.numerator" unicode="&#xf66b;" horiz-adv-x="395" 
d="M102 905h191v-192l-60 -246h-96l47 238h-82v200z" />
    <glyph glyph-name="period.numerator" unicode="&#xf66c;" horiz-adv-x="395" 
d="M102 905h191v-200h-191v200z" />
    <glyph glyph-name="abreve.sc" unicode="&#xf66d;" horiz-adv-x="1120" 
d="M555 854l-168 -448h338l-162 448h-8zM432 1065h262l412 -1065h-234l-86 236h-462l-86 -236h-224zM562 1247q-118 0 -205 72t-101 227h129q27 -166 177 -166t177 166h129q-14 -156 -101 -228t-205 -71z" />
    <glyph glyph-name="amacron.sc" unicode="&#xf66e;" horiz-adv-x="1120" 
d="M555 854l-168 -448h338l-162 448h-8zM432 1065h262l412 -1065h-234l-86 236h-462l-86 -236h-224zM264 1477h588v-160h-588v160z" />
    <glyph glyph-name="aogonek.sc" unicode="&#xf66f;" horiz-adv-x="1120" 
d="M555 854l-168 -448h338l-162 448h-8zM831 -262q0 125 166 262h-125l-86 236h-462l-86 -236h-224l418 1065h262l412 -1065h6q-123 -129 -123 -222t109 -93h59v-136h-82q-119 1 -181 51t-63 138z" />
    <glyph glyph-name="aeacute.sc" unicode="&#xf670;" horiz-adv-x="1832" 
d="M885 408v446h-8l-332 -446h340zM1698 1065v-178h-592v-260h479v-172h-479v-277h610v-178h-831v236h-467l-174 -236h-248l813 1065h889zM1130 1565h246l-299 -336h-155z" />
    <glyph glyph-name="cacute.sc" unicode="&#xf671;" horiz-adv-x="1210" 
d="M84 536q0 242 153 398t404 156q201 0 334 -104t166 -275h-219q-53 186 -277 186q-152 0 -242 -100q-90 -101 -90 -263t90 -264t242 -102q215 0 277 186h219q-33 -172 -166 -275t-336 -104q-251 -1 -403 159t-152 402zM772 1565h246l-299 -336h-156z" />
    <glyph glyph-name="ccaron.sc" unicode="&#xf672;" horiz-adv-x="1210" 
d="M84 536q0 242 153 398t404 156q201 0 334 -104t166 -275h-219q-53 186 -277 186q-152 0 -242 -100q-90 -101 -90 -263t90 -264t242 -102q215 0 277 186h219q-33 -172 -166 -275t-336 -104q-251 -1 -403 159t-152 402zM289 1565h194l158 -217l160 217h194l-262 -336h-182z
" />
    <glyph glyph-name="ccircumflex.sc" unicode="&#xf673;" horiz-adv-x="1210" 
d="M84 536q0 242 153 398t404 156q201 0 334 -104t166 -275h-219q-53 186 -277 186q-152 0 -242 -100q-90 -101 -90 -263t90 -264t242 -102q215 0 277 186h219q-33 -172 -166 -275t-336 -104q-251 -1 -403 159t-152 402zM551 1565h182l262 -336h-194l-160 217l-158 -217
h-194z" />
    <glyph glyph-name="cdotaccent.sc" unicode="&#xf674;" horiz-adv-x="1210" 
d="M84 536q0 242 153 398t404 156q201 0 334 -104t166 -275h-219q-53 186 -277 186q-152 0 -242 -100q-90 -101 -90 -263t90 -264t242 -102q215 0 277 186h219q-33 -172 -166 -275t-336 -104q-251 -1 -403 159t-152 402zM537 1507h211v-213h-211v213z" />
    <glyph glyph-name="dcaron.sc" unicode="&#xf675;" horiz-adv-x="1253" 
d="M395 883v-701h191q180 0 266 100t86 252t-85 250t-267 99h-191zM172 1065h430q268 0 418 -146q150 -147 150 -385t-152 -386q-150 -148 -416 -148h-430v1065zM242 1565h194l158 -217l160 217h194l-262 -336h-182z" />
    <glyph glyph-name="dcroat.sc" unicode="&#xf676;" horiz-adv-x="1253" 
d="M395 883v-281h217v-139h-217v-281h191q180 0 266 100t86 252t-85 250t-267 99h-191zM8 602h164v463h430q268 0 418 -146q150 -147 150 -385t-152 -386q-150 -148 -416 -148h-430v463h-164v139z" />
    <glyph glyph-name="ebreve.sc" unicode="&#xf677;" horiz-adv-x="1114" 
d="M172 1065h815v-178h-592v-260h479v-172h-479v-277h611v-178h-834v1065zM579 1247q-118 0 -205 72t-102 227h129q27 -166 178 -166t177 166h129q-14 -156 -101 -228t-205 -71z" />
    <glyph glyph-name="ecaron.sc" unicode="&#xf678;" horiz-adv-x="1114" 
d="M172 1065h815v-178h-592v-260h479v-172h-479v-277h611v-178h-834v1065zM225 1565h195l158 -217l159 217h195l-262 -336h-183z" />
    <glyph glyph-name="edotaccent.sc" unicode="&#xf679;" horiz-adv-x="1114" 
d="M172 1065h815v-178h-592v-260h479v-172h-479v-277h611v-178h-834v1065zM473 1507h211v-213h-211v213z" />
    <glyph glyph-name="emacron.sc" unicode="&#xf67a;" horiz-adv-x="1114" 
d="M172 1065h815v-178h-592v-260h479v-172h-479v-277h611v-178h-834v1065zM281 1477h587v-160h-587v160z" />
    <glyph glyph-name="eng.sc" unicode="&#xf67b;" horiz-adv-x="1310" 
d="M172 1065h197l546 -703h9l-9 703h224v-1118q0 -219 -90 -308t-289 -90h-105v187h86q92 0 136 50q43 50 43 165v88l-525 663h-8l8 -702h-223v1065z" />
    <glyph glyph-name="eogonek.sc" unicode="&#xf67c;" horiz-adv-x="1114" 
d="M172 1065h815v-178h-592v-260h479v-172h-479v-277h611v-178h2q-123 -129 -123 -222t108 -93h60v-136h-82q-119 1 -181 51t-63 138q0 125 166 262h-721v1065z" />
    <glyph glyph-name="gbreve.sc" unicode="&#xf67d;" horiz-adv-x="1323" 
d="M674 575h497v-575h-141l-22 125h-4q-117 -150 -359 -150q-241 0 -397 160q-156 161 -156 401t160 397t420 157q203 0 337 -100t162 -253h-225q-23 68 -93 115q-71 47 -181 47q-160 0 -255 -101q-95 -100 -95 -264t94 -267t238 -103t233 64q88 64 88 178v2h-301v167z
M673 1247q-118 0 -205 72t-101 227h129q28 -166 178 -166t176 166h129q-14 -156 -101 -228t-205 -71z" />
    <glyph glyph-name="gcircumflex.sc" unicode="&#xf67e;" horiz-adv-x="1323" 
d="M674 575h497v-575h-141l-22 125h-4q-117 -150 -359 -150q-241 0 -397 160q-156 161 -156 401t160 397t420 157q203 0 337 -100t162 -253h-225q-23 68 -93 115q-71 47 -181 47q-160 0 -255 -101q-95 -100 -95 -264t94 -267t238 -103t233 64q88 64 88 178v2h-301v167z
M582 1565h182l262 -336h-195l-159 217l-158 -217h-195z" />
    <glyph glyph-name="gcommaaccent.sc" unicode="&#xf67f;" horiz-adv-x="1323" 
d="M760 -131v-170l-88 -217h-97l62 192h-88v195h211zM674 575h497v-575h-141l-22 125h-4q-117 -150 -359 -150q-241 0 -397 160q-156 161 -156 401t160 397t420 157q203 0 337 -100t162 -253h-225q-23 68 -93 115q-71 47 -181 47q-160 0 -255 -101q-95 -100 -95 -264
t94 -267t238 -103t233 64q88 64 88 178v2h-301v167z" />
    <glyph glyph-name="gdotaccent.sc" unicode="&#xf680;" horiz-adv-x="1323" 
d="M674 575h497v-575h-141l-22 125h-4q-117 -150 -359 -150q-241 0 -397 160q-156 161 -156 401t160 397t420 157q203 0 337 -100t162 -253h-225q-23 68 -93 115q-71 47 -181 47q-160 0 -255 -101q-95 -100 -95 -264t94 -267t238 -103t233 64q88 64 88 178v2h-301v167z
M567 1507h211v-213h-211v213z" />
    <glyph glyph-name="hbar.sc" unicode="&#xf681;" horiz-adv-x="1310" 
d="M395 629h520v153h-520v-153zM23 922h149v143h223v-143h520v143h224v-143h149v-140h-149v-782h-224v444h-520v-444h-223v782h-149v140z" />
    <glyph glyph-name="hcircumflex.sc" unicode="&#xf682;" horiz-adv-x="1310" 
d="M172 1065h223v-436h520v436h224v-1065h-224v444h-520v-444h-223v1065zM565 1565h183l262 -336h-195l-160 217l-157 -217h-195z" />
    <glyph glyph-name="ibreve.sc" unicode="&#xf683;" horiz-adv-x="567" 
d="M172 1065h223v-1065h-223v1065zM282 1247q-118 0 -205 72t-102 227h129q27 -166 178 -166t177 166h129q-14 -156 -101 -228t-205 -71z" />
    <glyph glyph-name="ij.sc" unicode="&#xf684;" horiz-adv-x="1525" 
d="M653 371h213v-47q0 -82 40 -124t108 -42t108 44t39 128v735h221v-719q0 -188 -98 -279t-268 -91t-266 84q-96 85 -97 264v47zM172 1065h223v-1065h-223v1065z" />
    <glyph glyph-name="imacron.sc" unicode="&#xf685;" horiz-adv-x="567" 
d="M172 1065h223v-1065h-223v1065zM-16 1477h587v-160h-587v160z" />
    <glyph glyph-name="iogonek.sc" unicode="&#xf686;" horiz-adv-x="567" 
d="M172 1065h223v-1065h-2q-123 -129 -123 -222t109 -93h59v-136h-82q-119 1 -181 51t-62 138q0 125 166 262h-107v1065z" />
    <glyph glyph-name="itilde.sc" unicode="&#xf687;" horiz-adv-x="567" 
d="M172 1065h223v-1065h-223v1065zM124 1516q81 0 178 -48t130 -47q70 0 86 99h111q-5 -108 -57 -174t-133 -66t-179 47t-129 47q-74 0 -86 -98h-111q4 108 56 174t134 66z" />
    <glyph glyph-name="jcircumflex.sc" unicode="&#xf688;" horiz-adv-x="950" 
d="M80 371h213v-54q0 -160 147 -159q147 0 148 166v741h221v-719q0 -188 -98 -279q-99 -91 -269 -91t-266 84q-96 85 -96 264v47zM614 1565h183l262 -336h-195l-159 217l-158 -217h-195z" />
    <glyph glyph-name="kcommaaccent.sc" unicode="&#xf689;" horiz-adv-x="1187" 
d="M737 -131v-170l-88 -217h-96l61 192h-88v195h211zM172 1065h223v-520l484 520h258l-445 -467l473 -598h-260l-356 449l-154 -160v-289h-223v1065z" />
    <glyph glyph-name="lacute.sc" unicode="&#xf68a;" horiz-adv-x="978" 
d="M172 1065h223v-872h539v-193h-762v1065zM408 1565h245l-299 -336h-155z" />
    <glyph glyph-name="lcaron.sc" unicode="&#xf68b;" horiz-adv-x="978" 
d="M614 872v193h211v-170l-88 -215h-96l61 192h-88zM172 1065h223v-879h539v-186h-762v1065z" />
    <glyph glyph-name="ldot.sc" unicode="&#xf68d;" horiz-adv-x="978" 
d="M567 670h211v-213h-211v213zM172 1065h223v-879h539v-186h-762v1065z" />
    <glyph glyph-name="nacute.sc" unicode="&#xf68e;" horiz-adv-x="1310" 
d="M172 1065h197l546 -711h9l-9 711h224v-1065h-195l-549 711h-8l8 -711h-223v1065zM786 1565h246l-299 -336h-155z" />
    <glyph glyph-name="ncaron.sc" unicode="&#xf68f;" horiz-adv-x="1310" 
d="M172 1065h197l546 -711h9l-9 711h224v-1065h-195l-549 711h-8l8 -711h-223v1065zM303 1565h195l157 -217l160 217h195l-262 -336h-183z" />
    <glyph glyph-name="ncommaaccent.sc" unicode="&#xf690;" horiz-adv-x="1310" 
d="M762 -131v-170l-88 -217h-96l61 192h-88v195h211zM172 1065h197l546 -711h9l-9 711h224v-1065h-195l-549 711h-8l8 -711h-223v1065z" />
    <glyph glyph-name="obreve.sc" unicode="&#xf691;" horiz-adv-x="1312" 
d="M999 532q0 160 -95 262t-248 103t-248 -101t-95 -263q-1 -161 95 -263t250 -102t247 102q94 102 94 262zM657 -25q-249 1 -411 159t-162 399t162 399t412 158t410 -158q161 -158 161 -400t-161 -400t-411 -157zM658 1247q-118 0 -204 72t-102 227h129q27 -166 177 -166
t178 166h129q-13 -156 -101 -228t-206 -71z" />
    <glyph glyph-name="ohungarumlaut.sc" unicode="&#xf692;" horiz-adv-x="1312" 
d="M999 532q0 160 -95 262t-248 103t-248 -101t-95 -263q-1 -161 95 -263t250 -102t247 102q94 102 94 262zM657 -25q-249 1 -411 159t-162 399t162 399t412 158t410 -158q161 -158 161 -400t-161 -400t-411 -157zM981 1565h244l-299 -336h-154zM592 1565h246l-299 -336
h-156z" />
    <glyph glyph-name="omacron.sc" unicode="&#xf693;" horiz-adv-x="1312" 
d="M999 532q0 160 -95 262t-248 103t-248 -101t-95 -263q-1 -161 95 -263t250 -102t247 102q94 102 94 262zM657 -25q-249 1 -411 159t-162 399t162 399t412 158t410 -158q161 -158 161 -400t-161 -400t-411 -157zM360 1477h588v-160h-588v160z" />
    <glyph glyph-name="oslashacute.sc" unicode="&#xf694;" horiz-adv-x="1312" 
d="M999 520q0 148 -69 242l-455 -547q78 -47 182 -47q154 0 248 102t94 250zM657 897q-154 1 -249 -101t-95 -252t72 -247l457 549q-80 51 -185 51zM84 532q0 242 162 400t411 158q178 0 316 -86l71 86h158l-133 -160q160 -160 160 -400t-161 -398t-411 -157q-172 0 -313 82
l-68 -82h-159l131 156q-164 159 -164 401zM788 1565h246l-299 -336h-155z" />
    <glyph glyph-name="racute.sc" unicode="&#xf695;" horiz-adv-x="1198" 
d="M395 887v-326h273q90 0 135 44t45 120t-47 119t-133 43h-273zM172 1065h510q188 0 288 -89t101 -247q0 -252 -233 -323l282 -406h-246l-260 385h-219v-385h-223v1065zM705 1565h245l-299 -336h-155z" />
    <glyph glyph-name="rcaron.sc" unicode="&#xf696;" horiz-adv-x="1198" 
d="M395 887v-326h273q90 0 135 44t45 120t-47 119t-133 43h-273zM172 1065h510q188 0 288 -89t101 -247q0 -252 -233 -323l282 -406h-246l-260 385h-219v-385h-223v1065zM221 1565h195l157 -217l160 217h195l-262 -336h-183z" />
    <glyph glyph-name="rcommaaccent.sc" unicode="&#xf697;" horiz-adv-x="1198" 
d="M713 -131v-170l-88 -217h-97l62 192h-88v195h211zM395 887v-326h273q90 0 135 44t45 120t-47 119t-133 43h-273zM172 1065h510q188 0 288 -89t101 -247q0 -252 -233 -323l282 -406h-246l-260 385h-219v-385h-223v1065z" />
    <glyph glyph-name="sacute.sc" unicode="&#xf698;" horiz-adv-x="1107" 
d="M305 305q0 -78 65 -121t175 -43q240 0 239 156q0 55 -50 87t-126 41q-174 21 -325 71q-76 26 -126 92t-51 166q0 150 120 242t325 94q205 0 317 -88t113 -234h-213q0 72 -59 114t-159 42t-160 -37t-60 -108t70 -103t171 -46q99 -13 201 -36q102 -22 173 -90t71 -185
q0 -159 -123 -251t-344 -92t-342 87q-121 88 -121 242h219zM684 1565h246l-299 -336h-156z" />
    <glyph glyph-name="scedilla.sc" unicode="&#xf699;" horiz-adv-x="1107" 
d="M86 305h219q0 -78 65 -121t175 -43q240 0 239 156q0 55 -50 87t-126 41q-174 21 -325 71q-76 26 -126 92t-51 166q0 150 120 242t325 94q205 0 317 -88t113 -234h-213q0 72 -59 114t-159 42t-160 -37t-60 -108t70 -103t171 -46q99 -13 201 -36q102 -22 173 -90t71 -185
q0 -153 -112 -243t-320 -99v-53q90 -4 139 -54t49 -131t-61 -135t-179 -55h-124v121h108q100 0 100 77t-100 77h-67l53 153q-200 7 -308 95t-108 233z" />
    <glyph glyph-name="scircumflex.sc" unicode="&#xf69a;" horiz-adv-x="1107" 
d="M305 305q0 -78 65 -121t175 -43q240 0 239 156q0 55 -50 87t-126 41q-174 21 -325 71q-76 26 -126 92t-51 166q0 150 120 242t325 94q205 0 317 -88t113 -234h-213q0 72 -59 114t-159 42t-160 -37t-60 -108t70 -103t171 -46q99 -13 201 -36q102 -22 173 -90t71 -185
q0 -159 -123 -251t-344 -92t-342 87q-121 88 -121 242h219zM463 1565h182l262 -336h-194l-160 217l-158 -217h-194z" />
    <glyph glyph-name="scommaaccent.sc" unicode="&#xf69b;" horiz-adv-x="1107" 
d="M651 -131v-170l-88 -217h-96l61 192h-88v195h211zM305 305q0 -78 65 -121t175 -43q240 0 239 156q0 55 -50 87t-126 41q-174 21 -325 71q-76 26 -126 92t-51 166q0 150 120 242t325 94q205 0 317 -88t113 -234h-213q0 72 -59 114t-159 42t-160 -37t-60 -108t70 -103
t171 -46q99 -13 201 -36q102 -22 173 -90t71 -185q0 -159 -123 -251t-344 -92t-342 87q-121 88 -121 242h219z" />
    <glyph glyph-name="tbar.sc" unicode="&#xf69c;" horiz-adv-x="1075" 
d="M45 1065h985v-186h-381v-342h297v-138h-297v-399h-223v399h-285v138h285v342h-381v186z" />
    <glyph glyph-name="tcaron.sc" unicode="&#xf69d;" horiz-adv-x="1075" 
d="M45 1065h985v-186h-381v-879h-223v879h-381v186zM182 1565h195l158 -217l159 217h195l-262 -336h-183z" />
    <glyph glyph-name="ubreve.sc" unicode="&#xf69f;" horiz-adv-x="1245" 
d="M139 1065h223v-631q0 -264 256 -264q131 0 198 69t67 195v631h223v-635q0 -455 -484 -455t-483 455v635zM624 1247q-118 0 -205 72t-102 227h129q27 -166 178 -166t177 166h129q-14 -156 -101 -228t-205 -71z" />
    <glyph glyph-name="uhungarumlaut.sc" unicode="&#xf6a0;" horiz-adv-x="1245" 
d="M139 1065h223v-631q0 -264 256 -264q131 0 198 69t67 195v631h223v-635q0 -455 -484 -455t-483 455v635zM946 1565h244l-299 -336h-154zM557 1565h246l-299 -336h-156z" />
    <glyph glyph-name="umacron.sc" unicode="&#xf6a1;" horiz-adv-x="1245" 
d="M139 1065h223v-631q0 -264 256 -264q131 0 198 69t67 195v631h223v-635q0 -455 -484 -455t-483 455v635zM326 1477h587v-160h-587v160z" />
    <glyph glyph-name="uogonek.sc" unicode="&#xf6a2;" horiz-adv-x="1245" 
d="M514 -252q0 123 156 229q-16 -2 -52 -2q-479 0 -479 455v635h223v-631q0 -264 256 -264q131 0 198 69t67 195v631h223v-635q0 -287 -211 -401q-101 -55 -159 -119t-58 -125q0 -100 108 -100h60v-136h-82q-250 0 -250 199z" />
    <glyph glyph-name="uring.sc" unicode="&#xf6a3;" horiz-adv-x="1245" 
d="M139 1065h223v-631q0 -264 256 -264q131 0 198 69t67 195v631h223v-635q0 -455 -484 -455t-483 455v635zM520 1413q0 -43 31 -73t73 -29q42 -1 72 29t31 73q0 43 -31 73q-32 30 -74 30t-72 -30t-30 -73zM623 1210q-87 0 -149 58t-62 145t62 145t150 58t149 -57
q63 -57 63 -145t-62 -146t-151 -58z" />
    <glyph glyph-name="utilde.sc" unicode="&#xf6a4;" horiz-adv-x="1245" 
d="M139 1065h223v-631q0 -264 256 -264q131 0 198 69t67 195v631h223v-635q0 -455 -484 -455t-483 455v635zM466 1516q81 0 178 -48t130 -47q70 0 86 99h111q-5 -108 -57 -174t-133 -66t-179 47t-129 47q-74 0 -86 -98h-111q4 108 56 174t134 66z" />
    <glyph glyph-name="wacute.sc" unicode="&#xf6a5;" horiz-adv-x="1619" 
d="M29 1065h233l199 -832h8l242 832h215l241 -832h9l188 832h227l-276 -1065h-277l-221 778h-6l-223 -778h-279zM944 1565h246l-299 -336h-156z" />
    <glyph glyph-name="wcircumflex.sc" unicode="&#xf6a6;" horiz-adv-x="1619" 
d="M29 1065h233l199 -832h8l242 832h215l241 -832h9l188 832h227l-276 -1065h-277l-221 778h-6l-223 -778h-279zM723 1565h182l262 -336h-194l-160 217l-158 -217h-194z" />
    <glyph glyph-name="wdieresis.sc" unicode="&#xf6a7;" horiz-adv-x="1619" 
d="M29 1065h233l199 -832h8l242 832h215l241 -832h9l188 832h227l-276 -1065h-277l-221 778h-6l-223 -778h-279zM924 1507h209v-213h-209v213zM494 1507h211v-213h-211v213z" />
    <glyph glyph-name="wgrave.sc" unicode="&#xf6a8;" horiz-adv-x="1619" 
d="M29 1065h233l199 -832h8l242 832h215l241 -832h9l188 832h227l-276 -1065h-277l-221 778h-6l-223 -778h-279zM438 1565h246l209 -336h-156z" />
    <glyph glyph-name="ycircumflex.sc" unicode="&#xf6a9;" horiz-adv-x="1085" 
d="M649 0h-221v408l-420 657h256l281 -455h4l291 455h237l-428 -651v-414zM453 1565h182l262 -336h-195l-159 217l-158 -217h-195z" />
    <glyph glyph-name="ygrave.sc" unicode="&#xf6aa;" horiz-adv-x="1085" 
d="M649 0h-221v408l-420 657h256l281 -455h4l291 455h237l-428 -651v-414zM168 1565h246l209 -336h-156z" />
    <glyph glyph-name="zacute.sc" unicode="&#xf6ab;" horiz-adv-x="1060" 
d="M98 1065h873v-131l-592 -750h586v-184h-887v131l592 750h-572v184zM662 1565h245l-299 -336h-155z" />
    <glyph glyph-name="zdotaccent.sc" unicode="&#xf6ac;" horiz-adv-x="1060" 
d="M98 1065h873v-131l-592 -750h586v-184h-887v131l592 750h-572v184zM426 1507h211v-213h-211v213z" />
    <glyph glyph-name="i.sc.loclTRK" unicode="&#xf6ad;" horiz-adv-x="567" 
d="M172 1065h223v-1065h-223v1065zM176 1507h211v-213h-211v213z" />
    <glyph glyph-name="parenleft.cap" unicode="&#xf6ae;" horiz-adv-x="686" 
d="M168 705q0 241 82 453t205 372h200q-279 -397 -279 -825t279 -826h-200q-123 160 -205 373t-82 453z" />
    <glyph glyph-name="parenright.cap" unicode="&#xf6af;" horiz-adv-x="686" 
d="M518 704q0 -240 -82 -452q-82 -213 -205 -373h-200q279 397 279 825t-279 826h200q123 -160 205 -373t82 -453z" />
    <glyph glyph-name="bracketleft.cap" unicode="&#xf6b0;" horiz-adv-x="696" 
d="M168 1530h498v-176h-297v-1299h297v-176h-498v1651z" />
    <glyph glyph-name="bracketright.cap" unicode="&#xf6b1;" horiz-adv-x="696" 
d="M328 55v1299h-297v176h499v-1651h-499v176h297z" />
    <glyph glyph-name="braceleft.cap" unicode="&#xf6b2;" horiz-adv-x="757" 
d="M262 377q0 143 -46 198t-183 56v155q137 0 183 56t46 198v172q0 162 77 240t263 78h125v-170h-100q-92 0 -127 -37t-35 -127v-217q0 -109 -47 -172t-158 -94v-8q111 -31 158 -95t47 -172v-225q0 -90 35 -127t127 -37h100v-170h-125q-186 0 -263 78t-77 240v180z" />
    <glyph glyph-name="braceright.cap" unicode="&#xf6b3;" horiz-adv-x="757" 
d="M131 49q92 0 127 37t35 127v225q0 109 47 172t158 95v8q-111 31 -158 94t-47 172v217q0 90 -35 127t-127 37h-100v170h123q186 0 263 -78t77 -240v-172q0 -143 46 -198t183 -56v-155q-137 1 -183 -55t-46 -199v-180q0 -162 -77 -240t-263 -78h-123v170h100z" />
    <glyph glyph-name="exclamdown.cap" unicode="&#xf6b4;" horiz-adv-x="581" 
d="M416 0h-250v389l61 615h125l64 -615v-389zM168 1409h244v-246h-244v246z" />
    <glyph glyph-name="questiondown.cap" unicode="&#xf6b5;" horiz-adv-x="1044" 
d="M432 926v69h215v-53q0 -104 -36 -181t-88 -121t-104 -81q-124 -88 -124 -187q0 -98 60 -155t173 -57t175 74t63 192h217q0 -190 -119 -320t-334 -131q-216 -1 -338 101t-122 277t127 276q53 43 107 82q128 92 128 215zM418 1409h244v-246h-244v246z" />
    <glyph glyph-name="guillemotleft.cap" unicode="&#xf6b6;" horiz-adv-x="1099" 
d="M522 713l293 417h182l-233 -417l233 -418h-182zM102 713l293 417h183l-234 -417l234 -418h-183z" />
    <glyph glyph-name="guillemotright.cap" unicode="&#xf6b7;" horiz-adv-x="1099" 
d="M756 713l-234 417h183l292 -417l-292 -418h-183zM336 713l-234 417h183l293 -417l-293 -418h-183z" />
    <glyph glyph-name="guilsinglleft.cap" unicode="&#xf6b8;" horiz-adv-x="681" 
d="M102 713l295 417h183l-234 -417l234 -418h-183z" />
    <glyph glyph-name="guilsinglright.cap" unicode="&#xf6b9;" horiz-adv-x="681" 
d="M336 713l-234 417h183l295 -417l-295 -418h-183z" />
    <glyph glyph-name="hyphen.cap" unicode="&#xf6ba;" horiz-adv-x="811" 
d="M115 809h581v-193h-581v193z" />
    <glyph glyph-name="endash.cap" unicode="&#xf6bb;" horiz-adv-x="1138" 
d="M115 809h909v-193h-909v193z" />
    <glyph glyph-name="emdash.cap" unicode="&#xf6bc;" horiz-adv-x="1720" 
d="M115 809h1491v-193h-1491v193z" />
    <glyph glyph-name="periodcentered.cap" unicode="&#xf6bd;" horiz-adv-x="559" 
d="M150 840h256v-254h-256v254z" />
    <glyph glyph-name="uniF6BE" unicode="&#xf6be;" horiz-adv-x="522" 
d="M150 999h221v-1144q0 -147 -72 -227t-242 -79h-75v181h51q63 0 90 36t27 113v1120z" />
    <glyph glyph-name="uni00200326" unicode="&#xf6c3;" horiz-adv-x="1173" 
d="M692 -131v-170l-88 -217h-96l61 192h-88v195h211z" />
    <glyph glyph-name="cent.inferior" unicode="&#xf6df;" 
d="M70 39q0 106 62 176t177 86v109h144v-109q96 -15 151 -71t62 -126h-179q-18 76 -106 76q-59 0 -93 -38t-34 -104t34 -103q34 -38 93 -37q88 0 106 75h179q-6 -72 -62 -127t-151 -71v-103h-144v103q-115 18 -177 88t-62 176z" />
    <glyph glyph-name="cent.superior" unicode="&#xf6e0;" 
d="M70 1366q0 106 62 176t177 86v109h144v-109q96 -16 151 -72t62 -124h-179q-18 76 -106 75q-59 0 -93 -38q-34 -37 -34 -103t34 -104t93 -37q88 0 106 75h179q-6 -72 -62 -126t-151 -72v-103h-144v103q-115 18 -177 88t-62 176z" />
    <glyph glyph-name="comma.inferior" unicode="&#xf6e1;" horiz-adv-x="395" 
d="M102 -111h191v-192l-60 -246h-96l47 238h-82v200z" />
    <glyph glyph-name="comma.superior" unicode="&#xf6e2;" horiz-adv-x="395" 
d="M102 1217h191v-193l-60 -246h-96l47 238h-82v201z" />
    <glyph glyph-name="dollar.inferior" unicode="&#xf6e3;" 
d="M366 -207q58 0 94 22q36 21 36 61q0 67 -151 91q-61 9 -123 27t-106 65t-44 129t59 142t166 73v113h141v-113q96 -14 154 -67t63 -129h-174q-13 80 -123 80t-110 -78q0 -71 149 -95q61 -10 123 -28t108 -66q44 -48 44 -132t-60 -142t-174 -70v-127h-141v127
q-115 14 -176 70t-64 148h168q4 -45 43 -73q40 -28 98 -28z" />
    <glyph glyph-name="dollar.superior" unicode="&#xf6e4;" 
d="M366 1120q58 0 94 22t36 62q0 67 -151 90q-61 10 -123 28t-106 64q-44 47 -44 129q0 81 59 141t166 75v112h141v-112q96 -13 154 -67t63 -130h-174q-13 80 -123 80t-110 -78q0 -68 149 -95q61 -11 123 -29t108 -64q44 -47 44 -132q0 -84 -60 -142t-174 -70v-127h-141v127
q-115 14 -176 70t-64 147h168q4 -45 43 -73q40 -28 98 -28z" />
    <glyph glyph-name="hyphen.inferior" unicode="&#xf6e5;" horiz-adv-x="577" 
d="M72 121h432v-152h-432v152z" />
    <glyph glyph-name="hyphen.superior" unicode="&#xf6e6;" horiz-adv-x="577" 
d="M72 1448h432v-152h-432v152z" />
    <glyph glyph-name="period.inferior" unicode="&#xf6e7;" horiz-adv-x="395" 
d="M102 -111h191v-200h-191v200z" />
    <glyph glyph-name="period.superior" unicode="&#xf6e8;" horiz-adv-x="395" 
d="M102 1217h191v-201h-191v201z" />
    <glyph glyph-name="a.superior" unicode="&#xf6e9;" horiz-adv-x="811" 
d="M258 1219q0 -93 118 -93q60 0 106 41t48 121v68q-16 -25 -67 -31l-103 -12q-102 -14 -102 -94zM72 1200q0 182 235 215l133 17q55 8 73 19q17 11 17 50t-30 71q-31 32 -90 32q-125 0 -134 -113h-174q8 125 94 185t214 61q307 0 307 -260v-461h-180v84h-7
q-61 -100 -223 -101q-111 -1 -173 55t-62 146z" />
    <glyph glyph-name="b.superior" unicode="&#xf6ea;" horiz-adv-x="890" 
d="M287 1368q0 -102 48 -162t127 -61q79 0 126 63q47 62 47 164t-47 160t-125 59q-78 0 -126 -57t-50 -156v-10zM100 2073h187v-226q0 -131 -8 -235h8q59 127 235 127q131 -1 218 -97t87 -269t-93 -273t-226 -101q-164 0 -221 125h-8v-108h-179v1057z" />
    <glyph glyph-name="d.superior" unicode="&#xf6eb;" horiz-adv-x="888" 
d="M428 1591q-76 -1 -124 -63t-48 -164t47 -160t126 -59q79 0 127 60t48 163v10q-2 96 -51 154t-125 59zM371 999q-131 -1 -219 95t-89 269q1 173 95 274t225 102q162 0 223 -127h6q-8 104 -8 235v226h187v-1057h-179v108h-6q-59 -125 -235 -125z" />
    <glyph glyph-name="e.superior" unicode="&#xf6ec;" horiz-adv-x="835" 
d="M422 1595q-133 0 -162 -145h318q-23 145 -156 145zM63 1365q-1 169 101 270t261 101t253 -94t94 -260v-49h-518q14 -190 180 -190q121 0 148 86h176q-18 -99 -106 -163t-240 -64t-250 96q-98 98 -99 267z" />
    <glyph glyph-name="i.superior" unicode="&#xf6ed;" horiz-adv-x="374" 
d="M94 1720h187v-704h-187v704zM88 2073h199v-183h-199v183z" />
    <glyph glyph-name="l.superior" unicode="&#xf6ee;" horiz-adv-x="389" 
d="M100 2073h187v-1057h-187v1057z" />
    <glyph glyph-name="m.superior" unicode="&#xf6ef;" horiz-adv-x="1300" 
d="M100 1720h179v-104h8q59 123 219 123t217 -140q66 139 238 140q109 0 179 -65t68 -206v-452h-186v411q0 160 -125 160q-68 0 -109 -51t-40 -147v-373h-187v409q0 162 -125 162q-63 0 -106 -50t-43 -148v-373h-187v704z" />
    <glyph glyph-name="o.superior" unicode="&#xf6f0;" horiz-adv-x="868" 
d="M434 1591q-82 -1 -130 -61t-48 -161t48 -163t130 -61q82 0 130 61q48 60 48 162t-48 162t-130 61zM63 1367q-1 169 101 270t272 101t270 -100t99 -269q1 -169 -101 -269t-272 -100t-270 98q-100 100 -99 269z" />
    <glyph glyph-name="r.superior" unicode="&#xf6f1;" horiz-adv-x="579" 
d="M100 1720h181v-133h6q59 152 184 152q55 0 98 -31l-37 -170q-43 25 -88 25q-76 0 -116 -68t-39 -170v-309h-189v704z" />
    <glyph glyph-name="s.superior" unicode="&#xf6f2;" horiz-adv-x="776" 
d="M526 1206q0 37 -26 54q-27 16 -84 26l-123 25q-217 37 -217 205q0 104 87 163t224 59t220 -56t91 -162h-174q-12 92 -138 92t-126 -76q0 -35 25 -50t84 -28l125 -24q106 -20 162 -64t56 -148t-89 -163q-90 -59 -236 -60q-307 0 -326 232h175q12 -107 151 -107t139 82z
" />
    <glyph glyph-name="t.superior" unicode="&#xf6f3;" horiz-adv-x="534" 
d="M143 1571h-127v149h127v213h189v-213h168v-149h-168v-293q0 -57 19 -81t71 -23h78v-158h-101q-143 0 -199 54t-57 187v314z" />
    <glyph glyph-name="lslash.sc" unicode="&#xf6f9;" horiz-adv-x="978" 
d="M172 1065h223v-438l215 149l84 -112l-299 -209v-269h539v-186h-762v301l-106 -74l-84 115l190 131v592z" />
    <glyph glyph-name="oe.sc" unicode="&#xf6fa;" horiz-adv-x="1806" 
d="M668 883q-182 1 -268 -99t-87 -253q0 -153 86 -251t269 -98h190v701h-190zM1081 887v-260h480v-172h-480v-277h611v-178h-1041q-268 0 -418 146q-149 146 -149 384t150 386q151 148 417 149h1022v-178h-592z" />
    <glyph glyph-name="scaron.sc" unicode="&#xf6fd;" horiz-adv-x="1107" 
d="M305 305q0 -78 65 -121t175 -43q240 0 239 156q0 55 -50 87t-126 41q-174 21 -325 71q-76 26 -126 92t-51 166q0 150 120 242t325 94q205 0 317 -88t113 -234h-213q0 72 -59 114t-159 42t-160 -37t-60 -108t70 -103t171 -46q99 -13 201 -36q102 -22 173 -90t71 -185
q0 -159 -123 -251t-344 -92t-342 87q-121 88 -121 242h219zM201 1565h194l158 -217l160 217h194l-262 -336h-182z" />
    <glyph glyph-name="zcaron.sc" unicode="&#xf6ff;" horiz-adv-x="1060" 
d="M98 1065h873v-131l-592 -750h586v-184h-887v131l592 750h-572v184zM178 1565h195l157 -217l160 217h195l-262 -336h-183z" />
    <glyph glyph-name="exclam.sc" unicode="&#xf721;" horiz-adv-x="573" 
d="M168 227h238v-227h-238v227zM166 1065h242v-291l-60 -450h-123l-59 450v291z" />
    <glyph glyph-name="ampersand.sc" unicode="&#xf726;" horiz-adv-x="1220" 
d="M301 299q1 -74 67 -118t183 -44t205 56l-310 280q-145 -74 -145 -174zM414 812q0 -58 96 -155q84 37 129 74t45 88q0 119 -137 119q-59 0 -96 -34t-37 -92zM88 283q0 106 67 176t181 123q-111 124 -111 234t84 189t245 79t241 -68q79 -68 79 -178t-66 -170
q-66 -61 -187 -117l249 -236q43 86 43 189v28h185v-30q0 -170 -94 -309l208 -193h-245l-80 74q-143 -98 -354 -98t-328 82t-117 225z" />
    <glyph glyph-name="zero.oldstyle" unicode="&#xf730;" horiz-adv-x="1222" 
d="M305 500q0 -156 87 -250t219 -94t219 94q88 94 88 252t-86 250t-220 92q-133 0 -220 -94t-87 -250zM78 499q0 229 148 377t388 148t385 -146t145 -376t-148 -378t-388 -148t-385 146q-145 147 -145 377z" />
    <glyph glyph-name="one.oldstyle" unicode="&#xf731;" horiz-adv-x="747" 
d="M580 999v-999h-222v725l-239 -162l-94 164l399 272h156z" />
    <glyph glyph-name="two.oldstyle" unicode="&#xf732;" horiz-adv-x="1040" 
d="M76 0q0 210 89 318t257 171l113 46q162 57 186 110q12 27 12 75t-47 92t-156 44q-217 0 -235 -215h-207q6 199 135 291t315 92t301 -86q113 -86 113 -240t-134 -232q-50 -30 -81 -42t-94 -37l-115 -43q-190 -72 -192 -168h614v-176h-874z" />
    <glyph glyph-name="three.oldstyle" unicode="&#xf733;" horiz-adv-x="1107" 
d="M256 16q0 -132 76 -202t202 -70t202 66t77 176q0 110 -79 176t-199 65h-105v183h105q99 0 167 63t68 161t-67 156q-67 56 -169 56t-169 -60q-66 -60 -66 -176h-203q0 190 121 302t320 112t321 -105t123 -276q0 -102 -61 -193t-148 -122v-9q115 -29 190 -123t74 -219
q0 -190 -141 -301q-141 -110 -364 -110t-357 115q-133 115 -133 335h215z" />
    <glyph glyph-name="four.oldstyle" unicode="&#xf734;" horiz-adv-x="1130" 
d="M686 160v514l-410 -514h410zM909 1008v-848h199v-185h-199v-385h-223v385h-643v150l686 883h180z" />
    <glyph glyph-name="five.oldstyle" unicode="&#xf735;" horiz-adv-x="1067" 
d="M544 -254q114 0 190 75t77 206q0 131 -75 207t-183 77q-139 0 -242 -131l-198 13l45 806h794v-190h-598l-22 -408h8q94 91 265 91t300 -119t129 -338t-141 -344t-350 -125t-336 108t-144 293h220q14 -93 81 -157q66 -64 180 -64z" />
    <glyph glyph-name="six.oldstyle" unicode="&#xf736;" horiz-adv-x="1169" 
d="M604 721q-116 0 -190 -78t-74 -203q0 -124 73 -204t191 -80t192 76t74 205q0 128 -74 206q-75 78 -192 78zM86 666q0 397 146 582t382 186q203 0 315 -102t130 -279h-217q-25 201 -228 200q-283 0 -299 -518q41 76 130 121t200 45q195 0 321 -122t126 -337t-142 -341
t-342 -126q-522 1 -522 691z" />
    <glyph glyph-name="seven.oldstyle" unicode="&#xf737;" horiz-adv-x="972" 
d="M33 803v196h907v-145l-584 -1264h-229l573 1213h-667z" />
    <glyph glyph-name="eight.oldstyle" unicode="&#xf738;" horiz-adv-x="1153" 
d="M291 393q0 -111 79 -175t207 -64q129 0 207 64t78 176q0 110 -81 176t-205 67q-124 -1 -204 -67q-81 -66 -81 -177zM577 819q103 -1 172 63t68 162q0 98 -67 158q-68 60 -172 60t-174 -60t-68 -158q0 -98 69 -162t172 -63zM68 379q0 129 75 225q76 96 189 125v8
q-90 29 -150 118q-59 89 -59 196q0 170 125 276q125 107 329 107q205 0 329 -106t124 -277q0 -105 -59 -195t-150 -119v-8q113 -29 189 -125t75 -225q0 -188 -138 -296t-369 -108t-371 108q-139 108 -139 296z" />
    <glyph glyph-name="nine.oldstyle" unicode="&#xf739;" horiz-adv-x="1157" 
d="M549 279q117 -1 189 79t73 205q0 125 -74 203q-75 78 -191 78t-191 -77t-75 -205t76 -206q76 -77 193 -77zM1065 340q0 -774 -528 -774q-201 0 -318 104t-127 277h217q9 -89 67 -145t161 -56q137 0 213 119t84 399q-41 -76 -128 -121t-198 -45q-195 0 -322 122t-127 337
q-1 215 141 341t343 126q522 0 522 -684z" />
    <glyph glyph-name="question.sc" unicode="&#xf73f;" horiz-adv-x="968" 
d="M356 227h230v-227h-230v227zM371 360q1 78 33 136t78 92q46 32 91 60q111 68 111 133q0 63 -56 103t-150 40t-149 -52q-54 -52 -55 -133h-204q0 150 106 250q106 101 300 101t309 -79q114 -79 114 -218q0 -85 -51 -149q-52 -64 -112 -95t-111 -78t-52 -104v-43h-202v36z
" />
    <glyph glyph-name="a.sc" unicode="&#xf761;" horiz-adv-x="1120" 
d="M555 854l-168 -448h338l-162 448h-8zM432 1065h262l412 -1065h-234l-86 236h-462l-86 -236h-224z" />
    <glyph glyph-name="b.sc" unicode="&#xf762;" horiz-adv-x="1218" 
d="M395 463v-289h324q82 0 126 40t44 106t-45 105q-45 38 -125 38h-324zM395 891v-258h291q76 0 116 38t40 101q0 119 -156 119h-291zM172 1065h537q178 0 269 -73t91 -206q0 -76 -44 -135t-134 -82v-6q103 -16 165 -86t62 -166q0 -139 -99 -225t-276 -86h-571v1065z" />
    <glyph glyph-name="c.sc" unicode="&#xf763;" horiz-adv-x="1210" 
d="M84 536q0 242 153 398t404 156q201 0 334 -104t166 -275h-219q-53 186 -277 186q-152 0 -242 -100q-90 -101 -90 -263t90 -264t242 -102q215 0 277 186h219q-33 -172 -166 -275t-336 -104q-251 -1 -403 159t-152 402z" />
    <glyph glyph-name="d.sc" unicode="&#xf764;" horiz-adv-x="1253" 
d="M395 883v-701h191q180 0 266 100t86 252t-85 250t-267 99h-191zM172 1065h430q268 0 418 -146q150 -147 150 -385t-152 -386q-150 -148 -416 -148h-430v1065z" />
    <glyph glyph-name="e.sc" unicode="&#xf765;" horiz-adv-x="1114" 
d="M172 1065h815v-178h-592v-260h479v-172h-479v-277h611v-178h-834v1065z" />
    <glyph glyph-name="f.sc" unicode="&#xf766;" horiz-adv-x="1054" 
d="M172 1065h801v-178h-578v-318h461v-174h-461v-395h-223v1065z" />
    <glyph glyph-name="g.sc" unicode="&#xf767;" horiz-adv-x="1323" 
d="M674 575h497v-575h-141l-22 125h-4q-117 -150 -359 -150q-241 0 -397 160q-156 161 -156 401t160 397t420 157q203 0 337 -100t162 -253h-225q-23 68 -93 115q-71 47 -181 47q-160 0 -255 -101q-95 -100 -95 -264t94 -267t238 -103t233 64q88 64 88 178v2h-301v167z" />
    <glyph glyph-name="h.sc" unicode="&#xf768;" horiz-adv-x="1310" 
d="M172 1065h223v-436h520v436h224v-1065h-224v444h-520v-444h-223v1065z" />
    <glyph glyph-name="i.sc" unicode="&#xf769;" horiz-adv-x="567" 
d="M172 1065h223v-1065h-223v1065z" />
    <glyph glyph-name="j.sc" unicode="&#xf76a;" horiz-adv-x="950" 
d="M80 371h213v-54q0 -160 147 -159q147 0 148 166v741h221v-719q0 -188 -98 -279q-99 -91 -269 -91t-266 84q-96 85 -96 264v47z" />
    <glyph glyph-name="k.sc" unicode="&#xf76b;" horiz-adv-x="1187" 
d="M172 1065h223v-520l484 520h258l-445 -467l473 -598h-260l-356 449l-154 -160v-289h-223v1065z" />
    <glyph glyph-name="l.sc" unicode="&#xf76c;" horiz-adv-x="978" 
d="M172 1065h223v-872h539v-193h-762v1065z" />
    <glyph glyph-name="m.sc" unicode="&#xf76d;" horiz-adv-x="1605" 
d="M172 1065h293l338 -774h4l344 774h281v-1065h-220l17 760h-6l-342 -760h-160l-338 760h-8l18 -760h-221v1065z" />
    <glyph glyph-name="n.sc" unicode="&#xf76e;" horiz-adv-x="1310" 
d="M172 1065h197l546 -711h9l-9 711h224v-1065h-195l-549 711h-8l8 -711h-223v1065z" />
    <glyph glyph-name="o.sc" unicode="&#xf76f;" horiz-adv-x="1312" 
d="M999 532q0 160 -95 262t-248 103t-248 -101t-95 -263q-1 -161 95 -263t250 -102t247 102q94 102 94 262zM657 -25q-249 1 -411 159t-162 399t162 399t412 158t410 -158q161 -158 161 -400t-161 -400t-411 -157z" />
    <glyph glyph-name="p.sc" unicode="&#xf770;" horiz-adv-x="1157" 
d="M395 887v-363h264q92 0 141 49q48 49 48 131t-49 133q-49 50 -140 50h-264zM172 1065h504q188 0 292 -98t103 -260q0 -161 -103 -261t-292 -100h-281v-346h-223v1065z" />
    <glyph glyph-name="q.sc" unicode="&#xf771;" horiz-adv-x="1312" 
d="M999 532q0 160 -95 262t-248 103t-248 -101t-95 -263q-1 -161 95 -263t250 -102t247 102q94 102 94 262zM84 533q0 241 162 399t412 158t410 -158q161 -158 161 -400t-164 -401l209 -211l-144 -133l-229 236q-119 -47 -244 -48q-249 1 -411 159t-162 399z" />
    <glyph glyph-name="r.sc" unicode="&#xf772;" horiz-adv-x="1198" 
d="M395 887v-326h273q90 0 135 44t45 120t-47 119t-133 43h-273zM172 1065h510q188 0 288 -89t101 -247q0 -252 -233 -323l282 -406h-246l-260 385h-219v-385h-223v1065z" />
    <glyph glyph-name="s.sc" unicode="&#xf773;" horiz-adv-x="1107" 
d="M305 305q0 -78 65 -121t175 -43q240 0 239 156q0 55 -50 87t-126 41q-174 21 -325 71q-76 26 -126 92t-51 166q0 150 120 242t325 94q205 0 317 -88t113 -234h-213q0 72 -59 114t-159 42t-160 -37t-60 -108t70 -103t171 -46q99 -13 201 -36q102 -22 173 -90t71 -185
q0 -159 -123 -251t-344 -92t-342 87q-121 88 -121 242h219z" />
    <glyph glyph-name="t.sc" unicode="&#xf774;" horiz-adv-x="1075" 
d="M45 1065h985v-186h-381v-879h-223v879h-381v186z" />
    <glyph glyph-name="u.sc" unicode="&#xf775;" horiz-adv-x="1245" 
d="M139 1065h223v-631q0 -264 256 -264q131 0 198 69t67 195v631h223v-635q0 -455 -484 -455t-483 455v635z" />
    <glyph glyph-name="v.sc" unicode="&#xf776;" horiz-adv-x="1103" 
d="M14 1065h236l303 -854h8l307 854h222l-400 -1065h-280z" />
    <glyph glyph-name="w.sc" unicode="&#xf777;" horiz-adv-x="1619" 
d="M29 1065h233l199 -832h8l242 832h215l241 -832h9l188 832h227l-276 -1065h-277l-221 778h-6l-223 -778h-279z" />
    <glyph glyph-name="x.sc" unicode="&#xf778;" horiz-adv-x="1075" 
d="M410 545l-379 520h262l252 -360l246 360h251l-378 -516l395 -549h-246l-283 395l-276 -395h-240z" />
    <glyph glyph-name="y.sc" unicode="&#xf779;" horiz-adv-x="1085" 
d="M649 0h-221v408l-420 657h256l281 -455h4l291 455h237l-428 -651v-414z" />
    <glyph glyph-name="z.sc" unicode="&#xf77a;" horiz-adv-x="1060" 
d="M98 1065h873v-131l-592 -750h586v-184h-887v131l592 750h-572v184z" />
    <glyph glyph-name="exclamdown.sc" unicode="&#xf7a1;" horiz-adv-x="573" 
d="M408 0h-242v291l59 450h123l60 -450v-291zM168 1065h238v-227h-238v227z" />
    <glyph glyph-name="questiondown.sc" unicode="&#xf7bf;" horiz-adv-x="968" 
d="M598 705q0 -79 -33 -137t-78 -91t-91 -61q-113 -67 -111 -140q0 -57 55 -96t150 -39q94 -1 148 51t54 134h207q0 -150 -106 -250t-301 -100t-309 78q-114 79 -113 218q0 86 50 150t111 94q61 31 112 78q50 47 50 104v43h205v-36zM610 838h-229v227h229v-227z" />
    <glyph glyph-name="agrave.sc" unicode="&#xf7e0;" horiz-adv-x="1120" 
d="M555 854l-168 -448h338l-162 448h-8zM432 1065h262l412 -1065h-234l-86 236h-462l-86 -236h-224zM186 1565h246l209 -336h-156z" />
    <glyph glyph-name="aacute.sc" unicode="&#xf7e1;" horiz-adv-x="1120" 
d="M555 854l-168 -448h338l-162 448h-8zM432 1065h262l412 -1065h-234l-86 236h-462l-86 -236h-224zM692 1565h246l-299 -336h-156z" />
    <glyph glyph-name="acircumflex.sc" unicode="&#xf7e2;" horiz-adv-x="1120" 
d="M555 854l-168 -448h338l-162 448h-8zM432 1065h262l412 -1065h-234l-86 236h-462l-86 -236h-224zM471 1565h182l262 -336h-194l-160 217l-158 -217h-194z" />
    <glyph glyph-name="atilde.sc" unicode="&#xf7e3;" horiz-adv-x="1120" 
d="M555 854l-168 -448h338l-162 448h-8zM432 1065h262l412 -1065h-234l-86 236h-462l-86 -236h-224zM404 1516q82 0 179 -48t130 -47q70 0 86 99h110q-4 -108 -56 -174t-133 -66t-179 47t-129 47q-74 0 -86 -98h-111q4 108 56 174q51 66 133 66z" />
    <glyph glyph-name="adieresis.sc" unicode="&#xf7e4;" horiz-adv-x="1120" 
d="M555 854l-168 -448h338l-162 448h-8zM432 1065h262l412 -1065h-234l-86 236h-462l-86 -236h-224zM672 1507h209v-213h-209v213zM242 1507h211v-213h-211v213z" />
    <glyph glyph-name="aring.sc" unicode="&#xf7e5;" horiz-adv-x="1120" 
d="M555 854l-168 -448h338l-162 448h-8zM432 1065h262l412 -1065h-234l-86 236h-462l-86 -236h-224zM562 1311q42 -1 73 29t31 73t-31 73t-74 30t-73 -30t-30 -73t31 -73q31 -29 73 -29zM561 1210q-88 0 -149 58t-62 145q0 87 62 145t150 58t150 -57t62 -145t-62 -146
t-151 -58z" />
    <glyph glyph-name="ae.sc" unicode="&#xf7e6;" horiz-adv-x="1832" 
d="M885 408v446h-8l-332 -446h340zM1698 1065v-178h-592v-260h479v-172h-479v-277h610v-178h-831v236h-467l-174 -236h-248l813 1065h889z" />
    <glyph glyph-name="ccedilla.sc" unicode="&#xf7e7;" horiz-adv-x="1210" 
d="M84 542q0 236 153 392t404 156q201 0 334 -104t166 -275h-219q-53 186 -277 186q-152 0 -242 -100q-90 -101 -90 -263t90 -264t242 -102q215 0 277 186h219q-31 -164 -154 -266t-309 -111v-53q90 -4 139 -54t49 -131t-61 -135t-178 -55h-125v121h108q100 0 101 78
q0 76 -101 76h-67l53 153q-233 14 -373 171q-139 158 -139 394z" />
    <glyph glyph-name="egrave.sc" unicode="&#xf7e8;" horiz-adv-x="1114" 
d="M172 1065h815v-178h-592v-260h479v-172h-479v-277h611v-178h-834v1065zM203 1565h246l208 -336h-155z" />
    <glyph glyph-name="eacute.sc" unicode="&#xf7e9;" horiz-adv-x="1114" 
d="M172 1065h815v-178h-592v-260h479v-172h-479v-277h611v-178h-834v1065zM709 1565h245l-299 -336h-155z" />
    <glyph glyph-name="ecircumflex.sc" unicode="&#xf7ea;" horiz-adv-x="1114" 
d="M172 1065h815v-178h-592v-260h479v-172h-479v-277h611v-178h-834v1065zM487 1565h183l262 -336h-195l-159 217l-158 -217h-195z" />
    <glyph glyph-name="edieresis.sc" unicode="&#xf7eb;" horiz-adv-x="1114" 
d="M172 1065h815v-178h-592v-260h479v-172h-479v-277h611v-178h-834v1065zM688 1507h209v-213h-209v213zM258 1507h211v-213h-211v213z" />
    <glyph glyph-name="igrave.sc" unicode="&#xf7ec;" horiz-adv-x="567" 
d="M172 1065h223v-1065h-223v1065zM-94 1565h246l208 -336h-155z" />
    <glyph glyph-name="iacute.sc" unicode="&#xf7ed;" horiz-adv-x="567" 
d="M172 1065h223v-1065h-223v1065zM412 1565h245l-299 -336h-155z" />
    <glyph glyph-name="icircumflex.sc" unicode="&#xf7ee;" horiz-adv-x="567" 
d="M172 1065h223v-1065h-223v1065zM190 1565h183l262 -336h-195l-159 217l-158 -217h-195z" />
    <glyph glyph-name="idieresis.sc" unicode="&#xf7ef;" horiz-adv-x="567" 
d="M172 1065h223v-1065h-223v1065zM391 1507h209v-213h-209v213zM-39 1507h211v-213h-211v213z" />
    <glyph glyph-name="eth.sc" unicode="&#xf7f0;" horiz-adv-x="1253" 
d="M395 883v-281h217v-139h-217v-281h191q180 0 266 100t86 252t-85 250t-267 99h-191zM8 602h164v463h430q268 0 418 -146q150 -147 150 -385t-152 -386q-150 -148 -416 -148h-430v463h-164v139z" />
    <glyph glyph-name="ntilde.sc" unicode="&#xf7f1;" horiz-adv-x="1310" 
d="M172 1065h197l546 -711h9l-9 711h224v-1065h-195l-549 711h-8l8 -711h-223v1065zM499 1516q81 0 178 -48t130 -47q70 0 86 99h111q-4 -108 -56 -174t-134 -66q-81 0 -179 47t-129 47q-74 0 -86 -98h-111q5 108 57 174t133 66z" />
    <glyph glyph-name="ograve.sc" unicode="&#xf7f2;" horiz-adv-x="1312" 
d="M999 532q0 160 -95 262t-248 103t-248 -101t-95 -263q-1 -161 95 -263t250 -102t247 102q94 102 94 262zM657 -25q-249 1 -411 159t-162 399t162 399t412 158t410 -158q161 -158 161 -400t-161 -400t-411 -157zM283 1565h245l209 -336h-155z" />
    <glyph glyph-name="oacute.sc" unicode="&#xf7f3;" horiz-adv-x="1312" 
d="M999 532q0 160 -95 262t-248 103t-248 -101t-95 -263q-1 -161 95 -263t250 -102t247 102q94 102 94 262zM657 -25q-249 1 -411 159t-162 399t162 399t412 158t410 -158q161 -158 161 -400t-161 -400t-411 -157zM788 1565h246l-299 -336h-155z" />
    <glyph glyph-name="ocircumflex.sc" unicode="&#xf7f4;" horiz-adv-x="1312" 
d="M999 532q0 160 -95 262t-248 103t-248 -101t-95 -263q-1 -161 95 -263t250 -102t247 102q94 102 94 262zM657 -25q-249 1 -411 159t-162 399t162 399t412 158t410 -158q161 -158 161 -400t-161 -400t-411 -157zM567 1565h183l262 -336h-195l-160 217l-157 -217h-195z" />
    <glyph glyph-name="otilde.sc" unicode="&#xf7f5;" horiz-adv-x="1312" 
d="M999 532q0 160 -95 262t-248 103t-248 -101t-95 -263q-1 -161 95 -263t250 -102t247 102q94 102 94 262zM657 -25q-249 1 -411 159t-162 399t162 399t412 158t410 -158q161 -158 161 -400t-161 -400t-411 -157zM501 1516q81 0 178 -48t130 -47q70 0 86 99h111
q-4 -108 -56 -174t-134 -66q-81 0 -179 47t-129 47q-74 0 -86 -98h-111q5 108 57 174t133 66z" />
    <glyph glyph-name="odieresis.sc" unicode="&#xf7f6;" horiz-adv-x="1312" 
d="M999 532q0 160 -95 262t-248 103t-248 -101t-95 -263q-1 -161 95 -263t250 -102t247 102q94 102 94 262zM657 -25q-249 1 -411 159t-162 399t162 399t412 158t410 -158q161 -158 161 -400t-161 -400t-411 -157zM768 1507h209v-213h-209v213zM338 1507h211v-213h-211v213z
" />
    <glyph glyph-name="oslash.sc" unicode="&#xf7f8;" horiz-adv-x="1312" 
d="M999 520q0 148 -69 242l-455 -547q78 -47 182 -47q154 0 248 102t94 250zM657 897q-154 1 -249 -101t-95 -252t72 -247l457 549q-80 51 -185 51zM84 532q0 242 162 400t411 158q178 0 316 -86l71 86h158l-133 -160q160 -160 160 -400t-161 -398t-411 -157q-172 0 -313 82
l-68 -82h-159l131 156q-164 159 -164 401z" />
    <glyph glyph-name="ugrave.sc" unicode="&#xf7f9;" horiz-adv-x="1245" 
d="M139 1065h223v-631q0 -264 256 -264q131 0 198 69t67 195v631h223v-635q0 -455 -484 -455t-483 455v635zM248 1565h246l208 -336h-155z" />
    <glyph glyph-name="uacute.sc" unicode="&#xf7fa;" horiz-adv-x="1245" 
d="M139 1065h223v-631q0 -264 256 -264q131 0 198 69t67 195v631h223v-635q0 -455 -484 -455t-483 455v635zM754 1565h245l-299 -336h-155z" />
    <glyph glyph-name="ucircumflex.sc" unicode="&#xf7fb;" horiz-adv-x="1245" 
d="M139 1065h223v-631q0 -264 256 -264q131 0 198 69t67 195v631h223v-635q0 -455 -484 -455t-483 455v635zM532 1565h183l262 -336h-195l-159 217l-158 -217h-195z" />
    <glyph glyph-name="udieresis.sc" unicode="&#xf7fc;" horiz-adv-x="1245" 
d="M139 1065h223v-631q0 -264 256 -264q131 0 198 69t67 195v631h223v-635q0 -455 -484 -455t-483 455v635zM733 1507h209v-213h-209v213zM303 1507h211v-213h-211v213z" />
    <glyph glyph-name="yacute.sc" unicode="&#xf7fd;" horiz-adv-x="1085" 
d="M649 0h-221v408l-420 657h256l281 -455h4l291 455h237l-428 -651v-414zM674 1565h246l-299 -336h-156z" />
    <glyph glyph-name="thorn.sc" unicode="&#xf7fe;" horiz-adv-x="1157" 
d="M395 729v-364h264q90 0 140 50q49 50 49 132t-49 132t-140 50h-264zM172 1065h223v-158h281q186 0 290 -99t105 -260q0 -161 -103 -261t-292 -101h-281v-186h-223v1065z" />
    <glyph glyph-name="ydieresis.sc" unicode="&#xf7ff;" horiz-adv-x="1085" 
d="M649 0h-221v408l-420 657h256l281 -455h4l291 455h237l-428 -651v-414zM653 1507h209v-213h-209v213zM223 1507h211v-213h-211v213z" />
    <glyph glyph-name="lcommaaccent.sc" horiz-adv-x="978" 
d="M659 -131v-170l-88 -217h-96l62 192h-88v195h210zM172 1065h223v-872h539v-193h-762v1065z" />
    <glyph glyph-name="uni021B.sc" horiz-adv-x="1075" 
d="M426 0v879h-381v186h985v-186h-381v-879h-65v-76q90 -4 139 -54t49 -131t-61 -135t-179 -55h-124v121h108q100 0 100 77t-100 77h-67l61 176h-84z" />
    <glyph glyph-name="at.sc" horiz-adv-x="1720" 
d="M686 217q0 -45 34 -75t102 -29q68 0 124 47q55 47 55 135v70q-25 -25 -79 -31l-119 -15q-117 -14 -117 -102zM485 196q0 97 67 159t200 77l145 17q59 6 82 19t22 40q0 59 -37 95q-38 36 -104 36t-107 -34q-40 -34 -46 -95h-183q10 135 104 201q94 65 242 65t236 -73
t88 -211v-236q0 -154 121 -154q70 0 118 78t48 238q0 250 -171 396t-449 146q-277 0 -449 -169q-172 -171 -172 -431t166 -425t440 -164q221 0 330 102h184q-180 -231 -513 -231t-541 206t-208 513q0 309 213 519t550 210t549 -186t212 -486q0 -219 -98 -327t-250 -107
q-186 0 -242 116q-80 -123 -278 -123q-127 0 -198 61t-71 158z" />
    <glyph glyph-name="fi.sc" horiz-adv-x="1622" 
d="M1227 1065h223v-1065h-223v1065zM172 1065h801v-178h-578v-320h461v-174h-461v-393h-223v1065z" />
    <glyph glyph-name="fl.sc" horiz-adv-x="2033" 
d="M1227 1065h223v-872h539v-193h-762v1065zM172 1065h801v-178h-578v-320h461v-174h-461v-393h-223v1065z" />
    <glyph glyph-name="t_t" horiz-adv-x="1333" 
d="M807 827h-406v-495q0 -80 30 -114t97 -34h88v-184h-112q-172 0 -248 76t-76 243v508h-182v172h182v304h221v-304h406v304h223v-304h254v-172h-254v-495q0 -78 32 -113t101 -35h121v-184h-154q-170 0 -246 76t-77 243v508z" />
    <glyph glyph-name="t_f" horiz-adv-x="1282" 
d="M813 827h-407v-495q0 -84 22 -116t86 -32h102v-184h-129q-167 0 -235 75t-68 244v508h-182v172h182v304h222v-304h407v142q0 182 87 270t274 88h131v-180h-103q-92 0 -130 -42t-38 -136v-142h238v-172h-238v-827h-221v827z" />
    <glyph glyph-name="caronquoteleft" horiz-adv-x="1173" 
d="M692 1356v-193h-211v170l88 215h97l-62 -192h88z" />
    <glyph glyph-name="caronquoteright" horiz-adv-x="1173" 
d="M481 1356v192h211v-170l-88 -215h-96l61 193h-88z" />
    <glyph glyph-name="slashedzero" horiz-adv-x="1163" 
d="M582 166q272 0 272 539q0 209 -43 337l-383 -815q62 -61 154 -61zM309 705q0 -211 43 -340l381 815q-59 63 -151 63q-273 1 -273 -538zM582 -25q-256 0 -380 200t-124 530q0 329 124 529t380 200t380 -200t124 -530t-124 -529q-124 -200 -380 -200z" />
    <glyph glyph-name="zero.sc" horiz-adv-x="1032" 
d="M516 147q209 0 209 385t-209 386q-209 0 -209 -386t209 -385zM516 -25q-223 0 -331 154q-107 153 -107 403t107 404q108 154 331 154t331 -154q107 -154 107 -404t-108 -404t-330 -153z" />
    <glyph glyph-name="one.sc" horiz-adv-x="1032" 
d="M672 1065v-891h268v-174h-772v174h285v631l-238 -146l-88 154l397 252h148z" />
    <glyph glyph-name="two.sc" horiz-adv-x="1032" 
d="M698 768q0 63 -46 106t-134 44q-184 0 -196 -183h-203q8 183 120 269q113 86 285 86t278 -83t107 -215q0 -132 -59 -204t-184 -146l-142 -77q-100 -59 -134 -101t-38 -90h568v-174h-818q6 194 71 302t210 190l141 77q94 55 134 95t40 104z" />
    <glyph glyph-name="three.sc" horiz-adv-x="1032" 
d="M301 317q0 -94 58 -140q57 -46 153 -46t154 44q57 44 57 128t-57 128t-150 44h-84v154h86q76 0 126 43q50 44 50 112t-49 109t-130 41t-133 -42t-52 -118h-191q-1 144 103 230t276 86t276 -82t103 -222q0 -80 -44 -140t-120 -85v-8q94 -31 152 -100q57 -70 57 -166
q0 -150 -121 -231t-315 -81t-302 84q-110 84 -110 258h207z" />
    <glyph glyph-name="four.sc" horiz-adv-x="1032" 
d="M582 391v395l-312 -395h312zM799 1065v-674h162v-170h-162v-221h-217v221h-527v139l561 705h183z" />
    <glyph glyph-name="five.sc" horiz-adv-x="1032" 
d="M719 334q0 90 -55 141t-155 51t-175 -102l-205 20l35 621h704v-180h-516l-16 -275h8q84 76 228 76t254 -90q108 -90 108 -259t-121 -265t-305 -96t-289 80q-106 81 -123 227h217q27 -143 203 -144q90 0 147 52q56 53 56 143z" />
    <glyph glyph-name="six.sc" horiz-adv-x="1032" 
d="M532 520q-88 0 -142 -50t-54 -137t55 -137t142 -50t141 50q54 52 55 138q0 86 -54 136q-55 50 -143 50zM547 926q-211 0 -230 -348q33 48 105 78t151 30q159 0 265 -89t106 -258t-119 -266t-290 -98q-444 0 -445 533q0 305 127 443q127 139 317 139t282 -82
q93 -82 110 -217h-211q-29 135 -168 135z" />
    <glyph glyph-name="seven.sc" horiz-adv-x="1032" 
d="M94 872v193h854v-129l-483 -936h-234l471 872h-608z" />
    <glyph glyph-name="eight.sc" horiz-adv-x="1032" 
d="M516 475q-92 0 -152 -47t-59 -126q-1 -79 59 -125t152 -46t152 46q59 46 59 125t-59 126q-60 47 -152 47zM334 781q0 -71 51 -111t131 -41q80 0 131 41q51 42 51 112t-52 112t-130 42t-130 -42t-52 -113zM133 786q1 140 105 222t278 82t278 -82t105 -222q0 -78 -43 -139
t-119 -86v-8q94 -31 152 -100q57 -70 57 -166q0 -150 -118 -231t-312 -81t-312 81t-118 231q0 96 57 166t152 100v8q-76 25 -119 86t-43 139z" />
    <glyph glyph-name="nine.sc" horiz-adv-x="1032" 
d="M498 545q88 0 142 48t54 139t-54 139q-54 49 -142 49t-140 -52t-51 -137q-1 -86 51 -136t140 -50zM504 139q193 0 209 348q-33 -49 -105 -79t-151 -29q-160 0 -266 89q-105 89 -105 258t119 266t291 98q444 0 444 -533q0 -305 -122 -443t-310 -138t-288 81
q-99 82 -116 217h211q13 -57 57 -96t132 -39z" />
    <glyph glyph-name="slashedzero.sc" horiz-adv-x="1032" 
d="M516 147q209 0 209 385q0 147 -31 240l-278 -594q39 -31 100 -31zM307 532q0 -147 31 -239l278 594q-39 31 -100 31q-209 -1 -209 -386zM516 -25q-223 0 -331 154q-107 153 -107 403t107 404q108 154 331 154t331 -154q107 -154 107 -404t-108 -404t-330 -153z" />
    <glyph glyph-name="currency.sc" horiz-adv-x="1032" 
d="M516 340q80 0 132 53t52 139t-52 140t-132 53q-80 0 -132 -53q-52 -54 -52 -140t52 -139t132 -53zM170 533q0 95 61 186l-122 123l104 102l121 -125q86 49 181 49t181 -49l123 125l105 -102l-123 -123q61 -91 61 -185t-59 -186l123 -123l-105 -102l-123 123
q-76 -49 -184 -49t-180 49l-123 -123l-105 102l121 123q-57 90 -57 185z" />
    <glyph glyph-name="dollar.sc" horiz-adv-x="1032" 
d="M506 135q94 0 148 39q54 38 54 104t-41 97q-42 31 -135 55l-141 37q-283 70 -282 301q0 125 81 210q82 85 228 105v179h180v-181q129 -23 210 -101t89 -189h-205q-12 67 -61 103t-125 36t-127 -34t-51 -95t39 -93t129 -57l141 -37q145 -36 219 -108t74 -203t-88 -216
t-244 -105v-187h-180v187q-156 18 -246 104t-94 221h213q2 -76 62 -124q59 -48 153 -48z" />
    <glyph glyph-name="cent.sc" horiz-adv-x="1032" 
d="M111 538q0 158 92 266t256 132v154h178v-156q133 -23 212 -103t89 -184h-213q-10 51 -57 89t-136 38t-144 -66q-54 -67 -54 -170t54 -172t142 -69t136 40q47 40 59 93h207q-10 -106 -91 -189t-212 -106v-160h-178v160q-160 27 -250 135t-90 268z" />
    <glyph glyph-name="Euro.sc" horiz-adv-x="1032" 
d="M154 483v49q0 41 2 62h-105l31 98h84q33 182 140 289q108 106 284 106t269 -86t118 -233h-199q-10 68 -55 109t-117 41q-172 0 -213 -226h307l-30 -98h-289v-111h281l-29 -98h-242q39 -238 215 -238q129 0 166 134h201q-63 -303 -373 -304q-190 0 -299 110t-137 298h-141
l28 98h103z" />
    <glyph glyph-name="yen.sc" horiz-adv-x="1032" 
d="M172 461h229l-372 604h254l243 -416h4l246 416h228l-367 -604h229v-103h-235v-104h235v-102h-235v-152h-215v152h-244v102h244v104h-244v103z" />
    <glyph glyph-name="sterling.sc" horiz-adv-x="1032" 
d="M244 90q86 0 110 109q-53 37 -99 37t-68 -22q-21 -22 -21 -52t20 -52q20 -20 58 -20zM135 612h135q-49 106 -49 181q0 137 90 217t250 80q297 0 320 -283h-189q-18 127 -131 127q-59 0 -95 -35t-36 -103t53 -184h258v-118h-206q20 -66 20 -134t-25 -141q128 -86 180 -86
t71 32t24 99h168q-3 -139 -59 -214t-177 -75t-266 129q-88 -123 -223 -122q-98 0 -155 46q-56 46 -56 130t59 133t154 49q51 0 115 -25v15q0 72 -37 164h-193v118z" />
    <glyph glyph-name="florin.sc" horiz-adv-x="1032" 
d="M154 537h208l31 264q33 289 314 289q135 0 209 -67t57 -194l-8 -63h-183l6 57q12 113 -79 113q-82 0 -97 -135l-30 -264h241v-129h-256l-49 -449q-18 -153 -97 -221t-215 -68t-210 67t-57 193l8 64h182l-6 -57q-12 -113 80 -113q45 0 67 33t29 102l49 449h-194v129z" />
    <glyph glyph-name="zero.TOSF" horiz-adv-x="1163" 
d="M305 500q0 -158 77 -251t200 -93q124 0 200 94t76 252t-76 250t-200 92t-200 -93q-77 -93 -77 -251zM78 499q0 233 139 379t369 146t364 -145q135 -145 135 -377t-139 -380q-139 -146 -368 -146t-365 145q-135 146 -135 378z" />
    <glyph glyph-name="one.TOSF" horiz-adv-x="1163" 
d="M731 999v-821h342v-178h-932v178h373v557l-274 -190l-95 153l433 301h153z" />
    <glyph glyph-name="two.TOSF" horiz-adv-x="1163" 
d="M111 0q0 209 94 321t262 168l127 46q137 47 177 79t40 94t-54 105t-171 43q-246 0 -264 -215h-207q6 284 304 363q79 20 167 20q204 0 324 -83t120 -226q0 -176 -146 -252q-69 -37 -184 -76l-125 -43q-205 -72 -204 -168h663v-176h-923z" />
    <glyph glyph-name="three.TOSF" horiz-adv-x="1163" 
d="M295 16q0 -136 74 -204q73 -68 195 -68t197 63t75 175t-78 180q-78 66 -193 65h-108v183h108q98 0 165 62t67 162t-67 156t-166 56t-165 -60t-65 -176h-201q0 190 120 302q121 112 315 112t317 -105t123 -276q0 -100 -60 -191t-145 -124v-9q113 -33 185 -128t73 -222
q0 -186 -140 -295q-139 -108 -361 -108t-352 112t-130 338h217z" />
    <glyph glyph-name="four.TOSF" horiz-adv-x="1163" 
d="M692 160v528l-409 -528h409zM913 1008v-848h193v-185h-193v-385h-221v385h-635v150l672 883h184z" />
    <glyph glyph-name="five.TOSF" horiz-adv-x="1163" 
d="M592 -254q116 0 194 75t78 206t-76 207t-202 77q-126 0 -232 -133l-202 17l43 804h811v-190h-613l-22 -403h8q91 86 271 86t308 -121t127 -340q0 -219 -141 -342t-354 -123t-340 108t-144 293h222q14 -93 81 -157t183 -64z" />
    <glyph glyph-name="six.TOSF" horiz-adv-x="1163" 
d="M607 721q-113 0 -191 -78t-78 -202q0 -125 74 -205t190 -80t191 76t75 205q0 128 -73 206q-74 78 -188 78zM82 672q0 206 45 358t123 237q153 167 363 167q209 0 317 -102t127 -275h-219q-27 197 -217 196q-125 0 -211 -124t-97 -394q41 74 135 120t201 46
q189 0 315 -123t126 -337t-142 -340t-342 -126q-236 0 -380 166t-144 531z" />
    <glyph glyph-name="seven.TOSF" horiz-adv-x="1163" 
d="M98 803v196h983v-145l-583 -1264h-230l574 1213h-744z" />
    <glyph glyph-name="eight.TOSF" horiz-adv-x="1163" 
d="M582 154q124 0 200 63t76 175t-79 178t-197 67q-118 -1 -198 -67q-79 -66 -79 -178t76 -175t201 -63zM582 819q102 1 170 63t68 161t-68 159t-170 60t-170 -60t-68 -158q0 -100 68 -162t170 -63zM80 379q0 127 73 222t185 128v8q-88 31 -147 120q-58 89 -58 194
q0 172 123 277q123 106 326 106q204 0 326 -106t122 -277q0 -103 -58 -193t-147 -121v-8q113 -33 186 -128t72 -222q0 -188 -137 -296t-364 -108t-365 108q-137 108 -137 296z" />
    <glyph glyph-name="nine.TOSF" horiz-adv-x="1163" 
d="M564 844q-114 0 -190 -77t-77 -205q0 -128 74 -206q73 -78 185 -77t190 79t79 201q0 123 -73 204q-74 81 -188 81zM1081 328q0 -762 -526 -762q-203 0 -313 100t-136 277h220q35 -197 231 -197q135 0 209 121t82 397q-41 -76 -133 -121t-199 -45q-194 0 -318 122
t-124 337t142 341t341 126q236 0 380 -166t144 -530z" />
    <glyph glyph-name="slashedzero.TOSF" horiz-adv-x="1163" 
d="M582 156q124 0 200 94t76 234t-47 223l-373 -510q63 -41 144 -41zM305 518q0 -140 47 -225l373 510q-63 41 -143 41q-123 0 -200 -93t-77 -233zM78 499q0 233 139 379t369 146t364 -145q135 -145 135 -377t-139 -380q-139 -146 -368 -146t-365 145q-135 146 -135 378z
" />
    <glyph glyph-name="zero.PPF" horiz-adv-x="1210" 
d="M604 166q141 0 215 138t74 400t-74 401q-74 138 -215 138q-289 0 -289 -538q0 -263 74 -401t215 -138zM604 -25q-176 -1 -296 99t-171 260t-51 371t51 371t171 258q120 99 296 100q262 0 391 -202t129 -528t-129 -527q-129 -202 -391 -202z" />
    <glyph glyph-name="one.PPF" horiz-adv-x="745" 
d="M584 1409v-1409h-222v1135l-237 -162l-96 164l399 272h156z" />
    <glyph glyph-name="two.PPF" horiz-adv-x="1103" 
d="M1020 184v-184h-944q8 236 83 372t247 251l147 98q90 61 128 91t71 86q32 56 32 138t-54 148t-171 65q-240 0 -262 -264h-209q10 238 142 343q132 106 334 106t324 -106t122 -284q0 -179 -99 -287q-51 -56 -93 -90t-120 -85l-147 -99q-88 -61 -138 -117q-49 -56 -63 -94
t-18 -88h688z" />
    <glyph glyph-name="three.PPF" horiz-adv-x="1138" 
d="M281 426q1 -131 77 -202q76 -70 202 -70t203 66t77 174q0 110 -79 176t-200 67h-106v182h106q100 -1 167 63t67 162t-67 154t-169 57q-102 0 -168 -60t-65 -175h-205q0 190 121 302q122 112 320 112t322 -106t124 -275q0 -101 -62 -193t-147 -123v-8q115 -29 189 -123
t75 -219q0 -190 -142 -301q-141 -111 -365 -111t-357 115t-133 336h215z" />
    <glyph glyph-name="four.PPF" horiz-adv-x="1150" 
d="M680 514v553l-414 -553h414zM903 1409v-895h197v-184h-197v-330h-223v330h-643v149l686 930h180z" />
    <glyph glyph-name="five.PPF" horiz-adv-x="1105" 
d="M811 436q0 131 -75 208t-183 77q-139 0 -242 -131l-198 12l45 807h794v-190h-598l-22 -408h8q94 90 265 90t300 -119q129 -120 129 -338t-141 -344t-350 -125q-209 0 -336 108t-144 294h220q14 -92 81 -157q66 -64 180 -64t190 74t77 206z" />
    <glyph glyph-name="six.PPF" horiz-adv-x="1169" 
d="M605 721q-117 0 -191 -78t-74 -203q0 -124 73 -204t191 -80t192 76t74 205q0 128 -74 206q-75 78 -191 78zM86 666q0 397 146 582t382 186q203 0 315 -102t130 -279h-217q-25 201 -228 200q-283 0 -299 -518q41 76 130 121t200 45q195 0 321 -122t126 -337t-142 -341
t-342 -126q-522 1 -522 691z" />
    <glyph glyph-name="seven.PPF" horiz-adv-x="972" 
d="M39 1212v197h907v-145l-584 -1264h-229l574 1212h-668z" />
    <glyph glyph-name="eight.PPF" horiz-adv-x="1165" 
d="M297 393q0 -111 79 -175t207 -64t207 64q78 64 78 176q0 110 -81 176t-205 67q-124 -1 -204 -67q-81 -66 -81 -177zM584 819q104 -1 172 63t67 162q0 98 -67 158q-68 60 -172 60t-173 -60t-69 -158t69 -162t173 -63zM74 379q0 129 76 225t188 125v8q-90 29 -150 118
q-59 89 -59 196q0 170 125 276q125 107 329 107q205 0 329 -106t124 -277q0 -105 -59 -195t-150 -119v-8q113 -29 189 -125t76 -225q0 -188 -138 -296t-370 -108q-231 0 -371 108q-139 108 -139 296z" />
    <glyph glyph-name="nine.PPF" horiz-adv-x="1169" 
d="M553 688q117 0 189 81t73 203q0 122 -75 202q-74 80 -190 80t-191 -78q-75 -76 -75 -204t76 -206t193 -78zM1069 750q0 -774 -528 -775q-201 1 -318 105t-127 276h217q9 -90 67 -145t161 -55q137 0 213 118t84 400q-41 -76 -128 -121t-198 -45q-195 0 -322 122t-127 337
q-1 215 141 341t343 126q522 0 522 -684z" />
    <glyph glyph-name="slashedzero.PPF" horiz-adv-x="1210" 
d="M604 166q141 0 215 138t74 378t-53 375l-391 -834q67 -57 155 -57zM315 705q0 -225 52 -355l391 834q-63 59 -154 59q-289 1 -289 -538zM604 -25q-176 -1 -296 99t-171 260t-51 371t51 371t171 258q120 99 296 100q262 0 391 -202t129 -528t-129 -527
q-129 -202 -391 -202z" />
    <glyph glyph-name="currency.PPF" horiz-adv-x="991" 
d="M496 512q80 0 131 53t51 139t-51 140q-51 53 -131 53t-132 -53t-52 -139q0 -85 52 -139t132 -54zM150 704q0 94 59 187l-121 123l105 102l120 -125q83 49 181 49t180 -49l125 125l104 -102l-123 -123q124 -182 2 -371l123 -123l-104 -102l-123 123q-76 -49 -182 -49
t-185 49l-121 -123l-104 102l121 123q-57 90 -57 184z" />
    <glyph glyph-name="dollar.PPF" horiz-adv-x="1105" 
d="M546 154q118 0 186 58t69 156q-1 98 -59 145q-58 46 -171 83l-174 53q-315 96 -315 387q0 152 99 257t263 132v222h195v-222q150 -27 248 -126t106 -246h-219q-12 102 -77 151t-159 49t-162 -49q-67 -49 -67 -142t51 -139t164 -81l172 -54q332 -102 332 -391
q0 -171 -105 -281t-284 -134v-228h-195v228q-176 24 -279 134t-110 281h219q8 -117 81 -180t191 -63z" />
    <glyph glyph-name="cent.PPF" horiz-adv-x="1095" 
d="M80 710q0 214 111 352q112 138 296 167v205h195v-205q154 -25 243 -122t107 -237h-219q-13 84 -73 136t-170 53q-110 0 -185 -96q-76 -96 -76 -250t76 -250t193 -96q201 0 235 188h219q-18 -141 -109 -239t-249 -121v-220h-195v220q-188 29 -294 165q-105 136 -105 350z
" />
    <glyph glyph-name="Euro.PPF" horiz-adv-x="1257" 
d="M422 711q0 -57 2 -82h367l-37 -127h-316q29 -168 109 -258t196 -90q201 0 263 174h213q-86 -352 -493 -352q-212 0 -346 142t-173 384h-182l36 127h134q-2 25 -2 82t2 88h-132l37 125h111q45 233 182 371q137 139 349 139t330 -102q120 -102 157 -281h-213
q-59 205 -266 204q-115 0 -195 -86t-113 -245h392l-35 -125h-375q-2 -31 -2 -88z" />
    <glyph glyph-name="yen.PPF" horiz-adv-x="1120" 
d="M971 618v-124h-299v-146h299v-125h-299v-223h-223v223h-299v125h299v146h-299v124h299v5l-457 786h254l317 -571h8l322 571h235l-456 -791h299z" />
    <glyph glyph-name="sterling.PPF" horiz-adv-x="1155" 
d="M215 94q92 0 129 139q-70 43 -119 43t-75 -26t-27 -67t23 -65t69 -24zM104 799h170q-55 156 -55 270q0 166 108 265q107 100 285 100t278 -94t111 -267h-208q-18 195 -181 195q-74 0 -124 -49t-50 -141t66 -279h327v-140h-282q53 -177 -2 -383q33 -16 53 -31t42 -27
q115 -66 179 -66q123 0 131 184h178q-20 -360 -307 -361q-59 0 -125 27q-66 26 -106 54t-109 79q-98 -160 -270 -160q-105 1 -167 55t-62 152t67 159q68 60 178 60q66 0 136 -26q2 17 2 81t-45 203h-218v140z" />
    <glyph glyph-name="florin.PPF" horiz-adv-x="1030" 
d="M92 731h258l37 350q37 352 363 353q311 0 290 -328l-6 -78h-192l4 78q10 158 -105 158t-133 -183l-37 -350h306v-147h-320l-63 -625q-37 -352 -363 -352q-311 0 -291 327l6 78h193l-4 -78q-10 -158 104 -157q115 0 133 182l64 625h-244v147z" />
    <glyph glyph-name="zero.scppf" horiz-adv-x="1087" 
d="M545 147q109 1 165 101t56 284q0 385 -221 386q-223 0 -223 -386q0 -184 57 -284t166 -101zM544 -25q-228 0 -340 156q-112 155 -112 401t112 402t340 156t340 -156t112 -402t-112 -402t-340 -155z" />
    <glyph glyph-name="one.scppf" horiz-adv-x="690" 
d="M518 1065v-1065h-219v805l-195 -119l-86 154l353 225h147z" />
    <glyph glyph-name="two.scppf" horiz-adv-x="985" 
d="M684 768q0 63 -47 106t-139 44q-190 0 -201 -183h-205q8 183 123 269t289 86t282 -83t109 -213q0 -130 -60 -204t-188 -148l-141 -77q-100 -59 -136 -101t-40 -90h575v-174h-827q6 190 74 300t213 192l141 77q98 55 138 95t40 104z" />
    <glyph glyph-name="three.scppf" horiz-adv-x="978" 
d="M264 317q0 -94 60 -140t156 -46q97 0 157 44q59 44 59 128t-58 128t-153 44h-86v154h88q78 0 129 43q52 42 52 112t-50 110t-135 40q-84 0 -137 -42t-53 -118h-193q0 144 106 230t280 86q176 0 280 -82t104 -222q0 -80 -44 -140t-119 -85v-8q94 -31 151 -101t57 -165
q0 -147 -121 -230q-122 -82 -319 -82t-309 84t-111 258h209z" />
    <glyph glyph-name="four.scppf" horiz-adv-x="995" 
d="M569 391v395l-313 -395h313zM788 1065v-674h158v-170h-158v-221h-219v221h-528v139l563 705h184z" />
    <glyph glyph-name="five.scppf" horiz-adv-x="985" 
d="M502 139q88 -1 146 53t58 142t-56 140q-58 52 -140 52q-121 0 -191 -102l-204 20l35 621h706v-180h-518l-16 -275h8q84 76 230 76t254 -90t108 -259t-120 -265t-306 -96t-291 80q-106 81 -123 227h217q15 -63 65 -103t138 -41z" />
    <glyph glyph-name="six.scppf" horiz-adv-x="1036" 
d="M543 520q-89 0 -147 -50t-58 -137t57 -137t147 -50t147 50q56 52 56 138t-56 136t-146 50zM557 926q-219 0 -238 -348q33 48 107 78t158 30q164 0 270 -89t106 -258t-120 -266q-121 -97 -295 -98q-453 0 -453 533q0 305 129 443q129 139 321 139t288 -82q95 -82 112 -217
h-211q-24 135 -174 135z" />
    <glyph glyph-name="seven.scppf" horiz-adv-x="880" 
d="M51 872v193h791v-129l-484 -936h-227l465 872h-545z" />
    <glyph glyph-name="eight.scppf" horiz-adv-x="1009" 
d="M504 475q-94 0 -154 -47t-61 -126q0 -79 59 -125q60 -46 156 -46t156 46t60 125t-60 126q-62 47 -156 47zM504 936q-82 0 -134 -42t-53 -113q1 -71 53 -111t134 -41q82 0 135 41q53 42 53 112t-53 112t-135 42zM70 287q0 96 56 166t150 100v8q-74 25 -118 86t-43 139
q0 136 106 220q105 84 283 84t284 -83t107 -221q0 -78 -44 -139t-120 -86v-8q94 -31 152 -100q57 -70 57 -166q0 -150 -119 -231t-317 -81t-316 81t-118 231z" />
    <glyph glyph-name="nine.scppf" horiz-adv-x="1042" 
d="M297 731q1 -86 57 -136t146 -50t147 50t57 137t-56 137q-58 51 -148 51t-146 -52t-57 -137zM509 139q91 0 148 78t66 270q-33 -49 -108 -79t-156 -29q-164 0 -271 89q-106 89 -106 258t121 266t297 98q451 0 450 -533q0 -305 -124 -443t-315 -138t-293 81
q-101 82 -118 217h211q11 -57 59 -96t139 -39z" />
    <glyph glyph-name="slashedzero.scppf" horiz-adv-x="1087" 
d="M545 147q109 1 165 101t56 267t-39 267l-287 -606q46 -29 105 -29zM322 532q0 -156 38 -247l285 604q-45 29 -100 29q-223 -1 -223 -386zM544 -25q-228 0 -340 156q-112 155 -112 401t112 402t340 156t340 -156t112 -402t-112 -402t-340 -155z" />
    <glyph glyph-name="currency.scppf" horiz-adv-x="978" 
d="M489 340q80 0 132 53q51 53 51 139t-51 140t-131 53q-80 0 -133 -53q-52 -54 -52 -140t52 -139t132 -53zM487 868q98 0 181 -49l125 125l104 -102l-123 -123q124 -183 2 -371l121 -123l-102 -102l-123 123q-78 -49 -185 -49t-182 49l-121 -123l-104 102l121 123
q-57 90 -57 186t59 185l-121 123l102 102l123 -125q82 49 180 49z" />
    <glyph glyph-name="dollar.scppf" horiz-adv-x="989" 
d="M496 135q94 0 148 39t54 107q0 67 -41 99t-133 56l-143 37q-200 51 -257 169q-26 54 -26 126q0 123 83 209t229 106v179h178v-181q129 -23 210 -101t89 -189h-205q-12 67 -62 103t-126 36t-125 -34t-49 -95t36 -93q37 -32 129 -57l142 -37q145 -36 219 -108t74 -203
t-90 -216t-242 -105v-187h-178v187q-152 20 -241 106t-93 219h207q6 -78 63 -125q56 -47 150 -47z" />
    <glyph glyph-name="cent.scppf" horiz-adv-x="962" 
d="M68 538q0 158 95 266t261 132v154h176v-156q135 -20 217 -100t92 -187h-215q-10 51 -58 89t-140 38t-148 -66q-55 -66 -55 -169q0 -104 55 -173q54 -69 146 -69t140 40t60 93h209q-10 -106 -94 -189t-217 -106v-160h-176v160q-164 27 -256 135t-92 268z" />
    <glyph glyph-name="Euro.scppf" horiz-adv-x="1073" 
d="M152 483v49q0 41 2 62h-107l29 98h90q35 180 152 288q118 108 304 108t289 -88q102 -87 125 -232h-196q-10 68 -64 109t-137 41q-193 0 -244 -226h305l-30 -98h-287q-2 -20 -2 -62v-49h281l-29 -98h-240q43 -238 246 -238q156 0 195 134h198q-27 -139 -129 -221
q-103 -82 -287 -83q-184 0 -302 111t-150 297h-148l29 98h107z" />
    <glyph glyph-name="yen.scppf" horiz-adv-x="927" 
d="M813 461v-103h-233v-104h233v-102h-233v-152h-218v152h-241v102h241v104h-241v103h227l-375 604h252l248 -416h6l248 416h227l-368 -604h227z" />
    <glyph glyph-name="sterling.scppf" horiz-adv-x="1005" 
d="M238 90q90 0 110 111q-55 35 -102 35q-86 0 -86 -74q0 -32 20 -52t58 -20zM133 612h129q-47 102 -47 176q0 138 92 220t250 82t241 -75t93 -212h-191q-14 131 -139 131q-61 0 -99 -36t-38 -102t55 -184h260v-118h-211q42 -139 -4 -271q137 -90 197 -90q86 0 92 131h168
q-4 -139 -61 -214t-187 -75q-88 0 -184 67q-33 24 -82 64q-86 -125 -225 -124q-98 0 -155 46q-56 46 -56 130t59 133t135 49t133 -23v13q0 72 -39 164h-186v118z" />
    <glyph glyph-name="florin.scppf" horiz-adv-x="919" 
d="M100 537h209l31 264q33 289 317 289q133 0 205 -66t60 -195l-7 -63h-182l6 57q12 113 -82 113q-84 0 -98 -135l-31 -264h242v-129h-256l-49 -449q-33 -289 -318 -289q-135 0 -207 67t-57 193l8 64h183l-8 -57q-12 -113 81 -113q45 0 68 33t31 102l49 449h-195v129z" />
    <glyph glyph-name="slashedzero.oldstyle" horiz-adv-x="1222" 
d="M610 156q132 0 220 94t88 240t-66 233l-389 -530q66 -37 147 -37zM305 512q0 -144 66 -236l389 531q-68 37 -150 37q-131 0 -218 -94t-87 -238zM78 499q0 229 148 377t388 148t385 -146t145 -376t-148 -378t-388 -148t-385 146q-145 147 -145 377z" />
    <glyph glyph-name="plus.sc" horiz-adv-x="1032" 
d="M125 627h297v305h188v-305h297v-181h-297v-303h-188v303h-297v181z" />
    <glyph glyph-name="minus.sc" horiz-adv-x="1032" 
d="M125 627h782v-181h-782v181z" />
    <glyph glyph-name="multiply.sc" horiz-adv-x="1032" 
d="M145 285l246 250l-250 256l125 122l246 -254l248 254l125 -122l-250 -256l246 -250l-123 -123l-246 250l-244 -250z" />
    <glyph glyph-name="divide.sc" horiz-adv-x="1032" 
d="M416 305h200v-201h-200v201zM125 627h782v-181h-782v181zM416 961h200v-199h-200v199z" />
    <glyph glyph-name="equal.sc" horiz-adv-x="1032" 
d="M125 446h782v-178h-782v178zM125 803h782v-178h-782v178z" />
    <glyph glyph-name="less.sc" horiz-adv-x="1032" 
d="M885 131l-738 320v178l738 319v-190l-533 -219l533 -217v-191z" />
    <glyph glyph-name="greater.sc" horiz-adv-x="1032" 
d="M147 948l738 -319v-178l-738 -320v191l531 217l-531 219v190z" />
    <glyph glyph-name="plusminus.sc" horiz-adv-x="1032" 
d="M164 168h698v-168h-698v168zM164 680h260v244h178v-244h260v-168h-260v-246h-178v246h-260v168z" />
    <glyph glyph-name="lessequal.sc" horiz-adv-x="1032" 
d="M164 168h698v-168h-698v168zM377 592l485 -162v-178l-698 254v176l698 252v-178z" />
    <glyph glyph-name="greaterequal.sc" horiz-adv-x="1032" 
d="M868 168v-168h-698v168h698zM170 934l698 -252v-176l-698 -254v178l483 162l-483 164v178z" />
    <glyph glyph-name="notequal.sc" horiz-adv-x="1032" 
d="M125 803h457l114 201l127 -68l-75 -133h159v-178h-260l-100 -179h360v-178h-461l-112 -200l-127 67l74 133h-156v178h256l100 179h-356v178z" />
    <glyph glyph-name="logicalnot.sc" horiz-adv-x="1032" 
d="M125 627h782v-484h-186v303h-596v181z" />
    <glyph glyph-name="asciitilde.sc" horiz-adv-x="1032" 
d="M680 580q80 0 80 114h168q-2 -150 -69 -220t-156 -71q-89 1 -197 57t-150 56q-82 0 -82 -121h-165q2 152 69 225q128 137 358 16q105 -56 144 -56z" />
    <glyph glyph-name="approxequal.sc" horiz-adv-x="1032" 
d="M338 492q92 0 198 -56t144 -57q80 0 80 115h168q-2 -150 -69 -221q-125 -133 -352 -14q-108 56 -151 56q-82 0 -82 -120h-165q1 153 69 225t160 72zM680 756q80 0 80 114h168q-2 -150 -69 -220q-125 -132 -352 -14q-108 56 -151 56q-82 0 -82 -121h-165q2 152 69 225
q128 137 358 16q105 -56 144 -56z" />
    <glyph glyph-name="infinity.sc" horiz-adv-x="1241" 
d="M901 397q59 0 97 37t38 98q0 60 -38 98t-97 38q-96 -1 -184 -136q88 -135 184 -135zM340 397q94 0 186 135q-92 135 -186 136q-59 0 -97 -37t-38 -99t38 -98q38 -37 97 -37zM338 252q-129 0 -208 77t-79 203t79 204q79 77 208 77q166 0 283 -164q117 164 282 164
q129 0 208 -77t79 -204q0 -128 -79 -204t-208 -76q-166 0 -282 164q-121 -164 -283 -164z" />
    <glyph glyph-name="numbersign.sc" horiz-adv-x="1067" 
d="M389 393h268l52 297h-269zM88 838h207l41 227h172l-41 -227h268l41 227h172l-41 -227h158v-148h-184l-52 -297h179v-149h-205l-43 -244h-172l43 244h-269l-43 -244h-172l43 244h-157v149h184l51 297h-180v148z" />
    <glyph glyph-name="percent.sc" horiz-adv-x="1228" 
d="M951 100q97 0 97 167t-96 167q-98 0 -98 -167t97 -167zM951 -12q-120 0 -179 74t-59 204q0 129 59 204t179 75t179 -75q60 -75 60 -204q0 -130 -60 -204t-179 -74zM278 633q97 0 97 167t-97 167t-97 -167t97 -167zM279 520q-121 0 -181 75q-59 75 -59 204t59 203
q58 74 180 75q122 0 181 -75q59 -76 59 -204t-59 -203t-180 -75zM858 1083h123l-610 -1101h-121z" />
    <glyph glyph-name="perthousand.sc" horiz-adv-x="1808" 
d="M1531 100q97 0 97 167t-97 167t-97 -167t97 -167zM951 100q97 0 97 167t-96 167q-98 0 -98 -167t97 -167zM1532 -12q-121 0 -180 74t-60 204q0 129 60 204t180 75q121 0 180 -75q60 -75 60 -204q0 -130 -60 -204t-180 -74zM951 -12q-120 0 -179 74t-59 204q0 129 59 204
t179 75t179 -75q60 -75 60 -204q0 -130 -60 -204t-179 -74zM278 633q97 0 97 167t-97 167t-97 -167t97 -167zM279 520q-121 0 -181 75q-59 75 -59 204t59 203q58 74 180 75q122 0 181 -75q59 -76 59 -204t-59 -203t-180 -75zM858 1083h123l-610 -1101h-121z" />
    <glyph glyph-name="hyphen.sc" horiz-adv-x="811" 
d="M115 635h581v-191h-581v191z" />
    <glyph glyph-name="endash.sc" horiz-adv-x="1138" 
d="M115 635h909v-191h-909v191z" />
    <glyph glyph-name="emdash.sc" horiz-adv-x="1720" 
d="M115 635h1491v-191h-1491v191z" />
    <glyph glyph-name="dagger.sc" horiz-adv-x="782" 
d="M90 803h213v262h176v-262h213v-150h-213v-653h-176v653h-213v150z" />
    <glyph glyph-name="daggerdbl.sc" horiz-adv-x="782" 
d="M90 829h213v236h176v-236h213v-151h-213v-299h213v-152h-213v-227h-176v227h-213v152h213v299h-213v151z" />
    <glyph glyph-name="parenleft.sc" horiz-adv-x="626" 
d="M168 532q0 206 73 404q73 197 165 317h190q-88 -117 -160 -317q-145 -400 0 -807q72 -201 160 -317h-190q-92 122 -165 318t-73 402z" />
    <glyph glyph-name="parenright.sc" horiz-adv-x="626" 
d="M262 532q0 204 -72 406q-72 201 -159 315h192q92 -123 165 -319t73 -401q0 -207 -73 -403t-165 -318h-192q87 116 159 316t72 404z" />
    <glyph glyph-name="bracketleft.sc" horiz-adv-x="620" 
d="M168 1253h422v-166h-232v-1110h232v-165h-422v1441z" />
    <glyph glyph-name="bracketright.sc" horiz-adv-x="620" 
d="M262 -23v1110h-231v166h424v-1441h-424v165h231z" />
    <glyph glyph-name="braceleft.sc" horiz-adv-x="655" 
d="M223 248q0 121 -41 170t-149 49v139q109 0 149 49t41 172v152q0 139 67 207t230 67h105v-159h-74q-84 0 -113 -28t-28 -105v-187q0 -184 -185 -233v-9q184 -49 185 -231v-192q0 -80 30 -109t111 -29h74v-159h-105q-164 0 -230 68t-67 206v162z" />
    <glyph glyph-name="braceright.sc" horiz-adv-x="655" 
d="M104 -29q82 0 112 29t30 109v192q0 91 43 149t141 82v9q-184 49 -184 233v187q0 77 -29 105t-113 28h-73v159h104q162 1 229 -67t66 -207v-152q0 -123 41 -172t150 -49v-139q-109 0 -150 -49t-41 -170v-162q0 -139 -66 -207t-229 -67h-104v159h73z" />
    <glyph glyph-name="slash.sc" horiz-adv-x="688" 
d="M487 1090h189l-475 -1115h-189z" />
    <glyph glyph-name="backslash.sc" horiz-adv-x="688" 
d="M12 1090h189l475 -1115h-189z" />
    <glyph glyph-name="quoteleft.sc" horiz-adv-x="536" 
d="M387 760v-242h-240v225l89 322h110l-61 -305h102z" />
    <glyph glyph-name="quotedblleft.sc" horiz-adv-x="929" 
d="M782 760v-242h-239v225l88 322h110l-61 -305h102zM387 760v-242h-240v225l89 322h110l-61 -305h102z" />
    <glyph glyph-name="quoteright.sc" horiz-adv-x="536" 
d="M147 823v242h240v-225l-88 -322h-111l64 305h-105z" />
    <glyph glyph-name="quotedblright.sc" horiz-adv-x="929" 
d="M543 823v242h239v-225l-88 -322h-110l63 305h-104zM147 823v242h240v-225l-88 -322h-111l64 305h-105z" />
    <glyph glyph-name="guilsinglleft.sc" horiz-adv-x="604" 
d="M102 539l226 325h174l-185 -325l185 -326h-174z" />
    <glyph glyph-name="guilsinglright.sc" horiz-adv-x="604" 
d="M287 539l-185 325h174l226 -325l-226 -326h-174z" />
    <glyph glyph-name="guillemotleft.sc" horiz-adv-x="952" 
d="M453 539l223 325h174l-182 -325l182 -326h-174zM102 539l224 325h174l-185 -325l185 -326h-174z" />
    <glyph glyph-name="guillemotright.sc" horiz-adv-x="952" 
d="M637 539l-184 325h174l223 -325l-223 -326h-174zM287 539l-185 325h174l224 -325l-224 -326h-174z" />
    <glyph glyph-name="quotesingle.sc" horiz-adv-x="460" 
d="M125 1065h211v-186l-35 -361h-141l-35 361v186z" />
    <glyph glyph-name="quotedbl.sc" horiz-adv-x="841" 
d="M506 1065h211v-186l-35 -361h-141l-35 361v186zM125 1065h211v-186l-35 -361h-141l-35 361v186z" />
    <glyph glyph-name="asterisk.sc" horiz-adv-x="948" 
d="M559 1083l-31 -262l238 113l53 -164l-260 -51l180 -191l-137 -100l-129 229l-127 -229l-137 100l176 193l-254 49l51 164l238 -111l-31 260h170z" />
    <glyph glyph-name="degree.sc" horiz-adv-x="774" 
d="M526 796q0 68 -39 108t-99 40t-100 -41t-40 -107t40 -106q40 -41 100 -41t99 40t39 107zM387 502q-131 0 -218 82t-87 212t87 212t218 82t218 -82t87 -212t-87 -212t-218 -82z" />
    <glyph glyph-name="bullet.sc" horiz-adv-x="835" 
d="M418 268q-113 0 -192 79t-79 192t79 191t192 79q114 0 192 -79q78 -80 78 -192t-78 -191t-192 -79z" />
    <glyph glyph-name="periodcentered.sc" horiz-adv-x="530" 
d="M143 659h244v-239h-244v239z" />
    <glyph glyph-name="paragraph.sc" horiz-adv-x="1067" 
d="M719 1065h188v-1065h-188v1065zM82 732q0 150 103 241q103 92 288 92h115v-1065h-191v385q-147 23 -231 110t-84 237z" />
    <glyph glyph-name="section.sc" horiz-adv-x="872" 
d="M250 370q0 -52 33 -80t118 -54l78 -27q63 18 103 59q39 41 39 94t-33 81t-117 55l-78 24q-63 -16 -103 -58t-40 -94zM424 -215q164 0 164 125q0 51 -33 77t-109 50l-147 49q-121 37 -175 95q-54 57 -54 147q0 176 172 247q-150 76 -150 226q0 125 94 205t254 80t254 -64
q94 -63 103 -184h-187q-14 109 -164 108q-78 0 -120 -32t-43 -87q1 -55 33 -81t110 -52l147 -47q121 -39 175 -96t53 -147q0 -178 -170 -248q150 -76 149 -224q0 -124 -94 -204t-255 -80t-254 63t-101 185h184q8 -55 53 -83t111 -28z" />
    <glyph glyph-name="copyright.sc" horiz-adv-x="1251" 
d="M356 540q0 120 73 198t187 79q114 0 179 -53q66 -53 79 -139h-139q-23 73 -93 73t-107 -44t-37 -116t36 -114q36 -43 108 -43t93 72h139q-14 -86 -79 -140q-65 -53 -179 -53t-187 80t-73 200zM203 539q0 -185 119 -317t300 -132t304 131t123 317t-121 312
q-121 125 -304 125t-302 -125t-119 -311zM78 538q0 236 154 394t391 158q235 0 393 -158t158 -394t-157 -399q-157 -164 -393 -164t-392 163q-154 163 -154 400z" />
    <glyph glyph-name="registered.sc" horiz-adv-x="1251" 
d="M541 688v-137h98q82 0 82 72q0 66 -82 65h-98zM393 801h266q101 0 155 -47t54 -129q0 -119 -112 -164l123 -185h-152l-109 166h-77v-166h-148v525zM203 539q0 -185 119 -317t300 -132t304 131t123 317t-121 312q-121 125 -304 125t-302 -125t-119 -311zM78 538
q0 236 154 394t391 158q235 0 393 -158t158 -394t-157 -399q-157 -164 -393 -164t-392 163q-154 163 -154 400z" />
    </font>
</defs>
</svg>
