<?xml version="1.0" standalone="no"?>
<!DOCTYPE svg PUBLIC "-//W3C//DTD SVG 1.1//EN" "http://www.w3.org/Graphics/SVG/1.1/DTD/svg11.dtd" >
<svg xmlns="http://www.w3.org/2000/svg">
<metadata>
Created by FontPrep 20130207 at Tue Apr  5 16:30:48 2016
 By He Lu
copyright missing
</metadata>
<defs>
<font id="27ec055812d67ed783112e868ee85214" horiz-adv-x='1024' >
  <font-face 
    font-family="PingFont-Semibold"
    font-weight="600"
    font-stretch="normal"
    units-per-em="2048"
    panose-1="0 0 7 0 0 0 0 0 0 0"
    ascent="1532"
    descent="-516"
    x-height="999"
    cap-height="1409"
    bbox="-360 -641 2513 2073"
    underline-thickness="102"
    underline-position="-102"
    unicode-range="U+0020-FB04"
  />
<missing-glyph horiz-adv-x="1458" 
d="M733 641l258 -264l107 106l-260 267l260 266l-107 106l-258 -264l-258 264l-106 -106l258 -266l-258 -267l106 -106zM0 1475h1458v-1475h-1458v1475z" />
    <glyph glyph-name="f_b" unicode="fb" horiz-adv-x="1949" 
d="M1098 500q0 -150 70 -237t182 -87q114 0 182 91t68 239t-68 233q-68 84 -180 84t-182 -84q-71 -84 -72 -225v-14zM834 1294h-213q-90 0 -127 -40t-37 -130v-125h198v-196h-198v-803h-264v803h-189v196h189v119q0 197 90 289t295 92h520v-307q0 -203 -13 -336h9
q88 168 327 168q195 0 323 -136t128 -380t-133 -388t-345 -144t-300 167h-9v-143h-251v1294z" />
    <glyph glyph-name="f_f_b" unicode="ffb" horiz-adv-x="2590" 
d="M1737 500q0 -147 70 -236q71 -88 184 -88t181 91t69 239q0 148 -68 233q-67 84 -181 84t-184 -88t-71 -235zM834 803h-377v-803h-264v803h-189v196h189v119q0 197 90 289t295 92h106v-205h-63q-90 0 -127 -40t-37 -130v-125h377v119q0 197 90 289t295 92h518v-307
q0 -205 -11 -336h9q88 168 327 168q195 0 323 -136t128 -380t-133 -388t-345 -144t-300 167h-9v-143h-251v1294h-213q-90 0 -127 -40t-37 -130v-125h223v-196h-223v-803h-264v803z" />
    <glyph glyph-name="f_f_h" unicode="ffh" horiz-adv-x="2555" 
d="M834 803h-377v-803h-264v803h-189v196h189v119q0 197 90 289t295 92h106v-205h-63q-90 0 -127 -40t-37 -130v-125h377v119q0 197 90 289t295 92h518v-307q0 -199 -11 -336h9q88 168 307 168q168 0 276 -99t107 -319v-606h-262v573q0 246 -197 246q-102 0 -166 -80
t-63 -215v-524h-262v1294h-213q-90 0 -127 -40t-37 -130v-125h223v-196h-223v-803h-264v803z" />
    <glyph glyph-name="f_f_j" unicode="ffj" horiz-adv-x="1882" 
d="M1466 1499h279v-246h-279v246zM834 803h-377v-803h-264v803h-189v196h189v119q0 197 90 289t295 92h116v-205h-73q-90 0 -127 -40t-37 -130v-125h377v119q0 197 90 289t295 92h106v-205h-63q-90 0 -127 -40t-37 -130v-125h639v-1112q0 -168 -79 -253t-272 -85h-83v205h53
q66 0 92 36t27 116v897h-377v-803h-264v803z" />
    <glyph glyph-name="f_f_k" unicode="ffk" horiz-adv-x="2455" 
d="M834 803h-377v-803h-264v803h-189v196h189v119q0 197 90 289t295 92h106v-205h-63q-90 0 -127 -40t-37 -130v-125h377v119q0 197 90 289t295 92h518v-915l374 415h299l-372 -399l409 -600h-303l-280 416l-127 -137v-279h-262v1294h-213q-90 0 -127 -40t-37 -130v-125h223
v-196h-223v-803h-264v803z" />
    <glyph glyph-name="f_f_t" unicode="fft" horiz-adv-x="2025" 
d="M834 803h-377v-803h-264v803h-189v196h189v119q0 197 90 289t295 92h106v-205h-63q-90 0 -127 -40t-37 -130v-125h377v119q0 197 90 289t295 92h106v-205h-63q-90 0 -127 -40t-37 -130v-125h368v304h263v-304h247v-196h-247v-443q-1 -80 31 -114t104 -33h112v-213h-159
q-195 0 -273 78t-78 266v459h-368v-803h-264v803z" />
    <glyph glyph-name="f_h" unicode="fh" horiz-adv-x="1916" 
d="M834 1294h-213q-90 0 -127 -40t-37 -130v-125h198v-196h-198v-803h-264v803h-189v196h189v119q0 197 90 289t295 92h520v-307q0 -199 -13 -336h9q88 168 307 168q170 0 276 -99t107 -319v-606h-262v573q0 246 -197 246q-99 0 -163 -79t-64 -214v-526h-264v1294z" />
    <glyph glyph-name="f_j" unicode="fj" horiz-adv-x="1241" 
d="M825 1499h281v-246h-281v246zM715 -246q67 0 93 36t26 116v897h-377v-803h-264v803h-189v196h189v119q0 197 90 289t295 92h106v-205h-63q-90 0 -127 -40t-37 -130v-125h641v-1112q0 -168 -79 -253t-271 -85h-86v205h53z" />
    <glyph glyph-name="f_k" unicode="fk" horiz-adv-x="1816" 
d="M834 1294h-213q-90 0 -127 -40t-37 -130v-125h198v-196h-198v-803h-264v803h-189v196h189v119q0 197 90 289t295 92h520v-913l372 413h299l-372 -399l411 -600h-305l-280 416l-125 -135v-281h-264v1294z" />
    <glyph glyph-name="f_t" unicode="ft" horiz-adv-x="1384" 
d="M825 803h-368v-803h-264v803h-189v196h189v119q0 197 90 289t295 92h106v-205h-63q-90 0 -127 -40t-37 -130v-125h368v304h262v-304h248v-196h-248v-443q0 -80 32 -114t104 -33h112v-213h-159q-195 0 -273 78t-78 266v459z" />
    <glyph glyph-name="fi" unicode="fi" horiz-adv-x="1241" 
d="M825 1499h281v-246h-281v246zM834 803h-377v-803h-264v803h-189v196h189v119q0 197 90 289t295 92h106v-205h-63q-90 0 -127 -40t-37 -130v-125h641v-999h-264v803z" />
    <glyph glyph-name="fl" unicode="fl" horiz-adv-x="1241" 
d="M193 803h-189v196h189v119q0 197 90 289t295 92h520v-1499h-264v1294h-213q-90 0 -127 -40t-37 -130v-125h198v-196h-198v-803h-264v803z" />
    <glyph glyph-name="ff" unicode="ff" horiz-adv-x="1339" 
d="M193 803h-189v196h189v119q0 197 90 289t295 92h106v-205h-63q-90 0 -127 -40t-37 -130v-125h377v119q0 197 90 289t295 92h141v-205h-98q-90 0 -127 -40t-37 -130v-125h229v-196h-229v-803h-264v803h-377v-803h-264v803z" />
    <glyph glyph-name="ffi" unicode="ffi" horiz-adv-x="1882" 
d="M1466 1499h279v-246h-279v246zM834 803h-377v-803h-264v803h-189v196h189v119q0 197 90 289t295 92h116v-205h-73q-90 0 -127 -40t-37 -130v-125h377v119q0 197 90 289t295 92h106v-205h-63q-90 0 -127 -40t-37 -130v-125h639v-999h-262v803h-377v-803h-264v803z" />
    <glyph glyph-name="ffl" unicode="ffl" horiz-adv-x="1882" 
d="M834 803h-377v-803h-264v803h-189v196h189v119q0 197 90 289t295 92h106v-205h-63q-90 0 -127 -40t-37 -130v-125h377v119q0 197 90 289t295 92h518v-1499h-262v1294h-213q-90 0 -127 -40t-37 -130v-125h223v-196h-223v-803h-264v803z" />
    <glyph glyph-name=".notdef" horiz-adv-x="1458" 
d="M733 641l258 -264l107 106l-260 267l260 266l-107 106l-258 -264l-258 264l-106 -106l258 -266l-258 -267l106 -106zM0 1475h1458v-1475h-1458v1475z" />
    <glyph glyph-name=".null" horiz-adv-x="0" 
 />
    <glyph glyph-name="nonmarkingreturn" horiz-adv-x="681" 
 />
    <glyph glyph-name="space" unicode=" " horiz-adv-x="450" 
 />
    <glyph glyph-name="exclam" unicode="!" horiz-adv-x="587" 
d="M158 270h272v-270h-272v270zM150 1409h288v-385l-67 -604h-152l-69 604v385z" />
    <glyph glyph-name="quotedbl" unicode="&#x22;" horiz-adv-x="882" 
d="M522 1409h240v-203l-37 -372h-166l-37 372v203zM119 1409h241v-203l-36 -372h-168l-37 372v203z" />
    <glyph glyph-name="numbersign" unicode="#" horiz-adv-x="1292" 
d="M485 502h254l70 405h-254zM127 1087h248l55 322h213l-55 -322h254l55 322h213l-55 -322h202v-180h-235l-70 -405h213l-4 -180h-241l-56 -322h-213l56 322h-254l-56 -322h-213l56 322h-207v180h239l70 405h-215v180z" />
    <glyph glyph-name="dollar" unicode="$" horiz-adv-x="1163" 
d="M574 172q108 0 172 54t65 146q0 92 -52 131q-52 40 -163 75l-170 49q-330 98 -330 395q0 160 100 268t273 135v222h209v-224q160 -27 260 -126t109 -248h-261q-12 92 -69 138t-147 46t-147 -46q-58 -46 -58 -131t46 -125t152 -73l170 -51q170 -49 258 -144t88 -261
q1 -166 -107 -280t-294 -138v-230h-209v230q-184 23 -290 132q-105 110 -111 285h260q6 -109 72 -169t174 -60z" />
    <glyph glyph-name="percent" unicode="%" horiz-adv-x="1660" 
d="M1157 352q0 -211 128 -211t128 211t-128 211t-128 -211zM1286 -16q-162 0 -246 102t-84 266t84 266t246 102t245 -102t83 -266t-83 -266t-245 -102zM248 1057q0 -211 128 -211t128 211t-128 211t-128 -211zM375 688q-162 0 -246 102t-84 267q0 164 84 266t246 102
t246 -102t84 -266q0 -165 -84 -267t-246 -102zM1104 1434h166l-713 -1459h-166z" />
    <glyph glyph-name="ampersand" unicode="&#x26;" horiz-adv-x="1492" 
d="M342 393q0 -105 86 -163t232 -58t255 76l-389 381q-184 -102 -184 -236zM655 1253q-84 -1 -131 -47t-47 -106t29 -110q29 -48 100 -122q111 50 169 102q59 52 59 124t-48 116t-131 43zM80 369q0 141 83 234t228 165q-90 98 -123 165t-32 150q0 145 111 248t311 103
t312 -89t112 -231t-90 -226q-89 -83 -249 -157l312 -309q47 106 47 254v29h233v-41q0 -223 -116 -404l262 -260h-314l-100 98q-174 -123 -434 -123t-407 106q-146 106 -146 288z" />
    <glyph glyph-name="quotesingle" unicode="'" horiz-adv-x="479" 
d="M119 1409h241v-203l-36 -372h-168l-37 372v203z" />
    <glyph glyph-name="parenleft" unicode="(" horiz-adv-x="634" 
d="M31 532q0 295 101 554t235 438h239q-115 -150 -221 -425t-106 -565t106 -566q106 -275 221 -435h-239q-133 176 -235 440q-101 264 -101 559z" />
    <glyph glyph-name="parenright" unicode=")" horiz-adv-x="634" 
d="M356 533q0 289 -106 565t-221 426h239q132 -178 234 -438t102 -554q0 -295 -101 -559t-235 -440h-239q115 160 221 435t106 565z" />
    <glyph glyph-name="asterisk" unicode="*" horiz-adv-x="964" 
d="M578 1425l-31 -251l227 108l62 -186l-246 -49l170 -181l-158 -114l-121 219l-121 -219l-157 112l168 185l-244 47l59 186l228 -104l-31 247h195z" />
    <glyph glyph-name="plus" unicode="+" horiz-adv-x="1163" 
d="M119 625h354v358h217v-358h354v-205h-354v-359h-217v359h-354v205z" />
    <glyph glyph-name="comma" unicode="," horiz-adv-x="577" 
d="M141 0v287h297v-269l-112 -364h-129l71 346h-127z" />
    <glyph glyph-name="hyphen" unicode="-" horiz-adv-x="811" 
d="M109 629h593v-226h-593v226z" />
    <glyph glyph-name="period" unicode="." horiz-adv-x="577" 
d="M141 287h297v-287h-297v287z" />
    <glyph glyph-name="slash" unicode="/" horiz-adv-x="872" 
d="M639 1434h223l-631 -1459h-223z" />
    <glyph glyph-name="zero" unicode="0" horiz-adv-x="1163" 
d="M582 193q244 0 243 512q1 512 -243 512t-244 -512t244 -512zM582 -25q-262 0 -388 200t-126 530q0 329 126 529t388 200t388 -200t126 -530t-126 -529q-126 -200 -388 -200z" />
    <glyph glyph-name="one" unicode="1" horiz-adv-x="1163" 
d="M754 1409v-1196h317v-213h-917v213h338v872l-275 -186l-108 186l473 324h172z" />
    <glyph glyph-name="two" unicode="2" horiz-adv-x="1163" 
d="M592 1434q207 0 337 -111t130 -285t-73 -270t-226 -193l-164 -102q-115 -76 -156 -132t-47 -128h670v-213h-971q8 244 82 387t248 254l162 102q112 70 160 126q48 57 48 147t-52 147t-158 58q-209 0 -222 -242h-256q10 239 146 347t342 108z" />
    <glyph glyph-name="three" unicode="3" horiz-adv-x="1163" 
d="M334 426q0 -123 66 -186q66 -64 174 -64t174 58t66 162t-69 164q-68 62 -172 63h-110v208h110q89 -1 149 57t60 149t-59 143t-151 53q-92 0 -149 -55q-58 -55 -58 -162h-240q0 198 126 308q125 110 325 110t329 -104t129 -279q0 -99 -59 -189t-146 -125v-8
q113 -35 182 -128t68 -220q0 -190 -141 -298q-142 -108 -370 -108t-360 112t-132 339h258z" />
    <glyph glyph-name="four" unicode="4" horiz-adv-x="1163" 
d="M672 520v512l-365 -512h365zM934 1409v-889h178v-213h-178v-307h-262v307h-621v168l660 934h223z" />
    <glyph glyph-name="five" unicode="5" horiz-adv-x="1163" 
d="M809 438q0 120 -66 189q-65 69 -177 69t-201 -127l-240 27l45 813h825v-217h-594l-22 -367h10q82 76 236 76q199 0 323 -120q124 -121 125 -341q0 -220 -141 -342t-359 -123q-218 0 -346 108q-127 108 -143 294h258q14 -84 72 -140q58 -57 160 -57q101 0 168 69t67 189z
" />
    <glyph glyph-name="six" unicode="6" horiz-adv-x="1163" 
d="M838 438q0 118 -65 188t-165 70t-167 -70t-67 -186t66 -188q64 -72 165 -72t167 70t66 188zM80 672q0 206 45 358t124 237q155 167 368 167t323 -102t129 -275h-256q-27 172 -190 172q-109 0 -184 -112t-87 -359q39 66 125 104t185 39q186 0 313 -120t127 -337t-144 -343
t-348 -126q-240 0 -385 166t-145 531z" />
    <glyph glyph-name="seven" unicode="7" horiz-adv-x="1163" 
d="M92 1182v227h995v-162l-567 -1247h-270l555 1182h-713z" />
    <glyph glyph-name="eight" unicode="8" horiz-adv-x="1163" 
d="M338 396q0 -104 68 -162t176 -58t176 58t68 162t-69 165t-175 61t-175 -61q-69 -62 -69 -165zM582 831q92 1 152 57t60 148t-60 146t-152 55q-92 0 -152 -54q-60 -55 -61 -147q1 -92 61 -148t152 -57zM72 381q0 127 68 220q69 93 182 128v8q-88 31 -147 119
q-58 88 -58 191q0 176 129 281q129 106 336 106t336 -106t129 -281q-1 -103 -59 -191t-146 -119v-8q114 -35 182 -128t68 -220q0 -193 -140 -299t-370 -106t-370 106t-140 299z" />
    <glyph glyph-name="nine" unicode="9" horiz-adv-x="1163" 
d="M551 713q100 1 167 73q66 72 66 187t-64 185t-165 71q-100 0 -167 -70q-66 -69 -66 -187t64 -189q65 -70 165 -70zM1079 737q0 -762 -534 -762q-207 -1 -319 101t-134 276h254q27 -172 203 -172q119 0 185 109t73 362q-39 -67 -125 -105t-180 -38q-186 0 -315 120
q-128 120 -128 337q-1 217 143 343t347 126q240 0 385 -166t145 -531z" />
    <glyph glyph-name="colon" unicode=":" horiz-adv-x="577" 
d="M141 287h297v-287h-297v287zM141 999h297v-286h-297v286z" />
    <glyph glyph-name="semicolon" unicode=";" horiz-adv-x="577" 
d="M141 0v287h297v-269l-112 -364h-129l71 346h-127zM141 999h297v-286h-297v286z" />
    <glyph glyph-name="less" unicode="&#x3c;" horiz-adv-x="1163" 
d="M147 629l869 360v-223l-625 -242l625 -243v-230l-869 365v213z" />
    <glyph glyph-name="equal" unicode="=" horiz-adv-x="1163" 
d="M115 399h934v-204h-934v204zM115 846h934v-205h-934v205z" />
    <glyph glyph-name="greater" unicode="&#x3e;" horiz-adv-x="1163" 
d="M1016 412l-869 -361v223l623 240l-623 246v229l869 -364v-213z" />
    <glyph glyph-name="question" unicode="?" horiz-adv-x="1058" 
d="M379 270h272v-270h-272v270zM391 473q0 86 26 155q25 68 65 108q86 86 175 146q88 59 87 148q-1 88 -56 139q-54 51 -160 51t-163 -67q-57 -68 -58 -170h-252q0 191 122 321q123 130 349 130t354 -102t128 -281q0 -94 -38 -165t-92 -113t-108 -81q-130 -93 -131 -209v-59
h-248v49z" />
    <glyph glyph-name="at" unicode="@" horiz-adv-x="2117" 
d="M836 283q0 -59 42 -95t127 -36q84 0 157 62t73 175v103q-23 -33 -98 -48l-158 -24q-143 -23 -143 -137zM578 262q0 250 337 303l193 29q76 10 102 26t25 56q0 76 -44 120t-134 44q-182 0 -195 -164h-248q10 166 128 257t311 91q446 0 446 -381v-305q0 -209 133 -209
q88 0 149 108q60 108 60 320q0 331 -218 527t-565 196t-564 -232q-218 -232 -218 -584t207 -565q207 -212 517 -212t452 141h231q-221 -295 -665 -295q-399 0 -660 259q-260 259 -260 675q0 266 118 485q118 218 341 350t508 132q416 0 685 -242t269 -635q0 -289 -124 -433
t-312 -144q-233 0 -303 155q-106 -160 -365 -160q-165 0 -251 79t-86 208z" />
    <glyph glyph-name="A" unicode="A" horiz-adv-x="1404" 
d="M696 1149l-215 -612h432l-208 612h-9zM541 1409h323l525 -1409h-291l-109 315h-583l-111 -315h-279z" />
    <glyph glyph-name="B" unicode="B" horiz-adv-x="1435" 
d="M436 625v-408h391q119 0 179 56q59 57 59 151t-60 147t-176 54h-393zM436 1192v-363h352q111 -1 167 53t57 140q0 170 -221 170h-355zM160 1409h665q231 0 346 -95t115 -274q0 -104 -55 -182t-166 -108v-9q129 -23 204 -111t74 -212q-1 -186 -125 -302t-352 -116h-706
v1409z" />
    <glyph glyph-name="C" unicode="C" horiz-adv-x="1499" 
d="M788 -25q-318 0 -508 204q-190 203 -190 523t194 526t509 206q259 0 421 -131t203 -359h-274q-70 254 -350 254q-193 0 -307 -136t-114 -354t116 -358q116 -139 305 -139q281 0 350 254h274q-41 -227 -206 -359t-423 -131z" />
    <glyph glyph-name="D" unicode="D" horiz-adv-x="1505" 
d="M440 1182v-955h209q248 0 366 133q118 132 118 344t-118 345t-366 133h-209zM166 1409h502q360 0 554 -195q194 -196 194 -510t-194 -509t-554 -195h-502v1409z" />
    <glyph glyph-name="E" unicode="E" horiz-adv-x="1310" 
d="M166 1409h1022v-227h-748v-355h602v-217h-602v-383h766v-227h-1040v1409z" />
    <glyph glyph-name="F" unicode="F" horiz-adv-x="1236" 
d="M166 1409h997v-227h-723v-432h578v-226h-578v-524h-274v1409z" />
    <glyph glyph-name="G" unicode="G" horiz-adv-x="1587" 
d="M783 -25q-305 0 -499 206q-194 207 -194 525t199 523t524 205q256 0 424 -128t205 -327h-275q-31 96 -119 158q-89 61 -235 61q-199 0 -319 -136t-121 -357q0 -221 120 -357t300 -137q181 0 291 88t110 242v10h-381v209h625v-760h-174l-31 170h-4q-141 -195 -446 -195z
" />
    <glyph glyph-name="H" unicode="H" horiz-adv-x="1544" 
d="M166 1409h274v-580h664v580h274v-1409h-274v596h-664v-596h-274v1409z" />
    <glyph glyph-name="I" unicode="I" horiz-adv-x="606" 
d="M166 1409h274v-1409h-274v1409z" />
    <glyph glyph-name="J" unicode="J" horiz-adv-x="1138" 
d="M74 485h270v-55q0 -227 187 -227t188 237v969h276v-967q0 -467 -463 -467q-214 0 -336 110t-122 339v61z" />
    <glyph glyph-name="K" unicode="K" horiz-adv-x="1425" 
d="M166 1409h274v-668l619 668h317l-571 -606l604 -803h-315l-465 616l-189 -200v-416h-274v1409z" />
    <glyph glyph-name="L" unicode="L" horiz-adv-x="1185" 
d="M166 1409h274v-1178h674v-231h-948v1409z" />
    <glyph glyph-name="M" unicode="M" horiz-adv-x="1918" 
d="M166 1409h369l426 -1034h6l426 1034h360v-1409h-274l20 1032h-8l-428 -1032h-207l-428 1018h-8l20 -1018h-274v1409z" />
    <glyph glyph-name="N" unicode="N" horiz-adv-x="1560" 
d="M166 1409h248l706 -942h8l-8 942h275v-1409h-244l-711 942h-8l8 -942h-274v1409z" />
    <glyph glyph-name="O" unicode="O" horiz-adv-x="1615" 
d="M373 705q0 -217 121 -355q120 -138 314 -139q194 0 314 139q120 138 121 354q0 216 -121 355q-120 139 -314 139t-314 -138t-121 -355zM90 705q0 319 198 524t518 205t520 -206t200 -523t-200 -523t-520 -207t-518 205t-198 525z" />
    <glyph glyph-name="P" unicode="P" horiz-adv-x="1382" 
d="M440 1188v-506h308q128 0 198 71t70 187t-69 182t-199 66h-308zM166 1409h606q248 0 385 -127t137 -340t-138 -347t-384 -134h-332v-461h-274v1409z" />
    <glyph glyph-name="Q" unicode="Q" horiz-adv-x="1622" 
d="M373 705q0 -217 121 -355q120 -138 314 -139q194 0 314 139q120 138 121 354q0 216 -121 355q-120 139 -314 139t-314 -138t-121 -355zM90 705q0 319 198 524t518 205t520 -206t200 -528t-207 -526l260 -270l-172 -170l-287 303q-145 -61 -311 -62q-323 -1 -521 205
t-198 525z" />
    <glyph glyph-name="R" unicode="R" horiz-adv-x="1421" 
d="M440 1188v-461h318q122 0 188 67t66 172t-67 163t-187 59h-318zM166 1409h604q252 0 386 -116t134 -322q0 -153 -77 -265t-220 -161l350 -545h-299l-323 512h-281v-512h-274v1409z" />
    <glyph glyph-name="S" unicode="S" horiz-adv-x="1368" 
d="M371 401q0 -100 83 -160q83 -61 225 -61t224 56t82 157q0 124 -170 167q-76 18 -168 34q-219 37 -352 104q-76 39 -123 118t-47 194q0 184 151 304q152 120 401 120t396 -110t148 -296h-269q0 94 -76 148q-77 53 -199 53t-200 -50t-78 -143q0 -120 172 -165
q76 -19 168 -33q91 -14 185 -39t170 -65t124 -120t48 -194q0 -203 -157 -324t-433 -121t-425 114q-148 114 -149 312h269z" />
    <glyph glyph-name="T" unicode="T" horiz-adv-x="1261" 
d="M16 1409h1229v-229h-477v-1180h-274v1180h-478v229z" />
    <glyph glyph-name="U" unicode="U" horiz-adv-x="1492" 
d="M139 1409h277v-840q0 -358 332 -358q164 0 246 92t83 266v840h277v-844q0 -590 -607 -590t-608 590v844z" />
    <glyph glyph-name="V" unicode="V" horiz-adv-x="1372" 
d="M16 1409h291l377 -1149h8l385 1149h279l-510 -1409h-324z" />
    <glyph glyph-name="W" unicode="W" horiz-adv-x="2002" 
d="M20 1409h295l252 -1114h8l289 1114h285l295 -1114h8l244 1114h286l-356 -1409h-340l-280 1061h-9l-276 -1061h-338z" />
    <glyph glyph-name="X" unicode="X" horiz-adv-x="1341" 
d="M510 719l-477 690h315l324 -485l317 485h303l-469 -686l502 -723h-315l-348 520l-343 -520h-303z" />
    <glyph glyph-name="Y" unicode="Y" horiz-adv-x="1361" 
d="M815 0h-276v541l-519 868h312l346 -606h8l365 606h290l-526 -860v-549z" />
    <glyph glyph-name="Z" unicode="Z" horiz-adv-x="1253" 
d="M100 1409h1082v-160l-752 -1024h748v-225h-1108v160l753 1024h-723v225z" />
    <glyph glyph-name="bracketleft" unicode="[" horiz-adv-x="714" 
d="M684 -262v-205h-530v1991h530v-205h-291v-1581h291z" />
    <glyph glyph-name="backslash" unicode="\" horiz-adv-x="872" 
d="M8 1434h223l631 -1459h-223z" />
    <glyph glyph-name="bracketright" unicode="]" horiz-adv-x="714" 
d="M322 -262v1581h-293v205h530v-1991h-530v205h293z" />
    <glyph glyph-name="asciicircum" unicode="^" horiz-adv-x="1163" 
d="M684 1409v-2l8 2l375 -688h-238l-251 481l-252 -481h-232l373 688h217z" />
    <glyph glyph-name="underscore" unicode="_" horiz-adv-x="1024" 
d="M1024 -147v-211h-1024v211h1024z" />
    <glyph glyph-name="grave" unicode="`" horiz-adv-x="1200" 
d="M209 1499h276l207 -336h-180z" />
    <glyph glyph-name="a" unicode="a" horiz-adv-x="1140" 
d="M502 160q102 0 173 62t70 181v89q-23 -33 -98 -48l-153 -24q-147 -25 -148 -135q0 -125 156 -125zM86 257q0 128 82 204t258 102l192 29q78 12 103 28t24 52q-4 168 -182 168t-192 -164h-246q10 164 131 256t311 92q442 0 443 -365v-659h-252v119h-13q-94 -143 -319 -144
q-164 0 -252 77t-88 205z" />
    <glyph glyph-name="b" unicode="b" horiz-adv-x="1259" 
d="M408 500q0 -150 70 -237t183 -87q111 0 181 91t70 239t-69 233q-69 84 -181 84t-182 -83q-71 -83 -72 -226v-14zM143 1499h265v-307q0 -205 -13 -336h8q88 168 328 168q197 0 324 -136t127 -380t-133 -388t-345 -144t-301 167h-8v-143h-252v1499z" />
    <glyph glyph-name="c" unicode="c" horiz-adv-x="1132" 
d="M74 497q0 245 143 386t367 141t346 -104q123 -104 141 -269h-260q-13 74 -67 123t-158 49t-172 -90t-68 -233q0 -144 69 -234t172 -90t156 48t68 124h260q-18 -164 -140 -268q-123 -104 -351 -104t-367 138t-139 383z" />
    <glyph glyph-name="d" unicode="d" horiz-adv-x="1259" 
d="M852 500q0 150 -70 236t-182 87q-112 -1 -182 -91q-68 -90 -68 -238t68 -234q68 -84 180 -84t180 83q70 83 74 224v17zM78 492q0 244 133 388t345 144t300 -168h8q-12 131 -12 336v307h264v-1499h-252v143h-8q-88 -168 -328 -168q-194 1 -322 137t-128 380z" />
    <glyph glyph-name="e" unicode="e" horiz-adv-x="1155" 
d="M593 834q-194 0 -241 -218h461q-26 218 -220 218zM74 491q0 245 143 389t373 144t360 -131q131 -131 131 -367v-73h-737q8 -135 76 -210t169 -75t154 40t72 95h256q-25 -139 -153 -233t-322 -95q-248 -1 -385 135t-137 381z" />
    <glyph glyph-name="f" unicode="f" horiz-adv-x="698" 
d="M193 803h-189v196h189v119q0 197 90 289t295 92h141v-205h-98q-90 0 -127 -40t-37 -130v-125h229v-196h-229v-803h-264v803z" />
    <glyph glyph-name="g" unicode="g" horiz-adv-x="1259" 
d="M598 823q-110 -1 -180 -91q-68 -90 -68 -238t68 -234q68 -84 182 -84t182 87q70 87 70 237v14q-4 143 -74 226t-180 83zM603 -283q120 0 191 80t70 256v90h-8q-88 -168 -328 -168q-194 1 -322 137t-128 380t133 388t345 144t300 -168h8v143h252v-946q0 -520 -530 -520
q-217 0 -345 87t-135 257h248q2 -72 66 -116t183 -44z" />
    <glyph glyph-name="h" unicode="h" horiz-adv-x="1226" 
d="M143 1499h265v-307q0 -203 -13 -336h8q88 168 308 168q169 0 277 -99t108 -319v-606h-265v573q0 246 -194 246q-100 0 -165 -79t-64 -212v-528h-265v1499z" />
    <glyph glyph-name="i" unicode="i" horiz-adv-x="550" 
d="M143 999h265v-999h-265v999zM135 1499h281v-246h-281v246z" />
    <glyph glyph-name="j" unicode="j" horiz-adv-x="550" 
d="M143 999h265v-1112q0 -168 -79 -253t-272 -85h-84v205h54q63 0 90 36t26 116v1093zM135 1499h281v-246h-281v246z" />
    <glyph glyph-name="k" unicode="k" horiz-adv-x="1126" 
d="M143 1499h265v-915l374 415h299l-372 -399l409 -600h-303l-280 414l-127 -135v-279h-265v1499z" />
    <glyph glyph-name="l" unicode="l" horiz-adv-x="550" 
d="M143 1499h265v-1499h-265v1499z" />
    <glyph glyph-name="m" unicode="m" horiz-adv-x="1863" 
d="M143 999h252v-143h8q88 168 304 168q242 0 325 -195q98 195 336 195q164 0 264 -98t101 -312v-614h-265v586q0 125 -45 179t-137 54t-154 -79t-63 -212v-528h-262v586q0 233 -178 233q-97 0 -159 -78t-62 -211v-530h-265v999z" />
    <glyph glyph-name="n" unicode="n" horiz-adv-x="1226" 
d="M143 999h252v-143h8q88 168 308 168q169 0 277 -99t108 -319v-606h-265v573q0 246 -194 246q-100 0 -165 -79t-64 -214v-526h-265v999z" />
    <glyph glyph-name="o" unicode="o" horiz-adv-x="1214" 
d="M350 500q0 -148 71 -236t187 -88t187 87q69 87 69 238t-68 235t-187 85q-119 0 -189 -87t-70 -234zM78 498q0 244 147 385t386 141t382 -139t143 -383t-146 -385q-148 -141 -386 -141t-382 138q-144 140 -144 384z" />
    <glyph glyph-name="p" unicode="p" horiz-adv-x="1259" 
d="M911 506q0 148 -68 233q-69 84 -181 84t-182 -83q-71 -83 -72 -226v-14q0 -150 70 -237t183 -87q112 0 181 91t69 239zM408 -451h-265v1450h252v-143h8q88 168 328 168q197 0 324 -136t127 -380t-133 -388t-345 -144t-301 167h-8q12 -131 13 -336v-258z" />
    <glyph glyph-name="q" unicode="q" horiz-adv-x="1255" 
d="M852 500q0 150 -70 236t-182 87q-112 -1 -182 -91q-68 -90 -68 -238t68 -234q68 -84 182 -84t182 87q70 87 70 237zM852 -193q0 205 12 336h-8q-88 -168 -328 -168q-194 1 -322 137t-128 380t133 388t345 144t300 -168h8v143h252v-1450h-264v258z" />
    <glyph glyph-name="r" unicode="r" horiz-adv-x="808" 
d="M143 999h252v-151h4q82 176 267 176q80 0 139 -41l-53 -227q-66 33 -123 32q-109 0 -165 -86t-56 -225v-477h-265v999z" />
    <glyph glyph-name="s" unicode="s" horiz-adv-x="1079" 
d="M317 287q1 -72 61 -105t148 -32q211 0 211 124q0 49 -36 75t-111 38l-182 29q-145 23 -229 87q-83 65 -83 207t123 228t319 86t316 -78t119 -225h-244q0 65 -54 97t-138 32q-83 0 -135 -31t-52 -82t36 -77t122 -39l180 -29q141 -23 226 -86t85 -197q0 -164 -129 -249
t-341 -85q-211 0 -335 79t-124 233h247z" />
    <glyph glyph-name="t" unicode="t" horiz-adv-x="739" 
d="M180 803h-188v196h188v304h262v-304h248v-196h-248v-443q0 -80 31 -114t109 -33h108v-213h-160q-194 0 -272 78t-78 266v459z" />
    <glyph glyph-name="u" unicode="u" horiz-adv-x="1218" 
d="M127 999h264v-573q0 -246 195 -246q98 0 162 78q63 78 63 213v528h262v-999h-250v143h-8q-88 -168 -303 -168q-170 -1 -278 99t-107 319v606z" />
    <glyph glyph-name="v" unicode="v" horiz-adv-x="1060" 
d="M8 999h287l242 -739h8l239 739h269l-359 -999h-317z" />
    <glyph glyph-name="w" unicode="w" horiz-adv-x="1589" 
d="M12 999h264l183 -739h8l203 739h258l202 -739h9l182 739h256l-291 -999h-297l-190 729h-8l-193 -729h-295z" />
    <glyph glyph-name="x" unicode="x" horiz-adv-x="1032" 
d="M371 504l-346 495h297l208 -317l203 317h275l-349 -493l357 -506h-295l-219 328l-209 -328h-277z" />
    <glyph glyph-name="y" unicode="y" horiz-adv-x="1060" 
d="M248 -467h-121v209h61q178 0 238 186l23 72h-72l-369 999h287l242 -739h8l239 739h269l-400 -1122q-119 -344 -405 -344z" />
    <glyph glyph-name="z" unicode="z" horiz-adv-x="980" 
d="M66 999h841v-153l-504 -645h512v-201h-845v143l512 656h-516v200z" />
    <glyph glyph-name="braceleft" unicode="{" horiz-adv-x="786" 
d="M256 170q0 156 -46 213t-183 57v193q137 0 183 57t46 213v291q0 176 81 253t279 77h140v-199h-105q-90 0 -124 -36t-33 -128v-350q0 -113 -48 -176t-157 -94v-9q111 -31 157 -94t48 -176v-366q0 -92 34 -128t123 -36h105v-199h-140q-200 0 -280 77t-80 253v307z" />
    <glyph glyph-name="bar" unicode="|" horiz-adv-x="583" 
d="M180 1556h223v-2048h-223v2048z" />
    <glyph glyph-name="braceright" unicode="}" horiz-adv-x="786" 
d="M135 -268q90 0 123 36t33 128v366q0 113 47 176t158 94v9q-111 31 -158 94t-47 176v350q0 92 -33 128t-123 36h-106v199h141q199 0 280 -77t80 -253v-291q0 -156 46 -213t184 -57v-193q-137 0 -183 -57t-47 -213v-307q0 -176 -80 -253t-280 -77h-141v199h106z" />
    <glyph glyph-name="asciitilde" unicode="~" horiz-adv-x="1163" 
d="M100 358q0 178 81 268t200 89q63 0 125 -23q62 -22 100 -50q103 -72 168 -73q100 0 100 154h193q0 -178 -80 -268t-196 -90q-80 1 -156 37t-138 74t-106 38q-98 0 -98 -156h-193z" />
    <glyph glyph-name="exclamdown" unicode="&#xa1;" horiz-adv-x="587" 
d="M434 -410h-280v385l65 605h152l63 -605v-385zM158 999h272v-270h-272v270z" />
    <glyph glyph-name="cent" unicode="&#xa2;" horiz-adv-x="1163" 
d="M88 712q0 210 116 348t306 169v205h209v-205q162 -27 257 -126t111 -239h-260q-12 74 -66 123t-159 49q-106 0 -174 -90t-68 -233t69 -233t173 -91q104 0 158 48q53 48 67 124h260q-16 -143 -112 -243t-264 -123v-220h-209v222q-194 31 -304 168t-110 347z" />
    <glyph glyph-name="sterling" unicode="&#xa3;" horiz-adv-x="1163" 
d="M250 104q86 0 119 140q-68 39 -112 39t-70 -27q-25 -26 -25 -64t22 -63t66 -25zM123 803h162q-61 162 -62 270q0 166 111 263t301 98q369 0 391 -361h-242q-14 176 -155 176q-63 0 -107 -43q-44 -44 -43 -130q0 -86 72 -273h313v-152h-262q27 -102 27 -190t-31 -191
q139 -98 211 -98q115 0 121 186h200q-14 -383 -299 -383q-135 0 -307 144q-102 -143 -272 -144q-112 -1 -180 55t-68 159t70 167t184 64q57 0 127 -25v45q0 84 -41 211h-221v152z" />
    <glyph glyph-name="currency" unicode="&#xa4;" horiz-adv-x="1163" 
d="M582 526q76 0 123 48t47 130t-47 131q-47 48 -123 48t-123 -48t-47 -130q0 -83 47 -131t123 -48zM581 1040q95 0 173 -45l125 125l116 -114l-121 -123q56 -84 56 -178t-56 -181l123 -123l-116 -114l-127 127q-74 -45 -171 -45t-175 45l-125 -127l-117 114l121 123
q-53 88 -53 182t55 177l-121 123l117 114l123 -125q78 45 173 45z" />
    <glyph glyph-name="yen" unicode="&#xa5;" horiz-adv-x="1163" 
d="M168 614h281l-447 795h303l279 -539h8l287 539h282l-446 -795h280v-137h-282v-133h282v-137h-282v-207h-262v207h-283v137h283v133h-283v137z" />
    <glyph glyph-name="brokenbar" unicode="&#xa6;" horiz-adv-x="583" 
d="M180 385h223v-721h-223v721zM180 1409h223v-721h-223v721z" />
    <glyph glyph-name="section" unicode="&#xa7;" horiz-adv-x="1179" 
d="M340 491q0 -75 44 -120t144 -74l113 -33q94 20 146 78q53 58 53 133q0 76 -44 121t-145 74l-121 32q-90 -24 -140 -80t-50 -131zM586 -293q98 0 154 42t56 114q0 71 -43 107q-44 36 -141 65l-204 57q-307 88 -308 352q0 106 62 192t172 132q-197 96 -197 299
q0 166 123 266q123 101 333 101t336 -84t138 -240h-244q-8 74 -69 112q-62 38 -160 38t-156 -42t-57 -114q0 -72 44 -108t142 -64l203 -58q309 -88 309 -352q0 -106 -62 -193t-171 -132q197 -98 196 -297q0 -164 -122 -266q-123 -101 -333 -101t-336 84t-138 240h243
q6 -74 68 -112q64 -38 162 -38z" />
    <glyph glyph-name="dieresis" unicode="&#xa8;" horiz-adv-x="1200" 
d="M702 1460h242v-237h-242v237zM256 1460h240v-237h-240v237z" />
    <glyph glyph-name="copyright" unicode="&#xa9;" horiz-adv-x="1589" 
d="M799 352q-165 0 -263 102t-98 258q0 155 98 258t263 103q127 -1 212 -67t103 -179h-174q-35 96 -141 97q-78 0 -126 -60t-48 -152t48 -152t126 -60q106 0 141 96h174q-18 -112 -103 -178t-212 -66zM236 712q0 -251 158 -425t399 -174t401 174t160 425q0 252 -157 414
t-403 162t-402 -162t-156 -414zM70 712q0 310 205 516t517 206t520 -206t208 -516t-207 -524t-518 -213q-311 0 -519 213q-206 214 -206 524z" />
    <glyph glyph-name="ordfeminine" unicode="&#xaa;" horiz-adv-x="827" 
d="M279 909q0 -84 100 -84q61 0 105 38t44 110v63q-16 -25 -63 -30l-92 -13q-94 -10 -94 -84zM307 688q-115 0 -176 53t-61 146q0 188 237 217l131 16q54 8 72 20t18 50q0 36 -28 64t-84 28q-117 0 -125 -108h-193q8 129 96 191t222 62q322 0 321 -270v-452h-200v79h-9
q-65 -96 -221 -96z" />
    <glyph glyph-name="guillemotleft" unicode="&#xab;" horiz-adv-x="1150" 
d="M836 934h215l-230 -418l230 -418h-215l-291 418zM98 516l291 418h217l-231 -418l231 -418h-217z" />
    <glyph glyph-name="logicalnot" unicode="&#xac;" horiz-adv-x="1163" 
d="M119 625h925v-568h-217v363h-708v205z" />
    <glyph glyph-name="uni00AD" unicode="&#xad;" horiz-adv-x="811" 
d="M109 629h593v-226h-593v226z" />
    <glyph glyph-name="registered" unicode="&#xae;" horiz-adv-x="1589" 
d="M674 920v-179h153q104 0 105 90q0 88 -105 89h-153zM494 1065h344q134 0 204 -60t70 -169q0 -72 -40 -129t-109 -84l174 -263h-195l-147 240h-121v-240h-180v705zM236 712q0 -251 158 -425t399 -174t401 174t160 425q0 252 -157 414t-403 162t-402 -162t-156 -414z
M70 712q0 310 205 516t517 206t520 -206t208 -516t-207 -524t-518 -213q-311 0 -519 213q-206 214 -206 524z" />
    <glyph glyph-name="macron" unicode="&#xaf;" horiz-adv-x="1200" 
d="M291 1419h610v-176h-610v176z" />
    <glyph glyph-name="degree" unicode="&#xb0;" horiz-adv-x="813" 
d="M406 1272q-60 0 -100 -40t-40 -107t40 -107t100 -41q60 0 99 41q40 42 40 108t-40 106t-99 40zM406 817q-141 0 -233 86q-91 86 -91 222q0 137 91 223t233 86t233 -86q92 -86 92 -222t-92 -223q-92 -86 -233 -86z" />
    <glyph glyph-name="plusminus" unicode="&#xb1;" horiz-adv-x="1163" 
d="M115 205h934v-205h-934v205zM123 874h350v328h217v-328h359v-204h-359v-328h-217v328h-350v204z" />
    <glyph glyph-name="acute" unicode="&#xb4;" horiz-adv-x="1200" 
d="M713 1499h278l-303 -336h-180z" />
    <glyph glyph-name="uni00B5" unicode="&#xb5;" horiz-adv-x="1220" 
d="M831 143h-8q-84 -168 -299 -168q-82 0 -149 37q25 -195 24 -338v-125h-262v1450h262v-573q1 -133 51 -189q50 -57 148 -57t160 80q61 80 61 215v524h264v-999h-252v143z" />
    <glyph glyph-name="paragraph" unicode="&#xb6;" horiz-adv-x="1286" 
d="M893 1409h237v-1409h-237v1409zM82 966q0 198 138 320q138 123 378 123h145v-1409h-237v510q-200 26 -312 142t-112 314z" />
    <glyph glyph-name="periodcentered" unicode="&#xb7;" horiz-adv-x="577" 
d="M141 657h297v-278h-297v278z" />
    <glyph glyph-name="cedilla" unicode="&#xb8;" horiz-adv-x="1200" 
d="M643 0v-78q90 -2 139 -51t49 -131t-60 -136t-179 -55h-137v127h108q96 0 96 72t-96 72h-67l63 180h84z" />
    <glyph glyph-name="ordmasculine" unicode="&#xba;" horiz-adv-x="880" 
d="M276 1058q0 -92 43 -148t120 -56t120 56t43 148t-43 146q-43 56 -120 56t-120 -56t-43 -146zM437 688q-175 0 -276 99t-101 269t102 270q104 101 278 101t276 -100t103 -270q0 -170 -103 -270q-104 -99 -279 -99z" />
    <glyph glyph-name="guillemotright" unicode="&#xbb;" horiz-adv-x="1150" 
d="M774 516l-229 418h215l291 -418l-291 -418h-215zM330 516l-232 418h215l293 -418l-293 -418h-215z" />
    <glyph glyph-name="onequarter" unicode="&#xbc;" horiz-adv-x="1660" 
d="M1309 268v203l-160 -203h160zM1513 709v-441h95v-149h-95v-119h-204v119h-357v114l385 476h176zM508 1409v-547h188v-157h-594v157h197v307l-139 -77l-82 137l305 180h125zM1182 1434h166l-713 -1459h-166z" />
    <glyph glyph-name="onehalf" unicode="&#xbd;" horiz-adv-x="1660" 
d="M969 0q-1 152 65 232t180 133l35 18q143 61 144 113q0 80 -108 80t-114 -113h-194q2 129 91 193t224 65q135 0 218 -59q83 -58 83 -152t-52 -145t-163 -101l-37 -16q-129 -57 -129 -90h377v-158h-620zM508 1409v-547h188v-157h-594v157h197v307l-139 -77l-82 137l305 180
h125zM424 -25q309 639 713 1459h166l-713 -1459h-166z" />
    <glyph glyph-name="threequarters" unicode="&#xbe;" horiz-adv-x="1660" 
d="M1309 268v203l-160 -203h160zM1513 709v-441h95v-149h-95v-119h-204v119h-357v114l385 476h176zM260 922q0 -49 31 -77t84 -28t85 25t32 69q0 92 -123 93h-43v122h43q109 0 108 84q0 86 -102 86q-47 0 -75 -26t-28 -70h-184q2 109 82 167t212 58t212 -55t80 -145
q0 -59 -33 -101t-86 -55v-6q63 -14 101 -58t38 -108q0 -101 -83 -155t-236 -54q-297 0 -303 234h188zM432 -25q403 819 713 1459h166l-713 -1459h-166z" />
    <glyph glyph-name="questiondown" unicode="&#xbf;" horiz-adv-x="1058" 
d="M55 -51q0 94 38 165q38 70 92 112q55 42 109 81q130 93 130 209v59h248v-49q0 -170 -90 -261t-176 -148q-87 -58 -87 -147q-1 -89 55 -140t162 -51q106 -1 162 67q57 68 58 170h252q0 -190 -122 -320t-348 -130t-355 102q-128 102 -128 281zM412 999h272v-270h-272v270z
" />
    <glyph glyph-name="Agrave" unicode="&#xc0;" horiz-adv-x="1404" 
d="M696 1149l-215 -612h432l-208 612h-9zM541 1409h323l525 -1409h-291l-109 315h-583l-111 -315h-279zM309 1909h277l207 -336h-181z" />
    <glyph glyph-name="Aacute" unicode="&#xc1;" horiz-adv-x="1404" 
d="M696 1149l-215 -612h432l-208 612h-9zM541 1409h323l525 -1409h-291l-109 315h-583l-111 -315h-279zM813 1909h279l-304 -336h-180z" />
    <glyph glyph-name="Acircumflex" unicode="&#xc2;" horiz-adv-x="1404" 
d="M696 1149l-215 -612h432l-208 612h-9zM541 1409h323l525 -1409h-291l-109 315h-583l-111 -315h-279zM600 1909h201l262 -336h-217l-146 203l-145 -203h-217z" />
    <glyph glyph-name="Atilde" unicode="&#xc3;" horiz-adv-x="1404" 
d="M696 1149l-215 -612h432l-208 612h-9zM541 1409h323l525 -1409h-291l-109 315h-583l-111 -315h-279zM553 1866q68 0 168 -45t135 -45q70 0 78 98h125q-3 -120 -57 -188t-138 -68t-184 46t-135 46q-70 0 -78 -98h-125q2 118 56 186t155 68z" />
    <glyph glyph-name="Adieresis" unicode="&#xc4;" horiz-adv-x="1404" 
d="M696 1149l-215 -612h432l-208 612h-9zM541 1409h323l525 -1409h-291l-109 315h-583l-111 -315h-279zM803 1870h241v-238h-241v238zM356 1870h240v-238h-240v238z" />
    <glyph glyph-name="Aring" unicode="&#xc5;" horiz-adv-x="1404" 
d="M696 1149l-215 -612h432l-208 612h-9zM541 1409h323l525 -1409h-291l-109 315h-583l-111 -315h-279zM700 1655q41 -1 70 27t29 71t-29 72t-70 29q-42 0 -70 -30q-28 -28 -28 -71t28 -71t70 -27zM700 1546q-92 0 -155 58t-63 150t62 150q64 58 156 58t156 -58t64 -150
t-64 -150t-156 -58z" />
    <glyph glyph-name="AE" unicode="&#xc6;" horiz-adv-x="2287" 
d="M1141 532v603h-8l-428 -603h436zM2165 1409v-227h-750v-355h606v-217h-606v-383h770v-227h-1044v315h-592l-223 -315h-316l1018 1409h1137z" />
    <glyph glyph-name="Ccedilla" unicode="&#xc7;" horiz-adv-x="1499" 
d="M90 709q0 313 194 519t509 206q259 0 421 -131t203 -359h-274q-70 254 -350 254q-193 0 -307 -136t-114 -354t116 -358q116 -139 305 -139q281 0 350 254h274q-39 -217 -191 -346t-390 -142v-55q90 -2 139 -51t49 -131t-60 -136t-180 -55h-137v127h109q96 0 96 72t-96 72
h-68l55 157q-301 15 -477 217t-176 515z" />
    <glyph glyph-name="Egrave" unicode="&#xc8;" horiz-adv-x="1310" 
d="M166 1409h1022v-227h-748v-355h602v-217h-602v-383h766v-227h-1040v1409zM287 1909h276l207 -336h-180z" />
    <glyph glyph-name="Eacute" unicode="&#xc9;" horiz-adv-x="1310" 
d="M166 1409h1022v-227h-748v-355h602v-217h-602v-383h766v-227h-1040v1409zM791 1909h278l-303 -336h-180z" />
    <glyph glyph-name="Ecircumflex" unicode="&#xca;" horiz-adv-x="1310" 
d="M166 1409h1022v-227h-748v-355h602v-217h-602v-383h766v-227h-1040v1409zM578 1909h200l262 -336h-217l-145 203l-146 -203h-217z" />
    <glyph glyph-name="Edieresis" unicode="&#xcb;" horiz-adv-x="1310" 
d="M166 1409h1022v-227h-748v-355h602v-217h-602v-383h766v-227h-1040v1409zM780 1870h242v-238h-242v238zM334 1870h239v-238h-239v238z" />
    <glyph glyph-name="Igrave" unicode="&#xcc;" horiz-adv-x="606" 
d="M166 1409h274v-1409h-274v1409zM-88 1909h276l207 -336h-180z" />
    <glyph glyph-name="Iacute" unicode="&#xcd;" horiz-adv-x="606" 
d="M166 1409h274v-1409h-274v1409zM416 1909h278l-303 -336h-180z" />
    <glyph glyph-name="Icircumflex" unicode="&#xce;" horiz-adv-x="606" 
d="M166 1409h274v-1409h-274v1409zM203 1909h200l263 -336h-217l-146 203l-145 -203h-217z" />
    <glyph glyph-name="Idieresis" unicode="&#xcf;" horiz-adv-x="606" 
d="M166 1409h274v-1409h-274v1409zM406 1870h241v-238h-241v238zM-41 1870h240v-238h-240v238z" />
    <glyph glyph-name="Eth" unicode="&#xd0;" horiz-adv-x="1505" 
d="M440 1182v-391h305v-168h-305v-396h209q248 0 366 133q118 132 118 344t-118 345t-366 133h-209zM8 791h158v618h502q360 0 554 -195q194 -196 194 -510t-194 -509t-554 -195h-502v623h-158v168z" />
    <glyph glyph-name="Ntilde" unicode="&#xd1;" horiz-adv-x="1560" 
d="M166 1409h248l706 -942h8l-8 942h275v-1409h-244l-711 942h-8l8 -942h-274v1409zM633 1866q68 0 168 -45t135 -45q70 0 78 98h125q-3 -120 -57 -188t-138 -68t-184 46t-135 46q-70 0 -78 -98h-125q2 118 56 186t155 68z" />
    <glyph glyph-name="Ograve" unicode="&#xd2;" horiz-adv-x="1615" 
d="M373 705q0 -217 121 -355q120 -138 314 -139q194 0 314 139q120 138 121 354q0 216 -121 355q-120 139 -314 139t-314 -138t-121 -355zM90 705q0 319 198 524t518 205t520 -206t200 -523t-200 -523t-520 -207t-518 205t-198 525zM418 1909h276l207 -336h-180z" />
    <glyph glyph-name="Oacute" unicode="&#xd3;" horiz-adv-x="1615" 
d="M373 705q0 -217 121 -355q120 -138 314 -139q194 0 314 139q120 138 121 354q0 216 -121 355q-120 139 -314 139t-314 -138t-121 -355zM90 705q0 319 198 524t518 205t520 -206t200 -523t-200 -523t-520 -207t-518 205t-198 525zM922 1909h278l-303 -336h-180z" />
    <glyph glyph-name="Ocircumflex" unicode="&#xd4;" horiz-adv-x="1615" 
d="M373 705q0 -217 121 -355q120 -138 314 -139q194 0 314 139q120 138 121 354q0 216 -121 355q-120 139 -314 139t-314 -138t-121 -355zM90 705q0 319 198 524t518 205t520 -206t200 -523t-200 -523t-520 -207t-518 205t-198 525zM709 1909h200l262 -336h-217l-145 203
l-145 -203h-218z" />
    <glyph glyph-name="Otilde" unicode="&#xd5;" horiz-adv-x="1615" 
d="M373 705q0 -217 121 -355q120 -138 314 -139q194 0 314 139q120 138 121 354q0 216 -121 355q-120 139 -314 139t-314 -138t-121 -355zM90 705q0 319 198 524t518 205t520 -206t200 -523t-200 -523t-520 -207t-518 205t-198 525zM662 1866q68 0 168 -45t135 -45
q70 0 77 98h125q-4 -120 -57 -188t-154 -68q-68 0 -168 46t-135 46q-70 0 -78 -98h-124q2 118 56 186t155 68z" />
    <glyph glyph-name="Odieresis" unicode="&#xd6;" horiz-adv-x="1615" 
d="M373 705q0 -217 121 -355q120 -138 314 -139q194 0 314 139q120 138 121 354q0 216 -121 355q-120 139 -314 139t-314 -138t-121 -355zM90 705q0 319 198 524t518 205t520 -206t200 -523t-200 -523t-520 -207t-518 205t-198 525zM911 1870h242v-238h-242v238zM465 1870
h240v-238h-240v238z" />
    <glyph glyph-name="multiply" unicode="&#xd7;" horiz-adv-x="1163" 
d="M285 967l297 -301l297 301l147 -146l-299 -301l303 -305l-147 -145l-301 303l-301 -303l-148 145l303 305l-299 301z" />
    <glyph glyph-name="Oslash" unicode="&#xd8;" horiz-adv-x="1615" 
d="M809 211q193 -1 313 139t121 336q0 196 -88 330l-598 -727q111 -78 252 -78zM809 1198q-195 0 -315 -138t-121 -338q0 -200 88 -331l598 727q-109 80 -250 80zM90 704q0 318 199 524t520 206q233 0 410 -119l98 119h182l-172 -209q199 -209 199 -523t-201 -520t-516 -207
q-240 0 -414 117l-94 -117h-182l170 205q-199 206 -199 524z" />
    <glyph glyph-name="Ugrave" unicode="&#xd9;" horiz-adv-x="1492" 
d="M139 1409h277v-840q0 -358 332 -358q164 0 246 92t83 266v840h277v-844q0 -590 -607 -590t-608 590v844zM356 1909h277l207 -336h-181z" />
    <glyph glyph-name="Uacute" unicode="&#xda;" horiz-adv-x="1492" 
d="M139 1409h277v-840q0 -358 332 -358q164 0 246 92t83 266v840h277v-844q0 -590 -607 -590t-608 590v844zM860 1909h279l-303 -336h-181z" />
    <glyph glyph-name="Ucircumflex" unicode="&#xdb;" horiz-adv-x="1492" 
d="M139 1409h277v-840q0 -358 332 -358q164 0 246 92t83 266v840h277v-844q0 -590 -607 -590t-608 590v844zM647 1909h201l262 -336h-217l-145 203l-146 -203h-217z" />
    <glyph glyph-name="Udieresis" unicode="&#xdc;" horiz-adv-x="1492" 
d="M139 1409h277v-840q0 -358 332 -358q164 0 246 92t83 266v840h277v-844q0 -590 -607 -590t-608 590v844zM850 1870h242v-238h-242v238zM403 1870h240v-238h-240v238z" />
    <glyph glyph-name="Yacute" unicode="&#xdd;" horiz-adv-x="1361" 
d="M815 0h-276v541l-519 868h312l346 -606h8l365 606h290l-526 -860v-549zM795 1909h278l-303 -336h-180z" />
    <glyph glyph-name="Thorn" unicode="&#xde;" horiz-adv-x="1382" 
d="M440 971v-508h308q128 0 198 72q70 73 70 187t-69 182t-199 67h-308zM166 1409h274v-217h332q246 0 384 -128t138 -341t-138 -346t-384 -133h-332v-244h-274v1409z" />
    <glyph glyph-name="germandbls" unicode="&#xdf;" horiz-adv-x="1257" 
d="M143 1026q1 242 135 370t358 128t330 -94t107 -232q0 -70 -30 -128q-29 -58 -65 -91q-96 -89 -95 -148q1 -37 33 -71t79 -66q47 -33 94 -73q47 -41 79 -107t32 -147q0 -175 -115 -271t-286 -96h-217v205h190q78 0 122 36t44 95t-32 99t-76 70q-44 29 -89 63t-76 92
q-32 58 -32 132t30 133q30 58 66 90q98 85 96 167q0 61 -49 103t-147 42q-97 0 -159 -71t-62 -220v-1036h-265v1026z" />
    <glyph glyph-name="agrave" unicode="&#xe0;" horiz-adv-x="1140" 
d="M502 160q102 0 173 62t70 181v89q-23 -33 -98 -48l-153 -24q-147 -25 -148 -135q0 -125 156 -125zM86 257q0 128 82 204t258 102l192 29q78 12 103 28t24 52q-4 168 -182 168t-192 -164h-246q10 164 131 256t311 92q442 0 443 -365v-659h-252v119h-13q-94 -143 -319 -144
q-164 0 -252 77t-88 205zM188 1499h277l207 -336h-180z" />
    <glyph glyph-name="aacute" unicode="&#xe1;" horiz-adv-x="1140" 
d="M502 160q102 0 173 62t70 181v89q-23 -33 -98 -48l-153 -24q-147 -25 -148 -135q0 -125 156 -125zM86 257q0 128 82 204t258 102l192 29q78 12 103 28t24 52q-4 168 -182 168t-192 -164h-246q10 164 131 256t311 92q442 0 443 -365v-659h-252v119h-13q-94 -143 -319 -144
q-164 0 -252 77t-88 205zM659 1499h279l-303 -336h-180z" />
    <glyph glyph-name="acircumflex" unicode="&#xe2;" horiz-adv-x="1140" 
d="M502 160q102 0 173 62t70 181v89q-23 -33 -98 -48l-153 -24q-147 -25 -148 -135q0 -125 156 -125zM86 257q0 128 82 204t258 102l192 29q78 12 103 28t24 52q-4 168 -182 168t-192 -164h-246q10 164 131 256t311 92q442 0 443 -365v-659h-252v119h-13q-94 -143 -319 -144
q-164 0 -252 77t-88 205zM463 1499h201l262 -336h-217l-146 203l-145 -203h-217z" />
    <glyph glyph-name="atilde" unicode="&#xe3;" horiz-adv-x="1140" 
d="M502 160q102 0 173 62t70 181v89q-23 -33 -98 -48l-153 -24q-147 -25 -148 -135q0 -125 156 -125zM86 257q0 128 82 204t258 102l192 29q78 12 103 28t24 52q-4 168 -182 168t-192 -164h-246q10 164 131 256t311 92q442 0 443 -365v-659h-252v119h-13q-94 -143 -319 -144
q-164 0 -252 77t-88 205zM719 1366q70 0 78 98h125q-4 -120 -58 -188t-137 -68q-84 0 -184 46t-135 46q-70 0 -78 -98h-125q2 119 56 187t155 67q68 0 168 -45t135 -45z" />
    <glyph glyph-name="adieresis" unicode="&#xe4;" horiz-adv-x="1140" 
d="M502 160q102 0 173 62t70 181v89q-23 -33 -98 -48l-153 -24q-147 -25 -148 -135q0 -125 156 -125zM86 257q0 128 82 204t258 102l192 29q78 12 103 28t24 52q-4 168 -182 168t-192 -164h-246q10 164 131 256t311 92q442 0 443 -365v-659h-252v119h-13q-94 -143 -319 -144
q-164 0 -252 77t-88 205zM666 1460h241v-237h-241v237zM219 1460h240v-237h-240v237z" />
    <glyph glyph-name="aring" unicode="&#xe5;" horiz-adv-x="1140" 
d="M502 160q102 0 173 62t70 181v89q-23 -33 -98 -48l-153 -24q-147 -25 -148 -135q0 -125 156 -125zM86 257q0 128 82 204t258 102l192 29q78 12 103 28t24 52q-4 168 -182 168t-192 -164h-246q10 164 131 256t311 92q442 0 443 -365v-659h-252v119h-13q-94 -143 -319 -144
q-164 0 -252 77t-88 205zM563 1245q41 0 70 28q29 29 29 71t-29 71t-70 29t-69 -29t-29 -72q1 -43 29 -71t69 -27zM563 1137q-92 0 -155 58q-64 58 -64 149q0 92 64 150t155 58t155 -58t64 -150t-64 -149q-64 -58 -155 -58z" />
    <glyph glyph-name="ae" unicode="&#xe6;" horiz-adv-x="1777" 
d="M502 160q102 0 173 61t70 182v89q-23 -33 -98 -48l-153 -24q-147 -25 -148 -135q0 -125 156 -125zM1230 834q-183 0 -226 -222h430q-21 222 -204 222zM567 1024q238 0 336 -121q125 121 333 121t338 -132t130 -366v-73h-707q7 -139 71 -212t169 -73q156 0 199 135h256
q-25 -139 -151 -233t-308 -95q-266 0 -391 193q-117 -193 -393 -193q-176 0 -270 77q-93 77 -93 206q0 254 340 305l192 29q78 12 103 28t24 56q0 72 -45 118t-132 46t-139 -42t-58 -122h-246q12 176 135 262t307 86z" />
    <glyph glyph-name="ccedilla" unicode="&#xe7;" horiz-adv-x="1132" 
d="M74 503q0 239 143 380t367 141t346 -104q123 -104 141 -269h-260q-13 74 -67 123t-158 49t-172 -90t-68 -233q0 -144 69 -234t172 -90t156 48t68 124h260q-18 -156 -129 -258t-305 -113v-55q90 -2 139 -51t49 -131t-60 -136t-179 -55h-137v127h108q96 0 96 72t-96 72h-68
l56 157q-221 15 -346 151t-125 375z" />
    <glyph glyph-name="egrave" unicode="&#xe8;" horiz-adv-x="1155" 
d="M593 834q-194 0 -241 -218h461q-26 218 -220 218zM74 491q0 245 143 389t373 144t360 -131q131 -131 131 -367v-73h-737q8 -135 76 -210t169 -75t154 40t72 95h256q-25 -139 -153 -233t-322 -95q-248 -1 -385 135t-137 381zM201 1499h276l207 -336h-180z" />
    <glyph glyph-name="eacute" unicode="&#xe9;" horiz-adv-x="1155" 
d="M593 834q-194 0 -241 -218h461q-26 218 -220 218zM74 491q0 245 143 389t373 144t360 -131q131 -131 131 -367v-73h-737q8 -135 76 -210t169 -75t154 40t72 95h256q-25 -139 -153 -233t-322 -95q-248 -1 -385 135t-137 381zM705 1499h278l-303 -336h-180z" />
    <glyph glyph-name="ecircumflex" unicode="&#xea;" horiz-adv-x="1155" 
d="M593 834q-194 0 -241 -218h461q-26 218 -220 218zM74 491q0 245 143 389t373 144t360 -131q131 -131 131 -367v-73h-737q8 -135 76 -210t169 -75t154 40t72 95h256q-25 -139 -153 -233t-322 -95q-248 -1 -385 135t-137 381zM492 1499h200l262 -336h-217l-145 203
l-146 -203h-217z" />
    <glyph glyph-name="edieresis" unicode="&#xeb;" horiz-adv-x="1155" 
d="M593 834q-194 0 -241 -218h461q-26 218 -220 218zM74 491q0 245 143 389t373 144t360 -131q131 -131 131 -367v-73h-737q8 -135 76 -210t169 -75t154 40t72 95h256q-25 -139 -153 -233t-322 -95q-248 -1 -385 135t-137 381zM694 1460h242v-237h-242v237zM248 1460h239
v-237h-239v237z" />
    <glyph glyph-name="igrave" unicode="&#xec;" horiz-adv-x="550" 
d="M143 999h265v-999h-265v999zM-115 1499h277l207 -336h-181z" />
    <glyph glyph-name="iacute" unicode="&#xed;" horiz-adv-x="550" 
d="M143 999h265v-999h-265v999zM389 1499h279l-303 -336h-181z" />
    <glyph glyph-name="icircumflex" unicode="&#xee;" horiz-adv-x="550" 
d="M143 999h265v-999h-265v999zM176 1499h201l262 -336h-217l-146 203l-145 -203h-217z" />
    <glyph glyph-name="idieresis" unicode="&#xef;" horiz-adv-x="550" 
d="M143 999h265v-999h-265v999zM379 1460h242v-237h-242v237zM-68 1460h240v-237h-240v237z" />
    <glyph glyph-name="eth" unicode="&#xf0;" horiz-adv-x="1247" 
d="M358 467q0 -129 73 -210t190 -81t189 81t73 211q0 130 -72 210q-71 80 -189 80t-191 -81t-73 -210zM1153 553v-4q0 -281 -143 -427t-389 -146q-247 0 -389 134t-142 354t141 357t338 137t293 -104h10q-59 207 -223 324l-213 -148l-80 115l160 110q-86 41 -223 84l67 185
q213 -61 351 -135l188 131l80 -113l-141 -98q158 -117 236 -294t79 -462z" />
    <glyph glyph-name="ntilde" unicode="&#xf1;" horiz-adv-x="1226" 
d="M143 999h252v-143h8q88 168 308 168q169 0 277 -99t108 -319v-606h-265v573q0 246 -194 246q-100 0 -165 -79t-64 -214v-526h-265v999zM774 1366q70 0 78 98h125q-4 -120 -57 -188t-154 -68q-68 0 -168 46t-135 46q-70 0 -78 -98h-125q2 119 56 187t155 67q68 0 168 -45
t135 -45z" />
    <glyph glyph-name="ograve" unicode="&#xf2;" horiz-adv-x="1214" 
d="M350 500q0 -148 71 -236t187 -88t187 87q69 87 69 238t-68 235t-187 85q-119 0 -189 -87t-70 -234zM78 498q0 244 147 385t386 141t382 -139t143 -383t-146 -385q-148 -141 -386 -141t-382 138q-144 140 -144 384zM217 1499h277l206 -336h-180z" />
    <glyph glyph-name="oacute" unicode="&#xf3;" horiz-adv-x="1214" 
d="M350 500q0 -148 71 -236t187 -88t187 87q69 87 69 238t-68 235t-187 85q-119 0 -189 -87t-70 -234zM78 498q0 244 147 385t386 141t382 -139t143 -383t-146 -385q-148 -141 -386 -141t-382 138q-144 140 -144 384zM721 1499h278l-303 -336h-180z" />
    <glyph glyph-name="ocircumflex" unicode="&#xf4;" horiz-adv-x="1214" 
d="M350 500q0 -148 71 -236t187 -88t187 87q69 87 69 238t-68 235t-187 85q-119 0 -189 -87t-70 -234zM78 498q0 244 147 385t386 141t382 -139t143 -383t-146 -385q-148 -141 -386 -141t-382 138q-144 140 -144 384zM508 1499h201l262 -336h-217l-146 203l-145 -203h-217z
" />
    <glyph glyph-name="otilde" unicode="&#xf5;" horiz-adv-x="1214" 
d="M350 500q0 -148 71 -236t187 -88t187 87q69 87 69 238t-68 235t-187 85q-119 0 -189 -87t-70 -234zM78 498q0 244 147 385t386 141t382 -139t143 -383t-146 -385q-148 -141 -386 -141t-382 138q-144 140 -144 384zM764 1366q70 0 78 98h125q-3 -120 -57 -188t-138 -68
t-184 46t-135 46q-70 0 -78 -98h-125q2 119 56 187t155 67q68 0 168 -45t135 -45z" />
    <glyph glyph-name="odieresis" unicode="&#xf6;" horiz-adv-x="1214" 
d="M350 500q0 -148 71 -236t187 -88t187 87q69 87 69 238t-68 235t-187 85q-119 0 -189 -87t-70 -234zM78 498q0 244 147 385t386 141t382 -139t143 -383t-146 -385q-148 -141 -386 -141t-382 138q-144 140 -144 384zM711 1460h241v-237h-241v237zM264 1460h240v-237h-240
v237z" />
    <glyph glyph-name="divide" unicode="&#xf7;" horiz-adv-x="1163" 
d="M465 264h233v-239h-233v239zM115 625h934v-205h-934v205zM465 1018h233v-240h-233v240z" />
    <glyph glyph-name="oslash" unicode="&#xf8;" horiz-adv-x="1206" 
d="M862 500q0 94 -33 170l-370 -447q59 -47 145 -47q117 0 188 89q70 90 70 235zM591 821q-105 0 -175 -88t-70 -215t37 -201l375 451q-63 53 -167 53zM74 497q0 241 148 384t382 143q172 0 301 -78l64 78h153l-125 -150q135 -140 135 -376t-146 -379q-148 -143 -382 -144
q-166 0 -293 70l-57 -70h-154l117 142q-143 139 -143 380z" />
    <glyph glyph-name="ugrave" unicode="&#xf9;" horiz-adv-x="1218" 
d="M127 999h264v-573q0 -246 195 -246q98 0 162 78q63 78 63 213v528h262v-999h-250v143h-8q-88 -168 -303 -168q-170 -1 -278 99t-107 319v606zM221 1499h277l207 -336h-181z" />
    <glyph glyph-name="uacute" unicode="&#xfa;" horiz-adv-x="1218" 
d="M127 999h264v-573q0 -246 195 -246q98 0 162 78q63 78 63 213v528h262v-999h-250v143h-8q-88 -168 -303 -168q-170 -1 -278 99t-107 319v606zM725 1499h279l-304 -336h-180z" />
    <glyph glyph-name="ucircumflex" unicode="&#xfb;" horiz-adv-x="1218" 
d="M127 999h264v-573q0 -246 195 -246q98 0 162 78q63 78 63 213v528h262v-999h-250v143h-8q-88 -168 -303 -168q-170 -1 -278 99t-107 319v606zM512 1499h201l262 -336h-217l-146 203l-145 -203h-217z" />
    <glyph glyph-name="udieresis" unicode="&#xfc;" horiz-adv-x="1218" 
d="M127 999h264v-573q0 -246 195 -246q98 0 162 78q63 78 63 213v528h262v-999h-250v143h-8q-88 -168 -303 -168q-170 -1 -278 99t-107 319v606zM715 1460h241v-237h-241v237zM268 1460h240v-237h-240v237z" />
    <glyph glyph-name="yacute" unicode="&#xfd;" horiz-adv-x="1060" 
d="M248 -467h-121v209h61q178 0 238 186l23 72h-72l-369 999h287l242 -739h8l239 739h269l-400 -1122q-119 -344 -405 -344zM641 1499h279l-304 -336h-180z" />
    <glyph glyph-name="thorn" unicode="&#xfe;" horiz-adv-x="1259" 
d="M911 506q0 148 -68 233q-69 84 -181 84t-182 -83q-71 -83 -72 -226v-14q0 -150 70 -237t183 -87q112 0 181 91t69 239zM1182 508q0 -244 -133 -388t-345 -144t-301 167h-8q12 -135 13 -336v-258h-265v1950h265v-307q0 -203 -13 -336h8q88 168 328 168q197 0 324 -136
t127 -380z" />
    <glyph glyph-name="ydieresis" unicode="&#xff;" horiz-adv-x="1060" 
d="M248 -467h-121v209h61q178 0 238 186l23 72h-72l-369 999h287l242 -739h8l239 739h269l-400 -1122q-119 -344 -405 -344zM631 1460h241v-237h-241v237zM184 1460h240v-237h-240v237z" />
    <glyph glyph-name="Amacron" unicode="&#x100;" horiz-adv-x="1404" 
d="M696 1149l-215 -612h432l-208 612h-9zM541 1409h323l525 -1409h-291l-109 315h-583l-111 -315h-279zM391 1829h610v-176h-610v176z" />
    <glyph glyph-name="amacron" unicode="&#x101;" horiz-adv-x="1140" 
d="M502 160q102 0 173 62t70 181v89q-23 -33 -98 -48l-153 -24q-147 -25 -148 -135q0 -125 156 -125zM86 257q0 128 82 204t258 102l192 29q78 12 103 28t24 52q-4 168 -182 168t-192 -164h-246q10 164 131 256t311 92q442 0 443 -365v-659h-252v119h-13q-94 -143 -319 -144
q-164 0 -252 77t-88 205zM254 1419h610v-176h-610v176z" />
    <glyph glyph-name="Abreve" unicode="&#x102;" horiz-adv-x="1404" 
d="M696 1149l-215 -612h432l-208 612h-9zM541 1409h323l525 -1409h-291l-109 315h-583l-111 -315h-279zM700 1585q-127 0 -216 75t-101 236h145q25 -162 172 -161q70 0 115 43t57 118h146q-12 -162 -102 -236t-216 -75z" />
    <glyph glyph-name="abreve" unicode="&#x103;" horiz-adv-x="1140" 
d="M502 160q102 0 173 62t70 181v89q-23 -33 -98 -48l-153 -24q-147 -25 -148 -135q0 -125 156 -125zM86 257q0 128 82 204t258 102l192 29q78 12 103 28t24 52q-4 168 -182 168t-192 -164h-246q10 164 131 256t311 92q442 0 443 -365v-659h-252v119h-13q-94 -143 -319 -144
q-164 0 -252 77t-88 205zM563 1176q-127 0 -216 74t-101 237h145q25 -162 172 -162q70 0 115 43t57 119h146q-11 -163 -101 -237t-217 -74z" />
    <glyph glyph-name="Aogonek" unicode="&#x104;" horiz-adv-x="1404" 
d="M696 1149l-215 -612h432l-208 612h-9zM1094 -262q0 68 39 128t127 134h-162l-109 315h-583l-111 -315h-279l525 1409h323l525 -1409q-123 -129 -123 -215t104 -86h60v-150h-82q-254 1 -254 189z" />
    <glyph glyph-name="aogonek" unicode="&#x105;" horiz-adv-x="1140" 
d="M502 160q102 0 173 62t70 181v89q-23 -33 -98 -48l-153 -24q-147 -25 -148 -135q0 -125 156 -125zM711 -262q0 68 39 128t127 134h-119v119h-13q-94 -143 -319 -144q-164 0 -252 77t-88 205t82 204t258 102l192 29q78 12 103 28t24 52q-4 168 -182 168t-192 -164h-246
q10 164 131 256t311 92q442 0 443 -365v-659h-4q-123 -129 -123 -215t104 -86h60v-150h-82q-254 1 -254 189z" />
    <glyph glyph-name="Cacute" unicode="&#x106;" horiz-adv-x="1499" 
d="M788 -25q-318 0 -508 204q-190 203 -190 523t194 526t509 206q259 0 421 -131t203 -359h-274q-70 254 -350 254q-193 0 -307 -136t-114 -354t116 -358q116 -139 305 -139q281 0 350 254h274q-41 -227 -206 -359t-423 -131zM905 1909h279l-303 -336h-181z" />
    <glyph glyph-name="cacute" unicode="&#x107;" horiz-adv-x="1132" 
d="M74 497q0 245 143 386t367 141t346 -104q123 -104 141 -269h-260q-13 74 -67 123t-158 49t-172 -90t-68 -233q0 -144 69 -234t172 -90t156 48t68 124h260q-18 -164 -140 -268q-123 -104 -351 -104t-367 138t-139 383zM707 1499h278l-303 -336h-180z" />
    <glyph glyph-name="Ccircumflex" unicode="&#x108;" horiz-adv-x="1499" 
d="M788 -25q-318 0 -508 204q-190 203 -190 523t194 526t509 206q259 0 421 -131t203 -359h-274q-70 254 -350 254q-193 0 -307 -136t-114 -354t116 -358q116 -139 305 -139q281 0 350 254h274q-41 -227 -206 -359t-423 -131zM692 1909h201l262 -336h-217l-145 203
l-146 -203h-217z" />
    <glyph glyph-name="ccircumflex" unicode="&#x109;" horiz-adv-x="1132" 
d="M74 497q0 245 143 386t367 141t346 -104q123 -104 141 -269h-260q-13 74 -67 123t-158 49t-172 -90t-68 -233q0 -144 69 -234t172 -90t156 48t68 124h260q-18 -164 -140 -268q-123 -104 -351 -104t-367 138t-139 383zM494 1499h200l262 -336h-217l-145 203l-145 -203
h-218z" />
    <glyph glyph-name="Cdotaccent" unicode="&#x10a;" horiz-adv-x="1499" 
d="M788 -25q-318 0 -508 204q-190 203 -190 523t194 526t509 206q259 0 421 -131t203 -359h-274q-70 254 -350 254q-193 0 -307 -136t-114 -354t116 -358q116 -139 305 -139q281 0 350 254h274q-41 -227 -206 -359t-423 -131zM672 1870h241v-238h-241v238z" />
    <glyph glyph-name="cdotaccent" unicode="&#x10b;" horiz-adv-x="1132" 
d="M74 497q0 245 143 386t367 141t346 -104q123 -104 141 -269h-260q-13 74 -67 123t-158 49t-172 -90t-68 -233q0 -144 69 -234t172 -90t156 48t68 124h260q-18 -164 -140 -268q-123 -104 -351 -104t-367 138t-139 383zM473 1460h242v-237h-242v237z" />
    <glyph glyph-name="Ccaron" unicode="&#x10c;" horiz-adv-x="1499" 
d="M788 -25q-318 0 -508 204q-190 203 -190 523t194 526t509 206q259 0 421 -131t203 -359h-274q-70 254 -350 254q-193 0 -307 -136t-114 -354t116 -358q116 -139 305 -139q281 0 350 254h274q-41 -227 -206 -359t-423 -131zM430 1909h217l146 -203l145 203h217l-262 -336
h-201z" />
    <glyph glyph-name="ccaron" unicode="&#x10d;" horiz-adv-x="1132" 
d="M74 497q0 245 143 386t367 141t346 -104q123 -104 141 -269h-260q-13 74 -67 123t-158 49t-172 -90t-68 -233q0 -144 69 -234t172 -90t156 48t68 124h260q-18 -164 -140 -268q-123 -104 -351 -104t-367 138t-139 383zM231 1499h218l145 -203l145 203h217l-262 -336h-200z
" />
    <glyph glyph-name="Dcaron" unicode="&#x10e;" horiz-adv-x="1505" 
d="M440 1182v-955h209q248 0 366 133q118 132 118 344t-118 345t-366 133h-209zM166 1409h502q360 0 554 -195q194 -196 194 -510t-194 -509t-554 -195h-502v1409zM336 1909h217l145 -203l146 203h217l-262 -336h-201z" />
    <glyph glyph-name="dcaron" unicode="&#x10f;" horiz-adv-x="1259" 
d="M598 823q-110 -1 -180 -91q-68 -90 -68 -238t68 -234q68 -84 182 -84t182 87q70 87 70 237v14q-4 143 -74 226t-180 83zM1260 1280v219h249v-196l-104 -246h-113l72 223h-104zM78 492q0 244 133 388t345 144t300 -168h8q-12 133 -12 336v307h264v-1499h-252v143h-8
q-88 -168 -328 -168q-194 1 -322 137t-128 380z" />
    <glyph glyph-name="Dcroat" unicode="&#x110;" horiz-adv-x="1505" 
d="M440 1182v-391h305v-168h-305v-396h209q248 0 366 133q118 132 118 344t-118 345t-366 133h-209zM8 791h158v618h502q360 0 554 -195q194 -196 194 -510t-194 -509t-554 -195h-502v623h-158v168z" />
    <glyph glyph-name="dcroat" unicode="&#x111;" horiz-adv-x="1259" 
d="M598 823q-110 -1 -180 -91q-68 -90 -68 -238t68 -234q68 -84 182 -84t182 87q70 87 70 237v14q-4 143 -74 226t-180 83zM561 1348h291v151h264v-151h144v-144h-144v-1204h-252v143h-8q-88 -168 -328 -168q-194 1 -322 137t-128 380t133 388t345 144t300 -168h8
q-12 133 -12 336v12h-291v144z" />
    <glyph glyph-name="Emacron" unicode="&#x112;" horiz-adv-x="1310" 
d="M166 1409h1022v-227h-748v-355h602v-217h-602v-383h766v-227h-1040v1409zM369 1829h610v-176h-610v176z" />
    <glyph glyph-name="emacron" unicode="&#x113;" horiz-adv-x="1155" 
d="M593 834q-194 0 -241 -218h461q-26 218 -220 218zM74 491q0 245 143 389t373 144t360 -131q131 -131 131 -367v-73h-737q8 -135 76 -210t169 -75t154 40t72 95h256q-25 -139 -153 -233t-322 -95q-248 -1 -385 135t-137 381zM283 1419h610v-176h-610v176z" />
    <glyph glyph-name="Ebreve" unicode="&#x114;" horiz-adv-x="1310" 
d="M166 1409h1022v-227h-748v-355h602v-217h-602v-383h766v-227h-1040v1409zM678 1585q-127 0 -216 75t-102 236h146q25 -162 172 -161q70 0 115 43t57 118h145q-12 -162 -101 -236t-216 -75z" />
    <glyph glyph-name="ebreve" unicode="&#x115;" horiz-adv-x="1155" 
d="M593 834q-194 0 -241 -218h461q-26 218 -220 218zM74 491q0 245 143 389t373 144t360 -131q131 -131 131 -367v-73h-737q8 -135 76 -210t169 -75t154 40t72 95h256q-25 -139 -153 -233t-322 -95q-248 -1 -385 135t-137 381zM592 1176q-127 0 -216 74t-102 237h146
q25 -162 172 -162q70 0 115 43t57 119h145q-12 -163 -101 -237t-216 -74z" />
    <glyph glyph-name="Edotaccent" unicode="&#x116;" horiz-adv-x="1310" 
d="M166 1409h1022v-227h-748v-355h602v-217h-602v-383h766v-227h-1040v1409zM557 1870h242v-238h-242v238z" />
    <glyph glyph-name="edotaccent" unicode="&#x117;" horiz-adv-x="1155" 
d="M593 834q-194 0 -241 -218h461q-26 218 -220 218zM74 491q0 245 143 389t373 144t360 -131q131 -131 131 -367v-73h-737q8 -135 76 -210t169 -75t154 40t72 95h256q-25 -139 -153 -233t-322 -95q-248 -1 -385 135t-137 381zM471 1460h242v-237h-242v237z" />
    <glyph glyph-name="Eogonek" unicode="&#x118;" horiz-adv-x="1310" 
d="M166 1409h1022v-227h-748v-355h602v-217h-602v-383h766v-227q-123 -129 -123 -215t105 -86h59v-150h-82q-254 0 -254 189q0 68 39 128t127 134h-911v1409z" />
    <glyph glyph-name="eogonek" unicode="&#x119;" horiz-adv-x="1155" 
d="M593 834q-194 0 -241 -218h461q-26 218 -220 218zM444 -250q0 123 164 225h-12q-248 -1 -385 135t-137 381t143 389t373 144t360 -131q131 -131 131 -367v-73h-737q8 -135 76 -210t169 -75t154 40t72 95h256q-29 -158 -188 -256q-131 -80 -196 -140t-64 -116
q0 -92 102 -92h61v-150h-81q-261 0 -261 201z" />
    <glyph glyph-name="Ecaron" unicode="&#x11a;" horiz-adv-x="1310" 
d="M166 1409h1022v-227h-748v-355h602v-217h-602v-383h766v-227h-1040v1409zM315 1909h217l146 -203l145 203h217l-262 -336h-200z" />
    <glyph glyph-name="ecaron" unicode="&#x11b;" horiz-adv-x="1155" 
d="M593 834q-194 0 -241 -218h461q-26 218 -220 218zM74 491q0 245 143 389t373 144t360 -131q131 -131 131 -367v-73h-737q8 -135 76 -210t169 -75t154 40t72 95h256q-25 -139 -153 -233t-322 -95q-248 -1 -385 135t-137 381zM229 1499h217l146 -203l145 203h217l-262 -336
h-200z" />
    <glyph glyph-name="Gcircumflex" unicode="&#x11c;" horiz-adv-x="1587" 
d="M783 -25q-305 0 -499 206q-194 207 -194 525t199 523t524 205q256 0 424 -128t205 -327h-275q-31 96 -119 158q-89 61 -235 61q-199 0 -319 -136t-121 -357q0 -221 120 -357t300 -137q181 0 291 88t110 242v10h-381v209h625v-760h-174l-31 170h-4q-141 -195 -446 -195z
M713 1909h200l263 -336h-218l-145 203l-145 -203h-217z" />
    <glyph glyph-name="gcircumflex" unicode="&#x11d;" horiz-adv-x="1259" 
d="M598 823q-110 -1 -180 -91q-68 -90 -68 -238t68 -234q68 -84 182 -84t182 87q70 87 70 237v14q-4 143 -74 226t-180 83zM603 -283q120 0 191 80t70 256v90h-8q-88 -168 -328 -168q-194 1 -322 137t-128 380t133 388t345 144t300 -168h8v143h252v-946q0 -520 -530 -520
q-217 0 -345 87t-135 257h248q2 -72 66 -116t183 -44zM500 1499h200l263 -336h-218l-145 203l-145 -203h-217z" />
    <glyph glyph-name="Gbreve" unicode="&#x11e;" horiz-adv-x="1587" 
d="M783 -25q-305 0 -499 206q-194 207 -194 525t199 523t524 205q256 0 424 -128t205 -327h-275q-31 96 -119 158q-89 61 -235 61q-199 0 -319 -136t-121 -357q0 -221 120 -357t300 -137q181 0 291 88t110 242v10h-381v209h625v-760h-174l-31 170h-4q-141 -195 -446 -195z
M813 1585q-127 0 -216 75t-101 236h145q25 -162 172 -161q70 0 115 43t57 118h145q-12 -162 -101 -236t-216 -75z" />
    <glyph glyph-name="gbreve" unicode="&#x11f;" horiz-adv-x="1259" 
d="M598 823q-110 -1 -180 -91q-68 -90 -68 -238t68 -234q68 -84 182 -84t182 87q70 87 70 237v14q-4 143 -74 226t-180 83zM603 -283q120 0 191 80t70 256v90h-8q-88 -168 -328 -168q-194 1 -322 137t-128 380t133 388t345 144t300 -168h8v143h252v-946q0 -520 -530 -520
q-217 0 -345 87t-135 257h248q2 -72 66 -116t183 -44zM600 1176q-127 0 -216 74t-101 237h145q25 -162 172 -162q70 0 115 43t57 119h146q-12 -163 -102 -237t-216 -74z" />
    <glyph glyph-name="Gdotaccent" unicode="&#x120;" horiz-adv-x="1587" 
d="M783 -25q-305 0 -499 206q-194 207 -194 525t199 523t524 205q256 0 424 -128t205 -327h-275q-31 96 -119 158q-89 61 -235 61q-199 0 -319 -136t-121 -357q0 -221 120 -357t300 -137q181 0 291 88t110 242v10h-381v209h625v-760h-174l-31 170h-4q-141 -195 -446 -195z
M692 1870h242v-238h-242v238z" />
    <glyph glyph-name="gdotaccent" unicode="&#x121;" horiz-adv-x="1259" 
d="M598 823q-110 -1 -180 -91q-68 -90 -68 -238t68 -234q68 -84 182 -84t182 87q70 87 70 237v14q-4 143 -74 226t-180 83zM603 -283q120 0 191 80t70 256v90h-8q-88 -168 -328 -168q-194 1 -322 137t-128 380t133 388t345 144t300 -168h8v143h252v-946q0 -520 -530 -520
q-217 0 -345 87t-135 257h248q2 -72 66 -116t183 -44zM479 1460h242v-237h-242v237z" />
    <glyph glyph-name="Gcommaaccent" unicode="&#x122;" horiz-adv-x="1587" 
d="M913 -125v-180l-102 -221h-109l72 194h-102v207h241zM783 -25q-305 0 -499 206q-194 207 -194 525t199 523t524 205q256 0 424 -128t205 -327h-275q-31 96 -119 158q-89 61 -235 61q-199 0 -319 -136t-121 -357q0 -221 120 -357t300 -137q181 0 291 88t110 242v10h-381
v209h625v-760h-174l-31 170h-4q-141 -195 -446 -195z" />
    <glyph glyph-name="gcommaaccent" unicode="&#x123;" horiz-adv-x="1259" 
d="M598 823q-110 -1 -180 -91q-68 -90 -68 -238t68 -234q68 -84 182 -84t182 87q70 87 70 237v14q-4 143 -74 226t-180 83zM603 -283q120 0 191 80t70 256v90h-8q-88 -168 -328 -168q-194 1 -322 137t-128 380t133 388t345 144t300 -168h8v143h252v-946q0 -520 -530 -520
q-217 0 -345 87t-135 257h248q2 -72 66 -116t183 -44zM721 1370v-207h-242v180l103 224h106l-70 -197h103z" />
    <glyph glyph-name="Hcircumflex" unicode="&#x124;" horiz-adv-x="1544" 
d="M166 1409h274v-580h664v580h274v-1409h-274v596h-664v-596h-274v1409zM672 1909h200l263 -336h-217l-146 203l-145 -203h-217z" />
    <glyph glyph-name="hcircumflex" unicode="&#x125;" horiz-adv-x="1226" 
d="M143 1499h265v-307q0 -203 -13 -336h8q88 168 308 168q169 0 277 -99t108 -319v-606h-265v573q0 246 -194 246q-100 0 -165 -79t-64 -212v-528h-265v1499zM176 1987h201l262 -336h-217l-146 202l-145 -202h-217z" />
    <glyph glyph-name="Hbar" unicode="&#x126;" horiz-adv-x="1544" 
d="M440 829h664v215h-664v-215zM4 1210h162v199h274v-199h664v199h274v-199h162v-166h-162v-1044h-274v596h-664v-596h-274v1044h-162v166z" />
    <glyph glyph-name="hbar" unicode="&#x127;" horiz-adv-x="1226" 
d="M0 1348h143v151h265v-151h290v-144h-290v-12q0 -203 -13 -336h8q88 168 308 168q169 0 277 -99t108 -319v-606h-265v573q0 246 -194 246q-100 0 -165 -79t-64 -216v-524h-265v1204h-143v144z" />
    <glyph glyph-name="Itilde" unicode="&#x128;" horiz-adv-x="606" 
d="M166 1409h274v-1409h-274v1409zM156 1866q68 0 168 -45t135 -45q70 0 78 98h125q-4 -120 -58 -188t-137 -68q-84 0 -184 46t-136 46q-70 0 -77 -98h-125q2 118 56 186t155 68z" />
    <glyph glyph-name="itilde" unicode="&#x129;" horiz-adv-x="550" 
d="M143 999h265v-999h-265v999zM432 1366q70 0 78 98h125q-4 -120 -57 -188t-154 -68q-68 0 -168 46t-135 46q-70 0 -78 -98h-125q2 119 56 187t155 67q68 0 168 -45t135 -45z" />
    <glyph glyph-name="Imacron" unicode="&#x12a;" horiz-adv-x="606" 
d="M166 1409h274v-1409h-274v1409zM-6 1829h610v-176h-610v176z" />
    <glyph glyph-name="imacron" unicode="&#x12b;" horiz-adv-x="550" 
d="M143 999h265v-999h-265v999zM-33 1419h611v-176h-611v176z" />
    <glyph glyph-name="Ibreve" unicode="&#x12c;" horiz-adv-x="606" 
d="M166 1409h274v-1409h-274v1409zM303 1585q-127 0 -216 75t-101 236h145q25 -162 172 -161q70 0 115 43t57 118h146q-11 -162 -101 -236t-217 -75z" />
    <glyph glyph-name="ibreve" unicode="&#x12d;" horiz-adv-x="550" 
d="M143 999h265v-999h-265v999zM276 1176q-127 0 -216 74t-101 237h145q25 -162 172 -162q70 0 115 43t58 119h145q-12 -162 -101 -237q-90 -74 -217 -74z" />
    <glyph glyph-name="Iogonek" unicode="&#x12e;" horiz-adv-x="606" 
d="M166 1409h274v-1409h-6q-123 -129 -123 -215t105 -86h59v-150h-82q-254 0 -254 189q0 68 39 128t127 134h-139v1409z" />
    <glyph glyph-name="iogonek" unicode="&#x12f;" horiz-adv-x="550" 
d="M143 999h265v-999q-123 -129 -123 -215t104 -86h60v-150h-82q-254 0 -254 189q0 68 39 128t127 134h-136v999zM135 1499h281v-246h-281v246z" />
    <glyph glyph-name="Idotaccent" unicode="&#x130;" horiz-adv-x="606" 
d="M166 1409h274v-1409h-274v1409zM182 1870h242v-238h-242v238z" />
    <glyph glyph-name="dotlessi" unicode="&#x131;" horiz-adv-x="550" 
d="M143 999h265v-999h-265v999z" />
    <glyph glyph-name="IJ" unicode="&#x132;" horiz-adv-x="1748" 
d="M684 485h270v-61q0 -221 188 -221t187 233v973h275v-967q0 -467 -461 -467q-213 0 -336 110t-123 339v61zM166 1409h274v-1409h-274v1409z" />
    <glyph glyph-name="ij" unicode="&#x133;" horiz-adv-x="1103" 
d="M696 999h262v-1112q0 -168 -78 -253t-272 -85h-84v205h54q66 0 92 36t26 116v1093zM143 999h265v-999h-265v999zM688 1499h279v-246h-279v246zM135 1499h281v-246h-281v246z" />
    <glyph glyph-name="Jcircumflex" unicode="&#x134;" horiz-adv-x="1138" 
d="M74 485h270v-55q0 -227 187 -227t188 237v969h276v-967q0 -467 -463 -467q-214 0 -336 110t-122 339v61zM762 1909h201l262 -336h-217l-146 203l-145 -203h-217z" />
    <glyph glyph-name="jcircumflex" unicode="&#x135;" horiz-adv-x="550" 
d="M143 999h265v-1112q0 -168 -79 -253t-272 -85h-84v205h54q63 0 90 36t26 116v1093zM176 1499h201l262 -336h-217l-146 203l-145 -203h-217z" />
    <glyph glyph-name="Kcommaaccent" unicode="&#x136;" horiz-adv-x="1425" 
d="M854 -125v-180l-102 -221h-109l72 194h-103v207h242zM166 1409h274v-668l619 668h317l-571 -606l604 -803h-315l-465 616l-189 -200v-416h-274v1409z" />
    <glyph glyph-name="kcommaaccent" unicode="&#x137;" horiz-adv-x="1126" 
d="M715 -125v-180l-103 -221h-108l71 194h-102v207h242zM143 1499h265v-915l374 415h299l-372 -399l409 -600h-303l-280 414l-127 -135v-279h-265v1499z" />
    <glyph glyph-name="Lacute" unicode="&#x139;" horiz-adv-x="1185" 
d="M166 1409h274v-1178h674v-231h-948v1409zM414 1909h278l-303 -336h-180z" />
    <glyph glyph-name="lacute" unicode="&#x13a;" horiz-adv-x="550" 
d="M143 1499h265v-1499h-265v1499zM389 1987h279l-303 -336h-181z" />
    <glyph glyph-name="Lcommaaccent" unicode="&#x13b;" horiz-adv-x="1185" 
d="M754 -125v-180l-103 -221h-108l71 194h-102v207h242zM166 1409h274v-1178h674v-231h-948v1409z" />
    <glyph glyph-name="lcommaaccent" unicode="&#x13c;" horiz-adv-x="550" 
d="M397 -125v-180l-102 -221h-109l72 194h-102v207h241zM143 1499h265v-1499h-265v1499z" />
    <glyph glyph-name="Lcaron" unicode="&#x13d;" horiz-adv-x="1185" 
d="M692 1190v219h250v-197l-104 -245h-113l72 223h-105zM166 1409h274v-1178h674v-231h-948v1409z" />
    <glyph glyph-name="lcaron" unicode="&#x13e;" horiz-adv-x="550" 
d="M551 1280v219h250v-196l-105 -246h-112l71 223h-104zM143 1499h265v-1499h-265v1499z" />
    <glyph glyph-name="Ldot" unicode="&#x13f;" horiz-adv-x="1185" 
d="M664 868h249v-245h-249v245zM166 1409h274v-1178h674v-231h-948v1409z" />
    <glyph glyph-name="ldot" unicode="&#x140;" horiz-adv-x="784" 
d="M547 795h250v-246h-250v246zM143 1499h265v-1499h-265v1499z" />
    <glyph glyph-name="Lslash" unicode="&#x141;" horiz-adv-x="1185" 
d="M166 1409h274v-557l238 170l98 -135l-336 -238v-418h674v-231h-948v455l-117 -82l-96 135l213 149v752z" />
    <glyph glyph-name="lslash" unicode="&#x142;" horiz-adv-x="550" 
d="M143 1499h265v-594l104 94l92 -112l-196 -176v-711h-265v473l-98 -88l-94 113l192 172v829z" />
    <glyph glyph-name="Nacute" unicode="&#x143;" horiz-adv-x="1560" 
d="M166 1409h248l706 -942h8l-8 942h275v-1409h-244l-711 942h-8l8 -942h-274v1409zM893 1909h278l-303 -336h-180z" />
    <glyph glyph-name="nacute" unicode="&#x144;" horiz-adv-x="1226" 
d="M143 999h252v-143h8q88 168 308 168q169 0 277 -99t108 -319v-606h-265v573q0 246 -194 246q-100 0 -165 -79t-64 -214v-526h-265v999zM731 1499h279l-303 -336h-181z" />
    <glyph glyph-name="Ncommaaccent" unicode="&#x145;" horiz-adv-x="1560" 
d="M901 -125v-180l-102 -221h-109l72 194h-103v207h242zM166 1409h248l706 -942h8l-8 942h275v-1409h-244l-711 942h-8l8 -942h-274v1409z" />
    <glyph glyph-name="ncommaaccent" unicode="&#x146;" horiz-adv-x="1226" 
d="M731 -125v-180l-102 -221h-109l72 194h-103v207h242zM143 999h252v-143h8q88 168 308 168q169 0 277 -99t108 -319v-606h-265v573q0 246 -194 246q-100 0 -165 -79t-64 -214v-526h-265v999z" />
    <glyph glyph-name="Ncaron" unicode="&#x147;" horiz-adv-x="1560" 
d="M166 1409h248l706 -942h8l-8 942h275v-1409h-244l-711 942h-8l8 -942h-274v1409zM418 1909h217l145 -203l146 203h217l-262 -336h-201z" />
    <glyph glyph-name="ncaron" unicode="&#x148;" horiz-adv-x="1226" 
d="M143 999h252v-143h8q88 168 308 168q169 0 277 -99t108 -319v-606h-265v573q0 246 -194 246q-100 0 -165 -79t-64 -214v-526h-265v999zM256 1499h217l145 -203l146 203h217l-262 -336h-201z" />
    <glyph glyph-name="napostrophe" unicode="&#x149;" horiz-adv-x="1226" 
d="M143 999h252v-143h8q88 168 308 168q169 0 277 -99t108 -319v-606h-265v573q0 246 -194 246q-100 0 -165 -79t-64 -214v-526h-265v999zM129 1360v207h242v-183l-103 -221h-108l71 197h-102z" />
    <glyph glyph-name="Eng" unicode="&#x14a;" horiz-adv-x="1560" 
d="M166 1409h248l710 -942h9l-13 942h275v-1452q0 -223 -89 -315t-302 -93h-121v218h82q88 0 129 45t41 153v55l-699 922h-8l12 -942h-274v1409z" />
    <glyph glyph-name="eng" unicode="&#x14b;" horiz-adv-x="1226" 
d="M831 573q0 246 -194 246q-100 0 -165 -79t-64 -214v-526h-265v999h252v-143h8q88 168 308 168q169 0 277 -99t108 -319v-719q0 -168 -79 -253t-272 -85h-86v205h54q67 0 93 36t25 116v667z" />
    <glyph glyph-name="Omacron" unicode="&#x14c;" horiz-adv-x="1615" 
d="M373 705q0 -217 121 -355q120 -138 314 -139q194 0 314 139q120 138 121 354q0 216 -121 355q-120 139 -314 139t-314 -138t-121 -355zM90 705q0 319 198 524t518 205t520 -206t200 -523t-200 -523t-520 -207t-518 205t-198 525zM500 1829h610v-176h-610v176z" />
    <glyph glyph-name="omacron" unicode="&#x14d;" horiz-adv-x="1214" 
d="M350 500q0 -148 71 -236t187 -88t187 87q69 87 69 238t-68 235t-187 85q-119 0 -189 -87t-70 -234zM78 498q0 244 147 385t386 141t382 -139t143 -383t-146 -385q-148 -141 -386 -141t-382 138q-144 140 -144 384zM299 1419h610v-176h-610v176z" />
    <glyph glyph-name="Obreve" unicode="&#x14e;" horiz-adv-x="1615" 
d="M373 705q0 -217 121 -355q120 -138 314 -139q194 0 314 139q120 138 121 354q0 216 -121 355q-120 139 -314 139t-314 -138t-121 -355zM90 705q0 319 198 524t518 205t520 -206t200 -523t-200 -523t-520 -207t-518 205t-198 525zM809 1585q-127 0 -216 75t-101 236h145
q25 -162 172 -161q70 0 115 43t57 118h145q-12 -162 -101 -236t-216 -75z" />
    <glyph glyph-name="obreve" unicode="&#x14f;" horiz-adv-x="1214" 
d="M350 500q0 -148 71 -236t187 -88t187 87q69 87 69 238t-68 235t-187 85q-119 0 -189 -87t-70 -234zM78 498q0 244 147 385t386 141t382 -139t143 -383t-146 -385q-148 -141 -386 -141t-382 138q-144 140 -144 384zM608 1176q-127 0 -216 74t-101 237h145
q25 -162 172 -162q70 0 115 43t57 119h146q-12 -163 -102 -237t-216 -74z" />
    <glyph glyph-name="Ohungarumlaut" unicode="&#x150;" horiz-adv-x="1615" 
d="M373 705q0 -217 121 -355q120 -138 314 -139q194 0 314 139q120 138 121 354q0 216 -121 355q-120 139 -314 139t-314 -138t-121 -355zM90 705q0 319 198 524t518 205t520 -206t200 -523t-200 -523t-520 -207t-518 205t-198 525zM1124 1909h279l-303 -336h-180zM719 1909
h276l-301 -336h-180z" />
    <glyph glyph-name="ohungarumlaut" unicode="&#x151;" horiz-adv-x="1214" 
d="M350 500q0 -148 71 -236t187 -88t187 87q69 87 69 238t-68 235t-187 85q-119 0 -189 -87t-70 -234zM78 498q0 244 147 385t386 141t382 -139t143 -383t-146 -385q-148 -141 -386 -141t-382 138q-144 140 -144 384zM924 1499h278l-303 -336h-180zM518 1499h277l-301 -336
h-181z" />
    <glyph glyph-name="OE" unicode="&#x152;" horiz-adv-x="2203" 
d="M373 705q0 -211 117 -345q118 -133 368 -133h191v955h-191q-250 0 -368 -133t-117 -344zM840 0q-360 0 -555 194t-195 511t195 511t555 193h1241v-227h-758v-355h614v-217h-614v-383h778v-227h-1261z" />
    <glyph glyph-name="oe" unicode="&#x153;" horiz-adv-x="1931" 
d="M346 500q0 -148 70 -236t188 -88t189 88q69 88 69 237t-70 235t-188 87q-118 0 -188 -88t-70 -235zM1366 834q-92 0 -154 -58t-86 -164h461q-26 222 -221 222zM607 -25q-245 1 -389 143t-144 381t146 382t394 143t377 -172q133 172 367 172t367 -131q132 -131 133 -367
v-73h-740q8 -135 76 -210t170 -75t155 40q52 40 70 95h256q-25 -139 -153 -233t-322 -95q-256 0 -385 168q-133 -168 -378 -168z" />
    <glyph glyph-name="Racute" unicode="&#x154;" horiz-adv-x="1421" 
d="M440 1188v-461h318q122 0 188 67t66 172t-67 163t-187 59h-318zM166 1409h604q252 0 386 -116t134 -322q0 -153 -77 -265t-220 -161l350 -545h-299l-323 512h-281v-512h-274v1409zM782 1909h279l-303 -336h-180z" />
    <glyph glyph-name="racute" unicode="&#x155;" horiz-adv-x="808" 
d="M143 999h252v-151h4q82 176 267 176q80 0 139 -41l-53 -227q-66 33 -123 32q-109 0 -165 -86t-56 -225v-477h-265v999zM586 1499h278l-303 -336h-180z" />
    <glyph glyph-name="Rcommaaccent" unicode="&#x156;" horiz-adv-x="1421" 
d="M827 -125v-180l-102 -221h-109l72 194h-102v207h241zM440 1188v-461h318q122 0 188 67t66 172t-67 163t-187 59h-318zM166 1409h604q252 0 386 -116t134 -322q0 -153 -77 -265t-220 -161l350 -545h-299l-323 512h-281v-512h-274v1409z" />
    <glyph glyph-name="rcommaaccent" unicode="&#x157;" horiz-adv-x="808" 
d="M393 -125v-180l-102 -221h-109l72 194h-102v207h241zM143 999h252v-151h4q82 176 267 176q80 0 139 -41l-53 -227q-66 33 -123 32q-109 0 -165 -86t-56 -225v-477h-265v999z" />
    <glyph glyph-name="Rcaron" unicode="&#x158;" horiz-adv-x="1421" 
d="M440 1188v-461h318q122 0 188 67t66 172t-67 163t-187 59h-318zM166 1409h604q252 0 386 -116t134 -322q0 -153 -77 -265t-220 -161l350 -545h-299l-323 512h-281v-512h-274v1409zM307 1909h217l146 -203l145 203h217l-262 -336h-201z" />
    <glyph glyph-name="rcaron" unicode="&#x159;" horiz-adv-x="808" 
d="M143 999h252v-151h4q82 176 267 176q80 0 139 -41l-53 -227q-66 33 -123 32q-109 0 -165 -86t-56 -225v-477h-265v999zM111 1499h217l145 -203l145 203h218l-263 -336h-200z" />
    <glyph glyph-name="Sacute" unicode="&#x15a;" horiz-adv-x="1368" 
d="M371 401q0 -100 83 -160q83 -61 225 -61t224 56t82 157q0 124 -170 167q-76 18 -168 34q-219 37 -352 104q-76 39 -123 118t-47 194q0 184 151 304q152 120 401 120t396 -110t148 -296h-269q0 94 -76 148q-77 53 -199 53t-200 -50t-78 -143q0 -120 172 -165
q76 -19 168 -33q91 -14 185 -39t170 -65t124 -120t48 -194q0 -203 -157 -324t-433 -121t-425 114q-148 114 -149 312h269zM791 1909h278l-303 -336h-180z" />
    <glyph glyph-name="sacute" unicode="&#x15b;" horiz-adv-x="1079" 
d="M317 287q1 -72 61 -105t148 -32q211 0 211 124q0 49 -36 75t-111 38l-182 29q-145 23 -229 87q-83 65 -83 207t123 228t319 86t316 -78t119 -225h-244q0 65 -54 97t-138 32q-83 0 -135 -31t-52 -82t36 -77t122 -39l180 -29q141 -23 226 -86t85 -197q0 -164 -129 -249
t-341 -85q-211 0 -335 79t-124 233h247zM649 1499h279l-303 -336h-181z" />
    <glyph glyph-name="Scircumflex" unicode="&#x15c;" horiz-adv-x="1368" 
d="M371 401q0 -100 83 -160q83 -61 225 -61t224 56t82 157q0 124 -170 167q-76 18 -168 34q-219 37 -352 104q-76 39 -123 118t-47 194q0 184 151 304q152 120 401 120t396 -110t148 -296h-269q0 94 -76 148q-77 53 -199 53t-200 -50t-78 -143q0 -120 172 -165
q76 -19 168 -33q91 -14 185 -39t170 -65t124 -120t48 -194q0 -203 -157 -324t-433 -121t-425 114q-148 114 -149 312h269zM578 1909h200l262 -336h-217l-145 203l-146 -203h-217z" />
    <glyph glyph-name="scircumflex" unicode="&#x15d;" horiz-adv-x="1079" 
d="M317 287q1 -72 61 -105t148 -32q211 0 211 124q0 49 -36 75t-111 38l-182 29q-145 23 -229 87q-83 65 -83 207t123 228t319 86t316 -78t119 -225h-244q0 65 -54 97t-138 32q-83 0 -135 -31t-52 -82t36 -77t122 -39l180 -29q141 -23 226 -86t85 -197q0 -164 -129 -249
t-341 -85q-211 0 -335 79t-124 233h247zM436 1499h201l262 -336h-217l-145 203l-146 -203h-217z" />
    <glyph glyph-name="Scedilla" unicode="&#x15e;" horiz-adv-x="1368" 
d="M371 401q0 -100 83 -160q83 -61 225 -61t224 56t82 157q0 124 -170 167q-76 18 -168 34q-219 37 -352 104q-76 39 -123 118t-47 194q0 184 151 304q152 120 401 120t396 -110t148 -296h-269q0 94 -76 148q-77 53 -199 53t-200 -50t-78 -143q0 -120 172 -165
q76 -19 168 -33q91 -14 185 -39t170 -65t124 -120t48 -194q0 -193 -146 -314t-403 -129v-55q90 -2 139 -51t49 -131t-60 -136t-179 -55h-138v127h109q96 0 96 72t-96 72h-68l56 157q-252 10 -387 122t-136 302h269z" />
    <glyph glyph-name="scedilla" unicode="&#x15f;" horiz-adv-x="1079" 
d="M317 287q1 -72 61 -105t148 -32q211 0 211 124q0 49 -36 75t-111 38l-182 29q-145 23 -229 87q-83 65 -83 207t123 228t319 86t316 -78t119 -225h-244q0 65 -54 97t-138 32q-83 0 -135 -31t-52 -82t36 -77t122 -39l180 -29q141 -23 226 -86t85 -208q-1 -144 -117 -228
t-313 -93v-55q89 -2 139 -51t50 -131t-60 -136t-180 -55h-137v127h108q96 0 97 74q0 70 -97 70h-67l55 157q-188 9 -298 87t-109 223h247z" />
    <glyph glyph-name="Scaron" unicode="&#x160;" horiz-adv-x="1368" 
d="M371 401q0 -100 83 -160q83 -61 225 -61t224 56t82 157q0 124 -170 167q-76 18 -168 34q-219 37 -352 104q-76 39 -123 118t-47 194q0 184 151 304q152 120 401 120t396 -110t148 -296h-269q0 94 -76 148q-77 53 -199 53t-200 -50t-78 -143q0 -120 172 -165
q76 -19 168 -33q91 -14 185 -39t170 -65t124 -120t48 -194q0 -203 -157 -324t-433 -121t-425 114q-148 114 -149 312h269zM315 1909h217l146 -203l145 203h217l-262 -336h-200z" />
    <glyph glyph-name="scaron" unicode="&#x161;" horiz-adv-x="1079" 
d="M317 287q1 -72 61 -105t148 -32q211 0 211 124q0 49 -36 75t-111 38l-182 29q-145 23 -229 87q-83 65 -83 207t123 228t319 86t316 -78t119 -225h-244q0 65 -54 97t-138 32q-83 0 -135 -31t-52 -82t36 -77t122 -39l180 -29q141 -23 226 -86t85 -197q0 -164 -129 -249
t-341 -85q-211 0 -335 79t-124 233h247zM174 1499h217l146 -203l145 203h217l-262 -336h-201z" />
    <glyph glyph-name="uni0162" unicode="&#x162;" horiz-adv-x="1261" 
d="M494 0v1180h-478v229h1229v-229h-477v-1180h-92v-78q90 -2 139 -51t49 -131t-60 -136t-179 -55h-138v127h109q96 0 96 72t-96 72h-68l64 180h-98z" />
    <glyph glyph-name="uni0163" unicode="&#x163;" horiz-adv-x="739" 
d="M180 344v459h-188v196h188v304h262v-304h248v-196h-248v-443q0 -80 31 -114t109 -33h108v-213h-160q-41 0 -59 2v-80q90 -2 139 -51t49 -131t-61 -136t-180 -55h-137v127h110q94 0 94 72t-94 72h-69l61 194q-109 27 -156 105t-47 225z" />
    <glyph glyph-name="Tcaron" unicode="&#x164;" horiz-adv-x="1261" 
d="M16 1409h1229v-229h-477v-1180h-274v1180h-478v229zM266 1909h217l146 -203l145 203h217l-262 -336h-201z" />
    <glyph glyph-name="tcaron" unicode="&#x165;" horiz-adv-x="739" 
d="M180 803h-188v196h188v304h262v-304h248v-196h-248v-443q0 -80 31 -114t109 -33h108v-213h-160q-194 0 -272 78t-78 266v459zM526 1337v219h250v-196l-104 -246h-113l72 223h-105z" />
    <glyph glyph-name="Tbar" unicode="&#x166;" horiz-adv-x="1261" 
d="M16 1409h1227v-229h-475v-473h358v-162h-358v-545h-274v545h-359v162h359v473h-478v229z" />
    <glyph glyph-name="tbar" unicode="&#x167;" horiz-adv-x="739" 
d="M-8 586h188v217h-188v196h188v304h262v-304h248v-196h-248v-217h248v-142h-248v-92q0 -76 31 -108t109 -31h108v-213h-162q-184 0 -266 75t-82 247v122h-188v142z" />
    <glyph glyph-name="Utilde" unicode="&#x168;" horiz-adv-x="1492" 
d="M139 1409h277v-840q0 -358 332 -358q164 0 246 92t83 266v840h277v-844q0 -590 -607 -590t-608 590v844zM600 1866q68 0 168 -45t135 -45q70 0 78 98h125q-4 -120 -57 -188t-154 -68q-68 0 -168 46t-135 46q-70 0 -78 -98h-125q2 118 56 186t155 68z" />
    <glyph glyph-name="utilde" unicode="&#x169;" horiz-adv-x="1218" 
d="M127 999h264v-573q0 -246 195 -246q98 0 162 78q63 78 63 213v528h262v-999h-250v143h-8q-88 -168 -303 -168q-170 -1 -278 99t-107 319v606zM768 1366q70 0 78 98h125q-3 -120 -57 -188t-138 -68t-184 46t-135 46q-70 0 -78 -98h-125q2 119 56 187t155 67q68 0 168 -45
t135 -45z" />
    <glyph glyph-name="Umacron" unicode="&#x16a;" horiz-adv-x="1492" 
d="M139 1409h277v-840q0 -358 332 -358q164 0 246 92t83 266v840h277v-844q0 -590 -607 -590t-608 590v844zM438 1829h611v-176h-611v176z" />
    <glyph glyph-name="umacron" unicode="&#x16b;" horiz-adv-x="1218" 
d="M127 999h264v-573q0 -246 195 -246q98 0 162 78q63 78 63 213v528h262v-999h-250v143h-8q-88 -168 -303 -168q-170 -1 -278 99t-107 319v606zM303 1419h610v-176h-610v176z" />
    <glyph glyph-name="Ubreve" unicode="&#x16c;" horiz-adv-x="1492" 
d="M139 1409h277v-840q0 -358 332 -358q164 0 246 92t83 266v840h277v-844q0 -590 -607 -590t-608 590v844zM748 1585q-127 0 -217 75q-89 75 -101 236h145q25 -162 173 -161q70 0 114 43t58 118h145q-12 -162 -101 -236t-216 -75z" />
    <glyph glyph-name="ubreve" unicode="&#x16d;" horiz-adv-x="1218" 
d="M127 999h264v-573q0 -246 195 -246q98 0 162 78q63 78 63 213v528h262v-999h-250v143h-8q-88 -168 -303 -168q-170 -1 -278 99t-107 319v606zM612 1176q-127 0 -216 74t-101 237h145q25 -162 172 -162q70 0 115 43t57 119h146q-12 -163 -102 -237t-216 -74z" />
    <glyph glyph-name="Uring" unicode="&#x16e;" horiz-adv-x="1492" 
d="M139 1409h277v-840q0 -358 332 -358q164 0 246 92t83 266v840h277v-844q0 -590 -607 -590t-608 590v844zM748 1655q42 -1 70 27t28 71t-29 72t-69 29t-70 -30q-29 -28 -29 -71t29 -71t70 -27zM748 1546q-92 0 -156 58t-64 150t64 150t156 58t155 -58t63 -150t-62 -150
q-64 -58 -156 -58z" />
    <glyph glyph-name="uring" unicode="&#x16f;" horiz-adv-x="1218" 
d="M127 999h264v-573q0 -246 195 -246q98 0 162 78q63 78 63 213v528h262v-999h-250v143h-8q-88 -168 -303 -168q-170 -1 -278 99t-107 319v606zM612 1245q41 0 70 28q29 29 29 71t-29 71t-70 29q-42 0 -70 -29t-28 -72t28 -71t70 -27zM612 1137q-92 0 -155 58t-63 149
q0 92 62 150q64 58 156 58t156 -58t63 -150q1 -92 -63 -149q-64 -58 -156 -58z" />
    <glyph glyph-name="Uhungarumlaut" unicode="&#x170;" horiz-adv-x="1492" 
d="M139 1409h277v-840q0 -358 332 -358q164 0 246 92t83 266v840h277v-844q0 -590 -607 -590t-608 590v844zM1063 1909h278l-303 -336h-180zM657 1909h277l-301 -336h-180z" />
    <glyph glyph-name="uhungarumlaut" unicode="&#x171;" horiz-adv-x="1218" 
d="M127 999h264v-573q0 -246 195 -246q98 0 162 78q63 78 63 213v528h262v-999h-250v143h-8q-88 -168 -303 -168q-170 -1 -278 99t-107 319v606zM928 1499h278l-303 -336h-180zM522 1499h277l-301 -336h-181z" />
    <glyph glyph-name="Uogonek" unicode="&#x172;" horiz-adv-x="1492" 
d="M139 1409h277v-840q0 -358 332 -358q164 0 246 92t83 266v840h277v-844q0 -383 -260 -519t-260 -255q0 -92 102 -92h61v-150h-82q-260 0 -260 201q0 127 160 227l-67 -2q-608 0 -609 590v844z" />
    <glyph glyph-name="uogonek" unicode="&#x173;" horiz-adv-x="1218" 
d="M778 -262q0 68 39 128t127 134h-121v143h-8q-88 -168 -303 -168q-170 -1 -278 99t-107 319v606h264v-573q0 -246 195 -246q98 0 162 78q63 78 63 213v528h262v-999q-123 -129 -123 -215t105 -86h59v-150h-82q-254 1 -254 189z" />
    <glyph glyph-name="Wcircumflex" unicode="&#x174;" horiz-adv-x="2002" 
d="M20 1409h295l252 -1114h8l289 1114h285l295 -1114h8l244 1114h286l-356 -1409h-340l-280 1061h-9l-276 -1061h-338zM903 1909h201l262 -336h-217l-145 203l-146 -203h-217z" />
    <glyph glyph-name="wcircumflex" unicode="&#x175;" horiz-adv-x="1589" 
d="M12 999h264l183 -739h8l203 739h258l202 -739h9l182 739h256l-291 -999h-297l-190 729h-8l-193 -729h-295zM694 1499h201l262 -336h-217l-145 203l-146 -203h-217z" />
    <glyph glyph-name="Ycircumflex" unicode="&#x176;" horiz-adv-x="1361" 
d="M815 0h-276v541l-519 868h312l346 -606h8l365 606h290l-526 -860v-549zM582 1909h200l262 -336h-217l-145 203l-145 -203h-218z" />
    <glyph glyph-name="ycircumflex" unicode="&#x177;" horiz-adv-x="1060" 
d="M248 -467h-121v209h61q178 0 238 186l23 72h-72l-369 999h287l242 -739h8l239 739h269l-400 -1122q-119 -344 -405 -344zM428 1499h201l262 -336h-217l-146 203l-145 -203h-217z" />
    <glyph glyph-name="Ydieresis" unicode="&#x178;" horiz-adv-x="1361" 
d="M815 0h-276v541l-519 868h312l346 -606h8l365 606h290l-526 -860v-549zM784 1870h242v-238h-242v238zM338 1870h240v-238h-240v238z" />
    <glyph glyph-name="Zacute" unicode="&#x179;" horiz-adv-x="1253" 
d="M100 1409h1082v-160l-752 -1024h748v-225h-1108v160l753 1024h-723v225zM739 1909h279l-303 -336h-180z" />
    <glyph glyph-name="zacute" unicode="&#x17a;" horiz-adv-x="980" 
d="M66 999h841v-153l-504 -645h512v-201h-845v143l512 656h-516v200zM600 1499h279l-304 -336h-180z" />
    <glyph glyph-name="Zdotaccent" unicode="&#x17b;" horiz-adv-x="1253" 
d="M100 1409h1082v-160l-752 -1024h748v-225h-1108v160l753 1024h-723v225zM506 1870h242v-238h-242v238z" />
    <glyph glyph-name="zdotaccent" unicode="&#x17c;" horiz-adv-x="980" 
d="M66 999h841v-153l-504 -645h512v-201h-845v143l512 656h-516v200zM367 1460h241v-237h-241v237z" />
    <glyph glyph-name="Zcaron" unicode="&#x17d;" horiz-adv-x="1253" 
d="M100 1409h1082v-160l-752 -1024h748v-225h-1108v160l753 1024h-723v225zM264 1909h217l146 -203l145 203h217l-262 -336h-201z" />
    <glyph glyph-name="zcaron" unicode="&#x17e;" horiz-adv-x="980" 
d="M66 999h841v-153l-504 -645h512v-201h-845v143l512 656h-516v200zM125 1499h217l145 -203l146 203h217l-262 -336h-201z" />
    <glyph glyph-name="longs" unicode="&#x17f;" horiz-adv-x="698" 
d="M193 803h-189v196h189v134q0 190 89 278t285 88h152v-205h-98q-94 0 -129 -38t-35 -132v-1124h-264v803z" />
    <glyph glyph-name="florin" unicode="&#x192;" horiz-adv-x="1163" 
d="M143 733h258l35 330q39 371 381 371q330 0 309 -338l-6 -78h-223l4 63q12 160 -88 160q-53 0 -79 -43t-36 -135l-34 -330h290v-166h-307l-61 -590q-39 -371 -383 -370q-330 0 -307 338l4 78h225l-6 -64q-16 -160 90 -160q94 0 113 178l61 590h-240v166z" />
    <glyph glyph-name="AEacute" unicode="&#x1fc;" horiz-adv-x="2287" 
d="M1141 532v603h-8l-428 -603h436zM2165 1409v-227h-750v-355h606v-217h-606v-383h770v-227h-1044v315h-592l-223 -315h-316l1018 1409h1137zM1393 1909h278l-303 -336h-180z" />
    <glyph glyph-name="aeacute" unicode="&#x1fd;" horiz-adv-x="1777" 
d="M502 160q102 0 173 61t70 182v89q-23 -33 -98 -48l-153 -24q-147 -25 -148 -135q0 -125 156 -125zM1230 834q-183 0 -226 -222h430q-21 222 -204 222zM567 1024q238 0 336 -121q125 121 333 121t338 -132t130 -366v-73h-707q7 -139 71 -212t169 -73q156 0 199 135h256
q-25 -139 -151 -233t-308 -95q-266 0 -391 193q-117 -193 -393 -193q-176 0 -270 77q-93 77 -93 206q0 254 340 305l192 29q78 12 103 28t24 56q0 72 -45 118t-132 46t-139 -42t-58 -122h-246q12 176 135 262t307 86zM987 1499h279l-303 -336h-181z" />
    <glyph glyph-name="Oslashacute" unicode="&#x1fe;" horiz-adv-x="1615" 
d="M809 211q193 -1 313 139t121 336q0 196 -88 330l-598 -727q111 -78 252 -78zM809 1198q-195 0 -315 -138t-121 -338q0 -200 88 -331l598 727q-109 80 -250 80zM90 704q0 318 199 524t520 206q233 0 410 -119l98 119h182l-172 -209q199 -209 199 -523t-201 -520t-516 -207
q-240 0 -414 117l-94 -117h-182l170 205q-199 206 -199 524zM922 1909h278l-303 -336h-180z" />
    <glyph glyph-name="oslashacute" unicode="&#x1ff;" horiz-adv-x="1206" 
d="M862 500q0 94 -33 170l-370 -447q59 -47 145 -47q117 0 188 89q70 90 70 235zM591 821q-105 0 -175 -88t-70 -215t37 -201l375 451q-63 53 -167 53zM74 497q0 241 148 384t382 143q172 0 301 -78l64 78h153l-125 -150q135 -140 135 -376t-146 -379q-148 -143 -382 -144
q-166 0 -293 70l-57 -70h-154l117 142q-143 139 -143 380zM717 1499h278l-303 -336h-180z" />
    <glyph glyph-name="Scommaaccent" unicode="&#x218;" horiz-adv-x="1368" 
d="M795 -125v-180l-103 -221h-108l71 194h-102v207h242zM371 401q0 -100 83 -160q83 -61 225 -61t224 56t82 157q0 124 -170 167q-76 18 -168 34q-219 37 -352 104q-76 39 -123 118t-47 194q0 184 151 304q152 120 401 120t396 -110t148 -296h-269q0 94 -76 148
q-77 53 -199 53t-200 -50t-78 -143q0 -120 172 -165q76 -19 168 -33q91 -14 185 -39t170 -65t124 -120t48 -194q0 -203 -157 -324t-433 -121t-425 114q-148 114 -149 312h269z" />
    <glyph glyph-name="scommaaccent" unicode="&#x219;" horiz-adv-x="1079" 
d="M647 -125v-180l-102 -221h-109l72 194h-102v207h241zM317 287q1 -72 61 -105t148 -32q211 0 211 124q0 49 -36 75t-111 38l-182 29q-145 23 -229 87q-83 65 -83 207t123 228t319 86t316 -78t119 -225h-244q0 65 -54 97t-138 32q-83 0 -135 -31t-52 -82t36 -77t122 -39
l180 -29q141 -23 226 -86t85 -197q0 -164 -129 -249t-341 -85q-211 0 -335 79t-124 233h247z" />
    <glyph glyph-name="uni021A" unicode="&#x21a;" horiz-adv-x="1261" 
d="M754 -125v-180l-103 -221h-108l71 194h-102v207h242zM16 1409h1229v-229h-477v-1180h-274v1180h-478v229z" />
    <glyph glyph-name="uni021B" unicode="&#x21b;" horiz-adv-x="739" 
d="M551 -125v-180l-102 -221h-109l72 194h-103v207h242zM180 803h-188v196h188v304h262v-304h248v-196h-248v-443q0 -80 31 -114t109 -33h108v-213h-160q-194 0 -272 78t-78 266v459z" />
    <glyph glyph-name="circumflex" unicode="&#x2c6;" horiz-adv-x="1200" 
d="M500 1499h200l263 -336h-218l-145 203l-145 -203h-217z" />
    <glyph glyph-name="caron" unicode="&#x2c7;" horiz-adv-x="1200" 
d="M238 1499h217l145 -203l145 203h218l-263 -336h-200z" />
    <glyph glyph-name="uni02C9" unicode="&#x2c9;" horiz-adv-x="1200" 
d="M291 1419h610v-176h-610v176z" />
    <glyph glyph-name="breve" unicode="&#x2d8;" horiz-adv-x="1200" 
d="M600 1176q-127 0 -216 74t-101 237h145q25 -162 172 -162q70 0 115 43t57 119h146q-12 -163 -102 -237t-216 -74z" />
    <glyph glyph-name="dotaccent" unicode="&#x2d9;" horiz-adv-x="1200" 
d="M479 1460h242v-237h-242v237z" />
    <glyph glyph-name="ring" unicode="&#x2da;" horiz-adv-x="1200" 
d="M600 1245q41 0 70 28q28 29 28 71t-28 71q-29 29 -70 29t-70 -29q-28 -29 -28 -72t28 -71t70 -27zM600 1137q-92 0 -156 58q-63 58 -63 149q0 92 63 150q64 58 156 58t156 -58t63 -150q1 -92 -63 -149q-64 -58 -156 -58z" />
    <glyph glyph-name="ogonek" unicode="&#x2db;" horiz-adv-x="1200" 
d="M436 -262q0 68 39 128t127 134h129q-123 -129 -123 -215t105 -86h59v-150h-82q-254 1 -254 189z" />
    <glyph glyph-name="tilde" unicode="&#x2dc;" horiz-adv-x="1200" 
d="M756 1366q70 0 78 98h124q-4 -120 -57 -188t-137 -68t-184 46t-136 46q-70 0 -77 -98h-125q2 119 56 187t155 67q68 0 168 -45t135 -45z" />
    <glyph glyph-name="hungarumlaut" unicode="&#x2dd;" horiz-adv-x="1200" 
d="M915 1499h279l-303 -336h-180zM510 1499h276l-301 -336h-180z" />
    <glyph glyph-name="uni0394" unicode="&#x394;" horiz-adv-x="1353" 
d="M666 1124l-312 -911h631l-311 911h-8zM535 1409h284l506 -1409h-1298z" />
    <glyph glyph-name="uni03A9" unicode="&#x3a9;" horiz-adv-x="1425" 
d="M340 864q0 -160 79 -258q79 -100 185 -129v-477h-495v197h278v161q-143 68 -227 198t-84 300q0 248 176 413t461 165t461 -165t176 -413q0 -170 -84 -300t-228 -198v-161h279v-197h-496v477q109 29 187 128t78 259t-104 262q-103 102 -269 102q-165 0 -269 -102
t-104 -262z" />
    <glyph glyph-name="uni03BC" unicode="&#x3bc;" horiz-adv-x="1220" 
d="M831 143h-8q-84 -168 -299 -168q-82 0 -149 37q25 -195 24 -338v-125h-262v1450h262v-573q1 -133 51 -189q50 -57 148 -57t160 80q61 80 61 215v524h264v-999h-252v143z" />
    <glyph glyph-name="pi" unicode="&#x3c0;" horiz-adv-x="1249" 
d="M154 999h942v-999h-262v795h-418v-795h-262v999z" />
    <glyph glyph-name="Wgrave" unicode="&#x1e80;" horiz-adv-x="2002" 
d="M20 1409h295l252 -1114h8l289 1114h285l295 -1114h8l244 1114h286l-356 -1409h-340l-280 1061h-9l-276 -1061h-338zM612 1909h277l207 -336h-181z" />
    <glyph glyph-name="wgrave" unicode="&#x1e81;" horiz-adv-x="1589" 
d="M12 999h264l183 -739h8l203 739h258l202 -739h9l182 739h256l-291 -999h-297l-190 729h-8l-193 -729h-295zM403 1499h277l207 -336h-180z" />
    <glyph glyph-name="Wacute" unicode="&#x1e82;" horiz-adv-x="2002" 
d="M20 1409h295l252 -1114h8l289 1114h285l295 -1114h8l244 1114h286l-356 -1409h-340l-280 1061h-9l-276 -1061h-338zM1116 1909h279l-303 -336h-181z" />
    <glyph glyph-name="wacute" unicode="&#x1e83;" horiz-adv-x="1589" 
d="M12 999h264l183 -739h8l203 739h258l202 -739h9l182 739h256l-291 -999h-297l-190 729h-8l-193 -729h-295zM907 1499h279l-303 -336h-181z" />
    <glyph glyph-name="Wdieresis" unicode="&#x1e84;" horiz-adv-x="2002" 
d="M20 1409h295l252 -1114h8l289 1114h285l295 -1114h8l244 1114h286l-356 -1409h-340l-280 1061h-9l-276 -1061h-338zM1106 1870h242v-238h-242v238zM659 1870h240v-238h-240v238z" />
    <glyph glyph-name="wdieresis" unicode="&#x1e85;" horiz-adv-x="1589" 
d="M12 999h264l183 -739h8l203 739h258l202 -739h9l182 739h256l-291 -999h-297l-190 729h-8l-193 -729h-295zM897 1460h242v-237h-242v237zM451 1460h239v-237h-239v237z" />
    <glyph glyph-name="Ygrave" unicode="&#x1ef2;" horiz-adv-x="1361" 
d="M815 0h-276v541l-519 868h312l346 -606h8l365 606h290l-526 -860v-549zM291 1909h276l207 -336h-180z" />
    <glyph glyph-name="ygrave" unicode="&#x1ef3;" horiz-adv-x="1060" 
d="M248 -467h-121v209h61q178 0 238 186l23 72h-72l-369 999h287l242 -739h8l239 739h269l-400 -1122q-119 -344 -405 -344zM137 1499h277l207 -336h-181z" />
    <glyph glyph-name="endash" unicode="&#x2013;" horiz-adv-x="1138" 
d="M109 629h921v-226h-921v226z" />
    <glyph glyph-name="emdash" unicode="&#x2014;" horiz-adv-x="1720" 
d="M109 629h1503v-226h-1503v226z" />
    <glyph glyph-name="quoteleft" unicode="&#x2018;" horiz-adv-x="538" 
d="M401 1096v-262h-266v245l94 330h123l-67 -313h116z" />
    <glyph glyph-name="quoteright" unicode="&#x2019;" horiz-adv-x="538" 
d="M135 1147v262h266v-246l-92 -329h-123l66 313h-117z" />
    <glyph glyph-name="quotesinglbase" unicode="&#x201a;" horiz-adv-x="538" 
d="M135 0v262h266v-246l-92 -329h-123l66 313h-117z" />
    <glyph glyph-name="quotedblleft" unicode="&#x201c;" horiz-adv-x="958" 
d="M823 1096v-262h-266v245l94 330h123l-67 -313h116zM401 1096v-262h-266v245l94 330h123l-67 -313h116z" />
    <glyph glyph-name="quotedblright" unicode="&#x201d;" horiz-adv-x="958" 
d="M557 1147v262h266v-246l-94 -329h-121l66 313h-117zM135 1147v262h266v-246l-92 -329h-123l66 313h-117z" />
    <glyph glyph-name="quotedblbase" unicode="&#x201e;" horiz-adv-x="958" 
d="M557 0v262h266v-246l-94 -329h-121l66 313h-117zM135 0v262h266v-246l-92 -329h-123l66 313h-117z" />
    <glyph glyph-name="dagger" unicode="&#x2020;" horiz-adv-x="960" 
d="M90 1065h279v344h223v-344h278v-188h-278v-877h-223v877h-279v188z" />
    <glyph glyph-name="daggerdbl" unicode="&#x2021;" horiz-adv-x="960" 
d="M90 1087h279v322h223v-322h278v-188h-278v-397h278v-189h-278v-313h-223v313h-279v189h279v397h-279v188z" />
    <glyph glyph-name="bullet" unicode="&#x2022;" horiz-adv-x="999" 
d="M500 164q-150 0 -251 101t-102 251t101 251t252 101t251 -101t101 -251t-101 -251t-251 -101z" />
    <glyph glyph-name="ellipsis" unicode="&#x2026;" horiz-adv-x="1718" 
d="M1280 287h297v-287h-297v287zM711 287h297v-287h-297v287zM141 287h297v-287h-297v287z" />
    <glyph glyph-name="perthousand" unicode="&#x2030;" horiz-adv-x="2412" 
d="M1909 352q0 -211 128 -211t128 211t-128 211t-128 -211zM1157 352q0 -211 128 -211t128 211t-128 211t-128 -211zM2036 -16q-162 0 -246 102t-84 266t84 266t246 102t246 -102t83 -266q1 -164 -83 -266t-246 -102zM1286 -16q-162 0 -246 102t-84 266t84 266t246 102
t245 -102t83 -266t-83 -266t-245 -102zM248 1057q0 -211 128 -211t128 211t-128 211t-128 -211zM375 688q-162 0 -246 102t-84 267q0 164 84 266t246 102t246 -102t84 -266q0 -165 -84 -267t-246 -102zM1104 1434h166l-713 -1459h-166z" />
    <glyph glyph-name="guilsinglleft" unicode="&#x2039;" horiz-adv-x="708" 
d="M98 516l295 418h215l-229 -418l229 -418h-215z" />
    <glyph glyph-name="guilsinglright" unicode="&#x203a;" horiz-adv-x="708" 
d="M330 516l-232 418h215l295 -418l-295 -418h-215z" />
    <glyph glyph-name="fraction" unicode="&#x2044;" horiz-adv-x="159" 
d="M-360 -25q403 819 712 1459h166l-713 -1459h-165z" />
    <glyph glyph-name="uni2070" unicode="&#x2070;" 
d="M248 1368q0 -211 128 -211t128 211t-128 211t-128 -211zM375 999q-162 1 -246 103t-84 266t84 266t246 102t246 -102t84 -266t-84 -266t-246 -103z" />
    <glyph glyph-name="uni2074" unicode="&#x2074;" 
d="M397 1284v201l-157 -201h157zM602 1724v-440h96v-149h-96v-119h-205v119h-356v114l385 475h176z" />
    <glyph glyph-name="uni2075" unicode="&#x2075;" 
d="M379 1126q43 0 73 29t29 80q0 51 -28 78q-29 27 -74 26q-70 0 -96 -59l-189 18l29 422h518v-153h-350l-12 -150h6q45 49 148 49t174 -54t71 -170t-83 -179t-210 -64q-283 0 -305 205h199q12 -78 100 -78z" />
    <glyph glyph-name="uni2076" unicode="&#x2076;" 
d="M386 1339q-44 -1 -74 -27t-30 -77t30 -80t74 -29t73 29t28 80q0 51 -28 78q-29 26 -73 26zM384 1604q-104 0 -114 -197q48 59 160 59t183 -54t71 -170t-83 -179t-210 -64q-326 0 -325 353q0 201 89 293t230 92q141 -1 210 -57t73 -152h-193q-3 32 -25 54t-66 22z" />
    <glyph glyph-name="uni2077" unicode="&#x2077;" 
d="M66 1550v170h626v-121l-327 -583h-213l303 534h-389z" />
    <glyph glyph-name="uni2078" unicode="&#x2078;" 
d="M492 1222q0 44 -32 68t-84 25q-52 -1 -84 -25t-32 -68t32 -69t84 -25t84 25t32 69zM272 1523q0 -85 102 -85t103 85q-1 85 -103 85t-102 -85zM57 1200q0 68 38 114t102 58v8q-53 12 -86 54t-33 102q0 90 81 145t217 55t217 -54q81 -56 81 -146q0 -59 -33 -101t-86 -55v-8
q61 -12 100 -58t39 -114q0 -96 -84 -148t-236 -52t-234 52q-83 52 -83 148z" />
    <glyph glyph-name="uni2079" unicode="&#x2079;" 
d="M358 1397q45 1 74 27t29 77t-30 80t-74 29q-45 0 -73 -29t-28 -80t28 -77t74 -27zM311 1270q-111 0 -183 51t-71 165q0 114 84 182t211 69q324 0 324 -353q0 -385 -320 -385q-132 1 -204 57t-78 152h194q2 -32 29 -54t69 -22q93 1 103 195q-14 -25 -59 -41t-99 -16z" />
    <glyph glyph-name="parenleft.superior" unicode="&#x207d;" horiz-adv-x="491" 
d="M123 1368q0 148 49 284t115 216h188q-61 -76 -113 -215t-51 -285q0 -146 51 -284q51 -140 113 -216h-188q-66 80 -115 216t-49 284z" />
    <glyph glyph-name="parenright.superior" unicode="&#x207e;" horiz-adv-x="491" 
d="M180 1368q0 146 -51 284q-51 140 -113 216h189q67 -80 115 -216q102 -287 -1 -568q-49 -136 -114 -216h-189q61 76 113 215q51 139 51 285z" />
    <glyph glyph-name="n.superior" unicode="&#x207f;" horiz-adv-x="874" 
d="M94 1720h203v-102h6q59 121 221 121q115 0 189 -68t73 -211v-444h-208v395q0 160 -127 160q-66 0 -106 -48t-40 -134v-373h-211v704z" />
    <glyph glyph-name="uni2080" unicode="&#x2080;" 
d="M248 41q0 -211 128 -211t128 211t-128 211t-128 -211zM375 -328q-162 0 -246 102t-84 267q0 164 84 266q84 103 246 103t246 -102t84 -267t-84 -267t-246 -102z" />
    <glyph glyph-name="uni2081" unicode="&#x2081;" 
d="M508 393v-547h188v-157h-594v157h197v308l-139 -78l-82 137l305 180h125z" />
    <glyph glyph-name="uni2082" unicode="&#x2082;" 
d="M57 -311q0 153 66 233t182 131l35 19q143 61 143 112q1 80 -107 80t-114 -112h-196q4 130 92 194t223 64t219 -60t84 -152q0 -94 -52 -145t-163 -100l-37 -16q-129 -57 -129 -91h377v-157h-623z" />
    <glyph glyph-name="uni2083" unicode="&#x2083;" 
d="M260 -94q0 -49 31 -77t84 -28t85 25t32 70q0 92 -123 92h-43v123h43q109 0 108 84q0 86 -102 86q-47 0 -75 -26t-28 -71h-184q2 109 82 167q80 59 212 59t212 -56t80 -145q0 -59 -33 -101t-86 -55v-6q63 -14 101 -58t38 -108q0 -102 -83 -155t-236 -54q-297 0 -303 234
h188z" />
    <glyph glyph-name="uni2084" unicode="&#x2084;" 
d="M397 -43v201l-157 -201h157zM602 397v-440h96v-150h-96v-118h-205v118h-356v115l385 475h176z" />
    <glyph glyph-name="uni2085" unicode="&#x2085;" 
d="M379 -201q43 0 73 29t29 80q0 51 -28 78q-29 27 -74 26q-70 0 -96 -59l-189 18l29 422h518v-153h-350l-12 -150h6q45 49 148 49t174 -54t71 -170t-83 -179t-210 -64q-283 0 -305 205h199q12 -78 100 -78z" />
    <glyph glyph-name="uni2086" unicode="&#x2086;" 
d="M386 12q-44 0 -74 -26t-30 -78q0 -51 30 -80t74 -29t73 29t28 80q0 51 -28 78q-29 26 -73 26zM430 139q112 0 183 -54t71 -170t-83 -179t-210 -64q-326 0 -325 353q0 201 89 293t230 92t210 -56t73 -153h-193q-3 33 -25 55t-66 20q-104 -1 -114 -196q48 59 160 59z" />
    <glyph glyph-name="uni2087" unicode="&#x2087;" 
d="M66 223v170h626v-121l-327 -583h-213l303 534h-389z" />
    <glyph glyph-name="uni2088" unicode="&#x2088;" 
d="M492 -105q0 45 -32 69t-84 24t-84 -24t-32 -69q0 -44 32 -69t84 -25t84 25t32 69zM272 196q0 -85 102 -85t103 85q-1 85 -103 85t-102 -85zM57 -127q0 68 38 114t102 58v8q-53 13 -86 55t-33 101q0 90 81 145q81 56 217 56t217 -56t81 -145q0 -59 -33 -101t-86 -55v-8
q61 -12 100 -58t39 -114q0 -96 -84 -148q-84 -53 -236 -53t-234 52q-83 52 -83 149z" />
    <glyph glyph-name="uni2089" unicode="&#x2089;" 
d="M358 70q45 0 74 26t29 78q0 51 -30 80t-74 29q-45 0 -73 -29t-28 -80q0 -52 28 -78t74 -26zM366 -195q93 0 103 195q-14 -25 -59 -41t-99 -16q-111 0 -183 51t-71 165q0 115 84 183t211 68q324 0 324 -353q0 -385 -320 -385q-132 0 -204 56t-78 153h194q2 -33 29 -55
t69 -21z" />
    <glyph glyph-name="parenleft.inferior" unicode="&#x208d;" horiz-adv-x="491" 
d="M123 40q0 148 49 284t115 217h188q-61 -76 -113 -215q-52 -138 -51 -284q0 -146 51 -286t113 -215h-188q-66 80 -115 216q-49 135 -49 283z" />
    <glyph glyph-name="parenright.inferior" unicode="&#x208e;" horiz-adv-x="491" 
d="M180 40q0 146 -51 286t-113 215h189q67 -80 115 -216q102 -287 -1 -568q-49 -136 -114 -216h-189q61 76 113 215q51 138 51 284z" />
    <glyph glyph-name="Euro" unicode="&#x20ac;" horiz-adv-x="1163" 
d="M682 1221q-203 0 -252 -299h375l-39 -138h-350v-149h342l-41 -139h-287q47 -307 252 -308q143 0 197 164h249q-86 -377 -452 -377q-221 -1 -350 139t-166 382h-180l40 139h127q-2 23 -2 73t2 76h-129l39 138h105q39 238 167 374t347 138q383 0 459 -400h-248
q-27 96 -75 142t-130 45z" />
    <glyph glyph-name="uni2113" unicode="&#x2113;" horiz-adv-x="843" 
d="M598 1171q0 186 -113 187q-139 0 -139 -367v-289l4 -2q248 211 248 471zM186 338v151l-4 3l-121 -84l-24 49q78 63 149 125v278q0 209 37 322q37 114 113 182t173 68t153 -71t55 -179q0 -203 -138 -361q-67 -76 -114 -120t-119 -99v-223q0 -283 186 -283q129 0 242 164
l45 -33q-49 -119 -139 -185t-216 -67q-126 0 -202 81t-76 282z" />
    <glyph glyph-name="uni2116" unicode="&#x2116;" horiz-adv-x="2486" 
d="M1630 154h754v-154h-754v154zM1630 510h754v-154h-754v154zM1843 1057q0 -95 44 -151t120 -56t120 56t44 152t-44 150q-44 56 -120 56t-120 -56t-44 -151zM150 1409h253l701 -944h8l-8 944h276v-1409h-250l-704 942h-8l8 -942h-276v1409zM1628 1057q0 170 102 270
t278 100t278 -100t102 -269q0 -170 -103 -270t-279 -100t-276 100q-102 100 -102 269z" />
    <glyph glyph-name="trademark" unicode="&#x2122;" horiz-adv-x="1695" 
d="M750 1409h264l168 -455h8l166 455h266v-704h-190l8 477h-8l-175 -477h-145l-174 477h-8l8 -477h-188v704zM8 1409h654v-160h-230v-544h-190v544h-234v160z" />
    <glyph glyph-name="uni2126" unicode="&#x2126;" horiz-adv-x="1425" 
d="M340 864q0 -160 79 -258q79 -100 185 -129v-477h-495v197h278v161q-143 68 -227 198t-84 300q0 248 176 413t461 165t461 -165t176 -413q0 -170 -84 -300t-228 -198v-161h279v-197h-496v477q109 29 187 128t78 259t-104 262q-103 102 -269 102q-165 0 -269 -102
t-104 -262z" />
    <glyph glyph-name="estimated" unicode="&#x212e;" horiz-adv-x="1740" 
d="M1378 727q8 0 8 12v396q0 29 -20 49q-201 205 -492 205t-495 -211q-23 -23 -23 -54v-385q0 -12 15 -12h1007zM874 20q156 0 291 64t232 176h119q-113 -131 -282 -208t-362 -77q-338 0 -576 213q-238 212 -237 516q0 304 239 517q238 213 574 213t574 -213t237 -516v-21
h-1312q-14 0 -15 -8v-397q1 -23 21 -48q201 -211 497 -211z" />
    <glyph glyph-name="uni2153" unicode="&#x2153;" horiz-adv-x="1660" 
d="M1169 217q0 -49 32 -77t84 -28t84 26q32 24 32 69q0 92 -123 92h-43v123h43q111 0 111 85t-103 85q-49 0 -76 -26t-26 -70h-187q2 109 82 167t212 58t212 -55t80 -146q0 -59 -33 -101t-86 -54v-7q64 -14 102 -58t38 -107q0 -101 -83 -155t-235 -54q-299 0 -305 233h188z
M508 1409v-547h188v-157h-594v157h197v307l-139 -77l-82 137l305 180h125zM436 -25q309 639 713 1459h164l-713 -1459h-164z" />
    <glyph glyph-name="uni2154" unicode="&#x2154;" horiz-adv-x="1660" 
d="M1169 217q0 -49 32 -77t84 -28t84 26q32 24 32 69q0 92 -123 92h-43v123h43q111 0 111 85t-103 85q-49 0 -76 -26t-26 -70h-187q2 109 82 167t212 58t212 -55t80 -146q0 -59 -33 -101t-86 -54v-7q64 -14 102 -58t38 -107q0 -101 -83 -155t-235 -54q-299 0 -305 233h188z
M57 705q0 153 66 233t182 131l35 18q143 61 143 113q1 80 -107 80t-114 -113h-196q4 129 92 194t223 65t219 -60q84 -58 84 -152t-52 -145t-163 -100l-37 -17q-129 -57 -129 -90h377v-157h-623zM432 -25q309 639 713 1459h166l-713 -1459h-166z" />
    <glyph glyph-name="uni2155" unicode="&#x2155;" horiz-adv-x="1660" 
d="M1391 219q0 51 -29 78t-74 27q-70 0 -96 -60l-186 19l28 422h516v-154h-350l-12 -150h6q45 49 148 49q102 0 174 -54t72 -170t-84 -179q-83 -63 -219 -63t-211 55t-85 149h201q6 -34 31 -56t67 -22t73 30q30 28 30 79zM508 1409v-547h188v-157h-594v157h197v307l-139 -77
l-82 137l305 180h125zM1133 1434h165l-712 -1459h-166z" />
    <glyph glyph-name="uni2156" unicode="&#x2156;" horiz-adv-x="1660" 
d="M1391 219q0 51 -29 78t-74 27q-70 0 -96 -60l-186 19l28 422h516v-154h-350l-12 -150h6q45 49 148 49q102 0 174 -54t72 -170t-84 -179q-83 -63 -219 -63t-211 55t-85 149h201q6 -34 31 -56t67 -22t73 30q30 28 30 79zM57 705q0 153 66 233t182 131l35 18q143 61 143 113
q1 80 -107 80t-114 -113h-196q4 129 92 194t223 65t219 -60q84 -58 84 -152t-52 -145t-163 -100l-37 -17q-129 -57 -129 -90h377v-157h-623zM1128 1434h166l-712 -1459h-166z" />
    <glyph glyph-name="uni2157" unicode="&#x2157;" horiz-adv-x="1660" 
d="M1391 219q0 51 -29 78t-74 27q-70 0 -96 -60l-186 19l28 422h516v-154h-350l-12 -150h6q45 49 148 49q102 0 174 -54t72 -170t-84 -179q-83 -63 -219 -63t-211 55t-85 149h201q6 -34 31 -56t67 -22t73 30q30 28 30 79zM260 922q0 -49 31 -77t84 -28t85 25t32 69
q0 92 -123 93h-43v122h43q109 0 108 84q0 86 -102 86q-47 0 -75 -26t-28 -70h-184q2 109 82 167t212 58t212 -55t80 -145q0 -59 -33 -101t-86 -55v-6q63 -14 101 -58t38 -108q0 -101 -83 -155t-236 -54q-297 0 -303 234h188zM389 -25q309 639 713 1459h164l-713 -1459h-164z
" />
    <glyph glyph-name="uni2158" unicode="&#x2158;" horiz-adv-x="1660" 
d="M1391 219q0 51 -29 78t-74 27q-70 0 -96 -60l-186 19l28 422h516v-154h-350l-12 -150h6q45 49 148 49q102 0 174 -54t72 -170t-84 -179q-83 -63 -219 -63t-211 55t-85 149h201q6 -34 31 -56t67 -22t73 30q30 28 30 79zM397 973v201l-157 -201h157zM602 1413v-440h96v-150
h-96v-118h-205v118h-356v115l385 475h176zM395 -25q403 819 713 1459h166l-713 -1459h-166z" />
    <glyph glyph-name="uni2159" unicode="&#x2159;" horiz-adv-x="1660" 
d="M1295 324q-43 0 -73 -27t-30 -78t30 -80t74 -29t72 30q29 28 29 79t-29 78t-73 27zM1296 588q-103 0 -114 -199h6q46 61 156 61t181 -54t71 -170t-84 -179q-83 -63 -212 -63q-324 0 -323 352q0 385 328 385q131 0 199 -55t75 -154h-195q-2 32 -24 54q-20 22 -64 22z
M508 1409v-547h188v-157h-594v157h197v307l-139 -77l-82 137l305 180h125zM440 -25q309 639 713 1459h166l-713 -1459h-166z" />
    <glyph glyph-name="uni215A" unicode="&#x215a;" horiz-adv-x="1660" 
d="M1295 324q-43 0 -73 -27t-30 -78t30 -80t74 -29t72 30q29 28 29 79t-29 78t-73 27zM1296 588q-103 0 -114 -199h6q46 61 156 61t181 -54t71 -170t-84 -179q-83 -63 -212 -63q-324 0 -323 352q0 385 328 385q131 0 199 -55t75 -154h-195q-2 32 -24 54q-20 22 -64 22z
M379 815q43 0 73 29t29 80q-1 52 -29 78t-73 26q-70 0 -96 -59l-189 18l29 422h518v-154h-350l-12 -149h6q45 49 148 49t174 -54t71 -170t-83 -179t-210 -64q-283 0 -305 205h199q12 -78 100 -78zM1104 1434h166l-713 -1459h-166z" />
    <glyph glyph-name="uni215B" unicode="&#x215b;" horiz-adv-x="1660" 
d="M1401 206q0 44 -32 68t-84 25q-52 -1 -84 -25t-32 -68t32 -69t84 -25t84 26q32 24 32 68zM1286 592q-102 0 -102 -85t102 -85t103 84q-1 86 -103 86zM967 184q0 68 39 114t100 58v9q-53 12 -86 54t-33 101q0 90 81 146t217 55q136 0 217 -55t81 -146q0 -59 -33 -101
t-86 -54v-9q64 -12 102 -58t38 -114q0 -96 -83 -148t-235 -52t-236 52t-83 148zM508 1409v-547h188v-157h-594v157h197v307l-139 -77l-82 137l305 180h125zM432 -25q309 639 713 1459h166l-713 -1459h-166z" />
    <glyph glyph-name="uni215C" unicode="&#x215c;" horiz-adv-x="1660" 
d="M1401 206q0 44 -32 68t-84 25q-52 -1 -84 -25t-32 -68t32 -69t84 -25t84 26q32 24 32 68zM1286 592q-102 0 -102 -85t102 -85t103 84q-1 86 -103 86zM967 184q0 68 39 114t100 58v9q-53 12 -86 54t-33 101q0 90 81 146t217 55q136 0 217 -55t81 -146q0 -59 -33 -101
t-86 -54v-9q64 -12 102 -58t38 -114q0 -96 -83 -148t-235 -52t-236 52t-83 148zM260 922q0 -49 31 -77t84 -28t85 25t32 69q0 92 -123 93h-43v122h43q109 0 108 84q0 86 -102 86q-47 0 -75 -26t-28 -70h-184q2 109 82 167t212 58t212 -55t80 -145q0 -59 -33 -101t-86 -55v-6
q63 -14 101 -58t38 -108q0 -101 -83 -155t-236 -54q-297 0 -303 234h188zM1108 1434h166l-713 -1459h-166z" />
    <glyph glyph-name="uni215D" unicode="&#x215d;" horiz-adv-x="1660" 
d="M1401 206q0 44 -32 68t-84 25q-52 -1 -84 -25t-32 -68t32 -69t84 -25t84 26q32 24 32 68zM1286 592q-102 0 -102 -85t102 -85t103 84q-1 86 -103 86zM967 184q0 68 39 114t100 58v9q-53 12 -86 54t-33 101q0 90 81 146t217 55q136 0 217 -55t81 -146q0 -59 -33 -101
t-86 -54v-9q64 -12 102 -58t38 -114q0 -96 -83 -148t-235 -52t-236 52t-83 148zM379 815q43 0 73 29t29 80q-1 52 -29 78t-73 26q-70 0 -96 -59l-189 18l29 422h518v-154h-350l-12 -149h6q45 49 148 49t174 -54t71 -170t-83 -179t-210 -64q-283 0 -305 205h199
q12 -78 100 -78zM1104 1434h166l-713 -1459h-166z" />
    <glyph glyph-name="uni215E" unicode="&#x215e;" horiz-adv-x="1660" 
d="M1401 206q0 44 -32 68t-84 25q-52 -1 -84 -25t-32 -68t32 -69t84 -25t84 26q32 24 32 68zM1286 592q-102 0 -102 -85t102 -85t103 84q-1 86 -103 86zM967 184q0 68 39 114t100 58v9q-53 12 -86 54t-33 101q0 90 81 146t217 55q136 0 217 -55t81 -146q0 -59 -33 -101
t-86 -54v-9q64 -12 102 -58t38 -114q0 -96 -83 -148t-235 -52t-236 52t-83 148zM66 1239v170h626v-121l-327 -583h-213l303 534h-389zM1047 1434h165l-712 -1459h-166z" />
    <glyph glyph-name="arrowleft" unicode="&#x2190;" horiz-adv-x="1351" 
d="M752 618h542v-204h-542q-205 0 -336 8l305 -303l-137 -129l-527 526l527 526l137 -129l-305 -303q131 8 336 8z" />
    <glyph glyph-name="arrowup" unicode="&#x2191;" horiz-adv-x="1351" 
d="M788 440v-542h-206v542q0 203 8 336l-303 -305l-129 137l526 527l526 -527l-129 -137l-301 305q8 -178 8 -336z" />
    <glyph glyph-name="arrowright" unicode="&#x2192;" horiz-adv-x="1351" 
d="M600 414h-543v204h543q203 0 334 -8l-303 303l137 129l526 -526l-526 -526l-137 129l303 303q-131 -8 -334 -8z" />
    <glyph glyph-name="arrowdown" unicode="&#x2193;" horiz-adv-x="1351" 
d="M573 1135h205v-543q0 -205 -8 -336l303 305l129 -137l-526 -526l-526 526l129 137l303 -305q-8 131 -9 336v543z" />
    <glyph glyph-name="uni2196" unicode="&#x2196;" horiz-adv-x="1351" 
d="M934 977v-186h-420q59 -53 238 -232l385 -383l-144 -147l-383 385q-125 119 -235 245v-428h-187v746h746z" />
    <glyph glyph-name="uni2197" unicode="&#x2197;" horiz-adv-x="1351" 
d="M391 977h746v-746h-187v428q-111 -127 -235 -245l-383 -385l-144 147l385 383q197 197 236 232h-418v186z" />
    <glyph glyph-name="uni2198" unicode="&#x2198;" horiz-adv-x="1351" 
d="M391 215h418q-86 74 -236 231l-385 383l144 148l383 -385q125 -119 235 -246v428h187v-745h-746v186z" />
    <glyph glyph-name="uni2199" unicode="&#x2199;" horiz-adv-x="1351" 
d="M934 215v-186h-746v745h187v-428q111 127 235 246l383 385l144 -148l-385 -383q-139 -145 -238 -231h420z" />
    <glyph glyph-name="partialdiff" unicode="&#x2202;" horiz-adv-x="1163" 
d="M766 456q0 118 -56 178q-56 62 -162 62t-180 -79t-75 -199t59 -180q60 -58 160 -58t177 79t77 197zM33 397q0 240 143 372t342 132q104 0 188 -39t119 -104q2 27 2 73q0 209 -64 304q-65 94 -165 94q-174 0 -215 -172h-252q37 174 158 275q121 102 327 102t339 -148
q132 -148 132 -459q0 -647 -384 -809q-103 -43 -228 -43q-186 -1 -314 113t-128 309z" />
    <glyph glyph-name="uni2206" unicode="&#x2206;" horiz-adv-x="1353" 
d="M666 1124l-312 -911h631l-311 911h-8zM535 1409h284l506 -1409h-1298z" />
    <glyph glyph-name="product" unicode="&#x220f;" horiz-adv-x="1517" 
d="M170 1409h1178v-1409h-265v1196h-651v-1196h-262v1409z" />
    <glyph glyph-name="summation" unicode="&#x2211;" horiz-adv-x="1126" 
d="M47 1409h1006v-209h-643l374 -491l-393 -500h680v-209h-1040v109l461 583l-445 594v123z" />
    <glyph glyph-name="minus" unicode="&#x2212;" horiz-adv-x="1163" 
d="M119 625h925v-205h-925v205z" />
    <glyph glyph-name="uni2215" unicode="&#x2215;" horiz-adv-x="159" 
d="M-360 -25q403 819 712 1459h166l-713 -1459h-165z" />
    <glyph glyph-name="uni2219" unicode="&#x2219;" horiz-adv-x="577" 
d="M141 657h297v-278h-297v278z" />
    <glyph glyph-name="radical" unicode="&#x221a;" horiz-adv-x="1245" 
d="M53 778l344 109l226 -600h8l381 1122h252l-490 -1409h-289l-249 633l-183 -60v205z" />
    <glyph glyph-name="infinity" unicode="&#x221e;" horiz-adv-x="1449" 
d="M1061 362q67 0 107 46t40 112t-41 112t-106 46q-106 0 -221 -158q111 -158 221 -158zM389 362q111 0 221 158q-115 158 -221 158q-67 0 -107 -46t-40 -112t40 -112t107 -46zM404 180q-163 0 -257 94t-94 246t94 246t246 94q190 0 336 -203q152 203 328 203q152 0 246 -94
t94 -246t-94 -246t-246 -94q-190 0 -336 201q-154 -201 -317 -201z" />
    <glyph glyph-name="integral" unicode="&#x222b;" horiz-adv-x="745" 
d="M115 -172q159 0 165 152q3 72 -4 172l-63 1024q-16 252 66 384t317 132h96v-205h-69q-159 0 -165 -152q-3 -72 3 -172l65 -1024q14 -250 -68 -383t-315 -133h-96v205h68z" />
    <glyph glyph-name="approxequal" unicode="&#x2248;" horiz-adv-x="1163" 
d="M100 106q0 178 81 268t200 89q80 0 155 -36t135 -72t103 -36q100 0 100 152h193q0 -178 -80 -267t-196 -89q-80 0 -156 37q-76 38 -138 74t-106 36q-98 0 -98 -156h-193zM100 573q0 177 81 267t200 90q80 0 155 -36t135 -72t103 -36q100 0 100 152h193q0 -178 -80 -267
t-196 -89q-80 0 -156 36t-138 75q-62 38 -106 38q-98 0 -98 -158h-193z" />
    <glyph glyph-name="notequal" unicode="&#x2260;" horiz-adv-x="1163" 
d="M115 846h534l144 274l153 -82l-100 -192h203v-205h-312l-125 -242h437v-204h-543l-144 -275l-153 82l100 193h-194v204h301l125 242h-426v205z" />
    <glyph glyph-name="lessequal" unicode="&#x2264;" horiz-adv-x="1163" 
d="M147 205h869v-205h-869v205zM147 883l869 346v-225l-615 -226l615 -229v-227l-869 348v213z" />
    <glyph glyph-name="greaterequal" unicode="&#x2265;" horiz-adv-x="1163" 
d="M147 205h869v-205h-869v205zM1016 668l-869 -346v223l613 223l-613 231v230l869 -350v-211z" />
    <glyph glyph-name="filledbox" unicode="&#x25a0;" horiz-adv-x="1409" 
d="M0 1409h1409v-1409h-1409v1409z" />
    <glyph glyph-name="uni25A1" unicode="&#x25a1;" horiz-adv-x="1409" 
d="M1182 213v983h-955v-983h955zM0 1409h1409v-1409h-1409v1409z" />
    <glyph glyph-name="uni25B6" unicode="&#x25b6;" horiz-adv-x="1028" 
d="M90 1024l914 -524l-914 -525v1049z" />
    <glyph glyph-name="uni25B7" unicode="&#x25b7;" horiz-adv-x="1028" 
d="M655 500l-376 211v-422zM90 1024l914 -524l-914 -525v1049z" />
    <glyph glyph-name="uni25C0" unicode="&#x25c0;" horiz-adv-x="1028" 
d="M938 1024v-1049l-913 525z" />
    <glyph glyph-name="uni25C1" unicode="&#x25c1;" horiz-adv-x="1028" 
d="M750 289v422l-377 -211zM938 1024v-1049l-913 525z" />
    <glyph glyph-name="lozenge" unicode="&#x25ca;" horiz-adv-x="1355" 
d="M670 1190l-344 -485l350 -490h8l346 483l-348 492h-12zM51 705l508 704h240l506 -704l-506 -705h-240z" />
    <glyph glyph-name="circle" unicode="&#x25cb;" horiz-adv-x="1130" 
d="M266 501q0 -141 86 -233t216 -92t213 91t83 231t-86 233q-86 92 -216 92t-213 -91t-83 -231zM41 497q1 223 151 375t374 152t374 -148t150 -372t-151 -377q-151 -152 -375 -152t-374 149q-149 149 -149 373z" />
    <glyph glyph-name="uni25CF" unicode="&#x25cf;" horiz-adv-x="1130" 
d="M41 497q1 223 151 375t374 152t374 -148t150 -372t-151 -377q-151 -152 -375 -152t-374 149q-149 149 -149 373z" />
    <glyph glyph-name="uni25FB" unicode="&#x25fb;" horiz-adv-x="999" 
d="M786 201v598h-573v-598h573zM0 999h999v-999h-999v999z" />
    <glyph glyph-name="uni25FC" unicode="&#x25fc;" horiz-adv-x="999" 
d="M0 999h999v-999h-999v999z" />
    <glyph glyph-name="uni2605" unicode="&#x2605;" horiz-adv-x="1118" 
d="M356 401l-331 222l10 32l399 -18l109 387h32l107 -387l401 18l11 -32l-334 -222l141 -374l-29 -21l-313 248l-313 -248l-29 21z" />
    <glyph glyph-name="dotlessi.sc" unicode="&#xe08e;" horiz-adv-x="593" 
d="M166 1065h262v-1065h-262v1065z" />
    <glyph glyph-name="g.superior" unicode="&#xe0a3;" horiz-adv-x="903" 
d="M436 1575q-72 1 -114 -57t-43 -153q0 -95 43 -149q42 -54 116 -55q74 1 118 57t44 150v18q-4 86 -48 138t-116 51zM430 838q94 0 136 56t42 179v47h-8q-57 -121 -233 -121q-129 -1 -217 95t-88 270t94 274t225 101q162 0 219 -123h8v104h201v-645q0 -213 -97 -301
t-286 -88q-319 0 -340 246h199q6 -94 145 -94z" />
    <glyph glyph-name="germandbls.sc" unicode="&#xe0a4;" horiz-adv-x="2269" 
d="M1477 307q0 -71 58 -109t159 -38q217 0 217 139q0 51 -50 80t-125 37t-163 25t-163 43t-125 94t-50 170q0 152 124 246t339 96q215 0 331 -88t115 -236h-250q0 66 -54 102t-138 37q-201 0 -201 -131q0 -51 50 -82t126 -39t164 -26t164 -43q76 -26 126 -92t50 -166
q0 -164 -126 -257t-358 -93t-357 87q-124 88 -123 244h260zM342 307q0 -71 58 -109t159 -38q217 0 217 139q0 51 -50 80t-125 37t-163 25t-163 43t-125 94t-50 170q0 152 124 246t339 96q215 0 331 -88t116 -236h-250q0 66 -54 102t-139 37q-201 0 -200 -131q0 -51 50 -82
t126 -39q175 -18 327 -69q76 -26 126 -92t51 -166q0 -164 -126 -257q-127 -93 -359 -93t-356 87q-124 88 -124 244h260z" />
    <glyph glyph-name="uniE105" unicode="&#xe105;" 
d="M508 1720v-546h188v-158h-594v158h197v307l-139 -78l-82 137l305 180h125z" />
    <glyph glyph-name="uniE107" unicode="&#xe107;" 
d="M57 1016q0 152 66 232t182 132l35 19q143 61 143 112q1 80 -107 80t-114 -112h-196q4 129 92 193t223 65t219 -59t84 -153t-52 -145t-163 -100l-37 -16q-129 -57 -129 -90h377v-158h-623z" />
    <glyph glyph-name="uniE108" unicode="&#xe108;" 
d="M260 1233q0 -49 31 -77t84 -28t85 25t32 70q0 92 -123 92h-43v123h43q109 0 108 84q0 86 -102 86q-47 0 -75 -26t-28 -71h-184q2 109 82 167t212 58t212 -54q80 -56 80 -146q0 -59 -33 -101t-86 -55v-6q63 -14 101 -58t38 -108q0 -102 -83 -155t-236 -54q-297 0 -303 234
h188z" />
    <glyph glyph-name="cent.denominator" unicode="&#xf629;" 
d="M66 348q0 106 63 174t178 86v113h154v-113q101 -16 159 -72t64 -128h-201q-3 28 -29 50t-67 21q-115 0 -115 -131t115 -131q41 0 67 22t29 52h201q-6 -72 -63 -130t-160 -75v-102h-154v104q-115 18 -178 86t-63 174z" />
    <glyph glyph-name="dollar.denominator" unicode="&#xf62a;" 
d="M492 188q0 72 -211 96q-80 9 -146 60q-65 50 -65 142t60 152t169 77v112h154v-112q98 -15 156 -71t65 -132h-195q-4 37 -33 57t-71 21q-109 0 -109 -74t212 -99q79 -9 146 -59t66 -145q0 -197 -237 -225v-127h-154v127q-115 14 -176 70t-66 147h189q2 -43 38 -69t89 -26
t86 21q33 20 33 57z" />
    <glyph glyph-name="hyphen.denominator" unicode="&#xf62b;" horiz-adv-x="587" 
d="M70 438h448v-164h-448v164z" />
    <glyph glyph-name="parenleft.denominator" unicode="&#xf62c;" horiz-adv-x="491" 
d="M123 352q0 148 49 284t115 216h188q-61 -76 -113 -215t-51 -285q0 -146 51 -284q51 -139 113 -215h-188q-66 80 -115 216t-49 283z" />
    <glyph glyph-name="parenright.denominator" unicode="&#xf62d;" horiz-adv-x="491" 
d="M180 352q0 144 -51 284t-113 216h189q67 -80 115 -216t48 -284t-48 -283q-50 -136 -115 -216h-189q61 76 113 215q51 139 51 284z" />
    <glyph glyph-name="cent.numerator" unicode="&#xf62e;" 
d="M66 1053q0 106 63 174t178 86v112h154v-112q101 -17 159 -73t64 -128h-201q-3 28 -29 50t-67 22q-115 0 -115 -131t115 -131q41 0 67 22t29 51h201q-6 -72 -63 -130t-160 -74v-103h-154v105q-115 18 -178 86t-63 174z" />
    <glyph glyph-name="dollar.numerator" unicode="&#xf62f;" 
d="M373 815q53 1 86 21t33 57q0 71 -211 95q-80 8 -146 60q-65 52 -65 143t60 151t169 77v113h154v-113q98 -16 156 -71t65 -131h-195q-4 37 -33 57t-71 20q-109 0 -109 -74t212 -99q79 -9 146 -59t66 -144q0 -197 -237 -226v-127h-154v127q-115 14 -176 70t-66 147h189
q2 -43 38 -69t89 -25z" />
    <glyph glyph-name="hyphen.numerator" unicode="&#xf630;" horiz-adv-x="587" 
d="M70 1143h448v-164h-448v164z" />
    <glyph glyph-name="parenleft.numerator" unicode="&#xf631;" horiz-adv-x="491" 
d="M123 1056q0 148 49 284t115 216h188q-61 -76 -113 -215t-51 -284q0 -145 51 -285t113 -215h-188q-66 80 -115 216q-49 135 -49 283z" />
    <glyph glyph-name="parenright.numerator" unicode="&#xf632;" horiz-adv-x="491" 
d="M180 1056q0 146 -51 285t-113 215h189q67 -80 115 -216q102 -286 -1 -567q-49 -136 -114 -216h-189q61 76 113 215q51 138 51 284z" />
    <glyph glyph-name="h.superior" unicode="&#xf637;" horiz-adv-x="874" 
d="M94 2073h211v-226q0 -123 -8 -229h6q59 121 221 121q115 0 189 -68t73 -211v-444h-208v395q0 160 -127 160q-63 0 -105 -46t-41 -130v-379h-211v1057z" />
    <glyph glyph-name="zero.denominator" unicode="&#xf655;" 
d="M248 352q0 -211 128 -211t128 211t-128 211t-128 -211zM375 -16q-162 0 -246 102t-84 266t84 266t246 102t246 -102t84 -266t-84 -266t-246 -102z" />
    <glyph glyph-name="one.denominator" unicode="&#xf656;" 
d="M508 705v-547h188v-158h-594v158h197v307l-139 -78l-82 137l305 181h125z" />
    <glyph glyph-name="two.denominator" unicode="&#xf657;" 
d="M57 0q0 152 66 232t182 133l35 18q143 61 143 113q1 80 -107 80t-114 -113h-196q4 129 92 193t223 65q135 0 219 -59q84 -58 84 -152t-52 -145t-163 -101l-37 -16q-129 -57 -129 -90h377v-158h-623z" />
    <glyph glyph-name="three.denominator" unicode="&#xf658;" 
d="M260 217q0 -49 31 -77t84 -28t85 26q32 24 32 69q0 92 -123 92h-43v123h43q109 0 108 84q0 86 -102 86q-47 0 -75 -26t-28 -70h-184q2 109 82 167t212 58t212 -55t80 -146q0 -59 -33 -101t-86 -54v-7q63 -14 101 -58t38 -107q0 -101 -83 -155t-236 -54q-297 0 -303 233
h188z" />
    <glyph glyph-name="four.denominator" unicode="&#xf659;" 
d="M397 268v201l-157 -201h157zM602 709v-441h96v-149h-96v-119h-205v119h-356v114l385 476h176z" />
    <glyph glyph-name="five.denominator" unicode="&#xf65a;" 
d="M379 324q-70 0 -96 -60l-189 19l29 422h518v-154h-350l-12 -150h6q45 49 148 49t174 -54t71 -170t-83 -179t-210 -63q-283 0 -305 204h199q12 -78 100 -77q43 1 73 29t29 79q0 51 -28 78q-29 27 -74 27z" />
    <glyph glyph-name="six.denominator" unicode="&#xf65b;" 
d="M386 324q-44 0 -74 -27t-30 -78t30 -80t74 -29t73 30q29 28 28 79q0 51 -28 78q-29 27 -73 27zM384 588q-104 0 -114 -197q48 59 160 59t183 -54t71 -170t-83 -179t-210 -63q-326 0 -325 352q0 201 89 293t230 92t210 -56t73 -153h-193q-3 32 -25 54t-66 22z" />
    <glyph glyph-name="seven.denominator" unicode="&#xf65c;" 
d="M66 535v170h626v-121l-327 -584h-213l303 535h-389z" />
    <glyph glyph-name="eight.denominator" unicode="&#xf65d;" 
d="M492 206q0 44 -32 68t-84 25q-52 -1 -84 -25t-32 -68t32 -69t84 -25t84 26q32 24 32 68zM272 507q0 -85 102 -85t103 85q-1 85 -103 85t-102 -85zM57 184q0 68 38 114t102 58v9q-53 12 -86 54t-33 101q0 90 81 146t217 55q136 0 217 -55t81 -146q0 -59 -33 -101t-86 -54
v-9q61 -12 100 -58t39 -114q0 -96 -84 -148t-236 -52t-234 52q-83 52 -83 148z" />
    <glyph glyph-name="nine.denominator" unicode="&#xf65e;" 
d="M358 381q45 0 74 27q29 28 29 78t-30 79t-74 29q-45 0 -73 -29t-28 -80t28 -77t74 -27zM311 254q-111 0 -183 51t-71 165q0 114 84 182t211 69q324 0 324 -352q0 -385 -320 -385q-132 0 -204 56t-78 153h194q2 -33 29 -55t69 -22q93 1 103 195q-14 -25 -59 -41t-99 -16z
" />
    <glyph glyph-name="comma.denominator" unicode="&#xf65f;" horiz-adv-x="413" 
d="M106 211h203v-203l-65 -252h-101l50 244h-87v211z" />
    <glyph glyph-name="period.denominator" unicode="&#xf660;" horiz-adv-x="413" 
d="M106 211h203v-211h-203v211z" />
    <glyph glyph-name="zero.numerator" unicode="&#xf661;" 
d="M248 1057q0 -211 128 -211t128 211t-128 211t-128 -211zM375 688q-162 0 -246 102t-84 267q0 164 84 266t246 102t246 -102t84 -266q0 -165 -84 -267t-246 -102z" />
    <glyph glyph-name="one.numerator" unicode="&#xf662;" 
d="M508 1409v-547h188v-157h-594v157h197v307l-139 -77l-82 137l305 180h125z" />
    <glyph glyph-name="two.numerator" unicode="&#xf663;" 
d="M57 705q0 153 66 233t182 131l35 18q143 61 143 113q1 80 -107 80t-114 -113h-196q4 129 92 194t223 65t219 -60q84 -58 84 -152t-52 -145t-163 -100l-37 -17q-129 -57 -129 -90h377v-157h-623z" />
    <glyph glyph-name="three.numerator" unicode="&#xf664;" 
d="M260 922q0 -49 31 -77t84 -28t85 25t32 69q0 92 -123 93h-43v122h43q109 0 108 84q0 86 -102 86q-47 0 -75 -26t-28 -70h-184q2 109 82 167t212 58t212 -55t80 -145q0 -59 -33 -101t-86 -55v-6q63 -14 101 -58t38 -108q0 -101 -83 -155t-236 -54q-297 0 -303 234h188z
" />
    <glyph glyph-name="four.numerator" unicode="&#xf665;" 
d="M397 973v201l-157 -201h157zM602 1413v-440h96v-150h-96v-118h-205v118h-356v115l385 475h176z" />
    <glyph glyph-name="five.numerator" unicode="&#xf666;" 
d="M379 815q43 0 73 29t29 80q-1 52 -29 78t-73 26q-70 0 -96 -59l-189 18l29 422h518v-154h-350l-12 -149h6q45 49 148 49t174 -54t71 -170t-83 -179t-210 -64q-283 0 -305 205h199q12 -78 100 -78z" />
    <glyph glyph-name="six.numerator" unicode="&#xf667;" 
d="M386 1028q-44 0 -74 -27t-30 -77t30 -80q30 -29 74 -29t73 29t28 80q-1 52 -29 78t-72 26zM430 1155q112 0 183 -54t71 -170t-83 -179t-210 -64q-326 0 -325 352q0 201 89 293t230 92t210 -56t73 -152h-193q-3 33 -25 55t-66 20q-104 -1 -114 -196q48 59 160 59z" />
    <glyph glyph-name="seven.numerator" unicode="&#xf668;" 
d="M66 1239v170h626v-121l-327 -583h-213l303 534h-389z" />
    <glyph glyph-name="eight.numerator" unicode="&#xf669;" 
d="M260 910q0 -44 32 -68t84 -25q52 0 84 25q32 24 32 68t-32 69t-84 25t-84 -25t-32 -69zM272 1211q0 -85 102 -85t103 85q-1 85 -103 85t-102 -85zM57 889q0 67 38 113t102 59v8q-53 12 -86 54t-33 102q0 90 81 145t217 55t217 -55t81 -145q0 -59 -33 -101t-86 -55v-8
q61 -13 100 -59t39 -113q0 -97 -84 -149t-236 -52t-234 52q-83 52 -83 149z" />
    <glyph glyph-name="nine.numerator" unicode="&#xf66a;" 
d="M358 1085q45 0 74 27t29 78t-30 80q-30 28 -74 28q-45 0 -73 -28t-28 -80q0 -51 28 -78t74 -27zM366 821q93 0 103 195q-14 -25 -59 -41t-99 -17q-111 0 -183 52t-71 165q0 115 84 183t211 67q324 0 324 -352q0 -385 -320 -385q-132 0 -204 56t-78 153h194q2 -33 29 -55
t69 -21z" />
    <glyph glyph-name="comma.numerator" unicode="&#xf66b;" horiz-adv-x="413" 
d="M106 915h203v-202l-65 -252h-101l50 244h-87v210z" />
    <glyph glyph-name="period.numerator" unicode="&#xf66c;" horiz-adv-x="413" 
d="M106 915h203v-210h-203v210z" />
    <glyph glyph-name="abreve.sc" unicode="&#xf66d;" horiz-adv-x="1167" 
d="M426 408h307l-147 417h-8zM430 1065h311l414 -1065h-278l-74 211h-449l-75 -211h-267zM584 1241q-127 0 -216 75t-102 236h146q25 -162 172 -161q70 0 114 43t58 118h145q-12 -162 -101 -236t-216 -75z" />
    <glyph glyph-name="amacron.sc" unicode="&#xf66e;" horiz-adv-x="1167" 
d="M426 408h307l-147 417h-8zM430 1065h311l414 -1065h-278l-74 211h-449l-75 -211h-267zM274 1485h611v-176h-611v176z" />
    <glyph glyph-name="aogonek.sc" unicode="&#xf66f;" horiz-adv-x="1167" 
d="M426 408h307l-147 417h-8zM860 -262q0 68 39 128t127 134h-149l-74 211h-449l-75 -211h-267l418 1065h311l414 -1065q-123 -129 -123 -215t105 -86h59v-150h-82q-254 1 -254 189z" />
    <glyph glyph-name="aeacute.sc" unicode="&#xf670;" horiz-adv-x="1861" 
d="M885 406v419h-8l-302 -419h310zM1735 1065v-201h-588v-229h477v-191h-477v-243h608v-201h-870v209h-451l-149 -209h-293l799 1065h944zM1130 1565h279l-303 -336h-180z" />
    <glyph glyph-name="cacute.sc" unicode="&#xf671;" horiz-adv-x="1226" 
d="M78 534q0 246 155 401q156 155 416 155q205 0 342 -106t168 -282h-258q-53 166 -250 166q-139 0 -220 -92t-81 -244t81 -244t220 -91q188 0 250 165h258q-31 -174 -168 -280t-346 -107q-263 1 -415 157t-152 402zM762 1565h278l-303 -336h-180z" />
    <glyph glyph-name="ccaron.sc" unicode="&#xf672;" horiz-adv-x="1226" 
d="M78 534q0 246 155 401q156 155 416 155q205 0 342 -106t168 -282h-258q-53 166 -250 166q-139 0 -220 -92t-81 -244t81 -244t220 -91q188 0 250 165h258q-31 -174 -168 -280t-346 -107q-263 1 -415 157t-152 402zM287 1565h217l145 -203l146 203h217l-262 -336h-201z" />
    <glyph glyph-name="ccircumflex.sc" unicode="&#xf673;" horiz-adv-x="1226" 
d="M78 534q0 246 155 401q156 155 416 155q205 0 342 -106t168 -282h-258q-53 166 -250 166q-139 0 -220 -92t-81 -244t81 -244t220 -91q188 0 250 165h258q-31 -174 -168 -280t-346 -107q-263 1 -415 157t-152 402zM549 1565h201l262 -336h-217l-146 203l-145 -203h-217z
" />
    <glyph glyph-name="cdotaccent.sc" unicode="&#xf674;" horiz-adv-x="1226" 
d="M78 534q0 246 155 401q156 155 416 155q205 0 342 -106t168 -282h-258q-53 166 -250 166q-139 0 -220 -92t-81 -244t81 -244t220 -91q188 0 250 165h258q-31 -174 -168 -280t-346 -107q-263 1 -415 157t-152 402zM528 1526h242v-238h-242v238z" />
    <glyph glyph-name="dcaron.sc" unicode="&#xf675;" horiz-adv-x="1277" 
d="M428 856v-647h172q168 0 248 91t80 233q0 143 -80 233t-248 90h-172zM166 1065h465q268 0 418 -145q149 -146 149 -386t-150 -387t-419 -147h-463v1065zM242 1565h217l145 -203l146 203h217l-262 -336h-201z" />
    <glyph glyph-name="dcroat.sc" unicode="&#xf676;" horiz-adv-x="1277" 
d="M428 856v-250h213v-147h-213v-250h172q168 0 248 91t80 233q0 143 -80 233t-248 90h-172zM8 606h158v459h465q268 0 418 -145q149 -146 149 -386t-150 -387t-419 -147h-463v459h-158v147z" />
    <glyph glyph-name="ebreve.sc" unicode="&#xf677;" horiz-adv-x="1138" 
d="M166 1065h850v-201h-588v-229h475v-191h-475v-243h606v-201h-868v1065zM588 1241q-127 0 -216 75t-102 236h146q25 -162 172 -161q70 0 114 43t58 118h145q-12 -162 -101 -236t-216 -75z" />
    <glyph glyph-name="ecaron.sc" unicode="&#xf678;" horiz-adv-x="1138" 
d="M166 1065h850v-201h-588v-229h475v-191h-475v-243h606v-201h-868v1065zM225 1565h217l146 -203l145 203h217l-262 -336h-201z" />
    <glyph glyph-name="edotaccent.sc" unicode="&#xf679;" horiz-adv-x="1138" 
d="M166 1065h850v-201h-588v-229h475v-191h-475v-243h606v-201h-868v1065zM467 1526h242v-238h-242v238z" />
    <glyph glyph-name="emacron.sc" unicode="&#xf67a;" horiz-adv-x="1138" 
d="M166 1065h850v-201h-588v-229h475v-191h-475v-243h606v-201h-868v1065zM279 1485h610v-176h-610v176z" />
    <glyph glyph-name="eng.sc" unicode="&#xf67b;" horiz-adv-x="1335" 
d="M166 1065h227l514 -645h8l-8 645h262v-1108q0 -223 -91 -315t-302 -93h-114v209h83q86 0 127 46t41 153v88l-485 600h-10l10 -645h-262v1065z" />
    <glyph glyph-name="eogonek.sc" unicode="&#xf67c;" horiz-adv-x="1138" 
d="M166 1065h850v-201h-588v-229h475v-191h-475v-243h606v-201q-123 -129 -123 -215t105 -86h59v-150h-82q-254 0 -254 189q0 68 39 128t127 134h-739v1065z" />
    <glyph glyph-name="gbreve.sc" unicode="&#xf67d;" horiz-adv-x="1333" 
d="M682 584h508v-584h-168l-21 111h-6q-115 -135 -336 -136q-261 0 -417 158q-156 159 -156 401t163 399t429 157q211 0 348 -102t164 -257h-264q-18 57 -83 99t-165 42q-144 0 -232 -94t-88 -247t86 -247t220 -96q134 0 210 58q78 58 82 153h-274v185zM678 1241
q-127 0 -216 75t-102 236h146q25 -162 172 -161q70 0 115 43t57 118h145q-12 -162 -101 -236t-216 -75z" />
    <glyph glyph-name="gcircumflex.sc" unicode="&#xf67e;" horiz-adv-x="1333" 
d="M682 584h508v-584h-168l-21 111h-6q-115 -135 -336 -136q-261 0 -417 158q-156 159 -156 401t163 399t429 157q211 0 348 -102t164 -257h-264q-18 57 -83 99t-165 42q-144 0 -232 -94t-88 -247t86 -247t220 -96q134 0 210 58q78 58 82 153h-274v185zM578 1565h200
l262 -336h-217l-145 203l-146 -203h-217z" />
    <glyph glyph-name="gcommaaccent.sc" unicode="&#xf67f;" horiz-adv-x="1333" 
d="M780 -125v-180l-102 -221h-109l72 194h-102v207h241zM682 584h508v-584h-168l-21 111h-6q-115 -135 -336 -136q-261 0 -417 158q-156 159 -156 401t163 399t429 157q211 0 348 -102t164 -257h-264q-18 57 -83 99t-165 42q-144 0 -232 -94t-88 -247t86 -247t220 -96
q134 0 210 58q78 58 82 153h-274v185z" />
    <glyph glyph-name="gdotaccent.sc" unicode="&#xf680;" horiz-adv-x="1333" 
d="M682 584h508v-584h-168l-21 111h-6q-115 -135 -336 -136q-261 0 -417 158q-156 159 -156 401t163 399t429 157q211 0 348 -102t164 -257h-264q-18 57 -83 99t-165 42q-144 0 -232 -94t-88 -247t86 -247t220 -96q134 0 210 58q78 58 82 153h-274v185zM557 1526h242v-238
h-242v238z" />
    <glyph glyph-name="hbar.sc" unicode="&#xf681;" horiz-adv-x="1335" 
d="M428 645h479v141h-479v-141zM20 932h146v133h262v-133h479v133h262v-133h146v-146h-146v-786h-262v428h-479v-428h-262v786h-146v146z" />
    <glyph glyph-name="hcircumflex.sc" unicode="&#xf682;" horiz-adv-x="1335" 
d="M166 1065h262v-420h479v420h262v-1065h-262v428h-479v-428h-262v1065zM567 1565h201l262 -336h-217l-145 203l-146 -203h-217z" />
    <glyph glyph-name="ibreve.sc" unicode="&#xf683;" horiz-adv-x="593" 
d="M166 1065h262v-1065h-262v1065zM295 1241q-127 0 -216 75t-102 236h146q25 -162 172 -161q70 0 115 43t57 118h145q-12 -162 -101 -236t-216 -75z" />
    <glyph glyph-name="ij.sc" unicode="&#xf684;" horiz-adv-x="1593" 
d="M676 379h256v-51q0 -70 34 -107t94 -37t95 38t35 110v733h264v-700q0 -197 -103 -293t-287 -96t-286 88q-102 90 -102 270v45zM166 1065h262v-1065h-262v1065z" />
    <glyph glyph-name="imacron.sc" unicode="&#xf685;" horiz-adv-x="593" 
d="M166 1065h262v-1065h-262v1065zM-14 1485h610v-176h-610v176z" />
    <glyph glyph-name="iogonek.sc" unicode="&#xf686;" horiz-adv-x="593" 
d="M166 1065h262v-1065h-2q-123 -129 -123 -215t105 -86h59v-150h-82q-254 0 -254 189q0 68 39 128t127 134h-131v1065z" />
    <glyph glyph-name="itilde.sc" unicode="&#xf687;" horiz-adv-x="593" 
d="M166 1065h262v-1065h-262v1065zM451 1432q70 0 77 98h125q-4 -121 -57 -189t-154 -67q-68 0 -168 46t-135 46q-70 0 -78 -98h-124q2 118 56 186t138 68t184 -45t136 -45z" />
    <glyph glyph-name="jcircumflex.sc" unicode="&#xf688;" horiz-adv-x="991" 
d="M78 379h256v-55q0 -139 129 -140q61 0 96 36t35 108v737h262v-700q0 -197 -103 -293t-287 -96t-286 88q-102 90 -102 270v45zM629 1565h200l263 -336h-218l-145 203l-145 -203h-217z" />
    <glyph glyph-name="kcommaaccent.sc" unicode="&#xf689;" horiz-adv-x="1228" 
d="M770 -125v-180l-102 -221h-109l72 194h-103v207h242zM166 1065h262v-481l444 481h304l-441 -463l473 -602h-307l-336 426l-137 -145v-281h-262v1065z" />
    <glyph glyph-name="lacute.sc" unicode="&#xf68a;" horiz-adv-x="1007" 
d="M166 1065h262v-844h530v-221h-792v1065zM406 1565h278l-303 -336h-180z" />
    <glyph glyph-name="lcaron.sc" unicode="&#xf68b;" horiz-adv-x="1007" 
d="M633 858v207h239v-180l-100 -223h-108l69 196h-100zM166 1065h262v-850h530v-215h-792v1065z" />
    <glyph glyph-name="ldot.sc" unicode="&#xf68d;" horiz-adv-x="1007" 
d="M586 698h241v-235h-241v235zM166 1065h262v-850h530v-215h-792v1065z" />
    <glyph glyph-name="nacute.sc" unicode="&#xf68e;" horiz-adv-x="1335" 
d="M166 1065h227l514 -649h8l-8 649h262v-1065h-223l-518 649h-10l10 -649h-262v1065zM780 1565h279l-303 -336h-181z" />
    <glyph glyph-name="ncaron.sc" unicode="&#xf68f;" horiz-adv-x="1335" 
d="M166 1065h227l514 -649h8l-8 649h262v-1065h-223l-518 649h-10l10 -649h-262v1065zM305 1565h217l146 -203l145 203h217l-262 -336h-201z" />
    <glyph glyph-name="ncommaaccent.sc" unicode="&#xf690;" horiz-adv-x="1335" 
d="M788 -125v-180l-102 -221h-108l71 194h-102v207h241zM166 1065h227l514 -649h8l-8 649h262v-1065h-223l-518 649h-10l10 -649h-262v1065z" />
    <glyph glyph-name="obreve.sc" unicode="&#xf691;" horiz-adv-x="1331" 
d="M666 868q-140 0 -228 -93t-88 -241t87 -243q87 -94 229 -94t228 93q87 93 87 241q0 149 -87 243t-228 94zM78 532q0 242 164 400t424 158t424 -158t164 -400t-164 -400q-162 -158 -423 -157q-261 -1 -425 157t-164 400zM666 1241q-127 0 -216 75t-102 236h146
q25 -162 172 -161q70 0 114 43t58 118h145q-12 -162 -101 -236t-216 -75z" />
    <glyph glyph-name="ohungarumlaut.sc" unicode="&#xf692;" horiz-adv-x="1331" 
d="M666 868q-140 0 -228 -93t-88 -241t87 -243q87 -94 229 -94t228 93q87 93 87 241q0 149 -87 243t-228 94zM78 532q0 242 164 400t424 158t424 -158t164 -400t-164 -400q-162 -158 -423 -157q-261 -1 -425 157t-164 400zM981 1565h279l-304 -336h-180zM575 1565h277
l-301 -336h-180z" />
    <glyph glyph-name="omacron.sc" unicode="&#xf693;" horiz-adv-x="1331" 
d="M666 868q-140 0 -228 -93t-88 -241t87 -243q87 -94 229 -94t228 93q87 93 87 241q0 149 -87 243t-228 94zM78 532q0 242 164 400t424 158t424 -158t164 -400t-164 -400q-162 -158 -423 -157q-261 -1 -425 157t-164 400zM356 1485h611v-176h-611v176z" />
    <glyph glyph-name="oslashacute.sc" unicode="&#xf694;" horiz-adv-x="1331" 
d="M666 197q141 1 228 93t87 226t-57 219l-420 -497q72 -41 162 -41zM666 868q-140 0 -228 -93t-88 -229t58 -220l421 497q-74 45 -163 45zM78 532q0 242 164 400t424 158q176 0 319 -82l70 82h170l-135 -160q164 -154 164 -397t-164 -401q-162 -158 -424 -157
q-174 0 -318 78l-65 -78h-172l133 156q-166 159 -166 401zM778 1565h279l-303 -336h-181z" />
    <glyph glyph-name="racute.sc" unicode="&#xf695;" horiz-adv-x="1230" 
d="M428 864v-299h250q82 0 124 41t42 111q0 71 -44 109t-122 38h-250zM166 1065h543q195 0 299 -91t104 -251q0 -119 -58 -205t-169 -125l276 -393h-289l-247 367h-197v-367h-262v1065zM705 1565h278l-303 -336h-180z" />
    <glyph glyph-name="rcaron.sc" unicode="&#xf696;" horiz-adv-x="1230" 
d="M428 864v-299h250q82 0 124 41t42 111q0 71 -44 109t-122 38h-250zM166 1065h543q195 0 299 -91t104 -251q0 -119 -58 -205t-169 -125l276 -393h-289l-247 367h-197v-367h-262v1065zM229 1565h217l146 -203l145 203h217l-262 -336h-200z" />
    <glyph glyph-name="rcommaaccent.sc" unicode="&#xf697;" horiz-adv-x="1230" 
d="M752 -125v-180l-103 -221h-108l71 194h-102v207h242zM428 864v-299h250q82 0 124 41t42 111q0 71 -44 109t-122 38h-250zM166 1065h543q195 0 299 -91t104 -251q0 -119 -58 -205t-169 -125l276 -393h-289l-247 367h-197v-367h-262v1065z" />
    <glyph glyph-name="sacute.sc" unicode="&#xf698;" horiz-adv-x="1134" 
d="M342 307q0 -71 58 -109t159 -38q217 0 217 139q0 51 -50 80t-125 37t-163 25t-163 43t-125 94t-50 170q0 152 124 246t339 96q215 0 331 -88t116 -236h-250q0 66 -54 102t-139 37q-201 0 -200 -131q0 -51 50 -82t126 -39q175 -18 327 -69q76 -26 126 -92t51 -166
q0 -164 -126 -257q-127 -93 -359 -93t-356 87q-124 88 -124 244h260zM680 1565h278l-303 -336h-180z" />
    <glyph glyph-name="scedilla.sc" unicode="&#xf699;" horiz-adv-x="1134" 
d="M82 307h260q0 -71 58 -109t159 -38q217 0 217 139q0 51 -50 80t-125 37t-163 25t-163 43t-125 94t-50 170q0 152 124 246t339 96q215 0 331 -88t116 -236h-250q0 66 -54 102t-139 37q-201 0 -200 -131q0 -51 50 -82t126 -39q175 -18 327 -69q76 -26 126 -92t51 -166
q0 -156 -115 -248t-330 -101v-55q90 -2 139 -51t49 -131t-60 -136t-179 -55h-137v127h108q96 0 96 72t-96 72h-67l55 157q-208 7 -318 95t-110 235z" />
    <glyph glyph-name="scircumflex.sc" unicode="&#xf69a;" horiz-adv-x="1134" 
d="M342 307q0 -71 58 -109t159 -38q217 0 217 139q0 51 -50 80t-125 37t-163 25t-163 43t-125 94t-50 170q0 152 124 246t339 96q215 0 331 -88t116 -236h-250q0 66 -54 102t-139 37q-201 0 -200 -131q0 -51 50 -82t126 -39q175 -18 327 -69q76 -26 126 -92t51 -166
q0 -164 -126 -257q-127 -93 -359 -93t-356 87q-124 88 -124 244h260zM467 1565h201l262 -336h-217l-146 203l-145 -203h-217z" />
    <glyph glyph-name="scommaaccent.sc" unicode="&#xf69b;" horiz-adv-x="1134" 
d="M680 -125v-180l-102 -221h-109l72 194h-103v207h242zM342 307q0 -71 58 -109t159 -38q217 0 217 139q0 51 -50 80t-125 37t-163 25t-163 43t-125 94t-50 170q0 152 124 246t339 96q215 0 331 -88t116 -236h-250q0 66 -54 102t-139 37q-201 0 -200 -131q0 -51 50 -82
t126 -39q175 -18 327 -69q76 -26 126 -92t51 -166q0 -164 -126 -257q-127 -93 -359 -93t-356 87q-124 88 -124 244h260z" />
    <glyph glyph-name="tbar.sc" unicode="&#xf69c;" horiz-adv-x="1101" 
d="M49 1065h1004v-215h-371v-324h285v-145h-285v-381h-262v381h-277v145h277v324h-371v215z" />
    <glyph glyph-name="tcaron.sc" unicode="&#xf69d;" horiz-adv-x="1101" 
d="M49 1065h1004v-215h-371v-850h-262v850h-371v215zM186 1565h217l146 -203l145 203h217l-262 -336h-200z" />
    <glyph glyph-name="ubreve.sc" unicode="&#xf69f;" horiz-adv-x="1269" 
d="M133 1065h262v-625q1 -115 61 -178t178 -63t179 63t61 178v625h263v-631q0 -459 -502 -459t-502 459v631zM635 1241q-127 0 -216 75t-102 236h146q25 -162 172 -161q70 0 115 43t57 118h145q-12 -162 -101 -236t-216 -75z" />
    <glyph glyph-name="uhungarumlaut.sc" unicode="&#xf6a0;" horiz-adv-x="1269" 
d="M133 1065h262v-625q1 -115 61 -178t178 -63t179 63t61 178v625h263v-631q0 -459 -502 -459t-502 459v631zM950 1565h279l-303 -336h-181zM545 1565h276l-301 -336h-180z" />
    <glyph glyph-name="umacron.sc" unicode="&#xf6a1;" horiz-adv-x="1269" 
d="M133 1065h262v-625q1 -115 61 -178t178 -63t179 63t61 178v625h263v-631q0 -459 -502 -459t-502 459v631zM326 1485h610v-176h-610v176z" />
    <glyph glyph-name="uogonek.sc" unicode="&#xf6a2;" horiz-adv-x="1269" 
d="M133 434v631h262v-625q1 -115 61 -178t178 -63t179 63t61 178v625h263v-631q0 -292 -222 -408t-223 -235q0 -92 105 -92h61v-150h-82q-262 0 -262 201q0 129 158 227l-39 -2q-238 1 -369 107t-131 352z" />
    <glyph glyph-name="uring.sc" unicode="&#xf6a3;" horiz-adv-x="1269" 
d="M133 1065h262v-625q1 -115 61 -178t178 -63t179 63t61 178v625h263v-631q0 -459 -502 -459t-502 459v631zM635 1311q41 -1 70 27t28 71q0 43 -28 72q-29 29 -70 29t-70 -30q-29 -28 -29 -71t29 -71q29 -27 70 -27zM635 1202q-91 0 -155 58t-64 150t63 150t155 58t156 -58
t64 -150t-64 -150t-155 -58z" />
    <glyph glyph-name="utilde.sc" unicode="&#xf6a4;" horiz-adv-x="1269" 
d="M133 1065h262v-625q1 -115 61 -178t178 -63t179 63t61 178v625h263v-631q0 -459 -502 -459t-502 459v631zM791 1432q70 0 77 98h125q-4 -121 -57 -189t-154 -67q-68 0 -168 46t-135 46q-70 0 -78 -98h-125q2 118 56 186t139 68q84 0 184 -45t136 -45z" />
    <glyph glyph-name="wacute.sc" unicode="&#xf6a5;" horiz-adv-x="1660" 
d="M25 1065h278l180 -793h9l225 793h239l228 -793h8l168 793h274l-274 -1065h-324l-198 723h-7l-202 -723h-328zM944 1565h279l-303 -336h-181z" />
    <glyph glyph-name="wcircumflex.sc" unicode="&#xf6a6;" horiz-adv-x="1660" 
d="M25 1065h278l180 -793h9l225 793h239l228 -793h8l168 793h274l-274 -1065h-324l-198 723h-7l-202 -723h-328zM731 1565h201l262 -336h-217l-146 203l-145 -203h-217z" />
    <glyph glyph-name="wdieresis.sc" unicode="&#xf6a7;" horiz-adv-x="1660" 
d="M25 1065h278l180 -793h9l225 793h239l228 -793h8l168 793h274l-274 -1065h-324l-198 723h-7l-202 -723h-328zM934 1526h242v-238h-242v238zM487 1526h240v-238h-240v238z" />
    <glyph glyph-name="wgrave.sc" unicode="&#xf6a8;" horiz-adv-x="1660" 
d="M25 1065h278l180 -793h9l225 793h239l228 -793h8l168 793h274l-274 -1065h-324l-198 723h-7l-202 -723h-328zM440 1565h277l207 -336h-181z" />
    <glyph glyph-name="ycircumflex.sc" unicode="&#xf6a9;" horiz-adv-x="1138" 
d="M698 0h-264v401l-426 664h299l262 -428h6l275 428h280l-432 -657v-408zM469 1565h201l262 -336h-217l-146 203l-145 -203h-217z" />
    <glyph glyph-name="ygrave.sc" unicode="&#xf6aa;" horiz-adv-x="1138" 
d="M698 0h-264v401l-426 664h299l262 -428h6l275 428h280l-432 -657v-408zM178 1565h277l207 -336h-181z" />
    <glyph glyph-name="zacute.sc" unicode="&#xf6ab;" horiz-adv-x="1081" 
d="M92 1065h907v-150l-561 -702h555v-213h-919v150l565 702h-547v213zM653 1565h279l-303 -336h-180z" />
    <glyph glyph-name="zdotaccent.sc" unicode="&#xf6ac;" horiz-adv-x="1081" 
d="M92 1065h907v-150l-561 -702h555v-213h-919v150l565 702h-547v213zM420 1526h242v-238h-242v238z" />
    <glyph glyph-name="i.sc.loclTRK" unicode="&#xf6ad;" horiz-adv-x="593" 
d="M166 1065h262v-1065h-262v1065zM174 1526h242v-238h-242v238z" />
    <glyph glyph-name="parenleft.cap" unicode="&#xf6ae;" horiz-adv-x="708" 
d="M154 705q0 241 83 457t203 374h240q-115 -164 -197 -382t-82 -449t82 -449t197 -383h-240q-121 158 -203 374q-83 216 -83 458z" />
    <glyph glyph-name="parenright.cap" unicode="&#xf6af;" horiz-adv-x="708" 
d="M307 704q0 232 -82 450t-196 382h239q121 -158 204 -374t83 -458t-83 -457q-83 -216 -204 -374h-239q115 164 196 382q82 217 82 449z" />
    <glyph glyph-name="bracketleft.cap" unicode="&#xf6b0;" horiz-adv-x="714" 
d="M154 1536h530v-205h-291v-1253h291v-205h-530v1663z" />
    <glyph glyph-name="bracketright.cap" unicode="&#xf6b1;" horiz-adv-x="714" 
d="M322 78v1253h-293v205h530v-1663h-530v205h293z" />
    <glyph glyph-name="braceleft.cap" unicode="&#xf6b2;" horiz-adv-x="786" 
d="M256 377q0 131 -47 183t-182 52v193q135 0 182 52t47 183v172q0 166 82 245t278 79h140v-201h-101q-92 0 -127 -36t-34 -128v-202q0 -101 -48 -163t-157 -93v-8q111 -31 157 -91t48 -161v-215q0 -92 34 -128t127 -36h101v-201h-140q-196 0 -278 79t-82 245v180z" />
    <glyph glyph-name="braceright.cap" unicode="&#xf6b3;" horiz-adv-x="786" 
d="M131 74q92 0 126 36t34 128v215q0 102 47 161t158 91v8q-111 31 -158 92t-47 164v202q0 92 -34 128t-126 36h-102v201h141q197 0 279 -79t81 -245v-172q0 -131 48 -183t182 -52v-193q-135 0 -182 -52t-48 -183v-180q0 -166 -82 -245t-278 -79h-141v201h102z" />
    <glyph glyph-name="exclamdown.cap" unicode="&#xf6b4;" horiz-adv-x="587" 
d="M438 0h-288v385l69 604h152l67 -604v-385zM158 1409h272v-270h-272v270z" />
    <glyph glyph-name="questiondown.cap" unicode="&#xf6b5;" horiz-adv-x="1058" 
d="M55 358q0 94 38 165t92 113q55 42 109 81q130 93 130 209v59h248v-49q0 -86 -26 -155t-66 -109q-86 -86 -173 -145q-88 -59 -88 -148q-1 -88 55 -139q56 -52 162 -52t162 68q57 68 58 170h252q0 -190 -122 -320t-348 -131q-226 1 -355 103q-128 102 -128 280zM412 1409
h272v-270h-272v270z" />
    <glyph glyph-name="guillemotleft.cap" unicode="&#xf6b6;" horiz-adv-x="1150" 
d="M545 713l291 417h215l-230 -417l230 -418h-215zM98 713l291 417h217l-231 -417l231 -418h-217z" />
    <glyph glyph-name="guillemotright.cap" unicode="&#xf6b7;" horiz-adv-x="1150" 
d="M774 713l-229 417h215l291 -417l-291 -418h-215zM330 713l-232 417h215l293 -417l-293 -418h-215z" />
    <glyph glyph-name="guilsinglleft.cap" unicode="&#xf6b8;" horiz-adv-x="708" 
d="M98 713l295 417h215l-229 -417l229 -418h-215z" />
    <glyph glyph-name="guilsinglright.cap" unicode="&#xf6b9;" horiz-adv-x="708" 
d="M330 713l-232 417h215l295 -417l-295 -418h-215z" />
    <glyph glyph-name="hyphen.cap" unicode="&#xf6ba;" horiz-adv-x="811" 
d="M109 825h593v-225h-593v225z" />
    <glyph glyph-name="endash.cap" unicode="&#xf6bb;" horiz-adv-x="1138" 
d="M109 825h921v-225h-921v225z" />
    <glyph glyph-name="emdash.cap" unicode="&#xf6bc;" horiz-adv-x="1720" 
d="M109 825h1503v-225h-1503v225z" />
    <glyph glyph-name="periodcentered.cap" unicode="&#xf6bd;" horiz-adv-x="577" 
d="M143 850h283v-275h-283v275z" />
    <glyph glyph-name="uniF6BE" unicode="&#xf6be;" horiz-adv-x="550" 
d="M143 999h265v-1112q0 -168 -79 -253t-272 -85h-84v205h54q63 0 90 36t26 116v1093z" />
    <glyph glyph-name="uni00200326" unicode="&#xf6c3;" horiz-adv-x="1200" 
d="M721 -125v-180l-103 -221h-108l72 194h-103v207h242z" />
    <glyph glyph-name="cent.inferior" unicode="&#xf6df;" 
d="M66 37q0 106 63 174t178 86v113h154v-113q101 -17 159 -73t64 -128h-201q-3 28 -29 50t-67 22q-115 0 -115 -131t115 -131q41 0 67 22t29 52h201q-6 -72 -63 -130t-160 -75v-103h-154v105q-115 18 -178 86t-63 174z" />
    <glyph glyph-name="cent.superior" unicode="&#xf6e0;" 
d="M66 1364q0 106 63 174t178 86v113h154v-113q101 -16 159 -72t64 -129h-201q-4 29 -29 51q-26 22 -67 21q-115 0 -115 -131t115 -131q41 -1 67 21t29 53h201q-6 -72 -63 -130t-160 -75v-103h-154v105q-115 18 -178 86t-63 174z" />
    <glyph glyph-name="comma.inferior" unicode="&#xf6e1;" horiz-adv-x="413" 
d="M106 -100h203v-203l-65 -252h-101l50 244h-87v211z" />
    <glyph glyph-name="comma.superior" unicode="&#xf6e2;" horiz-adv-x="413" 
d="M106 1227h203v-203l-65 -252h-101l50 244h-87v211z" />
    <glyph glyph-name="dollar.inferior" unicode="&#xf6e3;" 
d="M373 -201q53 1 86 21t33 57q0 74 -211 95q-80 8 -146 60q-65 52 -65 143t60 151t169 77v113h154v-113q98 -16 156 -71t65 -131h-195q-4 37 -33 57t-71 21q-109 0 -109 -75t212 -99q79 -9 146 -59t66 -144q0 -197 -237 -226v-127h-154v127q-115 14 -176 70t-66 148h189
q2 -43 38 -69t89 -26z" />
    <glyph glyph-name="dollar.superior" unicode="&#xf6e4;" 
d="M373 1126q53 0 86 20t33 58q0 74 -211 95q-80 9 -146 61q-65 52 -65 142q0 92 60 152t169 77v112h154v-112q98 -15 156 -71t65 -132h-195q-4 37 -33 57t-71 21q-109 0 -109 -76t212 -97q79 -9 146 -59t66 -145q0 -197 -237 -225v-127h-154v127q-115 14 -176 70t-66 147
h189q2 -43 38 -69t89 -26z" />
    <glyph glyph-name="hyphen.inferior" unicode="&#xf6e5;" horiz-adv-x="587" 
d="M70 127h448v-164h-448v164z" />
    <glyph glyph-name="hyphen.superior" unicode="&#xf6e6;" horiz-adv-x="587" 
d="M70 1454h448v-164h-448v164z" />
    <glyph glyph-name="period.inferior" unicode="&#xf6e7;" horiz-adv-x="413" 
d="M106 -100h203v-211h-203v211z" />
    <glyph glyph-name="period.superior" unicode="&#xf6e8;" horiz-adv-x="413" 
d="M106 1227h203v-211h-203v211z" />
    <glyph glyph-name="a.superior" unicode="&#xf6e9;" horiz-adv-x="829" 
d="M379 1141q63 0 106 38t43 117v54q-16 -23 -63 -29l-92 -12q-94 -10 -94 -84q0 -84 100 -84zM70 1198q0 188 237 217l131 17q55 8 73 20q17 12 17 49t-28 65q-29 28 -84 27q-117 0 -125 -108h-193q8 129 96 190t222 62q322 0 321 -269v-452h-200v84h-9q-63 -100 -221 -101
q-115 -1 -176 53t-61 146z" />
    <glyph glyph-name="b.superior" unicode="&#xf6ea;" horiz-adv-x="903" 
d="M305 1368q0 -94 44 -150t118 -56t117 58t43 152t-43 148t-117 55q-74 -1 -118 -57t-44 -150zM94 2073h211v-224q0 -123 -8 -233h6q63 123 236 123q127 0 215 -95q88 -94 88 -270t-93 -275t-240 -99t-206 120h-6v-104h-203v1057z" />
    <glyph glyph-name="d.superior" unicode="&#xf6eb;" horiz-adv-x="903" 
d="M438 1575q-74 1 -116 -57t-43 -153q0 -95 43 -149q42 -54 114 -55q72 0 116 51t48 138v18q0 94 -44 150t-118 57zM367 999q-129 -1 -217 95t-89 270q1 174 95 274t225 101q162 0 219 -123h6q-6 111 -6 244v213h209v-1057h-201v104h-8q-55 -121 -233 -121z" />
    <glyph glyph-name="e.superior" unicode="&#xf6ec;" horiz-adv-x="854" 
d="M430 1585q-123 0 -151 -135h296q-22 135 -145 135zM61 1366q1 168 103 269t268 101t263 -94q97 -96 98 -270v-49h-519q18 -170 170 -170q111 0 138 76h198q-18 -99 -108 -163t-250 -64t-260 98t-101 266z" />
    <glyph glyph-name="i.superior" unicode="&#xf6ed;" horiz-adv-x="391" 
d="M90 1720h209v-704h-209v704zM84 2073h223v-199h-223v199z" />
    <glyph glyph-name="l.superior" unicode="&#xf6ee;" horiz-adv-x="399" 
d="M94 2073h211v-1057h-211v1057z" />
    <glyph glyph-name="m.superior" unicode="&#xf6ef;" horiz-adv-x="1320" 
d="M94 1720h203v-102h6q59 121 220 121t220 -137q68 137 240 137q109 0 179 -66t71 -207v-450h-209v403q0 152 -115 152q-65 0 -103 -47t-38 -135v-373h-207v401q0 154 -119 154q-61 0 -99 -47t-38 -135v-373h-211v704z" />
    <glyph glyph-name="o.superior" unicode="&#xf6f0;" horiz-adv-x="882" 
d="M279 1368q0 -94 43 -150q44 -56 120 -56t120 56t44 151t-44 151t-121 55t-119 -57t-43 -150zM61 1367q-1 169 103 270t278 101t276 -100t103 -270q0 -170 -103 -269q-102 -99 -278 -99t-278 98q-102 100 -101 269z" />
    <glyph glyph-name="r.superior" unicode="&#xf6f1;" horiz-adv-x="600" 
d="M94 1720h205v-133h8q59 152 182 152q53 0 99 -33l-37 -188q-37 23 -88 22q-78 0 -117 -66t-39 -169v-289h-213v704z" />
    <glyph glyph-name="s.superior" unicode="&#xf6f2;" horiz-adv-x="790" 
d="M393 1133q131 0 131 75q0 37 -26 50q-27 13 -82 24l-109 18q-119 18 -178 66t-59 150q0 100 90 161t233 61t229 -58t93 -162h-193q-14 86 -131 86t-117 -70q0 -33 24 -46t83 -26l108 -20q123 -18 183 -62t61 -154q0 -108 -94 -167t-246 -59q-151 0 -239 58t-97 173h195
q10 -98 141 -98z" />
    <glyph glyph-name="t.superior" unicode="&#xf6f3;" horiz-adv-x="557" 
d="M145 1552h-129v168h129v213h209v-213h168v-168h-168v-258q0 -57 20 -80t75 -22h73v-176h-102q-156 0 -215 54t-60 196v286z" />
    <glyph glyph-name="lslash.sc" unicode="&#xf6f9;" horiz-adv-x="1007" 
d="M166 1065h262v-416l213 144l84 -123l-297 -199v-256h530v-215h-792v295l-107 -70l-86 123l193 127v590z" />
    <glyph glyph-name="oe.sc" unicode="&#xf6fa;" horiz-adv-x="1826" 
d="M678 856q-168 0 -248 -92t-80 -233q0 -142 80 -232t248 -90h172v647h-172zM647 0q-270 0 -420 146q-149 146 -149 384t150 386q151 148 421 149h1051v-201h-588v-229h477v-191h-477v-243h608v-201h-1073z" />
    <glyph glyph-name="scaron.sc" unicode="&#xf6fd;" horiz-adv-x="1134" 
d="M342 307q0 -71 58 -109t159 -38q217 0 217 139q0 51 -50 80t-125 37t-163 25t-163 43t-125 94t-50 170q0 152 124 246t339 96q215 0 331 -88t116 -236h-250q0 66 -54 102t-139 37q-201 0 -200 -131q0 -51 50 -82t126 -39q175 -18 327 -69q76 -26 126 -92t51 -166
q0 -164 -126 -257q-127 -93 -359 -93t-356 87q-124 88 -124 244h260zM205 1565h217l145 -203l146 203h217l-262 -336h-201z" />
    <glyph glyph-name="zcaron.sc" unicode="&#xf6ff;" horiz-adv-x="1081" 
d="M92 1065h907v-150l-561 -702h555v-213h-919v150l565 702h-547v213zM178 1565h217l146 -203l145 203h217l-262 -336h-201z" />
    <glyph glyph-name="exclam.sc" unicode="&#xf721;" horiz-adv-x="573" 
d="M158 244h258v-244h-258v244zM150 1065h274v-287l-62 -444h-151l-61 444v287z" />
    <glyph glyph-name="ampersand.sc" unicode="&#xf726;" horiz-adv-x="1245" 
d="M322 310q0 -76 62 -116t166 -40q103 0 187 43l-288 258q-127 -68 -127 -145zM438 808q0 -54 86 -146q80 36 121 70t41 83t-33 79t-90 30t-91 -31t-34 -85zM80 281q0 104 65 173q66 69 181 121q-109 119 -109 233t88 194t259 81q171 -1 254 -71t83 -180t-67 -173
q-68 -63 -187 -116l230 -209q39 74 38 174v24h213v-30q0 -172 -98 -307l213 -195h-287l-69 61q-141 -86 -355 -86q-214 1 -333 81t-119 225z" />
    <glyph glyph-name="zero.oldstyle" unicode="&#xf730;" horiz-adv-x="1249" 
d="M338 500q0 -148 82 -234t205 -86t205 86t81 235q0 149 -81 233q-80 84 -204 85q-124 0 -206 -86t-82 -233zM74 499q0 228 150 377q151 148 403 148t399 -147q148 -147 148 -377t-150 -376q-150 -148 -402 -148t-401 147q-147 148 -147 376z" />
    <glyph glyph-name="one.oldstyle" unicode="&#xf731;" horiz-adv-x="790" 
d="M627 999v-999h-262v678l-232 -158l-108 189l428 290h174z" />
    <glyph glyph-name="two.oldstyle" unicode="&#xf732;" horiz-adv-x="1071" 
d="M70 0q0 150 50 254t123 158t183 94l102 37q78 27 109 40t61 45t31 81q0 49 -43 88t-139 39q-199 0 -211 -193h-250q6 195 139 288t329 93t316 -86t119 -233q0 -112 -64 -189q-49 -59 -253 -135l-105 -37q-184 -68 -190 -147h604v-197h-911z" />
    <glyph glyph-name="three.oldstyle" unicode="&#xf733;" horiz-adv-x="1140" 
d="M299 16q0 -118 69 -184q68 -66 184 -66t186 62t69 162q0 100 -71 162t-183 61h-102v209h102q94 0 156 58q61 58 61 148t-60 142q-60 53 -158 53t-156 -56t-58 -161h-244q0 198 125 308t335 110t339 -104t129 -279q0 -102 -61 -192t-152 -121v-9q119 -29 193 -121t73 -218
q0 -193 -146 -304q-146 -110 -379 -110t-371 115t-138 335h258z" />
    <glyph glyph-name="four.oldstyle" unicode="&#xf734;" horiz-adv-x="1161" 
d="M678 164v475l-371 -475h371zM940 1014v-850h201v-213h-201v-361h-262v361h-641v168l686 895h217z" />
    <glyph glyph-name="five.oldstyle" unicode="&#xf735;" horiz-adv-x="1099" 
d="M558 -229q104 -1 176 69q71 70 71 188t-69 188t-171 71q-133 0 -223 -125l-231 20l49 817h825v-217h-594l-22 -374h8q83 84 255 84t304 -117t131 -338q0 -221 -144 -346q-143 -125 -365 -125t-351 108t-146 293h258q11 -80 73 -138t166 -58z" />
    <glyph glyph-name="six.oldstyle" unicode="&#xf736;" horiz-adv-x="1198" 
d="M620 696q-108 0 -175 -72t-67 -188t68 -186t176 -70t176 70t66 186q0 116 -67 189q-69 71 -177 71zM82 668q0 395 151 580q152 185 400 186q211 0 328 -104t135 -281h-256q-27 180 -207 180q-262 0 -279 -473q41 66 127 106t193 39q190 0 322 -120t132 -337t-146 -343
t-355 -126q-545 1 -545 693z" />
    <glyph glyph-name="seven.oldstyle" unicode="&#xf737;" horiz-adv-x="1001" 
d="M33 772v227h936v-161l-568 -1248h-270l555 1182h-653z" />
    <glyph glyph-name="eight.oldstyle" unicode="&#xf738;" horiz-adv-x="1175" 
d="M330 398q0 -99 70 -160q70 -62 188 -62t188 62t70 160q0 100 -73 162t-185 62t-186 -62q-72 -63 -72 -162zM588 831q96 -1 158 57t63 148q-1 90 -63 146t-158 55q-96 0 -158 -55q-62 -56 -63 -146q1 -90 63 -148t158 -57zM61 381q0 129 77 226t190 122v8q-92 29 -152 115
q-59 86 -59 195q0 176 130 281q130 106 341 106t341 -106t130 -281q-1 -105 -61 -193t-150 -117v-8q114 -25 190 -122t76 -226q0 -193 -143 -299t-383 -106t-384 106t-143 299z" />
    <glyph glyph-name="nine.oldstyle" unicode="&#xf739;" horiz-adv-x="1189" 
d="M570 303q108 0 174 73q66 72 67 186q0 114 -68 186q-67 72 -175 72t-176 -70t-66 -187q0 -117 68 -189t176 -71zM1108 336q0 -402 -148 -586t-401 -184q-211 0 -332 105t-133 280h256q10 -80 64 -130t145 -50q123 0 195 106t80 367q-39 -66 -125 -106t-193 -40
q-190 0 -322 120t-132 337t146 343t355 126q545 0 545 -688z" />
    <glyph glyph-name="question.sc" unicode="&#xf73f;" horiz-adv-x="976" 
d="M346 244h254v-244h-254v244zM354 367q0 97 49 165t109 97t109 67q49 39 49 89t-52 85t-138 35q-87 0 -136 -46t-49 -118h-240q0 150 109 249q108 100 314 100t325 -81t119 -212t-84 -195t-140 -95q-108 -58 -106 -134v-39h-238v33z" />
    <glyph glyph-name="a.sc" unicode="&#xf761;" horiz-adv-x="1167" 
d="M426 408h307l-147 417h-8zM430 1065h311l414 -1065h-278l-74 211h-449l-75 -211h-267z" />
    <glyph glyph-name="b.sc" unicode="&#xf762;" horiz-adv-x="1247" 
d="M428 455v-265h307q72 0 111 37t39 97t-40 96q-40 35 -110 35h-307zM428 874v-235h274q68 0 103 35t35 90q0 111 -138 110h-274zM166 1065h582q178 0 269 -73t91 -206q0 -78 -43 -136t-133 -81v-6q106 -16 166 -86t59 -166q0 -137 -98 -224t-275 -87h-618v1065z" />
    <glyph glyph-name="c.sc" unicode="&#xf763;" horiz-adv-x="1226" 
d="M78 534q0 246 155 401q156 155 416 155q205 0 342 -106t168 -282h-258q-53 166 -250 166q-139 0 -220 -92t-81 -244t81 -244t220 -91q188 0 250 165h258q-31 -174 -168 -280t-346 -107q-263 1 -415 157t-152 402z" />
    <glyph glyph-name="d.sc" unicode="&#xf764;" horiz-adv-x="1277" 
d="M428 856v-647h172q168 0 248 91t80 233q0 143 -80 233t-248 90h-172zM166 1065h465q268 0 418 -145q149 -146 149 -386t-150 -387t-419 -147h-463v1065z" />
    <glyph glyph-name="e.sc" unicode="&#xf765;" horiz-adv-x="1138" 
d="M166 1065h850v-201h-588v-229h475v-191h-475v-243h606v-201h-868v1065z" />
    <glyph glyph-name="f.sc" unicode="&#xf766;" horiz-adv-x="1077" 
d="M166 1065h829v-201h-567v-291h457v-194h-457v-379h-262v1065z" />
    <glyph glyph-name="g.sc" unicode="&#xf767;" horiz-adv-x="1333" 
d="M682 584h508v-584h-168l-21 111h-6q-115 -135 -336 -136q-261 0 -417 158q-156 159 -156 401t163 399t429 157q211 0 348 -102t164 -257h-264q-18 57 -83 99t-165 42q-144 0 -232 -94t-88 -247t86 -247t220 -96q134 0 210 58q78 58 82 153h-274v185z" />
    <glyph glyph-name="h.sc" unicode="&#xf768;" horiz-adv-x="1335" 
d="M166 1065h262v-420h479v420h262v-1065h-262v428h-479v-428h-262v1065z" />
    <glyph glyph-name="i.sc" unicode="&#xf769;" horiz-adv-x="593" 
d="M166 1065h262v-1065h-262v1065z" />
    <glyph glyph-name="j.sc" unicode="&#xf76a;" horiz-adv-x="991" 
d="M78 379h256v-55q0 -139 129 -140q61 0 96 36t35 108v737h262v-700q0 -197 -103 -293t-287 -96t-286 88q-102 90 -102 270v45z" />
    <glyph glyph-name="k.sc" unicode="&#xf76b;" horiz-adv-x="1228" 
d="M166 1065h262v-481l444 481h304l-441 -463l473 -602h-307l-336 426l-137 -145v-281h-262v1065z" />
    <glyph glyph-name="l.sc" unicode="&#xf76c;" horiz-adv-x="1007" 
d="M166 1065h262v-844h530v-221h-792v1065z" />
    <glyph glyph-name="m.sc" unicode="&#xf76d;" horiz-adv-x="1636" 
d="M166 1065h352l301 -721h4l307 721h343v-1065h-261l21 723h-8l-316 -723h-188l-309 723h-6l18 -723h-258v1065z" />
    <glyph glyph-name="n.sc" unicode="&#xf76e;" horiz-adv-x="1335" 
d="M166 1065h227l514 -649h8l-8 649h262v-1065h-223l-518 649h-10l10 -649h-262v1065z" />
    <glyph glyph-name="o.sc" unicode="&#xf76f;" horiz-adv-x="1331" 
d="M666 868q-140 0 -228 -93t-88 -241t87 -243q87 -94 229 -94t228 93q87 93 87 241q0 149 -87 243t-228 94zM78 532q0 242 164 400t424 158t424 -158t164 -400t-164 -400q-162 -158 -423 -157q-261 -1 -425 157t-164 400z" />
    <glyph glyph-name="p.sc" unicode="&#xf770;" horiz-adv-x="1189" 
d="M428 864v-334h242q84 0 129 45t45 121t-45 122t-129 46h-242zM166 1065h539q190 0 299 -100q108 -99 108 -265t-108 -268t-299 -102h-277v-330h-262v1065z" />
    <glyph glyph-name="q.sc" unicode="&#xf771;" horiz-adv-x="1331" 
d="M666 868q-140 0 -228 -93t-88 -241t87 -243q87 -94 229 -94t228 93q87 93 87 241q0 149 -87 243t-228 94zM78 532q0 242 164 400t424 158t424 -158t164 -400t-160 -395l202 -207l-161 -149l-230 235q-111 -41 -239 -41q-260 -1 -424 157t-164 400z" />
    <glyph glyph-name="r.sc" unicode="&#xf772;" horiz-adv-x="1230" 
d="M428 864v-299h250q82 0 124 41t42 111q0 71 -44 109t-122 38h-250zM166 1065h543q195 0 299 -91t104 -251q0 -119 -58 -205t-169 -125l276 -393h-289l-247 367h-197v-367h-262v1065z" />
    <glyph glyph-name="s.sc" unicode="&#xf773;" horiz-adv-x="1134" 
d="M342 307q0 -71 58 -109t159 -38q217 0 217 139q0 51 -50 80t-125 37t-163 25t-163 43t-125 94t-50 170q0 152 124 246t339 96q215 0 331 -88t116 -236h-250q0 66 -54 102t-139 37q-201 0 -200 -131q0 -51 50 -82t126 -39q175 -18 327 -69q76 -26 126 -92t51 -166
q0 -164 -126 -257q-127 -93 -359 -93t-356 87q-124 88 -124 244h260z" />
    <glyph glyph-name="t.sc" unicode="&#xf774;" horiz-adv-x="1101" 
d="M49 1065h1004v-215h-371v-850h-262v850h-371v215z" />
    <glyph glyph-name="u.sc" unicode="&#xf775;" horiz-adv-x="1269" 
d="M133 1065h262v-625q1 -115 61 -178t178 -63t179 63t61 178v625h263v-631q0 -459 -502 -459t-502 459v631z" />
    <glyph glyph-name="v.sc" unicode="&#xf776;" horiz-adv-x="1150" 
d="M12 1065h283l280 -825h9l290 825h265l-398 -1065h-331z" />
    <glyph glyph-name="w.sc" unicode="&#xf777;" horiz-adv-x="1660" 
d="M25 1065h278l180 -793h9l225 793h239l228 -793h8l168 793h274l-274 -1065h-324l-198 723h-7l-202 -723h-328z" />
    <glyph glyph-name="x.sc" unicode="&#xf778;" horiz-adv-x="1132" 
d="M412 545l-383 520h311l235 -338l226 338h299l-379 -518l399 -547h-299l-264 371l-254 -371h-291z" />
    <glyph glyph-name="y.sc" unicode="&#xf779;" horiz-adv-x="1138" 
d="M698 0h-264v401l-426 664h299l262 -428h6l275 428h280l-432 -657v-408z" />
    <glyph glyph-name="z.sc" unicode="&#xf77a;" horiz-adv-x="1081" 
d="M92 1065h907v-150l-561 -702h555v-213h-919v150l565 702h-547v213z" />
    <glyph glyph-name="exclamdown.sc" unicode="&#xf7a1;" horiz-adv-x="573" 
d="M424 0h-274v287l61 444h151l62 -444v-287zM158 1065h258v-244h-258v244z" />
    <glyph glyph-name="questiondown.sc" unicode="&#xf7bf;" horiz-adv-x="976" 
d="M623 698q1 -98 -49 -166t-109 -96t-109 -67q-49 -39 -49 -89t51 -85q50 -35 138 -35t137 46t49 118h240q0 -150 -109 -249t-315 -99t-324 80q-118 81 -119 225q1 88 53 150t113 91q166 79 166 170v39h236v-33zM631 821h-254v244h254v-244z" />
    <glyph glyph-name="agrave.sc" unicode="&#xf7e0;" horiz-adv-x="1167" 
d="M426 408h307l-147 417h-8zM430 1065h311l414 -1065h-278l-74 211h-449l-75 -211h-267zM193 1565h276l207 -336h-180z" />
    <glyph glyph-name="aacute.sc" unicode="&#xf7e1;" horiz-adv-x="1167" 
d="M426 408h307l-147 417h-8zM430 1065h311l414 -1065h-278l-74 211h-449l-75 -211h-267zM696 1565h279l-303 -336h-180z" />
    <glyph glyph-name="acircumflex.sc" unicode="&#xf7e2;" horiz-adv-x="1167" 
d="M426 408h307l-147 417h-8zM430 1065h311l414 -1065h-278l-74 211h-449l-75 -211h-267zM483 1565h201l262 -336h-217l-145 203l-146 -203h-217z" />
    <glyph glyph-name="atilde.sc" unicode="&#xf7e3;" horiz-adv-x="1167" 
d="M426 408h307l-147 417h-8zM430 1065h311l414 -1065h-278l-74 211h-449l-75 -211h-267zM739 1432q70 0 78 98h125q-4 -121 -57 -189t-154 -67q-68 0 -168 46t-135 46q-70 0 -78 -98h-125q3 118 57 186t138 68t184 -45t135 -45z" />
    <glyph glyph-name="adieresis.sc" unicode="&#xf7e4;" horiz-adv-x="1167" 
d="M426 408h307l-147 417h-8zM430 1065h311l414 -1065h-278l-74 211h-449l-75 -211h-267zM686 1526h242v-238h-242v238zM240 1526h239v-238h-239v238z" />
    <glyph glyph-name="aring.sc" unicode="&#xf7e5;" horiz-adv-x="1167" 
d="M426 408h307l-147 417h-8zM430 1065h311l414 -1065h-278l-74 211h-449l-75 -211h-267zM584 1311q42 -1 70 27t28 71t-29 72t-69 29t-70 -30q-29 -28 -29 -71t29 -71t70 -27zM584 1202q-92 0 -156 58t-63 150q0 92 63 150q64 58 156 58t155 -58t63 -150t-62 -150
q-64 -58 -156 -58z" />
    <glyph glyph-name="ae.sc" unicode="&#xf7e6;" horiz-adv-x="1861" 
d="M885 406v419h-8l-302 -419h310zM1735 1065v-201h-588v-229h477v-191h-477v-243h608v-201h-870v209h-451l-149 -209h-293l799 1065h944z" />
    <glyph glyph-name="ccedilla.sc" unicode="&#xf7e7;" horiz-adv-x="1226" 
d="M78 540q0 240 155 395q156 155 416 155q205 0 342 -106t168 -282h-258q-53 166 -250 166q-139 0 -220 -92t-81 -244t81 -244t220 -91q188 0 250 165h258q-29 -166 -153 -270t-318 -115v-55q90 -2 139 -51t49 -131t-60 -136t-179 -55h-137v127h108q96 0 97 74q0 70 -97 70
h-67l55 157q-242 16 -380 170q-138 153 -138 393z" />
    <glyph glyph-name="egrave.sc" unicode="&#xf7e8;" horiz-adv-x="1138" 
d="M166 1065h850v-201h-588v-229h475v-191h-475v-243h606v-201h-868v1065zM197 1565h276l207 -336h-180z" />
    <glyph glyph-name="eacute.sc" unicode="&#xf7e9;" horiz-adv-x="1138" 
d="M166 1065h850v-201h-588v-229h475v-191h-475v-243h606v-201h-868v1065zM700 1565h279l-303 -336h-180z" />
    <glyph glyph-name="ecircumflex.sc" unicode="&#xf7ea;" horiz-adv-x="1138" 
d="M166 1065h850v-201h-588v-229h475v-191h-475v-243h606v-201h-868v1065zM487 1565h201l262 -336h-217l-145 203l-146 -203h-217z" />
    <glyph glyph-name="edieresis.sc" unicode="&#xf7eb;" horiz-adv-x="1138" 
d="M166 1065h850v-201h-588v-229h475v-191h-475v-243h606v-201h-868v1065zM690 1526h242v-238h-242v238zM244 1526h239v-238h-239v238z" />
    <glyph glyph-name="igrave.sc" unicode="&#xf7ec;" horiz-adv-x="593" 
d="M166 1065h262v-1065h-262v1065zM-96 1565h276l207 -336h-180z" />
    <glyph glyph-name="iacute.sc" unicode="&#xf7ed;" horiz-adv-x="593" 
d="M166 1065h262v-1065h-262v1065zM408 1565h278l-303 -336h-180z" />
    <glyph glyph-name="icircumflex.sc" unicode="&#xf7ee;" horiz-adv-x="593" 
d="M166 1065h262v-1065h-262v1065zM195 1565h200l262 -336h-217l-145 203l-145 -203h-218z" />
    <glyph glyph-name="idieresis.sc" unicode="&#xf7ef;" horiz-adv-x="593" 
d="M166 1065h262v-1065h-262v1065zM397 1526h242v-238h-242v238zM-49 1526h239v-238h-239v238z" />
    <glyph glyph-name="eth.sc" unicode="&#xf7f0;" horiz-adv-x="1277" 
d="M428 856v-250h213v-147h-213v-250h172q168 0 248 91t80 233q0 143 -80 233t-248 90h-172zM8 606h158v459h465q268 0 418 -145q149 -146 149 -386t-150 -387t-419 -147h-463v459h-158v147z" />
    <glyph glyph-name="ntilde.sc" unicode="&#xf7f1;" horiz-adv-x="1335" 
d="M166 1065h227l514 -649h8l-8 649h262v-1065h-223l-518 649h-10l10 -649h-262v1065zM823 1432q70 0 78 98h125q-4 -121 -57 -189t-154 -67q-68 0 -168 46t-135 46q-70 0 -78 -98h-125q3 118 57 186t138 68t184 -45t135 -45z" />
    <glyph glyph-name="ograve.sc" unicode="&#xf7f2;" horiz-adv-x="1331" 
d="M666 868q-140 0 -228 -93t-88 -241t87 -243q87 -94 229 -94t228 93q87 93 87 241q0 149 -87 243t-228 94zM78 532q0 242 164 400t424 158t424 -158t164 -400t-164 -400q-162 -158 -423 -157q-261 -1 -425 157t-164 400zM274 1565h277l207 -336h-180z" />
    <glyph glyph-name="oacute.sc" unicode="&#xf7f3;" horiz-adv-x="1331" 
d="M666 868q-140 0 -228 -93t-88 -241t87 -243q87 -94 229 -94t228 93q87 93 87 241q0 149 -87 243t-228 94zM78 532q0 242 164 400t424 158t424 -158t164 -400t-164 -400q-162 -158 -423 -157q-261 -1 -425 157t-164 400zM778 1565h279l-303 -336h-181z" />
    <glyph glyph-name="ocircumflex.sc" unicode="&#xf7f4;" horiz-adv-x="1331" 
d="M666 868q-140 0 -228 -93t-88 -241t87 -243q87 -94 229 -94t228 93q87 93 87 241q0 149 -87 243t-228 94zM78 532q0 242 164 400t424 158t424 -158t164 -400t-164 -400q-162 -158 -423 -157q-261 -1 -425 157t-164 400zM565 1565h201l262 -336h-217l-145 203l-146 -203
h-217z" />
    <glyph glyph-name="otilde.sc" unicode="&#xf7f5;" horiz-adv-x="1331" 
d="M666 868q-140 0 -228 -93t-88 -241t87 -243q87 -94 229 -94t228 93q87 93 87 241q0 149 -87 243t-228 94zM78 532q0 242 164 400t424 158t424 -158t164 -400t-164 -400q-162 -158 -423 -157q-261 -1 -425 157t-164 400zM821 1432q70 0 78 98h125q-4 -121 -57 -189
t-154 -67q-68 0 -168 46t-135 46q-70 0 -78 -98h-125q3 118 57 186t138 68t184 -45t135 -45z" />
    <glyph glyph-name="odieresis.sc" unicode="&#xf7f6;" horiz-adv-x="1331" 
d="M666 868q-140 0 -228 -93t-88 -241t87 -243q87 -94 229 -94t228 93q87 93 87 241q0 149 -87 243t-228 94zM78 532q0 242 164 400t424 158t424 -158t164 -400t-164 -400q-162 -158 -423 -157q-261 -1 -425 157t-164 400zM768 1526h242v-238h-242v238zM322 1526h239v-238
h-239v238z" />
    <glyph glyph-name="oslash.sc" unicode="&#xf7f8;" horiz-adv-x="1331" 
d="M666 197q141 1 228 93t87 226t-57 219l-420 -497q72 -41 162 -41zM666 868q-140 0 -228 -93t-88 -229t58 -220l421 497q-74 45 -163 45zM78 532q0 242 164 400t424 158q176 0 319 -82l70 82h170l-135 -160q164 -154 164 -397t-164 -401q-162 -158 -424 -157
q-174 0 -318 78l-65 -78h-172l133 156q-166 159 -166 401z" />
    <glyph glyph-name="ugrave.sc" unicode="&#xf7f9;" horiz-adv-x="1269" 
d="M133 1065h262v-625q1 -115 61 -178t178 -63t179 63t61 178v625h263v-631q0 -459 -502 -459t-502 459v631zM244 1565h276l207 -336h-180z" />
    <glyph glyph-name="uacute.sc" unicode="&#xf7fa;" horiz-adv-x="1269" 
d="M133 1065h262v-625q1 -115 61 -178t178 -63t179 63t61 178v625h263v-631q0 -459 -502 -459t-502 459v631zM748 1565h278l-303 -336h-180z" />
    <glyph glyph-name="ucircumflex.sc" unicode="&#xf7fb;" horiz-adv-x="1269" 
d="M133 1065h262v-625q1 -115 61 -178t178 -63t179 63t61 178v625h263v-631q0 -459 -502 -459t-502 459v631zM535 1565h200l262 -336h-217l-145 203l-146 -203h-217z" />
    <glyph glyph-name="udieresis.sc" unicode="&#xf7fc;" horiz-adv-x="1269" 
d="M133 1065h262v-625q1 -115 61 -178t178 -63t179 63t61 178v625h263v-631q0 -459 -502 -459t-502 459v631zM737 1526h242v-238h-242v238zM291 1526h239v-238h-239v238z" />
    <glyph glyph-name="yacute.sc" unicode="&#xf7fd;" horiz-adv-x="1138" 
d="M698 0h-264v401l-426 664h299l262 -428h6l275 428h280l-432 -657v-408zM682 1565h279l-304 -336h-180z" />
    <glyph glyph-name="thorn.sc" unicode="&#xf7fe;" horiz-adv-x="1189" 
d="M428 711v-332h242q84 0 129 45t45 121t-45 121t-129 45h-242zM166 1065h262v-152h277q190 0 299 -100q108 -100 108 -265t-108 -267t-299 -103h-277v-178h-262v1065z" />
    <glyph glyph-name="ydieresis.sc" unicode="&#xf7ff;" horiz-adv-x="1138" 
d="M698 0h-264v401l-426 664h299l262 -428h6l275 428h280l-432 -657v-408zM672 1526h241v-238h-241v238zM225 1526h240v-238h-240v238z" />
    <glyph glyph-name="lcommaaccent.sc" horiz-adv-x="1007" 
d="M684 -125v-180l-102 -221h-109l72 194h-103v207h242zM166 1065h262v-844h530v-221h-792v1065z" />
    <glyph glyph-name="uni021B.sc" horiz-adv-x="1101" 
d="M420 0v850h-371v215h1004v-215h-371v-850h-84v-78q90 -2 139 -51t49 -131t-60 -136t-179 -55h-137v127h108q96 0 96 72t-96 72h-67l63 180h-94z" />
    <glyph glyph-name="at.sc" horiz-adv-x="1720" 
d="M709 221q1 -41 31 -67t90 -25q60 0 107 40q48 40 48 120v65q-23 -23 -74 -28l-102 -13q-100 -14 -100 -92zM479 197q0 203 264 233l140 16q59 6 81 18t22 54q0 41 -34 72q-33 31 -92 31q-123 0 -135 -117h-207q8 139 104 205q96 65 252 65t246 -74t90 -215v-227
q0 -141 109 -141q68 1 111 73t43 228q0 246 -169 391t-443 145q-273 0 -443 -169t-170 -425t164 -420t436 -163q209 0 317 100h195q-176 -233 -510 -233t-543 206t-209 512q0 308 213 518t550 210t549 -186t212 -486q0 -219 -100 -327t-258 -107q-193 0 -246 114
q-82 -119 -270 -118q-129 0 -199 60t-70 157z" />
    <glyph glyph-name="fi.sc" horiz-adv-x="1671" 
d="M1243 1065h262v-1065h-262v1065zM166 1065h829v-201h-567v-295h457v-194h-457v-375h-262v1065z" />
    <glyph glyph-name="fl.sc" horiz-adv-x="2084" 
d="M1243 1065h262v-844h531v-221h-793v1065zM166 1065h829v-201h-567v-295h457v-194h-457v-375h-262v1065z" />
    <glyph glyph-name="t_t" horiz-adv-x="1380" 
d="M821 803h-379v-443q0 -80 30 -114t101 -33h76v-213h-119q-194 0 -272 78t-78 266v459h-184v196h184v304h262v-304h379v304h262v-304h248v-196h-248v-443q0 -80 32 -114t104 -33h112v-213h-160q-195 0 -273 78t-77 266v459z" />
    <glyph glyph-name="t_f" horiz-adv-x="1327" 
d="M821 803h-377v-443q0 -84 24 -116t93 -31h82v-213h-125q-194 0 -266 77t-72 267v459h-184v196h184v304h264v-304h377v119q0 197 90 289t295 92h142v-205h-99q-90 0 -127 -40t-37 -130v-125h230v-196h-230v-803h-264v803z" />
    <glyph glyph-name="caronquoteleft" horiz-adv-x="1200" 
d="M721 1370v-207h-242v180l103 224h106l-70 -197h103z" />
    <glyph glyph-name="caronquoteright" horiz-adv-x="1200" 
d="M479 1360v207h242v-183l-103 -221h-108l72 197h-103z" />
    <glyph glyph-name="slashedzero" horiz-adv-x="1163" 
d="M582 193q244 0 243 512q0 184 -30 301l-353 -754q56 -59 140 -59zM338 705q0 -184 31 -304l352 754q-55 61 -139 62q-244 0 -244 -512zM582 -25q-262 0 -388 200t-126 530q0 329 126 529t388 200t388 -200t126 -530t-126 -529q-126 -200 -388 -200z" />
    <glyph glyph-name="zero.sc" horiz-adv-x="1032" 
d="M516 172q180 0 180 360t-180 361q-180 -1 -180 -361t180 -360zM516 -25q-229 0 -339 154q-109 153 -109 403t109 404q110 154 339 154t339 -154t110 -404t-110 -404t-339 -153z" />
    <glyph glyph-name="one.sc" horiz-adv-x="1032" 
d="M690 1065v-864h256v-201h-792v201h276v557l-213 -127l-100 176l407 258h166z" />
    <glyph glyph-name="two.sc" horiz-adv-x="1032" 
d="M676 762q0 57 -40 94t-116 37q-166 0 -172 -166h-244q8 186 126 274q118 89 296 89t290 -85t112 -217t-58 -208t-186 -144l-141 -76q-92 -53 -125 -85t-35 -74h545v-201h-836q6 207 72 321t211 189l143 74q86 45 122 83t36 95z" />
    <glyph glyph-name="three.sc" horiz-adv-x="1032" 
d="M324 324q0 -88 50 -131t134 -43t135 40t51 119q0 78 -51 119t-133 41h-80v166h82q70 0 113 40t43 103q0 64 -42 102t-115 38t-118 -39t-45 -109h-227q2 150 108 235q107 85 285 85t286 -80t107 -224q0 -80 -42 -140t-117 -87v-8q94 -29 147 -99t53 -165q0 -150 -124 -231
t-322 -81t-311 86q-112 86 -111 263h244z" />
    <glyph glyph-name="four.sc" horiz-adv-x="1032" 
d="M563 397v355l-270 -355h270zM819 1065v-668h150v-194h-150v-203h-256v203h-510v157l547 705h219z" />
    <glyph glyph-name="five.sc" horiz-adv-x="1032" 
d="M516 158q78 0 127 47t49 130t-48 129t-124 46q-109 0 -164 -94l-235 22l37 627h716v-205h-503l-17 -246h8q78 70 220 70t251 -85q107 -85 107 -259t-121 -269t-299 -96q-389 0 -432 312h252q20 -129 176 -129z" />
    <glyph glyph-name="six.sc" horiz-adv-x="1032" 
d="M532 506q-78 0 -124 -46t-48 -127q0 -81 48 -126t124 -45q78 0 125 46t47 127t-46 126q-48 45 -126 45zM545 907q-86 1 -138 -71t-61 -252q32 44 100 72t146 28q150 0 255 -85t105 -257t-121 -269t-294 -98q-453 0 -453 533q0 307 128 444q128 138 320 138t288 -83
q95 -83 112 -221h-240q-22 121 -147 121z" />
    <glyph glyph-name="seven.sc" horiz-adv-x="1032" 
d="M90 844v221h864v-145l-467 -920h-272l451 844h-576z" />
    <glyph glyph-name="eight.sc" horiz-adv-x="1032" 
d="M332 308q0 -75 51 -117q51 -41 133 -41t133 42t51 116q0 75 -52 118t-132 43t-132 -43t-52 -118zM356 778q0 -66 45 -104t115 -39q70 0 115 39q45 38 45 104t-45 105t-115 39t-115 -39t-45 -105zM117 786q0 141 109 223q110 81 290 81t290 -81t109 -223q0 -78 -42 -139
t-117 -88v-8q94 -29 147 -99t53 -165q0 -152 -120 -232t-320 -80t-320 80t-120 232q0 96 53 166t147 98v8q-76 27 -118 88t-41 139z" />
    <glyph glyph-name="nine.sc" horiz-adv-x="1032" 
d="M497 559q77 0 124 45t47 128t-47 127t-125 44t-123 -45t-45 -127t46 -127t123 -45zM492 158q86 0 135 70t57 253q-34 -45 -102 -73t-144 -27q-152 0 -257 85t-105 257t121 269t295 98q455 0 454 -533q0 -309 -125 -445t-317 -136t-292 82q-99 83 -116 221h240
q23 -121 156 -121z" />
    <glyph glyph-name="slashedzero.sc" horiz-adv-x="1032" 
d="M516 172q180 0 180 360q0 121 -18 201l-254 -530q37 -31 92 -31zM336 532q0 -121 18 -200l254 530q-37 31 -92 31q-180 -1 -180 -361zM516 -25q-229 0 -339 154q-109 153 -109 403t109 404q110 154 339 154t339 -154t110 -404t-110 -404t-339 -153z" />
    <glyph glyph-name="currency.sc" horiz-adv-x="1032" 
d="M516 354q76 0 123 48t47 130t-47 130t-123 49q-76 0 -123 -48q-47 -49 -47 -131t47 -130t123 -48zM168 533q0 93 55 178l-121 123l117 114l123 -125q78 45 173 45t173 -45l125 125l117 -114l-121 -123q55 -85 55 -179t-55 -180l123 -123l-117 -114l-127 127
q-74 -45 -171 -45t-175 45l-125 -127l-117 114l121 123q-53 88 -53 181z" />
    <glyph glyph-name="dollar.sc" horiz-adv-x="1032" 
d="M503 156q83 0 130 34t47 92t-37 86t-117 48l-137 33q-210 52 -270 178q-27 57 -27 133q0 127 85 214t235 107v181h192v-181q135 -20 217 -100t90 -195h-239q-10 60 -54 92t-112 32t-111 -32q-43 -30 -43 -83t35 -82t113 -47l135 -33q149 -37 227 -110t78 -208t-89 -223
t-247 -110v-187h-192v187q-162 18 -251 105t-93 224h243q1 -71 55 -113t137 -42z" />
    <glyph glyph-name="cent.sc" horiz-adv-x="1032" 
d="M96 538q0 161 96 267t261 131v154h190v-156q137 -23 218 -106t91 -187h-247q-11 45 -53 79t-122 34t-126 -60q-48 -60 -48 -157t48 -159t137 -63q127 0 164 119h243q-10 -108 -92 -192t-221 -109v-158h-191v160q-162 27 -255 135t-93 268z" />
    <glyph glyph-name="Euro.sc" horiz-adv-x="1032" 
d="M145 487v101h-96l27 98h82q29 184 137 292q109 108 290 108t275 -89q94 -88 119 -237h-231q-25 133 -148 133q-150 0 -180 -207h278l-28 -98h-260v-101h249l-26 -98h-215q31 -217 182 -217q111 0 143 127h236q-68 -319 -385 -319q-194 0 -302 110t-136 299h-133l28 98h94
z" />
    <glyph glyph-name="yen.sc" horiz-adv-x="1032" 
d="M166 455h213l-361 610h293l215 -389h4l220 389h264l-357 -610h215v-105h-223v-102h223v-107h-223v-141h-252v141h-231v107h231v102h-231v105z" />
    <glyph glyph-name="sterling.sc" horiz-adv-x="1032" 
d="M250 96q82 0 102 113q-49 33 -92 33t-63 -22q-21 -22 -21 -52t20 -52q20 -20 54 -20zM131 618h131q-47 94 -47 173q0 139 91 219t259 80q307 0 330 -287h-217q-10 113 -113 112q-51 1 -83 -29t-32 -96t54 -172h252v-129h-197q19 -71 19 -129t-27 -139q104 -72 158 -71
q78 0 79 122h191q-4 -145 -59 -221q-54 -76 -178 -76t-257 121q-88 -117 -229 -116q-102 0 -163 46q-60 46 -60 135t60 141t161 52q51 0 106 -22q-2 80 -36 157h-193v129z" />
    <glyph glyph-name="florin.sc" horiz-adv-x="1032" 
d="M127 522h205l30 260q18 166 102 237t234 71q148 0 228 -71t61 -206l-8 -61h-211l6 57q14 104 -69 104q-41 0 -60 -29q-18 -30 -27 -102l-30 -260h231v-141h-246l-47 -422q-18 -166 -102 -237q-84 -70 -234 -70t-229 70q-78 70 -59 204l8 62h211l-6 -58q-12 -102 69 -102
q41 0 60 30q18 30 26 101l47 422h-190v141z" />
    <glyph glyph-name="zero.TOSF" horiz-adv-x="1163" 
d="M332 500q0 -147 68 -234q69 -86 182 -86q114 0 182 87t68 236t-70 233q-68 84 -180 83q-112 0 -182 -86q-68 -86 -68 -233zM68 499q0 233 139 379t377 146t374 -145t138 -377q0 -232 -140 -380q-140 -146 -376 -146q-238 0 -375 145q-137 146 -137 378z" />
    <glyph glyph-name="one.TOSF" horiz-adv-x="1163" 
d="M750 999v-798h329v-201h-944v201h361v489l-254 -174l-105 176l445 307h168z" />
    <glyph glyph-name="two.TOSF" horiz-adv-x="1163" 
d="M96 0q0 217 96 333t269 173l112 37q139 47 176 77t37 84t-48 93t-151 39t-163 -50t-66 -143h-249q6 195 144 288t341 93t328 -84t125 -236t-111 -224q-59 -38 -98 -54t-123 -45l-113 -37q-193 -66 -199 -147h639v-197h-946z" />
    <glyph glyph-name="three.TOSF" horiz-adv-x="1163" 
d="M326 16q0 -123 66 -186t174 -63t174 58q66 57 65 161q0 104 -68 166t-172 61h-110v209h110q88 0 149 57q60 57 60 149t-59 143q-59 52 -151 52t-149 -55q-58 -55 -59 -162h-239q0 198 126 308q125 110 325 110t329 -104t129 -279q0 -100 -59 -189t-146 -124v-9
q113 -35 181 -128t69 -220q0 -190 -141 -298q-142 -107 -370 -107t-360 112t-132 338h258z" />
    <glyph glyph-name="four.TOSF" horiz-adv-x="1163" 
d="M672 164v481l-361 -481h361zM934 1014v-850h178v-213h-178v-361h-262v361h-621v168l660 895h223z" />
    <glyph glyph-name="five.TOSF" horiz-adv-x="1163" 
d="M590 -229q102 1 169 69t67 188t-66 190t-178 69q-112 0 -201 -127l-240 26l45 813h826v-217h-594l-23 -366h11q82 76 235 76q199 0 324 -120t125 -341t-142 -343t-359 -122q-218 0 -345 108t-144 293h258q14 -84 72 -140t160 -56z" />
    <glyph glyph-name="six.TOSF" horiz-adv-x="1163" 
d="M834 438q0 118 -65 188t-165 70t-167 -70t-67 -186t66 -188q64 -72 165 -72t167 70t66 188zM76 672q0 206 45 358t124 237q155 167 368 167t323 -102t129 -275h-256q-27 172 -191 172q-110 0 -184 -112t-86 -359q39 66 125 104t184 39q185 0 313 -120t128 -337t-144 -343
t-348 -126q-240 0 -385 166t-145 531z" />
    <glyph glyph-name="seven.TOSF" horiz-adv-x="1163" 
d="M92 772v227h995v-161l-567 -1248h-270l555 1182h-713z" />
    <glyph glyph-name="eight.TOSF" horiz-adv-x="1163" 
d="M338 396q0 -104 68 -162t176 -58t176 58t68 162t-69 165t-175 61t-175 -61q-69 -62 -69 -165zM582 831q92 1 152 57t60 148t-60 146t-152 55q-92 0 -152 -54q-60 -55 -61 -147q1 -92 61 -148t152 -57zM72 381q0 127 68 220q69 93 182 128v8q-88 31 -147 119
q-58 88 -58 191q0 176 129 281q129 106 336 106t336 -106t129 -281q-1 -103 -59 -191t-146 -119v-8q114 -35 182 -128t68 -220q0 -193 -140 -299t-370 -106t-370 106t-140 299z" />
    <glyph glyph-name="nine.TOSF" horiz-adv-x="1163" 
d="M555 303q100 0 167 73q66 72 66 186t-64 186q-65 72 -165 72t-167 -70q-66 -70 -66 -188t64 -188t165 -71zM1083 328q0 -762 -534 -762q-207 0 -319 101t-134 276h254q27 -172 203 -172q119 -1 185 109t73 362q-39 -66 -125 -105t-180 -39q-186 0 -315 120
q-128 120 -128 337q-1 217 143 343t347 126q240 0 385 -166t145 -530z" />
    <glyph glyph-name="slashedzero.TOSF" horiz-adv-x="1163" 
d="M582 180q113 0 181 88t68 210q0 124 -36 204l-342 -465q55 -37 129 -37zM582 819q-114 0 -182 -86t-68 -214t37 -202l342 465q-55 37 -129 37zM68 499q0 233 139 379t377 146t374 -145t138 -377q0 -232 -140 -380q-140 -146 -376 -146q-238 0 -375 145q-137 146 -137 378
z" />
    <glyph glyph-name="zero.PPF" horiz-adv-x="1239" 
d="M621 193q131 0 199 131t67 381q0 512 -266 512t-266 -512t266 -512zM621 -25q-139 1 -245 57q-194 103 -263 388q-31 129 -31 285q0 311 124 515q130 214 437 214q162 0 286 -100q228 -185 228 -629q0 -209 -52 -369t-176 -260t-308 -101z" />
    <glyph glyph-name="one.PPF" horiz-adv-x="786" 
d="M627 1409v-1409h-262v1087l-232 -157l-108 188l430 291h172z" />
    <glyph glyph-name="two.PPF" horiz-adv-x="1126" 
d="M776 1030q0 76 -50 133t-157 58q-223 0 -235 -242h-254q8 239 144 347t349 108t341 -108t128 -282t-76 -272t-235 -197l-153 -98q-115 -76 -155 -134t-46 -130h672v-213h-979q8 242 84 385t247 256l156 98q82 53 120 83q99 78 99 208z" />
    <glyph glyph-name="three.PPF" horiz-adv-x="1163" 
d="M317 426q0 -118 69 -184q68 -66 184 -66t186 62t69 161q0 100 -70 162q-71 61 -184 62h-102v208h102q93 1 155 59t62 147t-60 143t-158 53q-98 0 -156 -56q-59 -56 -60 -161h-241q0 198 125 308q124 110 334 110t338 -104t128 -279q0 -103 -60 -193t-151 -121v-8
q117 -29 191 -122t74 -218q0 -193 -146 -303t-378 -111q-232 0 -370 115t-139 336h258z" />
    <glyph glyph-name="four.PPF" horiz-adv-x="1179" 
d="M674 520v506l-375 -506h375zM936 1409v-889h201v-213h-201v-307h-262v307h-641v168l684 934h219z" />
    <glyph glyph-name="five.PPF" horiz-adv-x="1136" 
d="M805 438q0 118 -69 188q-69 71 -171 70q-133 0 -223 -125l-231 21l49 817h825v-217h-594l-22 -375h8q83 84 255 84t304 -117q132 -118 131 -338q0 -220 -144 -346q-143 -126 -365 -125q-222 0 -351 108t-146 294h258q11 -80 73 -138q62 -59 166 -59t176 70q71 70 71 188z
" />
    <glyph glyph-name="six.PPF" horiz-adv-x="1198" 
d="M620 696q-108 0 -175 -72t-67 -188t68 -186t176 -70t176 70t66 186q0 116 -67 189q-69 71 -177 71zM82 668q0 395 151 580q152 185 400 186q211 0 328 -104t135 -281h-256q-27 180 -207 180q-262 0 -279 -473q41 66 127 106t193 39q190 0 322 -120t132 -337t-146 -343
t-355 -126q-545 1 -545 693z" />
    <glyph glyph-name="seven.PPF" horiz-adv-x="1001" 
d="M37 1182v227h938v-162l-569 -1247h-271l555 1182h-653z" />
    <glyph glyph-name="eight.PPF" horiz-adv-x="1183" 
d="M334 398q0 -99 70 -160q70 -62 188 -62t188 62t70 160q0 100 -73 162t-185 62t-186 -62q-72 -63 -72 -162zM592 831q96 -1 158 57t63 148q0 90 -62 146q-63 56 -159 55q-96 0 -158 -55q-62 -56 -63 -146q1 -90 63 -148t158 -57zM68 381q0 129 75 226q76 97 189 122v8
q-92 29 -152 115q-59 86 -59 195q0 176 130 281q130 106 341 106t342 -106t131 -281q0 -107 -60 -195t-153 -115v-8q114 -25 190 -122t76 -226q0 -193 -143 -299t-383 -106t-382 106t-142 299z" />
    <glyph glyph-name="nine.PPF" horiz-adv-x="1198" 
d="M570 713q108 1 174 73t67 186q0 114 -68 186q-67 72 -175 71q-108 0 -176 -70q-68 -71 -66 -187q0 -116 68 -188q68 -71 176 -71zM1108 745q0 -403 -148 -586t-401 -184q-211 -1 -332 105t-133 280h256q10 -80 64 -130t145 -50q123 0 195 106t80 367q-39 -65 -125 -105
t-193 -40q-190 0 -322 120t-132 337t146 343t355 126q545 -1 545 -689z" />
    <glyph glyph-name="slashedzero.PPF" horiz-adv-x="1239" 
d="M621 193q131 0 199 131q68 130 67 356q0 226 -43 348l-367 -782q56 -53 144 -53zM354 705q0 -203 43 -326l365 784q-59 53 -141 54q-267 0 -267 -512zM621 -25q-139 1 -245 57q-194 103 -263 388q-31 129 -31 285q0 311 124 515q130 214 437 214q162 0 286 -100
q228 -185 228 -629q0 -209 -52 -369t-176 -260t-308 -101z" />
    <glyph glyph-name="currency.PPF" horiz-adv-x="997" 
d="M330 705q0 -83 47 -131t122 -48t123 48t48 130t-48 131q-48 48 -123 48t-122 -48t-47 -130zM152 706q0 94 55 177l-121 123l117 114l123 -125q78 45 173 45t173 -45l123 125l116 -114l-118 -123q55 -88 55 -177t-55 -182l122 -123l-116 -114l-127 127q-78 -45 -173 -45
t-173 45l-127 -127l-117 114l123 123q-53 88 -53 182z" />
    <glyph glyph-name="dollar.PPF" horiz-adv-x="1136" 
d="M564 176q108 0 171 52t63 142t-54 133q-56 42 -166 75l-166 49q-330 100 -330 395q0 158 101 266t270 135v224h211v-224q156 -27 256 -126t110 -248h-260q-12 90 -70 135t-145 45q-86 0 -145 -44q-60 -44 -60 -129t46 -125t153 -73l166 -51q352 -104 352 -395
q0 -176 -109 -290t-294 -138v-230h-211v230q-184 25 -289 134q-104 110 -111 283h260q6 -109 74 -167q69 -58 177 -58z" />
    <glyph glyph-name="cent.PPF" horiz-adv-x="1136" 
d="M498 1434h211v-205q162 -27 256 -126t108 -239h-258q-12 74 -66 123t-158 49q-105 0 -173 -90t-68 -233t69 -233t172 -91q103 0 157 48q53 48 67 124h258q-14 -143 -109 -243t-264 -123v-220h-211v222q-195 31 -303 165t-108 348q0 212 115 350t305 169v205z" />
    <glyph glyph-name="Euro.PPF" horiz-adv-x="1286" 
d="M764 1227q-106 0 -179 -78t-104 -227h369l-41 -138h-346q-2 -26 -2 -76t2 -73h338l-41 -139h-283q29 -154 102 -234t181 -80q190 0 244 170h249q-41 -176 -163 -276t-344 -100t-360 138q-138 140 -181 382h-180l41 139h124q-2 23 -2 73t2 76h-129l41 138h105
q45 236 186 374t363 138t346 -106q125 -106 158 -294h-248q-53 193 -248 193z" />
    <glyph glyph-name="yen.PPF" horiz-adv-x="1142" 
d="M991 614v-137h-289v-133h289v-137h-289v-207h-262v207h-288v137h288v133h-288v137h286l-452 795h301l286 -539h9l292 539h283l-450 -795h284z" />
    <glyph glyph-name="sterling.PPF" horiz-adv-x="1185" 
d="M229 104q86 0 119 142q-68 37 -112 37t-70 -27q-26 -26 -25 -64t23 -63t65 -25zM111 803h159q-53 152 -53 262q0 166 113 267q113 102 300 102q188 0 294 -94t114 -267h-239q-16 176 -164 176q-68 0 -113 -45t-45 -136t64 -265h329v-152h-280q48 -165 -6 -366
q122 -73 172 -93q51 -20 84 -20q119 0 121 164h200q-10 -360 -309 -361q-137 0 -342 156q-104 -156 -279 -156q-111 -1 -179 55t-68 159t69 167q70 63 183 64q55 0 129 -25v45q0 82 -39 211h-215v152z" />
    <glyph glyph-name="florin.PPF" horiz-adv-x="1071" 
d="M86 733h258l35 330q39 371 393 371q164 0 248 -85t67 -266l-6 -65h-223l6 63q16 160 -96 160q-106 0 -125 -178l-35 -330h293v-166h-309l-60 -590q-37 -371 -393 -370q-164 0 -248 85t-67 265l6 66h221l-4 -64q-10 -160 96 -160t125 178l60 590h-242v166z" />
    <glyph glyph-name="zero.scppf" horiz-adv-x="1110" 
d="M555 172q98 0 150 93q51 93 51 267q0 360 -201 361q-201 -1 -201 -361t201 -360zM555 -25q-241 0 -355 156q-114 155 -114 401t115 402t355 156t354 -156t114 -402t-114 -402t-355 -155z" />
    <glyph glyph-name="one.scppf" horiz-adv-x="727" 
d="M561 1065v-1065h-258v760l-182 -111l-101 176l377 240h164z" />
    <glyph glyph-name="two.scppf" horiz-adv-x="1017" 
d="M680 763q0 56 -43 93t-123 37q-174 0 -184 -166h-244q8 186 129 274q121 89 305 89t298 -85t114 -231q0 -114 -62 -192t-192 -146l-143 -76q-92 -53 -126 -85t-36 -74h561v-201h-860q6 204 77 318t218 192l143 74q90 47 129 85t39 94z" />
    <glyph glyph-name="three.scppf" horiz-adv-x="1007" 
d="M297 324q0 -88 53 -131q54 -43 144 -43t143 40t53 119q0 78 -54 119t-142 41h-78v166h82q74 0 120 40t46 103q0 64 -46 102t-122 38q-78 0 -126 -39t-48 -109h-228q2 150 112 235t294 85t294 -79t109 -225q0 -80 -42 -140t-118 -87v-8q94 -29 148 -98q53 -70 53 -166
q0 -150 -126 -231t-331 -81t-319 86t-115 263h244z" />
    <glyph glyph-name="four.scppf" horiz-adv-x="1024" 
d="M565 397v361l-282 -361h282zM821 1065v-668h154v-194h-154v-203h-256v203h-524v157l561 705h219z" />
    <glyph glyph-name="five.scppf" horiz-adv-x="1011" 
d="M514 158q80 0 133 47t53 130t-52 129t-130 46q-113 0 -176 -94l-233 22l34 627h742v-205h-529l-16 -246h8q82 70 232 70t260 -85t110 -259t-124 -269t-308 -96q-399 0 -442 312h254q12 -57 58 -93t126 -36z" />
    <glyph glyph-name="six.scppf" horiz-adv-x="1056" 
d="M552 506q-83 0 -135 -46t-52 -127t52 -126t135 -45t135 46t52 127t-52 126t-135 45zM563 907q-94 -1 -149 -71t-66 -252q33 44 107 72t155 28q160 0 269 -85t109 -257t-127 -269q-126 -97 -306 -98q-469 0 -469 533q0 309 132 445q132 137 332 137t300 -83t117 -221h-242
q-23 121 -162 121z" />
    <glyph glyph-name="seven.scppf" horiz-adv-x="901" 
d="M45 844v221h819v-145l-465 -920h-268l447 844h-533z" />
    <glyph glyph-name="eight.scppf" horiz-adv-x="1036" 
d="M322 308q0 -75 54 -117q54 -41 142 -41t142 42t54 116q0 75 -54 118q-56 43 -142 43t-141 -43t-55 -118zM346 778q0 -66 48 -104t124 -39q76 0 123 38q47 39 47 105t-47 105t-123 39t-124 -39t-48 -105zM66 287q0 96 54 165t148 99v8q-76 25 -118 86t-41 141
q0 141 111 223q112 81 297 81t298 -81t113 -223q0 -78 -42 -139t-118 -88v-8q94 -29 147 -99t54 -165q0 -152 -122 -232t-329 -80t-330 80q-122 80 -122 232z" />
    <glyph glyph-name="nine.scppf" horiz-adv-x="1060" 
d="M510 559q82 0 135 46t53 127t-53 126t-135 45t-134 -46t-52 -127t52 -126t134 -45zM516 158q84 0 136 70t61 253q-31 -45 -105 -73t-155 -27q-160 0 -269 85q-108 85 -108 257t125 269t305 98q469 0 469 -533q0 -309 -128 -445q-129 -136 -329 -136t-304 82
q-103 83 -120 221h242q10 -51 53 -86t127 -35z" />
    <glyph glyph-name="slashedzero.scppf" horiz-adv-x="1110" 
d="M555 172q98 0 150 93q51 93 51 247t-31 242l-264 -555q39 -27 94 -27zM354 532q0 -131 29 -221l264 555q-43 27 -92 27q-201 -1 -201 -361zM555 -25q-241 0 -355 156q-114 155 -114 401t115 402t355 156t354 -156t114 -402t-114 -402t-355 -155z" />
    <glyph glyph-name="currency.scppf" horiz-adv-x="989" 
d="M495 354q75 0 123 48t48 130t-48 130t-124 49q-74 0 -122 -48q-48 -49 -48 -131t48 -130t123 -48zM494 868q94 0 174 -45l123 125l116 -114l-121 -123q56 -83 56 -177t-54 -182l123 -123l-116 -114l-127 127q-78 -45 -175 -45t-171 45l-127 -127l-117 114l123 123
q-53 84 -53 179t55 180l-121 123l117 114l120 -125q81 45 175 45z" />
    <glyph glyph-name="dollar.scppf" horiz-adv-x="1017" 
d="M508 156q86 0 135 34t49 94t-37 87t-125 49l-135 35q-213 49 -275 173q-28 56 -28 132q0 127 85 214t239 107v181h194v-181q137 -20 221 -100t93 -195h-240q-10 60 -56 92t-118 32t-116 -32q-44 -30 -44 -84t35 -81t119 -47l137 -33q151 -37 231 -110t80 -208t-90 -223
t-252 -110v-187h-194v187q-160 20 -251 107t-95 222h241q3 -71 57 -113t140 -42z" />
    <glyph glyph-name="cent.scppf" horiz-adv-x="991" 
d="M430 1090h188v-156q144 -23 228 -105t94 -188h-248q-10 45 -54 79t-130 34t-136 -60t-50 -157t51 -159t135 -62t128 35q44 36 56 83h244q-10 -110 -96 -194t-230 -107v-158h-188v160q-168 27 -264 135t-96 268q0 161 98 267q100 106 270 131v154z" />
    <glyph glyph-name="Euro.scppf" horiz-adv-x="1091" 
d="M141 487v45q0 37 2 56h-106l29 98h90q35 182 153 291q119 109 313 109t298 -90q106 -89 131 -236h-232q-10 61 -57 97t-123 36q-172 0 -215 -207h274l-28 -98h-260v-101h249l-26 -98h-213q39 -217 219 -217q143 0 176 127h236q-31 -145 -137 -232t-296 -87
q-192 0 -312 110t-152 299h-142l27 98h102z" />
    <glyph glyph-name="yen.scppf" horiz-adv-x="954" 
d="M831 455v-105h-223v-102h223v-107h-223v-141h-252v141h-229v107h229v102h-229v105h211l-367 610h293l221 -389h7l227 389h264l-365 -610h213z" />
    <glyph glyph-name="sterling.scppf" horiz-adv-x="1028" 
d="M244 96q84 0 104 115q-51 31 -93 31t-62 -22q-21 -22 -21 -52t20 -52q20 -20 52 -20zM135 618h117q-43 90 -43 164q0 144 96 226t263 82t254 -77t98 -216h-215q-12 119 -130 118q-59 -1 -94 -33t-35 -94t54 -170h258v-129h-203q18 -71 18 -129t-22 -133q125 -78 176 -77
q86 0 88 122h189q-6 -297 -256 -297q-121 0 -265 123q-88 -119 -231 -118q-102 0 -163 46q-60 46 -60 135t60 141t161 52q49 0 106 -20q-2 68 -43 155h-178v129z" />
    <glyph glyph-name="florin.scppf" horiz-adv-x="952" 
d="M94 522h207l29 260q18 164 105 236t237 72t226 -71q77 -71 63 -206l-7 -61h-211l7 57q6 47 -14 76t-60 29q-41 0 -62 -31q-20 -31 -28 -101l-31 -260h233v-141h-247l-47 -422q-18 -163 -106 -235t-236 -72q-150 0 -227 70t-62 204l6 62h211l-6 -58q-10 -102 73 -102
q78 0 93 131l45 422h-191v141z" />
    <glyph glyph-name="slashedzero.oldstyle" horiz-adv-x="1249" 
d="M625 180q123 0 205 86t81 219q0 132 -57 220l-362 -494q59 -31 133 -31zM338 512q0 -135 57 -217l363 493q-61 31 -133 31q-123 0 -205 -86t-82 -221zM74 499q0 228 150 377q151 148 403 148t399 -147q148 -147 148 -377t-150 -376q-150 -148 -402 -148t-401 147
q-147 148 -147 376z" />
    <glyph glyph-name="plus.sc" horiz-adv-x="1032" 
d="M127 637h285v293h209v-293h284v-201h-284v-289h-209v289h-285v201z" />
    <glyph glyph-name="minus.sc" horiz-adv-x="1032" 
d="M127 637h778v-201h-778v201z" />
    <glyph glyph-name="multiply.sc" horiz-adv-x="1032" 
d="M143 301l230 234l-238 241l141 142l238 -242l238 242l139 -142l-238 -241l232 -234l-142 -141l-231 233l-227 -233z" />
    <glyph glyph-name="divide.sc" horiz-adv-x="1032" 
d="M408 307h217v-211h-217v211zM127 637h778v-201h-778v201zM408 969h217v-207h-217v207z" />
    <glyph glyph-name="equal.sc" horiz-adv-x="1032" 
d="M127 451h778v-201h-778v201zM127 821h778v-203h-778v203z" />
    <glyph glyph-name="less.sc" horiz-adv-x="1032" 
d="M885 125l-738 307v213l738 309v-217l-508 -198l508 -199v-215z" />
    <glyph glyph-name="greater.sc" horiz-adv-x="1032" 
d="M147 954l738 -309v-213l-738 -307v215l508 199l-508 198v217z" />
    <glyph glyph-name="plusminus.sc" horiz-adv-x="1032" 
d="M164 188h700v-188h-700v188zM164 711h252v235h196v-235h252v-189h-252v-235h-196v235h-252v189z" />
    <glyph glyph-name="lessequal.sc" horiz-adv-x="1032" 
d="M164 188h700v-188h-700v188zM401 612l463 -143v-201l-700 244v203l700 243v-200z" />
    <glyph glyph-name="greaterequal.sc" horiz-adv-x="1032" 
d="M868 188v-188h-700v188h700zM168 958l700 -243v-203l-700 -244v201l463 143l-463 146v200z" />
    <glyph glyph-name="notequal.sc" horiz-adv-x="1032" 
d="M127 821h455l108 197l137 -74l-67 -123h145v-203h-256l-92 -167h348v-201h-456l-109 -199l-139 74l67 125h-141v201h252l92 167h-344v203z" />
    <glyph glyph-name="logicalnot.sc" horiz-adv-x="1032" 
d="M127 637h778v-490h-209v289h-569v201z" />
    <glyph glyph-name="asciitilde.sc" horiz-adv-x="1032" 
d="M334 707q94 1 198 -55t142 -56q78 0 78 115h184q-2 -164 -69 -239t-157 -75q-90 1 -198 57t-145 56q-78 0 -78 -121h-187q2 164 70 241t162 77z" />
    <glyph glyph-name="approxequal.sc" horiz-adv-x="1032" 
d="M334 492q94 0 198 -56t142 -55q78 0 78 115h184q-2 -164 -69 -238t-157 -74t-198 56t-145 55q-78 0 -78 -119h-187q2 162 70 239t162 77zM334 887q94 -1 198 -57t142 -56q78 0 78 115h184q-2 -162 -69 -237q-123 -138 -354 -19q-108 55 -146 55q-78 0 -78 -119h-187
q2 164 70 241t162 77z" />
    <glyph glyph-name="infinity.sc" horiz-adv-x="1236" 
d="M1016 532q0 54 -34 88t-87 33q-92 0 -168 -121q76 -121 168 -120q53 0 87 32t34 88zM344 412q90 0 166 120q-76 121 -166 121q-53 -1 -87 -33t-34 -88t34 -88t87 -32zM340 250q-129 0 -208 77t-79 205t79 206q79 77 208 77q162 0 278 -160q121 160 279 160q129 0 208 -77
t79 -206q0 -130 -79 -206t-208 -76q-160 0 -279 158q-114 -158 -278 -158z" />
    <glyph glyph-name="numbersign.sc" horiz-adv-x="1099" 
d="M408 399h256l49 275h-256zM94 840h201l41 225h190l-41 -225h256l41 225h189l-41 -225h153v-166h-182l-49 -275h174v-163h-203l-41 -236h-188l41 236h-256l-41 -236h-191l41 236h-149v163h178l49 275h-172v166z" />
    <glyph glyph-name="percent.sc" horiz-adv-x="1255" 
d="M973 111q92 -1 92 155t-92 156t-92 -156t92 -155zM973 -12q-123 0 -187 75q-63 76 -63 203t63 203q62 76 186 76t186 -75t62 -204q0 -130 -62 -204t-185 -74zM193 798q0 -156 91 -155q91 0 91 156t-90 155q-92 0 -92 -156zM285 520q-123 0 -187 76q-63 76 -63 203t63 203
q62 76 186 75q124 0 186 -75q62 -76 62 -204t-62 -203t-185 -75zM870 1083h129l-610 -1101h-131z" />
    <glyph glyph-name="perthousand.sc" horiz-adv-x="1851" 
d="M1567 111q92 -1 92 155t-92 156t-92 -156t92 -155zM973 111q92 -1 92 155t-92 156t-92 -156t92 -155zM1568 -12q-124 0 -187 75q-62 76 -62 203t62 203q63 76 187 76t186 -75t62 -204q0 -130 -62 -204t-186 -74zM973 -12q-123 0 -187 75q-63 76 -63 203t63 203
q62 76 186 76t186 -75t62 -204q0 -130 -62 -204t-185 -74zM193 798q0 -156 91 -155q91 0 91 156t-90 155q-92 0 -92 -156zM285 520q-123 0 -187 76q-63 76 -63 203t63 203q62 76 186 75q124 0 186 -75q62 -76 62 -204t-62 -203t-185 -75zM870 1083h129l-610 -1101h-131z" />
    <glyph glyph-name="hyphen.sc" horiz-adv-x="811" 
d="M109 649h593v-221h-593v221z" />
    <glyph glyph-name="endash.sc" horiz-adv-x="1138" 
d="M109 649h921v-221h-921v221z" />
    <glyph glyph-name="emdash.sc" horiz-adv-x="1720" 
d="M109 649h1503v-221h-1503v221z" />
    <glyph glyph-name="dagger.sc" horiz-adv-x="811" 
d="M90 803h213v262h205v-262h213v-168h-213v-635h-205v635h-213v168z" />
    <glyph glyph-name="daggerdbl.sc" horiz-adv-x="811" 
d="M90 838h213v227h205v-227h213v-168h-213v-283h213v-168h-213v-219h-205v219h-213v168h213v283h-213v168z" />
    <glyph glyph-name="parenleft.sc" horiz-adv-x="647" 
d="M385 533q0 -209 74 -409t159 -312h-227q-92 122 -165 316q-72 194 -72 404t72 405q73 194 165 316h227q-86 -113 -160 -313t-73 -407z" />
    <glyph glyph-name="parenright.sc" horiz-adv-x="647" 
d="M262 534q0 208 -74 407q-74 200 -159 312h227q92 -123 165 -317t73 -404t-73 -404t-165 -316h-227q85 114 159 314t74 408z" />
    <glyph glyph-name="bracketleft.sc" horiz-adv-x="636" 
d="M154 1253h454v-192h-227v-1057h227v-192h-454v1441z" />
    <glyph glyph-name="bracketright.sc" horiz-adv-x="636" 
d="M256 4v1057h-227v192h454v-1441h-454v192h227z" />
    <glyph glyph-name="braceleft.sc" horiz-adv-x="686" 
d="M217 242q0 114 -40 160t-150 47v176q111 0 151 48t39 161v131q0 149 74 219t250 69h116v-188h-73q-84 0 -114 -26t-30 -107v-162q0 -182 -186 -229v-9q100 -26 143 -80t43 -145v-166q0 -81 30 -111t114 -30h73v-188h-116q-176 0 -250 70t-74 218v142z" />
    <glyph glyph-name="braceright.sc" horiz-adv-x="686" 
d="M102 0q84 0 114 30t30 111v166q0 91 44 145t144 80v9q-188 47 -188 229v162q0 82 -30 108t-114 25h-73v188h116q176 1 250 -69t74 -219v-131q0 -113 41 -161t152 -48v-176q-111 -1 -152 -47t-41 -160v-142q0 -150 -74 -220t-250 -68h-116v188h73z" />
    <glyph glyph-name="slash.sc" horiz-adv-x="712" 
d="M483 1090h222l-476 -1115h-221z" />
    <glyph glyph-name="backslash.sc" horiz-adv-x="712" 
d="M8 1090h221l476 -1115h-222z" />
    <glyph glyph-name="quoteleft.sc" horiz-adv-x="546" 
d="M406 752v-263h-265v246l92 330h123l-65 -313h115z" />
    <glyph glyph-name="quotedblleft.sc" horiz-adv-x="968" 
d="M827 752v-263h-266v246l94 330h123l-67 -313h116zM406 752v-263h-265v246l92 330h123l-65 -313h115z" />
    <glyph glyph-name="quoteright.sc" horiz-adv-x="546" 
d="M141 803v262h265v-246l-93 -330h-123l68 314h-117z" />
    <glyph glyph-name="quotedblright.sc" horiz-adv-x="968" 
d="M561 803v262h266v-246l-92 -330h-123l66 314h-117zM141 803v262h265v-246l-93 -330h-123l68 314h-117z" />
    <glyph glyph-name="guilsinglleft.sc" horiz-adv-x="624" 
d="M98 537l228 325h198l-182 -325l182 -326h-198z" />
    <glyph glyph-name="guilsinglright.sc" horiz-adv-x="624" 
d="M281 537l-183 325h201l225 -325l-225 -326h-201z" />
    <glyph glyph-name="guillemotleft.sc" horiz-adv-x="999" 
d="M475 537l225 325h199l-182 -325l182 -326h-199zM98 537l226 325h200l-182 -325l182 -326h-200z" />
    <glyph glyph-name="guillemotright.sc" horiz-adv-x="999" 
d="M657 537l-182 325h199l225 -325l-225 -326h-199zM281 537l-183 325h201l225 -325l-225 -326h-201z" />
    <glyph glyph-name="quotesingle.sc" horiz-adv-x="479" 
d="M119 1065h241v-203l-36 -373h-168l-37 373v203z" />
    <glyph glyph-name="quotedbl.sc" horiz-adv-x="882" 
d="M522 1065h240v-203l-37 -373h-166l-37 373v203zM119 1065h241v-203l-36 -373h-168l-37 373v203z" />
    <glyph glyph-name="asterisk.sc" horiz-adv-x="964" 
d="M578 1085l-31 -251l227 108l62 -186l-246 -49l170 -181l-158 -114l-121 219l-121 -219l-157 112l170 185l-246 47l59 186l228 -104l-31 247h195z" />
    <glyph glyph-name="degree.sc" horiz-adv-x="813" 
d="M406 928q-60 0 -100 -40t-40 -107t40 -107t100 -41q60 0 99 41q40 42 40 108t-40 106t-99 40zM406 473q-141 0 -233 86q-91 86 -91 222q0 137 91 223t233 86t233 -86q92 -86 92 -222t-92 -223q-92 -86 -233 -86z" />
    <glyph glyph-name="bullet.sc" horiz-adv-x="835" 
d="M418 266q-113 0 -192 79t-79 192t79 191t192 79q114 0 192 -79q78 -80 78 -192t-78 -191t-192 -79z" />
    <glyph glyph-name="periodcentered.sc" horiz-adv-x="536" 
d="M139 666h256v-252h-256v252z" />
    <glyph glyph-name="paragraph.sc" horiz-adv-x="1077" 
d="M725 1065h213v-1065h-213v1065zM82 730q0 148 103 242q103 93 288 93h125v-1065h-213v385q-141 25 -222 111t-81 234z" />
    <glyph glyph-name="section.sc" horiz-adv-x="868" 
d="M264 369q0 -49 32 -76t112 -51l63 -21q57 16 94 55t37 89t-31 76t-114 53l-64 18q-57 -16 -93 -55t-36 -88zM422 -199q147 0 147 109q0 47 -30 71q-31 24 -107 46l-147 45q-121 37 -173 95q-52 57 -52 147t45 154q46 64 126 99q-156 74 -155 230q0 127 95 208t263 81
t265 -64q97 -63 106 -184h-215q-18 96 -156 96t-137 -111q0 -45 30 -69t105 -47l148 -45q119 -34 173 -94t54 -149t-47 -155t-127 -98q156 -74 155 -227q0 -127 -95 -209t-263 -82t-265 63t-106 187h217q8 -47 48 -72t98 -25z" />
    <glyph glyph-name="copyright.sc" horiz-adv-x="1249" 
d="M352 538q0 122 75 200t191 77q116 0 182 -54q67 -54 81 -143h-154q-21 64 -85 64t-96 -39t-32 -107t33 -106q33 -39 79 -39q46 1 70 21t31 43h154q-14 -89 -81 -143q-66 -54 -182 -54t-191 79t-75 201zM209 537q0 -185 117 -313t296 -128t300 128q120 128 120 312
t-118 309q-119 124 -300 124t-298 -123t-117 -309zM74 536q0 238 156 396t393 158t395 -158t158 -394t-158 -400q-158 -163 -396 -163t-393 162t-155 399z" />
    <glyph glyph-name="registered.sc" horiz-adv-x="1249" 
d="M547 678v-129h94q74 0 74 67q0 61 -74 62h-94zM387 799h277q104 0 157 -48t53 -133q0 -119 -110 -163l123 -181h-168l-105 162h-67v-162h-160v525zM209 537q0 -185 117 -313t296 -128t300 128q120 128 120 312t-118 309q-119 124 -300 124t-298 -123t-117 -309zM74 536
q0 238 156 396t393 158t395 -158t158 -394t-158 -400q-158 -163 -396 -163t-393 162t-155 399z" />
    <glyph glyph-name="trademark.sc" horiz-adv-x="1312" 
d="M578 1065h208l119 -324h6l117 324h205v-533h-148l9 338h-7l-131 -338h-106l-127 338h-6l8 -338h-147v533zM12 1065h502v-137h-172v-396h-158v396h-172v137z" />
    <glyph glyph-name="ordfeminine.sc" horiz-adv-x="626" 
d="M211 688q0 -66 76 -65q47 1 81 29t33 87v45q-10 -18 -51 -24l-67 -8q-72 -8 -72 -64zM246 520q-100 0 -147 41q-46 41 -46 111q0 141 178 162l101 12q39 4 54 14t15 38q-1 28 -23 50t-65 21q-86 0 -92 -82h-147q8 98 73 145q66 47 166 47q244 0 244 -205v-342h-151v60h-5
q-55 -72 -155 -72z" />
    </font>
</defs>
</svg>
