<?xml version="1.0" encoding="UTF-8"?>
<svg width="33px" height="33px" viewBox="0 0 33 33" version="1.1" xmlns="http://www.w3.org/2000/svg" xmlns:xlink="http://www.w3.org/1999/xlink">
    <!-- Generator: Sketch 50 (54983) - http://www.bohemiancoding.com/sketch -->
    <title>Group 13 Copy</title>
    <desc>Created with Sketch.</desc>
    <defs></defs>
    <g id="Page-1" stroke="none" stroke-width="1" fill="none" fill-rule="evenodd">
        <g id="Group-13-Copy" transform="translate(3.000000, 1.000000)">
            <path d="M22.8340197,2.38315789 C21.3713273,0.715789474 18.7199338,0 15.3308713,0 L5.49668852,0 C4.80428957,0.00161249721 4.21519751,0.504454082 4.10565538,1.18736842 L0.0126457558,27.1284211 C-0.0716592829,27.6421053 0.324574399,28.1052632 0.843050387,28.1052632 L6.91722842,28.1052632 L8.44314962,18.4421053 L8.3925666,18.7452632 C8.50021594,18.0630029 9.08793005,17.5598127 9.77938449,17.5578947 L12.6668321,17.5578947 C18.3321307,17.5578947 22.770791,15.2589474 24.0690885,8.60631579 C24.1112411,8.40842105 24.1407478,8.21894737 24.1702546,8.02947368 C24.5538425,5.57473684 24.1702546,3.89894737 22.8340197,2.38315789" id="Shape" fill="#002B88" opacity="0.900000036"></path>
            <path d="M24.1702546,8.02947368 C24.1281021,8.21894737 24.1070258,8.40842105 24.0690885,8.60631579 C22.770791,15.2589474 18.3321307,17.5578947 12.6668321,17.5578947 L9.77938449,17.5578947 C9.08793005,17.5598127 8.50021594,18.0630029 8.3925666,18.7452632 L6.91722842,28.1052632 L6.49570323,30.7578947 C6.4282592,31.2042105 6.77390986,31.6126316 7.22494182,31.6126316 L12.3464729,31.6126316 C12.9492539,31.6126316 13.4677299,31.1705263 13.5604655,30.5726316 L13.6110485,30.3115789 L14.5763412,24.2063158 L14.63957,23.8694737 C14.7319236,23.2710995 15.2474396,22.8294686 15.8535625,22.8294737 L16.6207384,22.8294737 C21.5778747,22.8294737 25.4601217,20.8210526 26.5940245,14.9978947 C27.0703479,12.5684211 26.8216481,10.5389474 25.5697182,9.11157895 C25.1903456,8.67789474 24.7182373,8.32421053 24.1702546,8.02947368" id="Shape" fill="#009CE2" opacity="0.699999988"></path>
            <path d="M22.8129435,7.49052632 C22.3978831,7.37065665 21.9754695,7.27782985 21.5483679,7.21263158 C20.7727615,7.08631579 19.9212806,7.02736842 19.006571,7.02736842 L11.2968752,7.02736842 C11.1071888,7.02736842 10.925933,7.06947368 10.7657534,7.14526316 C10.407457,7.31789474 10.1461114,7.65473684 10.0828826,8.06315789 L8.44314962,18.4421053 L8.39678185,18.7452632 C8.50120743,18.0629221 9.08834252,17.5586951 9.77938449,17.5578947 L12.6668321,17.5578947 C18.3321307,17.5578947 22.770791,15.2589474 24.0690885,8.60631579 C24.1112411,8.40842105 24.1407478,8.21894737 24.1702546,8.02947368 C23.8414649,7.85684211 23.4873838,7.70947368 23.1037959,7.58315789 C23.0068451,7.54105263 22.9098943,7.52 22.8129435,7.49052632" id="Shape" fill="#001D6B"></path>
        </g>
    </g>
</svg>