<?xml version="1.0" encoding="UTF-8"?>
<svg width="29px" height="34px" viewBox="0 0 29 34" version="1.1" xmlns="http://www.w3.org/2000/svg" xmlns:xlink="http://www.w3.org/1999/xlink">
    <!-- Generator: Sketch 48.1 (47250) - http://www.bohemiancoding.com/sketch -->
    <title>Icon</title>
    <desc>Created with Sketch.</desc>
    <defs></defs>
    <g id="Product---Cross-border-payment-组件-Copy-2" stroke="none" stroke-width="1" fill="none" fill-rule="evenodd" transform="translate(-274.000000, -478.000000)">
        <g id="Group" transform="translate(122.000000, 72.000000)">
            <g id="Icon" transform="translate(152.000000, 406.000000)">
                <path d="M24.261146,2.53210526 C22.7070353,0.760526316 19.8899297,0 16.2890507,0 L5.84023156,0 C5.10455767,0.00171327829 4.47864736,0.535982462 4.36225885,1.26157895 L0.0134361155,28.8239474 C-0.0761379881,29.3697368 0.344860299,29.8618421 0.895741036,29.8618421 L7.3495552,29.8618421 L8.97084648,19.5947368 L8.91710201,19.9168421 C9.03147944,19.1919405 9.65592568,18.6573009 10.390596,18.6552632 L13.4585091,18.6552632 C19.4778888,18.6552632 24.1939654,16.2126316 25.5734066,9.14421053 C25.6181936,8.93394737 25.6495446,8.73263158 25.6808955,8.53131579 C26.0884577,5.92315789 25.6808955,4.14263158 24.261146,2.53210526" id="Shape" fill="#FFFFFF"></path>
                <path d="M25.6808955,8.53131579 C25.6361085,8.73263158 25.6137149,8.93394737 25.5734066,9.14421053 C24.1939654,16.2126316 19.4778888,18.6552632 13.4585091,18.6552632 L10.390596,18.6552632 C9.65592568,18.6573009 9.03147944,19.1919405 8.91710201,19.9168421 L7.3495552,29.8618421 L6.90168468,32.6802632 C6.8300254,33.1544737 7.19727922,33.5884211 7.67650068,33.5884211 L13.1181275,33.5884211 C13.7585823,33.5884211 14.3094631,33.1186842 14.4079946,32.4834211 L14.461739,32.2060526 L15.4873625,25.7192105 L15.5545431,25.3613158 C15.6526689,24.7255432 16.2004046,24.2563104 16.8444102,24.2563158 L17.6595345,24.2563158 C22.9264918,24.2563158 27.0513793,22.1223684 28.256151,15.9352632 C28.7622447,13.3539474 28.4980011,11.1976316 27.1678256,9.68105263 C26.7647422,9.22026316 26.2631272,8.84447368 25.6808955,8.53131579" id="Shape" fill="#C4F0F9"></path>
                <path d="M24.2387524,7.95868421 C23.7977507,7.83132269 23.3489364,7.73269422 22.8951409,7.66342105 C22.0710591,7.52921053 21.1663607,7.46657895 20.1944817,7.46657895 L12.0029299,7.46657895 C11.8013882,7.46657895 11.6088038,7.51131579 11.438613,7.59184211 C11.0579231,7.77526316 10.7802434,8.13315789 10.7130628,8.56710526 L8.97084648,19.5947368 L8.92158072,19.9168421 C9.03253289,19.1918548 9.65636393,18.6561135 10.390596,18.6552632 L13.4585091,18.6552632 C19.4778888,18.6552632 24.1939654,16.2126316 25.5734066,9.14421053 C25.6181936,8.93394737 25.6495446,8.73263158 25.6808955,8.53131579 C25.3315565,8.34789474 24.9553453,8.19131579 24.5477831,8.05710526 C24.4447729,8.01236842 24.3417627,7.99 24.2387524,7.95868421" id="Shape" fill="#CFF5FD"></path>
            </g>
        </g>
    </g>
</svg>