
<svg width="30px" height="30px" viewBox="0 0 30 30" version="1.1" xmlns="http://www.w3.org/2000/svg" xmlns:xlink="http://www.w3.org/1999/xlink">
    <!-- Generator: Sketch 44.1 (41455) - http://www.bohemiancoding.com/sketch -->
    <desc>Created with Sketch.</desc>
    <defs></defs>
    <g id="V4" stroke="none" stroke-width="1" fill="none" fill-rule="evenodd">
        <g id="2.Account" transform="translate(-650.000000, -225.000000)">
            <g id="Slogan-Section" transform="translate(245.000000, 222.000000)">
                <g id="Stacked-Group" transform="translate(122.000000, 0.000000)">
                    <g id="Group-23" transform="translate(280.000000, 0.000000)">
                        <g id="Product-Icon-/-On-Dark-/-2">
                            <rect id="Product-Icon/On-Dark/2" x="0" y="0" width="36" height="36"></rect>
                            <g id="Group-2" stroke-width="1" fill-rule="evenodd" transform="translate(2.600000, 2.600000)" fill="#FFFFFF">
                                <path d="M2.15361616,5.32117511 C2.09215412,5.32754969 1.9278772,5.37470899 1.7734318,5.47568297 C1.53408457,5.63216443 1.40198364,5.86385908 1.40198364,6.311026 L1.40198364,8.4432223 L0.401983643,8.4432223 L0.401983643,6.311026 C0.401983643,4.49748295 2.05045375,4.32651058 2.05045375,4.32651058 L27.1140583,0.90934082 C27.1140583,0.90934082 27.8038616,0.739362531 28.6365072,1.3548604 C29.4691528,1.97035828 29.4006247,3.06501971 29.4006247,3.06501971 L29.4044577,11.775199 L28.4044578,11.6813363 L28.4006409,3.07070007 C28.3999206,2.94390171 28.4044578,2.46328959 28.0408469,2.15809682 C27.6772359,1.85290404 27.4625122,1.88604526 27.254274,1.90013211 L2.15361616,5.32117511 Z" id="Path-5" fill-rule="nonzero" opacity="0.699999988"></path>
                                <path d="M1.40309062,24.7400409 C1.40309062,25.4263031 1.69277249,25.8595609 2.23410886,26.1714976 C2.59561924,26.3798124 2.97265381,26.4815243 3.17536487,26.505172 L26.940724,29.0985911 C26.940724,29.0985911 27.411411,29.062323 27.6601643,28.9409392 C27.9089177,28.8195555 27.9066593,28.7917863 27.9980872,28.6861262 C28.0895151,28.5804661 28.3147675,28.2447926 28.3709087,28.0618725 C28.4270499,27.8789524 28.4028875,27.9263406 28.4028046,27.9249436 C28.4027218,27.9235465 28.4013591,35.8355863 28.3999268,27.8513749 C28.3984945,19.8671636 28.3999268,11.8829179 28.3999268,11.8829179 C28.3999268,11.8829179 28.3222023,11.65113 27.9668579,11.4475114 C27.6115135,11.2438929 27.4147158,11.2106409 27.2023774,11.2026485 C26.990039,11.1946561 2.81763621,8.71810971 2.81763621,8.71810971 C2.44765243,8.67693293 1.93707903,8.57766961 1.40309064,8.38880155 L1.40309062,24.7400409 Z M0.403090617,6.13651211 C0.403090617,7.44321248 2.92824678,7.72424589 2.92824678,7.72424589 L27.3040111,10.2078266 C27.3040111,10.2078266 28.0679146,10.225417 28.7339207,10.770323 C29.3999268,11.3152289 29.3999268,11.8829179 29.3999268,11.8829179 L29.3999268,27.8513749 C29.3999268,27.8513749 29.4752476,28.5072775 28.7542868,29.3404673 C28.0333259,30.1736571 26.8782903,30.0968175 26.8782903,30.0968175 L3.06657762,27.4992371 C3.06657762,27.4992371 0.403090617,27.1888472 0.403090617,24.7400409 L0.403090617,6.13651211 Z" id="Path-3" fill-rule="nonzero"></path>
                                <polygon id="Path-4" fill-rule="nonzero" opacity="0.349999994" points="3.75834623 8.81565742 28.4029619 5.49169665 28.4029619 4.47326329 3.59133296 7.82970277"></polygon>
                                <g id="Group-3" transform="translate(6.875000, 12.375000)" fill-rule="nonzero">
                                    <path d="M1.85227895,12.0969837 C1.90048772,11.9998555 2.00646011,11.8154546 2.1710083,11.5731666 C2.448908,11.163975 2.78730887,10.7539834 3.18627887,10.3721015 C4.41355187,9.19739337 5.92568394,8.5425444 7.7545487,8.66048343 C9.47798494,8.77162363 10.9899746,9.7129377 12.2815201,11.2309759 C12.7729709,11.8086103 13.196679,12.4295722 13.5505369,13.0503358 C13.7617162,13.420802 13.9013135,13.7058 13.9683423,13.8618058 L14.8871263,13.4670454 C14.8654321,13.4165531 14.8250193,13.3282638 14.7658744,13.2075152 C14.6690828,13.0099084 14.5535759,12.7906644 14.4193005,12.5551088 C14.036355,11.8833175 13.5780991,11.2117245 13.043159,10.5829743 C11.5916766,8.87695164 9.85160302,7.79364018 7.81890259,7.66255629 C5.68665281,7.5250527 3.91126465,8.29390823 2.49481195,9.64969337 C2.04188596,10.0832203 1.65918758,10.5468808 1.34375234,11.0113414 C1.15229957,11.2932448 1.02397044,11.5165483 0.956544656,11.652394 L1.85227895,12.0969837 Z" id="Path-2"></path>
                                    <path d="M7.90066939,6.26175364 C9.21234567,6.26175364 10.2756694,5.19842992 10.2756694,3.88675364 C10.2756694,2.57507735 9.21234567,1.51175364 7.90066939,1.51175364 C6.58899311,1.51175364 5.52566939,2.57507735 5.52566939,3.88675364 C5.52566939,5.19842992 6.58899311,6.26175364 7.90066939,6.26175364 Z M7.90066939,7.26175364 C6.03670836,7.26175364 4.52566939,5.75071467 4.52566939,3.88675364 C4.52566939,2.0227926 6.03670836,0.511753635 7.90066939,0.511753635 C9.76463042,0.511753635 11.2756694,2.0227926 11.2756694,3.88675364 C11.2756694,5.75071467 9.76463042,7.26175364 7.90066939,7.26175364 Z" id="Oval"></path>
                                </g>
                            </g>
                        </g>
                    </g>
                </g>
            </g>
        </g>
    </g>
</svg>