<svg width="1024" height="275" viewBox="0 0 1024 275" xmlns="http://www.w3.org/2000/svg" xmlns:xlink="http://www.w3.org/1999/xlink"><title>BirdTree</title><defs><linearGradient x1="93.726%" y1="100%" x2="0%" y2="-9.265%" id="b"><stop stop-color="#E2FEFC" offset="0%"/><stop stop-color="#F3FFFE" offset="100%"/></linearGradient><path id="a" d="M0 0h1025v275H0z"/></defs><g transform="translate(-1)" fill="none" fill-rule="evenodd"><mask id="c" fill="#fff"><use xlink:href="#a"/></mask><use fill="url(#b)" xlink:href="#a"/><path d="M729.184 326.112c3.886 5.707 9.203 12.085 16.366 18.186 14.94 12.725 37.905 24.24 72.628 25.927 34.654 1.684 77.744 13.09 128.23-13.074 43.342-22.462 76.525-71.861 78.556-112.501 2.032-40.64-.125-109.434-45.372-134.423C956.68 97.573 918.046 89.028 878.182 89c-5.103-.004-6.683 19.401-11.797 19.687-5.08.283-13.692-18.558-18.722-17.972-9.596 1.117-19.045 2.802-28.144 5.119-3.814.97 14.841 63.486 11.166 64.683-5.07 1.651-32.401-57.91-37.137-55.806-10.99 4.882-20.972 11.012-29.446 18.545-4.203 3.735 57.664 66.94 54.076 70.878-4.54 4.98-74.361-49.254-77.997-44.03a149.829 149.829 0 0 0-14.452 25.914c-1.652 3.795 12.113 15.613 10.797 19.42-1.912 5.533-18.727 3.054-20.008 8.535-2.52 10.776-3.907 21.36-4.515 31.404-.334 5.529 24.443 3.165 24.523 8.307.087 5.53-24.497 18.53-24.072 23.472 2.065 24.001 7.271 40.19 7.271 40.19s2.293 8.241 9.46 18.766z" fill="#DBFCF8" mask="url(#c)"/><path d="M53.692 387.04c2.894 4.25 6.854 9 12.189 13.544 11.127 9.478 28.231 18.054 54.093 19.31 25.81 1.255 57.903 9.75 95.505-9.737 32.28-16.73 56.994-53.52 58.507-83.789 1.513-30.268-.093-81.505-33.793-100.117-17.064-9.424-45.84-15.788-75.53-15.81-3.8-.002-4.977 14.45-8.785 14.663-3.784.211-10.198-13.821-13.944-13.385-7.147.832-14.185 2.087-20.961 3.812-2.841.723 11.053 47.284 8.316 48.176-3.777 1.23-24.132-43.13-27.66-41.564-8.185 3.636-15.62 8.202-21.93 13.812-3.13 2.782 42.947 49.857 40.275 52.789-3.382 3.709-55.384-36.684-58.092-32.793a111.59 111.59 0 0 0-10.763 19.3c-1.23 2.827 9.021 11.629 8.042 14.464-1.425 4.122-13.948 2.275-14.902 6.357-1.877 8.026-2.91 15.91-3.363 23.39-.25 4.117 18.205 2.357 18.265 6.186.064 4.119-18.246 13.802-17.929 17.482 1.538 17.876 5.415 29.933 5.415 29.933s1.708 6.138 7.045 13.977z" fill="#DBFCF8" mask="url(#c)" transform="rotate(45 157.626 316.626)"/></g></svg>