<?xml version="1.0" encoding="UTF-8" standalone="no"?>
<svg width="180px" height="180px" viewBox="0 0 180 180" version="1.1" xmlns="http://www.w3.org/2000/svg" xmlns:xlink="http://www.w3.org/1999/xlink">
    <!-- Generator: Sketch 3.8.3 (29802) - http://www.bohemiancoding.com/sketch -->
    <title>cmb-logo</title>
    <desc>Created with Sketch.</desc>
    <defs>
        <polygon id="path-1" points="0.000685005341 179.740199 179.880529 179.740199 179.880529 0.118440312 0.000685005341 0.118440312"></polygon>
    </defs>
    <g id="招行一网通" stroke="none" stroke-width="1" fill="none" fill-rule="evenodd">
        <g id="New" transform="translate(-220.000000, -219.000000)">
            <g id="Hero" transform="translate(0.000000, -32.000000)">
                <g id="cmb-logo" transform="translate(220.000000, 251.000000)">
                    <g id="Group-3" transform="translate(0.000000, 0.112950)">
                        <mask id="mask-2" fill="white">
                            <use xlink:href="#path-1"></use>
                        </mask>
                        <g id="Clip-2"></g>
                        <path d="M89.9581384,0.118441875 C139.631004,0.127594716 179.890383,40.3474659 179.881217,89.9467108 C179.869759,139.548244 139.59434,179.749809 89.9214744,179.740657 C40.2486093,179.729215 -0.0107700542,139.511632 0.000687450271,89.9123876 C0.00985345389,40.3108545 40.2852733,0.109289034 89.9581384,0.118441875" id="Fill-1" fill="#C7142D" mask="url(#mask-2)"></path>
                    </g>
                    <path d="M44.6274384,68.8955469 L24.8174131,113.428694 C24.2651614,114.668904 24.0039303,115.966319 24.0039303,117.243141 C24.0016388,121.014111 26.2862652,124.602025 30.0947397,126.048174 C34.826689,127.844419 40.1338051,125.352558 42.1892814,120.730373 L54.7352489,92.5281821 L44.6274384,68.8955469 Z" id="Fill-4" fill="#FFFFFF"></path>
                    <path d="M110.808734,59.5987776 C109.573615,56.7064798 107.09192,54.4205578 104.012143,53.7661297 C99.4268493,52.7936404 94.9882121,55.2511781 93.2856269,59.3882622 L80.8542345,89.6132311 C80.5288414,90.4049519 79.4105889,90.4118165 79.0737383,89.6246722 L66.3100783,59.7566641 C65.0932913,56.9101306 62.6688833,54.6470906 59.6463936,53.9583394 C55.1275539,52.930933 50.6934996,55.260331 48.8923799,59.3058867 L47.1668797,63.1866912 L71.3399227,119.469798 C72.5750417,122.362096 75.0567372,124.648018 78.1365144,125.302446 C82.7218077,126.274935 87.160445,123.817398 88.8630302,119.680314 L101.285257,89.4690739 C101.61065,88.6773531 102.731194,88.6704885 103.068044,89.4576328 L115.240497,117.975597 C116.464159,120.838148 118.906899,123.112629 121.94772,123.789939 C126.491767,124.801328 130.932695,122.426166 132.699442,118.346287 L134.383696,114.451753 L110.808734,59.5987776 Z" id="Fill-6" fill="#FFFFFF"></path>
                    <path d="M149.327719,53.8832861 C144.643891,52.3684909 139.593423,54.9724741 137.641064,59.4848247 L126.664775,84.8519233 L136.88716,108.667615 L155.102301,66.5759882 C157.281518,61.52362 154.696705,55.6200376 149.327719,53.8832861" id="Fill-8" fill="#FFFFFF"></path>
                </g>
            </g>
        </g>
    </g>
</svg>