<?xml version="1.0" encoding="UTF-8" standalone="no"?>
<svg width="665px" height="365px" viewBox="0 0 665 365" version="1.1" xmlns="http://www.w3.org/2000/svg" xmlns:xlink="http://www.w3.org/1999/xlink">
    <!-- Generator: Sketch 3.8.3 (29802) - http://www.bohemiancoding.com/sketch -->
    <title>cmb-bg-building</title>
    <desc>Created with Sketch.</desc>
    <defs>
        <polygon id="path-1" points="0 363.850734 542.941064 363.850734 542.941064 0 0 0"></polygon>
        <linearGradient x1="50%" y1="0%" x2="50%" y2="111.341754%" id="linearGradient-3">
            <stop stop-color="#E3E4E4" offset="0%"></stop>
            <stop stop-color="#F7FAF9" offset="100%"></stop>
        </linearGradient>
        <polygon id="path-4" points="0 227.406709 338.655392 227.406709 338.655392 0 0 0"></polygon>
        <polygon id="path-6" points="0 132.94546 197.731051 132.94546 197.731051 0 0 0"></polygon>
    </defs>
    <g id="招行一网通" stroke="none" stroke-width="1" fill="none" fill-rule="evenodd" opacity="0.5">
        <g id="New" transform="translate(0.000000, -1083.000000)">
            <g id="cmb-bg-building" transform="translate(-22.000000, 1083.000000)">
                <g id="Page-1" transform="translate(24.000000, 0.000000)">
                    <mask id="mask-2" fill="white">
                        <use xlink:href="#path-1"></use>
                    </mask>
                    <g id="Clip-2"></g>
                    <path d="M498.176317,281.587781 L498.176317,175.14004 C498.176317,171.057479 495.04739,167.716012 491.221511,167.716012 L415.604572,167.716012 C411.778693,167.716012 408.647313,171.057479 408.647313,175.14004 L408.647313,233.738803 L382.63428,233.738803 L382.63428,84.9177957 C382.63428,80.8352345 379.5029,77.4963856 375.677021,77.4963856 L370.847432,77.4963856 L370.847432,60.4014791 C370.847432,56.318918 367.718506,52.9774504 363.892627,52.9774504 L351.708221,52.9774504 L351.708221,38.846918 C351.708221,34.7643568 348.579295,31.4228892 344.753416,31.4228892 L341.725106,31.4228892 L341.725106,2.31074532 C341.725106,1.04067338 340.74839,-0.00157122302 339.558171,-0.00157122302 C338.365498,-0.00157122302 337.391237,1.04067338 337.391237,2.31074532 L337.391237,31.4228892 L334.362927,31.4228892 C330.537048,31.4228892 327.405668,34.7643568 327.405668,38.846918 L327.405668,52.9774504 L315.223716,52.9774504 C311.395383,52.9774504 308.266457,56.318918 308.266457,60.4014791 L308.266457,77.4963856 L303.436867,77.4963856 C299.610988,77.4963856 296.482062,80.8352345 296.482062,84.9177957 L296.482062,174.160645 L240.777363,174.160645 C236.951484,174.160645 233.822558,177.502112 233.822558,181.584673 L233.822558,308.044558 L212.44279,308.044558 L212.44279,239.230227 C212.44279,235.147666 209.31141,231.806199 205.485531,231.806199 L203.966468,216.0704 C203.966468,211.987839 200.835088,208.646371 197.009209,208.646371 L138.344913,208.646371 C134.519034,208.646371 131.390108,211.987839 131.390108,216.0704 L131.390108,231.806199 C126.042712,231.806199 122.911332,235.147666 122.911332,239.230227 L122.911332,281.587781 L92.3730137,281.587781 L92.3730137,85.7007885 C92.3730137,81.1887597 88.9127896,77.4963856 84.6819908,77.4963856 L37.5051481,131.446947 C32.2878173,137.315465 29.8141252,143.04781 29.8141252,147.559839 L29.8141252,308.044558 L6.95701369,308.044558 C3.1311347,308.044558 -0.000245405965,311.383407 -0.000245405965,315.465968 L-0.000245405965,356.427753 C-0.000245405965,360.510314 3.1311347,363.851781 6.95701369,363.851781 L37.5051481,363.851781 L45.3409606,363.851781 L84.6819908,363.851781 C86.3311188,363.79417 86.7458549,363.851781 87.1704072,363.851781 L129.868591,363.851781 L134.68591,363.851781 L187.01137,363.851781 L205.485531,363.851781 L233.935444,363.851781 C235.184561,363.851781 236.340423,363.466832 237.356403,362.846199 C238.372384,363.466832 239.5307,363.851781 240.777363,363.851781 L303.436867,363.851781 L305.287228,363.851781 L344.812313,363.851781 L375.677021,363.851781 L415.604572,363.851781 L420.429253,363.851781 L460.369074,363.851781 L491.221511,363.851781 L535.986013,363.851781 C539.811892,363.851781 542.943273,360.510314 542.943273,356.427753 L542.943273,289.01181 C542.943273,284.929249 539.811892,281.587781 535.986013,281.587781 L498.176317,281.587781 Z" id="Fill-1" fill="url(#linearGradient-3)" mask="url(#mask-2)"></path>
                </g>
                <g id="Page-1-Copy" style="mix-blend-mode: multiply;" transform="translate(348.000000, 137.000000)">
                    <mask id="mask-5" fill="white">
                        <use xlink:href="#path-4"></use>
                    </mask>
                    <g id="Clip-2"></g>
                    <path d="M310.733719,175.992363 L310.733719,109.462525 C310.733719,106.910924 308.782075,104.822507 306.395711,104.822507 L259.230216,104.822507 C256.843853,104.822507 254.890678,106.910924 254.890678,109.462525 L254.890678,146.086752 L238.665245,146.086752 L238.665245,53.0736223 C238.665245,50.5220216 236.712071,48.435241 234.325707,48.435241 L231.313287,48.435241 L231.313287,37.7509245 C231.313287,35.1993237 229.361643,33.1109065 226.97528,33.1109065 L219.375349,33.1109065 L219.375349,24.2793237 C219.375349,21.727723 217.423705,19.6393058 215.037342,19.6393058 L213.148456,19.6393058 L213.148456,1.44421583 C213.148456,0.650420863 212.539237,-0.000982014389 211.796847,-0.000982014389 C211.052927,-0.000982014389 210.445238,0.650420863 210.445238,1.44421583 L210.445238,19.6393058 L208.556353,19.6393058 C206.16999,19.6393058 204.216815,21.727723 204.216815,24.2793237 L204.216815,33.1109065 L196.618414,33.1109065 C194.230521,33.1109065 192.278877,35.1993237 192.278877,37.7509245 L192.278877,48.435241 L189.266457,48.435241 C186.880093,48.435241 184.928449,50.5220216 184.928449,53.0736223 L184.928449,108.850403 L150.183063,108.850403 C147.7967,108.850403 145.845056,110.93882 145.845056,113.490421 L145.845056,192.527849 L132.509587,192.527849 L132.509587,149.518892 C132.509587,146.967291 130.556413,144.878874 128.170049,144.878874 L127.222545,135.044 C127.222545,132.492399 125.269371,130.403982 122.883008,130.403982 L86.2915956,130.403982 C83.9052325,130.403982 81.9535885,132.492399 81.9535885,135.044 L81.9535885,144.878874 C78.6181906,144.878874 76.6650159,146.967291 76.6650159,149.518892 L76.6650159,175.992363 L57.6169703,175.992363 L57.6169703,53.5629928 C57.6169703,50.7429748 55.4586816,48.435241 52.8197528,48.435241 L23.3935532,82.1543417 C20.1392824,85.8221655 18.5963356,89.4048813 18.5963356,92.2248993 L18.5963356,192.527849 L4.33938479,192.527849 C1.95302164,192.527849 -0.000153070119,194.614629 -0.000153070119,197.16623 L-0.000153070119,222.767345 C-0.000153070119,225.318946 1.95302164,227.407363 4.33938479,227.407363 L23.3935532,227.407363 L28.2810821,227.407363 L52.8197528,227.407363 C53.848384,227.371356 54.1070725,227.407363 54.3718838,227.407363 L81.0045537,227.407363 L84.0093202,227.407363 L116.646931,227.407363 L128.170049,227.407363 L145.915468,227.407363 C146.694595,227.407363 147.415555,227.16677 148.049266,226.778874 C148.682976,227.16677 149.405467,227.407363 150.183063,227.407363 L189.266457,227.407363 L190.420605,227.407363 L215.074079,227.407363 L234.325707,227.407363 L259.230216,227.407363 L262.239574,227.407363 L287.151736,227.407363 L306.395711,227.407363 L334.317232,227.407363 C336.703595,227.407363 338.65677,225.318946 338.65677,222.767345 L338.65677,180.632381 C338.65677,178.080781 336.703595,175.992363 334.317232,175.992363 L310.733719,175.992363 Z" id="Fill-1" fill="url(#linearGradient-3)" mask="url(#mask-5)"></path>
                </g>
                <g id="Page-1-Copy-2" style="mix-blend-mode: multiply;" transform="translate(0.000000, 231.000000)">
                    <mask id="mask-7" fill="white">
                        <use xlink:href="#path-6"></use>
                    </mask>
                    <g id="Clip-2"></g>
                    <path d="M181.428397,102.887843 L181.428397,63.9934763 C181.428397,62.5017712 180.288889,61.2808504 178.895561,61.2808504 L151.356997,61.2808504 C149.963669,61.2808504 148.823267,62.5017712 148.823267,63.9934763 L148.823267,85.4045626 L139.349708,85.4045626 L139.349708,31.0276561 C139.349708,29.5359511 138.209306,28.3159871 136.815978,28.3159871 L135.057113,28.3159871 L135.057113,22.0697712 C135.057113,20.5780662 133.917605,19.3571453 132.524277,19.3571453 L128.086897,19.3571453 L128.086897,14.1940662 C128.086897,12.7023612 126.947389,11.4814403 125.554061,11.4814403 L124.451196,11.4814403 L124.451196,0.844310791 C124.451196,0.380246043 124.09549,-0.000574100719 123.66203,-0.000574100719 C123.227676,-0.000574100719 122.872865,0.380246043 122.872865,0.844310791 L122.872865,11.4814403 L121.77,11.4814403 C120.376671,11.4814403 119.236269,12.7023612 119.236269,14.1940662 L119.236269,19.3571453 L114.799784,19.3571453 C113.405562,19.3571453 112.266054,20.5780662 112.266054,22.0697712 L112.266054,28.3159871 L110.507189,28.3159871 C109.113861,28.3159871 107.974353,29.5359511 107.974353,31.0276561 L107.974353,63.6356201 L87.6875304,63.6356201 C86.2942023,63.6356201 85.154694,64.856541 85.154694,66.348246 L85.154694,112.554742 L77.368501,112.554742 L77.368501,87.4110446 C77.368501,85.9193396 76.2280989,84.6984187 74.8347708,84.6984187 L74.2815507,78.9488 C74.2815507,77.457095 73.1411487,76.2361741 71.7478205,76.2361741 L50.3831575,76.2361741 C48.9898293,76.2361741 47.850321,77.457095 47.850321,78.9488 L47.850321,84.6984187 C45.902879,84.6984187 44.762477,85.9193396 44.762477,87.4110446 L44.762477,102.887843 L33.6408762,102.887843 L33.6408762,31.3137496 C33.6408762,29.6651237 32.3807141,28.3159871 30.8399202,28.3159871 L13.6588165,48.0286921 C11.7587423,50.1729583 10.8578605,52.2674691 10.8578605,53.916095 L10.8578605,112.554742 L2.5336408,112.554742 C1.14031264,112.554742 -8.93731983e-05,113.774706 -8.93731983e-05,115.266412 L-8.93731983e-05,130.233217 C-8.93731983e-05,131.724922 1.14031264,132.945843 2.5336408,132.945843 L13.6588165,132.945843 L16.5125027,132.945843 L30.8399202,132.945843 C31.4405081,132.924793 31.5915488,132.945843 31.7461644,132.945843 L47.2962072,132.945843 L49.0506031,132.945843 L68.1067564,132.945843 L74.8347708,132.945843 L85.1958057,132.945843 C85.6507152,132.945843 86.071663,132.805188 86.441668,132.578419 C86.8116731,132.805188 87.2335146,132.945843 87.6875304,132.945843 L110.507189,132.945843 L111.181063,132.945843 L125.57551,132.945843 L136.815978,132.945843 L151.356997,132.945843 L153.114074,132.945843 L167.659562,132.945843 L178.895561,132.945843 L195.198126,132.945843 C196.591454,132.945843 197.731856,131.724922 197.731856,130.233217 L197.731856,105.600469 C197.731856,104.108764 196.591454,102.887843 195.198126,102.887843 L181.428397,102.887843 Z" id="Fill-1" fill="url(#linearGradient-3)" mask="url(#mask-7)"></path>
                </g>
            </g>
        </g>
    </g>
</svg>