<svg width="188" height="20" viewBox="0 0 188 20" xmlns="http://www.w3.org/2000/svg"><title>思利及人公益基金会</title><path d="M3.645 3.031c1.32-.117 2.467-.234 3.443-.352a63.904 63.904 0 0 0 2.486-.34c.682-.11 1.228-.217 1.639-.32.41-.102.718-.19.924-.264.366-.132.634-.194.803-.187.168.008.34.055.517.143.278.147.557.305.836.473.278.169.513.327.704.473.337.294.517.525.539.693.022.169-.092.341-.341.517-.338.25-.646.62-.924 1.111-.279.492-.565 1.236-.858 2.233-.147.44-.283.81-.407 1.111-.125.301-.26.59-.407.87a3.37 3.37 0 0 1-.451.66c-.169.19-.32.337-.451.44-.191.117-.36.157-.506.12-.147-.036-.242-.194-.286-.473-.03-.146-.169-.242-.418-.286-.25-.044-.66-.029-1.232.044-.44.074-.998.14-1.672.198a47.41 47.41 0 0 1-2.002.132c-.015.382-.176.594-.484.638-.206.03-.389-.095-.55-.374-.162-.278-.316-.792-.462-1.54a19.37 19.37 0 0 0-.341-1.408c-.14-.498-.29-.979-.451-1.44a15.46 15.46 0 0 0-.495-1.255c-.169-.374-.327-.656-.473-.847-.352-.469-.444-.777-.275-.924.168-.146.7-.095 1.595.154zm13.002 12.98c.293.118.425.297.396.54-.03.241-.323.502-.88.78a6.102 6.102 0 0 1-1.232.43c-.499.124-1.042.22-1.628.285-.587.066-1.196.103-1.826.11-.631.008-1.247-.025-1.848-.099a7.339 7.339 0 0 1-.935-.198 8.137 8.137 0 0 1-.902-.308 6.919 6.919 0 0 1-1.441-.814 5.781 5.781 0 0 1-1.507-1.628 6.556 6.556 0 0 1-.825-2.046c-.074-.249-.088-.44-.044-.572.044-.132.11-.212.198-.242.117-.029.26.059.429.264.168.206.311.462.429.77.161.426.421.818.78 1.177.36.36.708.642 1.046.847.293.206.641.385 1.045.54.403.153.825.282 1.265.384.44.103.88.18 1.32.231.44.052.85.063 1.232.033.484-.029.865-.073 1.144-.132.278-.058.465-.176.56-.352.096-.176.107-.421.034-.737-.074-.315-.22-.744-.44-1.287-.279-.689-.356-1.081-.231-1.177.124-.095.377.077.759.517.645.763 1.224 1.36 1.738 1.793.513.433.968.73 1.364.891zM8.903 8.817c.366-.029.663-.055.89-.077.228-.022.415-.033.562-.033h.352c.088 0 .168.008.242.022a.965.965 0 0 0 .22-.286c.073-.132.176-.366.308-.704a19.13 19.13 0 0 0 .572-1.98 18.266 18.266 0 0 0 .352-2.134c.029-.249-.011-.425-.121-.528-.11-.102-.312-.139-.605-.11a27.69 27.69 0 0 0-1.518.132c-.514.059-1.012.118-1.496.176.454.22.715.396.78.528.067.132.034.33-.098.594a3.638 3.638 0 0 0-.154.517 6.06 6.06 0 0 0-.132.76c.469-.133.847-.206 1.133-.22.286-.015.531.014.737.087.396.147.601.308.616.484.014.176-.169.323-.55.44-.294.074-.576.14-.847.198-.272.059-.657.118-1.155.176l-.088 1.958zm-1.54-5.346a47.942 47.942 0 0 1-2.992.286c.264.968.495 1.936.693 2.904a42 42 0 0 1 .45 2.552c.455-.058.855-.106 1.2-.143l.935-.099.044-1.98a5.69 5.69 0 0 1-1.023.033 2.234 2.234 0 0 1-.693-.165c-.396-.161-.583-.3-.561-.418.022-.117.216-.183.583-.198a9.46 9.46 0 0 0 1.716-.198c0-.704-.03-1.243-.088-1.617a3.827 3.827 0 0 0-.264-.957zm-4.906 8.646c.146.484.201.943.165 1.375-.037.433-.165.928-.385 1.485-.279.66-.638 1.181-1.078 1.562-.25.206-.47.275-.66.21-.191-.067-.323-.312-.396-.738-.103-.528-.129-.931-.077-1.21.051-.278.201-.528.45-.748.162-.132.334-.355.518-.67.183-.316.407-.752.67-1.31.162-.352.305-.528.43-.528.124 0 .245.191.363.572zm15.796.176c.088.455.018.781-.21.98-.227.197-.56.179-1-.056a8.353 8.353 0 0 1-1.122-.726c-.411-.308-.939-.74-1.584-1.298-.382-.337-.54-.56-.473-.67.066-.11.377-.158.935-.144.586.015 1.085.055 1.496.121.41.066.748.173 1.012.32.264.146.469.34.616.582.146.242.256.54.33.891zm-7.678.792c.058.514-.037.844-.286.99-.25.147-.543.118-.88-.088-.294-.19-.627-.476-1.001-.858-.374-.381-.7-.762-.98-1.144-.19-.278-.256-.462-.197-.55.058-.088.3-.102.726-.044.528.074.953.147 1.276.22.322.074.579.173.77.297.19.125.326.283.407.473.08.191.135.426.165.704zM36.239 1.14c.366.147.652.279.858.396.205.118.348.228.429.33.08.103.113.21.099.32-.015.11-.052.238-.11.384a3.08 3.08 0 0 0-.187.572c-.052.22-.088.495-.11.825-.022.33-.037.719-.044 1.166-.008.448-.011.98-.011 1.595 0 .968.01 1.841.033 2.618.022.778.047 1.485.077 2.123.029.638.058 1.229.088 1.771.029.543.066 1.064.11 1.562.073.851.036 1.577-.11 2.178a4.593 4.593 0 0 1-.682 1.562c-.235.338-.484.503-.748.495-.264-.007-.44-.128-.528-.363a3.679 3.679 0 0 0-.715-1.188 4.984 4.984 0 0 0-.561-.539c-.22-.183-.484-.385-.792-.605-.426-.308-.605-.524-.54-.649.067-.124.364-.135.892-.033.454.088.817.143 1.089.165.271.022.473-.003.605-.077.132-.073.22-.201.264-.385.044-.183.073-.443.088-.78.014-.309.025-.642.033-1.002.007-.359.01-.77.01-1.232 0-.462-.003-.986-.01-1.573-.008-.586-.019-1.276-.033-2.068a106.94 106.94 0 0 0-.11-3.08 24.905 24.905 0 0 0-.176-2.024c-.074-.528-.162-.935-.264-1.22a2.276 2.276 0 0 0-.352-.672c-.176-.205-.286-.385-.33-.539-.044-.154-.015-.264.088-.33.102-.066.286-.08.55-.044.264.037.63.15 1.1.341zm-5.918 9.966c0 .22-.033.407-.1.561a.721.721 0 0 1-.274.341.565.565 0 0 1-.396.077.752.752 0 0 1-.418-.23c-.206-.191-.433-.426-.682-.705-.25-.278-.514-.601-.792-.968-.147-.19-.206-.337-.176-.44.029-.102.168-.132.418-.088.528.103.953.195 1.276.275.322.081.564.173.726.275a.813.813 0 0 1 .33.363c.058.14.088.32.088.54zm3.256-4.818a1.782 1.782 0 0 0-.121.54c-.022.227-.037.487-.044.78-.008.294-.008.609 0 .946.007.338.018.682.033 1.034.014.338.022.631.022.88 0 .25-.008.462-.022.638-.015.176-.037.33-.066.462a6.15 6.15 0 0 1-.088.352c-.176.616-.378.943-.605.98-.228.036-.466-.114-.715-.452-.25-.366-.393-.663-.43-.89-.036-.228.004-.488.122-.782.161-.381.26-.814.297-1.298.036-.484.033-1.048-.011-1.694-.044-.66-.103-1.162-.176-1.507-.074-.344-.191-.597-.352-.759-.308-.337-.374-.575-.198-.715.176-.139.616-.084 1.32.165.322.118.572.22.748.308.176.088.297.176.363.264.066.088.088.191.066.308a2.3 2.3 0 0 1-.143.44zm-7.942-1.65a10.93 10.93 0 0 1-1.672.44c-.572.103-.888.096-.946-.022-.059-.117.161-.286.66-.506.454-.19.898-.414 1.33-.67.433-.257.815-.51 1.145-.76.33-.249.597-.491.803-.726.205-.234.308-.432.308-.594 0-.19.025-.337.077-.44.051-.102.15-.146.297-.132.146.015.348.085.605.21.256.124.597.326 1.023.604.557.352.817.624.78.814-.036.191-.267.323-.692.396a2.874 2.874 0 0 0-.407.1 11.124 11.124 0 0 0-1.09.395c-.19.081-.351.15-.483.21a7.868 7.868 0 0 1-.594.263c.528.235.843.426.946.572.102.147.102.33 0 .55-.059.103-.118.297-.176.583-.059.286-.103.59-.132.913.249-.073.524-.139.825-.198l.693-.132c.542-.102.997-.051 1.364.154.337.206.469.407.396.605-.074.198-.44.305-1.1.32-.162 0-.455.025-.88.076-.426.052-.88.114-1.364.187-.03.954-.04 1.98-.033 3.08.007 1.1.025 2.413.055 3.938.014.47.007.924-.022 1.364-.03.44-.103.924-.22 1.452-.103.455-.294.675-.572.66-.279-.014-.609-.308-.99-.88a3.773 3.773 0 0 1-.352-.605 1.398 1.398 0 0 1-.121-.495 1.423 1.423 0 0 1 .088-.528c.066-.19.172-.418.319-.682.117-.234.234-.788.352-1.66.117-.873.198-2.058.242-3.554-.294.587-.635 1.14-1.023 1.661-.389.521-.803.998-1.243 1.43-.44.433-.888.822-1.342 1.166a8.608 8.608 0 0 1-1.342.847c-.602.308-.943.422-1.023.341-.081-.08.113-.333.583-.759a19.638 19.638 0 0 0 2.86-3.157c.821-1.136 1.444-2.225 1.87-3.267a15.787 15.787 0 0 0-2.662.814 3.877 3.877 0 0 1-.528.154c-.147.03-.294.033-.44.011a1.432 1.432 0 0 1-.451-.154 4.618 4.618 0 0 1-.561-.363c-.352-.249-.51-.447-.473-.594.036-.146.311-.22.825-.22.308 0 .627-.014.957-.044.33-.029.693-.073 1.089-.132.396-.058.836-.132 1.32-.22a46.283 46.283 0 0 0 1.628-.33c0-.366-.011-.674-.033-.924a6.082 6.082 0 0 0-.088-.649 2.085 2.085 0 0 0-.154-.484 4.979 4.979 0 0 0-.231-.429zm22.034-.066c-.25.059-.477.118-.682.176a5.538 5.538 0 0 0-.528.176c-.396.147-.719.253-.968.32-.25.065-.462.102-.638.11a1.022 1.022 0 0 1-.462-.078 2.483 2.483 0 0 1-.44-.264c-.558-.381-.818-.641-.781-.78.036-.14.421-.21 1.155-.21.293 0 .674-.029 1.144-.088.469-.058.982-.143 1.54-.253.557-.11 1.129-.23 1.716-.363a34.78 34.78 0 0 0 1.672-.418c.528-.146.997-.29 1.408-.429.41-.139.726-.275.946-.407a2.48 2.48 0 0 1 .396-.198.876.876 0 0 1 .363-.055c.124.008.271.04.44.1.168.058.385.146.649.263.396.176.696.327.902.451.205.125.33.246.374.363.044.118.022.235-.066.352-.088.118-.235.25-.44.396-.162.118-.37.323-.627.616-.257.294-.54.638-.847 1.034-.308.396-.624.829-.946 1.298-.323.47-.624.946-.902 1.43.205-.044.377-.084.517-.12.139-.037.275-.078.407-.122.132-.044.271-.091.418-.143.146-.051.33-.113.55-.187.088-.029.172-.047.253-.055a.65.65 0 0 1 .275.044c.102.037.227.1.374.187.146.088.33.213.55.374.513.382.799.668.858.858.058.191-.081.396-.418.616-.103.074-.22.173-.352.297a5.12 5.12 0 0 0-.385.407c-.125.147-.246.301-.363.462a2.483 2.483 0 0 0-.264.44c-.191.396-.411.803-.66 1.221-.25.418-.499.781-.748 1.09.542.44 1.056.817 1.54 1.132.484.316.986.602 1.507.858.52.257 1.078.488 1.672.693.594.206 1.272.411 2.035.616.792.22 1.184.426 1.177.616-.008.191-.473.36-1.397.506a43.36 43.36 0 0 1-2.354.33c-.572.059-1.03.063-1.375.011-.345-.051-.627-.165-.847-.34a5.943 5.943 0 0 1-.748-.749 73.57 73.57 0 0 0-1.111-1.254c-.36-.396-.752-.836-1.177-1.32-.807.704-1.76 1.295-2.86 1.771a11.01 11.01 0 0 1-3.476.87c-.704.058-1.053.032-1.045-.078.007-.11.45-.333 1.33-.67a16.513 16.513 0 0 0 2.794-1.375c.44-.272.855-.55 1.244-.837.388-.286.73-.568 1.023-.847a60.312 60.312 0 0 0-.957-1.11c-.33-.375-.642-.723-.935-1.046a18.304 18.304 0 0 0-.792-.825 5.37 5.37 0 0 0-.506-.45c-.279.557-.58 1.085-.902 1.583-.323.499-.631.917-.924 1.254-.352.426-.693.81-1.023 1.155-.33.345-.675.664-1.034.957-.36.294-.752.569-1.177.825-.426.257-.91.51-1.452.76-.484.234-.756.274-.814.12-.059-.154.168-.421.682-.803a16.577 16.577 0 0 0 1.859-1.606 14.2 14.2 0 0 0 1.44-1.705c.426-.594.818-1.232 1.178-1.914a27.83 27.83 0 0 0 1.045-2.233c.308-.748.55-1.448.726-2.1.176-.653.264-1.222.264-1.706zm4.158 7.876c.293-.381.542-.766.748-1.155.205-.388.403-.84.594-1.353.161-.41.22-.674.176-.792-.044-.117-.162-.168-.352-.154-.25.03-.499.077-.748.143a4.1 4.1 0 0 0-.836.341c-.25.132-.462.129-.638-.01-.176-.14-.257-.422-.242-.848a.65.65 0 0 1 .099-.308c.066-.117.223-.337.473-.66.176-.234.4-.638.67-1.21.272-.572.598-1.378.98-2.42.102-.264.095-.425-.022-.484-.118-.058-.47-.029-1.056.088a344.638 344.638 0 0 0-2.838.616c.322.176.568.323.737.44.168.118.282.228.34.33.06.103.07.202.034.297a1.422 1.422 0 0 1-.21.341c-.19.279-.355.576-.494.891-.14.316-.246.62-.32.913-.087.25-.19.525-.307.825-.118.301-.257.613-.418.935.19.088.374.184.55.286a4.532 4.532 0 0 1 1.067.87c.183.197.392.428.627.692.146.162.344.367.594.616.249.25.513.506.792.77zm18.448-3.696c-.792 2.039-1.834 3.773-3.124 5.203a13.239 13.239 0 0 1-4.532 3.29c-.543.234-.851.278-.924.131-.074-.146.124-.41.594-.792a42.174 42.174 0 0 0 2.354-2.079 15.712 15.712 0 0 0 1.606-1.782c.44-.579.817-1.18 1.133-1.804a22.77 22.77 0 0 0 .935-2.145c.308-.821.55-1.525.726-2.112.176-.586.297-1.089.363-1.507.066-.418.084-.766.055-1.045a1.704 1.704 0 0 0-.198-.682c-.338-.63-.415-1.019-.231-1.166.183-.146.73-.029 1.639.352.396.176.704.33.924.462.22.132.374.264.462.396a.5.5 0 0 1 .088.396c-.03.132-.096.286-.198.462-.059.103-.132.239-.22.407a8.196 8.196 0 0 0-.264.561c-.088.206-.173.411-.253.616-.081.206-.143.396-.187.572-.059.191-.11.374-.154.55a3.715 3.715 0 0 1-.176.528c.542.631 1.019 1.181 1.43 1.65.41.47.78.884 1.11 1.243.33.36.628.675.892.946a23.79 23.79 0 0 0 1.474 1.397c.234.206.491.426.77.66.41.338.795.635 1.155.891.359.257.726.484 1.1.682.374.198.77.374 1.188.528.418.154.883.305 1.397.451.645.191.964.389.957.594-.008.206-.334.338-.98.396-1.1.088-1.961.143-2.584.165-.624.022-1.111 0-1.463-.066-.352-.066-.627-.187-.825-.363a5.178 5.178 0 0 1-.65-.726c-.307-.41-.67-.898-1.088-1.463-.418-.564-.866-1.166-1.342-1.804-.477-.638-.968-1.301-1.474-1.99a242.37 242.37 0 0 0-1.485-2.003zm24.784 6.82c-1.042.264-1.947.499-2.717.704-.77.206-1.434.4-1.991.583a18.61 18.61 0 0 0-1.408.517 6.88 6.88 0 0 0-.99.506c-.484.294-.8.396-.946.308-.147-.088-.25-.447-.308-1.078-.059-.528-.048-.876.033-1.045.08-.168.253-.275.517-.319.22-.044.432-.124.638-.242.205-.117.421-.304.649-.56.227-.257.473-.602.737-1.035a25.5 25.5 0 0 0 .902-1.639c.498-.997.689-1.73.572-2.2-.118-.484-.074-.77.132-.858.205-.088.594.088 1.166.528.337.264.59.477.759.638.168.162.275.301.319.418a.312.312 0 0 1-.044.32c-.074.095-.191.208-.352.34-.176.132-.37.316-.583.55-.213.235-.459.543-.737.924-.352.484-.631.87-.836 1.155a19.119 19.119 0 0 1-.88 1.144l-.352.43c.366-.045.77-.092 1.21-.144.44-.051.894-.106 1.364-.165.469-.058.938-.12 1.408-.187.469-.066.924-.135 1.364-.209-.132-.205-.275-.44-.43-.704-.153-.264-.318-.55-.494-.858-.22-.381-.275-.608-.165-.682.11-.073.407.015.89.264.734.382 1.328.737 1.783 1.067.454.33.803.646 1.045.946.242.301.396.594.462.88.066.286.077.576.033.87-.103.689-.312 1.088-.627 1.198-.316.11-.613-.025-.891-.407a3.459 3.459 0 0 1-.176-.242 18.5 18.5 0 0 1-.572-.902c-.132-.22-.294-.491-.484-.814zm-4.532-9.196c-.103.088-.198.191-.286.308-.088.118-.198.268-.33.451-.132.184-.29.426-.473.726-.184.301-.422.679-.715 1.133-.836 1.32-1.713 2.384-2.63 3.19-.916.807-1.858 1.401-2.826 1.782-.44.176-.686.206-.737.088-.052-.117.135-.352.56-.704a17.526 17.526 0 0 0 2.597-2.673c.762-.975 1.466-2.1 2.112-3.377.249-.484.392-.905.429-1.265.036-.359.018-.663-.055-.913-.132-.425-.1-.696.099-.814.198-.117.605-.007 1.22.33.734.426 1.156.763 1.266 1.012.11.25.033.492-.231.726zm11.902 4.95a63.034 63.034 0 0 1-2.63.165c-.637.022-1.132.004-1.484-.055-.352-.058-.613-.165-.781-.319a3.411 3.411 0 0 1-.517-.627c-.294-.454-.565-.88-.814-1.276-.25-.396-.499-.799-.748-1.21-.25-.41-.506-.836-.77-1.276-.264-.44-.558-.938-.88-1.496-.514-.88-.946-1.536-1.298-1.969-.352-.432-.682-.73-.99-.89-.47-.235-.671-.444-.605-.628.066-.183.407-.26 1.023-.23.264.014.487.043.67.087.184.044.353.114.507.21.154.095.297.23.429.406.132.176.278.396.44.66a29.019 29.019 0 0 0 1.87 2.805c.601.785 1.224 1.47 1.87 2.057a12.123 12.123 0 0 0 2.09 1.53c.748.432 1.598.839 2.552 1.22.454.191.682.37.682.54 0 .168-.206.267-.616.296zm14.576 5.038l.198-.946c.058-.278.11-.55.154-.814.044-.264.084-.531.12-.803.037-.271.07-.568.1-.89.029-.323-.008-.536-.11-.639-.103-.102-.323-.161-.66-.176-.191 0-.4.008-.627.022-.228.015-.517.037-.87.066.426.308.668.547.727.715.058.169.007.356-.154.561a1.536 1.536 0 0 0-.21.352 5.249 5.249 0 0 0-.208.572 24.55 24.55 0 0 0-.253.88 34.46 34.46 0 0 0-.32 1.298c.895-.088 1.6-.154 2.113-.198zm-8.03-4.356c.308-.014.616-.036.924-.066.308-.029.641-.058 1-.088a48.871 48.871 0 0 0 2.695-.286c.675-.088 1.229-.157 1.662-.209a21.22 21.22 0 0 0 1.034-.143c.256-.044.447-.084.572-.12.124-.037.223-.07.297-.1.161-.073.308-.128.44-.165a.89.89 0 0 1 .418-.01c.146.029.315.098.506.208.19.11.432.26.726.451.293.206.52.374.682.506.161.132.256.253.286.363.029.11.007.22-.066.33-.074.11-.191.231-.352.363a1.542 1.542 0 0 0-.264.297c-.088.125-.191.301-.308.528-.118.228-.253.532-.407.913-.154.382-.341.858-.561 1.43a34.643 34.643 0 0 1 1.903-.176c.506-.029.924-.029 1.254 0 .33.03.597.092.803.187.205.096.396.224.572.385.513.47.7.844.56 1.122-.139.279-.612.352-1.418.22-.88-.161-1.914-.275-3.102-.34a56.555 56.555 0 0 0-4.136-.056c-1.628.03-3.143.11-4.543.242-1.401.132-2.615.323-3.641.572-.338.088-.613.15-.825.187a1.793 1.793 0 0 1-.55.022 1.13 1.13 0 0 1-.418-.143 5.049 5.049 0 0 1-.451-.308c-.47-.366-.69-.612-.66-.737.029-.124.278-.187.748-.187.425 0 1-.014 1.727-.044.726-.029 1.646-.08 2.76-.154-.131-1.144-.304-2.06-.516-2.75-.213-.689-.48-1.224-.803-1.606-.294-.366-.334-.623-.121-.77.212-.146.737-.102 1.573.132zm2.354.66a62.3 62.3 0 0 1-.87.077c-.27.022-.553.048-.846.077.102.47.187 1.012.253 1.628.066.616.135 1.438.209 2.464.293-.029.575-.047.847-.055.271-.007.539-.025.803-.055a32.746 32.746 0 0 1-.264-2.167 50.232 50.232 0 0 1-.132-1.969zm2.816-.352l-.924.1c-.338.036-.719.091-1.144.164.396.69.627 1.386.693 2.09a5.613 5.613 0 0 1-.187 2.068c.249-.029.487-.047.715-.055.227-.007.443-.025.649-.055.176-.806.282-1.598.319-2.376.036-.777-.004-1.422-.121-1.936zm-1.892-2.882a9.952 9.952 0 0 0-1.122.572 10.4 10.4 0 0 0-.418.264c-.44.279-.998.547-1.672.803-.675.257-1.386.466-2.134.627-.543.103-.829.096-.858-.022-.03-.117.19-.278.66-.484a9.46 9.46 0 0 0 1.33-.715c.448-.286.855-.568 1.222-.847.366-.278.663-.542.89-.792.228-.249.334-.44.32-.572-.03-.352.07-.55.297-.594.227-.044.605.125 1.133.506.542.396.821.675.836.836.014.162-.147.301-.484.418zm7.458.374c.161.426.139.719-.066.88-.206.162-.558.118-1.056-.132-.47-.22-.983-.498-1.54-.836a58.836 58.836 0 0 1-2.09-1.342c-.426-.278-.616-.462-.572-.55.044-.088.286-.11.726-.066.821.088 1.5.184 2.035.286.535.103.971.231 1.309.385.337.154.597.341.78.561.184.22.342.492.474.814zm-.374-4.51c.425.206.616.411.572.616-.044.206-.418.367-1.122.484-.25.044-.532.088-.847.132l-.968.132c-.33.044-.66.085-.99.121-.33.037-.635.077-.913.121-.807.103-1.632.191-2.475.264-.844.074-1.69.14-2.541.198-.455.03-.814.022-1.078-.022a2.104 2.104 0 0 1-.704-.242c-.294-.176-.433-.3-.418-.374.014-.073.212-.124.594-.154.66-.044 1.393-.117 2.2-.22a97.004 97.004 0 0 0 2.365-.33c.77-.117 1.466-.234 2.09-.352.623-.117 1.074-.22 1.353-.308.352-.117.667-.201.946-.253.278-.051.528-.077.748-.077a2.736 2.736 0 0 1 1.188.264zm-6.974-1.276c0 .499-.114.803-.341.913-.228.11-.532.055-.913-.165a1.52 1.52 0 0 1-.33-.253 11.802 11.802 0 0 1-.43-.429 17.331 17.331 0 0 1-.472-.517 26.395 26.395 0 0 1-.462-.539c-.25-.308-.341-.517-.275-.627.066-.11.311-.143.737-.099.938.118 1.587.312 1.947.583.359.272.539.65.539 1.133zm6.248-1.518c-.22.103-.466.242-.737.418a5.536 5.536 0 0 0-.781.616 7.043 7.043 0 0 1-.517.418c-.198.147-.404.29-.616.43-.213.139-.426.267-.638.384-.213.118-.407.22-.583.308-.455.235-.719.301-.792.198-.074-.102.088-.366.484-.792.674-.718 1.162-1.356 1.463-1.914.3-.557.429-.938.385-1.144-.088-.41-.044-.656.132-.737.176-.08.586.004 1.232.253.469.176.825.338 1.067.484.242.147.392.283.45.407.06.125.037.242-.065.352-.103.11-.264.217-.484.32zm14.576 12.958c-.294.015-.532.026-.715.033a3.387 3.387 0 0 1-.484-.01 2.457 2.457 0 0 1-.374-.067 3.656 3.656 0 0 1-.341-.11c-.323-.132-.473-.267-.451-.407.022-.139.216-.216.583-.23.264-.015.55-.037.858-.067.308-.029.623-.08.946-.154.014-.425 0-.777-.044-1.056a2.486 2.486 0 0 0-.22-.726c-.22-.381-.268-.634-.143-.759.124-.124.524-.07 1.199.165.542.206.869.393.979.561.11.169.091.378-.055.627-.03.074-.059.184-.088.33-.03.147-.059.323-.088.528.366-.088.656-.146.869-.176.212-.029.421-.029.627 0 .308.044.539.114.693.21.154.095.238.197.253.307.014.11-.044.22-.176.33-.132.11-.338.195-.616.253-.206.044-.466.092-.781.143-.316.052-.642.1-.98.143l-.087 1.87a32.564 32.564 0 0 0 1.452-.143c.41-.051.689-.099.836-.143.308-.058.583-.102.825-.132.242-.029.469-.029.682 0 .212.03.429.088.649.176.22.088.469.213.748.374.205.118.348.242.429.374.08.132.08.253 0 .363-.081.11-.253.191-.517.242-.264.052-.631.063-1.1.033a46.625 46.625 0 0 0-2.552-.132 24.121 24.121 0 0 0-1.848.022c-1.115.059-2.02.136-2.717.231-.697.096-1.17.187-1.42.275a1.54 1.54 0 0 1-.846.077c-.316-.051-.657-.223-1.023-.517-.294-.234-.411-.407-.352-.517.058-.11.322-.157.792-.143.322.015.836 0 1.54-.044.704-.044 1.694-.124 2.97-.242l.088-1.892zm2.596-11.11c-.587.059-1.181.121-1.782.187-.602.066-1.137.136-1.606.21-.015.249-.022.48-.022.692 0 .213-.008.422-.022.627.41-.102.744-.187 1-.253.257-.066.47-.11.639-.132.168-.022.304-.029.407-.022.102.008.205.026.308.055.425.088.641.231.649.43.007.197-.202.355-.627.472-.69.176-1.482.228-2.376.154l-.022 1.254c.381-.102.7-.183.957-.242.256-.058.473-.099.649-.12.176-.023.322-.026.44-.012.117.015.234.037.352.066.381.118.572.257.572.418 0 .162-.228.301-.682.418a5.586 5.586 0 0 1-1.111.187 9.1 9.1 0 0 1-1.177-.01l-.022 1.363c.748-.073 1.404-.143 1.969-.209.564-.066 1.06-.12 1.485-.165l.022-5.368zm1.628-1.474c.308-.058.572-.106.792-.143a2.418 2.418 0 0 1 1.089.055c.154.044.311.11.473.198.234.118.4.235.495.352.095.118.099.228.01.33-.087.103-.278.191-.571.264-.294.074-.719.132-1.276.176a8.387 8.387 0 0 1-.495.033 6.606 6.606 0 0 0-.605.055l-.242 5.368c.293-.044.553-.084.78-.12.228-.037.444-.07.65-.1a7.39 7.39 0 0 1 .825-.11c.227-.014.44-.01.638.011.198.022.385.066.56.132.177.066.375.158.595.275.19.118.322.242.396.374.073.132.073.253 0 .363-.074.11-.228.198-.462.264-.235.066-.558.085-.968.055-.47-.044-1.005-.07-1.606-.077a28.793 28.793 0 0 0-2.024.055c.821.675 1.55 1.24 2.189 1.694.638.455 1.246.836 1.826 1.144.579.308 1.166.572 1.76.792.594.22 1.257.426 1.99.616.558.162.84.32.848.473.007.154-.275.26-.847.32-.968.087-1.727.146-2.277.175-.55.03-.983.026-1.298-.01-.316-.037-.561-.114-.737-.232a4.062 4.062 0 0 1-.594-.506c-.206-.22-.47-.495-.792-.825-.323-.33-.668-.693-1.034-1.089-.367-.396-.745-.81-1.133-1.243a72.481 72.481 0 0 1-1.111-1.265c-.763.03-1.47.066-2.123.11a37.36 37.36 0 0 0-1.903.176c.586.411.909.704.968.88.058.176-.03.33-.264.462a1.96 1.96 0 0 0-.484.374c-.176.176-.411.455-.704.836a10.076 10.076 0 0 1-2.332 2.112 9.178 9.178 0 0 1-2.882 1.276c-.763.191-1.163.228-1.2.11-.036-.117.268-.344.914-.682.308-.161.634-.363.979-.605.344-.242.689-.506 1.034-.792.344-.286.674-.579.99-.88.315-.3.59-.59.825-.869.22-.264.403-.495.55-.693.146-.198.26-.374.34-.528.081-.154.14-.297.177-.429.036-.132.055-.271.055-.418-.367.044-.734.11-1.1.198a5.53 5.53 0 0 1-.572.088 2.314 2.314 0 0 1-.451 0 1.73 1.73 0 0 1-.418-.099 4.742 4.742 0 0 1-.473-.209c-.338-.176-.48-.326-.43-.45.052-.125.32-.195.804-.21.117 0 .267-.003.45-.01.184-.008.411-.023.683-.045l.99-.077c.388-.029.847-.073 1.375-.132l-.088-3.784a16.192 16.192 0 0 1-.022-.803c0-.242-.015-.473-.044-.693a6.73 6.73 0 0 1-1.067.044 3.503 3.503 0 0 1-.957-.176c-.44-.132-.65-.278-.627-.44.022-.161.282-.234.78-.22.089 0 .309-.014.66-.044.353-.029.727-.066 1.123-.11-.088-.704-.257-1.202-.506-1.496-.338-.396-.437-.674-.297-.836.139-.161.473-.154 1 .022.47.162.833.29 1.09.385.256.096.44.187.55.275.11.088.157.18.143.275a1.069 1.069 0 0 1-.132.341c-.103.176-.176.448-.22.814.924-.132 1.639-.238 2.145-.319.506-.08.905-.15 1.199-.209 0-.396-.008-.722-.022-.979a3.935 3.935 0 0 0-.077-.627 1.78 1.78 0 0 0-.132-.396 1.005 1.005 0 0 0-.187-.264c-.162-.161-.264-.315-.308-.462-.044-.146-.026-.256.055-.33.08-.073.223-.11.429-.11.205 0 .484.066.836.198.396.147.704.272.924.374.22.103.374.206.462.308a.4.4 0 0 1 .11.32c-.015.11-.066.245-.154.406a4.032 4.032 0 0 0-.187.495c-.052.169-.092.4-.121.693zM152.999 15c.044.279.033.506-.033.682-.066.176-.165.297-.297.363a.562.562 0 0 1-.451.011 1.411 1.411 0 0 1-.517-.352 7.704 7.704 0 0 1-.517-.638 5.592 5.592 0 0 1-.495-.814c-.191-.381-.242-.616-.154-.704.088-.088.366-.066.836.066.601.176 1.008.356 1.22.54.213.183.349.465.408.846zm6.776-.814c-.47.162-1.423.543-2.86 1.144-.396.162-.635.184-.715.066-.081-.117.003-.264.253-.44.513-.381.913-.733 1.199-1.056.286-.322.436-.608.45-.858 0-.264.122-.421.364-.473.242-.051.627.107 1.155.473.44.294.66.528.66.704 0 .176-.169.323-.506.44zm-5.72-4.972a4.716 4.716 0 0 1-1.386-.066c-.514-.161-.763-.3-.748-.418.014-.117.234-.212.66-.286a44.474 44.474 0 0 0 1.529-.253c.432-.08.814-.157 1.144-.23.33-.074.616-.144.858-.21s.465-.128.67-.187c.265-.073.547-.11.848-.11.3 0 .56.059.78.176.265.147.364.316.298.506-.066.191-.356.36-.87.506-.351.103-.718.187-1.1.253-.38.066-.762.129-1.143.187.278.206.436.378.473.517.036.14.01.29-.077.451-.059.103-.103.22-.132.352-.03.132-.052.33-.066.594.22-.073.45-.139.693-.198.242-.058.502-.124.78-.198.397-.117.741-.176 1.035-.176.293 0 .594.081.902.242.278.132.381.301.308.506-.074.206-.389.389-.946.55-.558.147-1.049.257-1.474.33-.426.074-.88.147-1.364.22l-.132 4.4c1.114-.117 2.024-.22 2.728-.308a177.41 177.41 0 0 1 1.826-.22c.469-.058.869-.047 1.199.033.33.081.62.26.869.54.469.513.638.887.506 1.121-.132.235-.646.264-1.54.088a10.96 10.96 0 0 0-.924-.088c-.44-.029-.968-.058-1.584-.088a32.835 32.835 0 0 0-2.354-.044 31.426 31.426 0 0 0-4.136.352 56.32 56.32 0 0 0-2.156.374c-.25.044-.451.077-.605.1-.154.021-.29.018-.407-.012a1.09 1.09 0 0 1-.352-.165 4.292 4.292 0 0 1-.44-.363c-.382-.322-.54-.535-.473-.638.066-.102.407-.139 1.023-.11a26.464 26.464 0 0 0 1.958-.11l1.584-.143c.572-.051 1.151-.106 1.738-.165l.088-4.4c-.704.03-1.258.033-1.661.011-.404-.022-.7-.07-.891-.143-.47-.146-.697-.282-.682-.407.014-.124.271-.209.77-.253.469-.044.905-.088 1.309-.132.403-.044.795-.102 1.177-.176a13.75 13.75 0 0 0 0-1.1 7.37 7.37 0 0 0-.11-1.012zm2.42-6.27c.982.983 1.87 1.808 2.662 2.475.792.668 1.54 1.232 2.244 1.694a14.67 14.67 0 0 0 2.068 1.144c.674.301 1.386.561 2.134.781.557.162.84.327.847.495.007.169-.253.29-.781.363-.939.118-1.672.202-2.2.253-.528.052-.946.059-1.254.022-.308-.036-.547-.12-.715-.253a3.793 3.793 0 0 1-.561-.572 200.83 200.83 0 0 0-2.398-2.783c-.792-.902-1.65-1.888-2.574-2.959-1.599 2.288-3.157 4.1-4.675 5.434-1.518 1.335-3.025 2.281-4.521 2.838-.704.264-1.108.32-1.21.165-.103-.154.146-.4.748-.737a14.473 14.473 0 0 0 1.98-1.375 23.147 23.147 0 0 0 2.002-1.848 28.195 28.195 0 0 0 1.914-2.2 30.761 30.761 0 0 0 1.738-2.453c.528-.836.74-1.51.638-2.024-.118-.557-.059-.88.176-.968.234-.088.726.088 1.474.528.322.191.572.349.748.473.176.125.29.235.34.33a.269.269 0 0 1-.01.286 1.702 1.702 0 0 1-.308.341c-.103.074-.272.257-.506.55zm17.568 10.054a32.15 32.15 0 0 1-.98.143 12.58 12.58 0 0 0-.956.165 8.385 8.385 0 0 1-.66.088 2.096 2.096 0 0 1-.484-.01 1.745 1.745 0 0 1-.407-.11 3.804 3.804 0 0 1-.451-.232c-.426-.249-.624-.436-.594-.56.029-.125.308-.173.836-.144.176.015.458.004.847-.033.388-.036.84-.088 1.353-.154a79.546 79.546 0 0 0 4.862-.78c.454-.089.821-.17 1.1-.243.44-.117.81-.209 1.11-.275.301-.066.562-.099.782-.099.22 0 .425.03.616.088.19.059.396.147.616.264.557.308.803.565.737.77-.066.206-.576.338-1.53.396a42.843 42.843 0 0 0-2.563.22c-.505.059-1.026.118-1.561.176-.536.059-1.045.118-1.53.176.309.25.543.451.705.605.161.154.26.283.297.385.036.103.018.187-.055.253a1.12 1.12 0 0 1-.33.187 3.062 3.062 0 0 0-.385.21 6.834 6.834 0 0 0-.594.428c-.242.191-.543.44-.902.748-.36.308-.803.69-1.331 1.144.601-.073 1.353-.172 2.255-.297.902-.124 2.057-.267 3.465-.429a27.087 27.087 0 0 0-.385-.56 39.63 39.63 0 0 0-.451-.628c-.264-.381-.334-.627-.21-.737.125-.11.43-.047.914.187.777.396 1.4.76 1.87 1.09.469.33.825.652 1.067.967.242.316.388.638.44.968.051.33.047.7-.011 1.111-.03.22-.1.396-.21.528a.665.665 0 0 1-.362.242.656.656 0 0 1-.418-.055.87.87 0 0 1-.374-.34c-.235-.367-.462-.72-.682-1.057-.22-.337-.47-.704-.748-1.1-1.731.323-3.205.664-4.422 1.023-1.218.36-2.061.7-2.53 1.023-.411.294-.7.415-.87.363-.168-.051-.362-.319-.582-.803a8.795 8.795 0 0 1-.286-.737c-.059-.183-.066-.33-.022-.44.044-.11.146-.201.308-.275.161-.073.388-.146.682-.22.381-.102.803-.37 1.265-.803.462-.432.95-1.045 1.463-1.837.205-.293.3-.623.286-.99zm4.642-4.048c-.704.206-1.262.356-1.672.451-.411.096-.704.158-.88.187-.411.059-.76.103-1.045.132-.286.03-.543.044-.77.044a4.36 4.36 0 0 1-.638-.044 4.313 4.313 0 0 1-.65-.154c-.425-.117-.619-.256-.582-.418.036-.161.29-.242.759-.242.337 0 .777-.047 1.32-.143a8.51 8.51 0 0 0 1.518-.407c.322-.117.601-.212.836-.286.234-.073.447-.12.638-.143.19-.022.366-.029.528-.022.161.008.33.033.506.077.396.088.612.242.649.462.036.22-.136.389-.517.506zm-2.464-5.72c-.499.91-1.06 1.797-1.683 2.662a22.448 22.448 0 0 1-2.035 2.442 16.84 16.84 0 0 1-2.365 2.046 12.3 12.3 0 0 1-2.673 1.452c-.514.206-.796.242-.847.11-.052-.132.15-.359.605-.682a22.956 22.956 0 0 0 3.86-3.476c1.108-1.261 2.014-2.552 2.718-3.872.836-1.54 1.158-2.515.968-2.926-.118-.249-.169-.458-.154-.627.014-.168.095-.278.242-.33.146-.051.348-.033.605.055.256.088.575.272.957.55.293.22.513.4.66.54.146.139.242.26.286.362.044.103.036.191-.022.264a.965.965 0 0 1-.286.22.973.973 0 0 0-.231.21c-.081.095-.158.201-.231.318a76.478 76.478 0 0 0 3.168 2.915c.88.756 1.672 1.372 2.376 1.848.704.477 1.364.851 1.98 1.122.616.272 1.268.517 1.958.737.762.25 1.107.488 1.034.715-.074.228-.668.363-1.782.407-.734.03-1.313.04-1.738.033-.426-.007-.778-.055-1.056-.143a1.85 1.85 0 0 1-.737-.44c-.213-.205-.48-.498-.803-.88-.44-.498-.888-1.015-1.342-1.55a401.52 401.52 0 0 1-1.32-1.563l-1.188-1.408a65.799 65.799 0 0 1-.924-1.11z" fill="#6EC4A7" fill-rule="evenodd"/></svg>