<svg width="36" height="42" viewBox="0 0 36 42" xmlns="http://www.w3.org/2000/svg"><title>nonprofit-tree</title><g fill="none" fill-rule="evenodd"><path d="M35 34H1a1 1 0 0 1-.883-1.47l17-31.999a1 1 0 0 1 1.766 0l17 32A1 1 0 0 1 35 34z" fill="#97E4CA"/><path d="M23.707 25.293a1 1 0 0 0-1.414 0L19 28.586V17a1 1 0 0 0-2 0v6.586l-3.293-3.293a1 1 0 1 0-1.414 1.414L17 26.414V41a1 1 0 0 0 2 0v-9.586l4.707-4.707a1 1 0 0 0 0-1.414z" fill="#48B691"/><path d="M28 42H8a1 1 0 0 1 0-2h20a1 1 0 0 1 0 2z" fill="#A67C52"/></g></svg>