<svg width="46" height="44" viewBox="0 0 46 44" xmlns="http://www.w3.org/2000/svg"><title>nonprofit-requirement</title><g fill="none" fill-rule="evenodd"><path fill="#B3DCCE" d="M5 17h6v26H5zM15 17h6v26h-6zM25 17h6v26h-6zM35 17h6v26h-6z"/><path d="M45.479 12.122l-22-12a1.004 1.004 0 0 0-.958 0l-22 12A1 1 0 0 0 0 13v6a1 1 0 0 0 1 1h44a1 1 0 0 0 1-1v-6a1 1 0 0 0-.521-.878z" fill="#CDECE1"/><path d="M45 40H1a1 1 0 0 0-1 1v2a1 1 0 0 0 1 1h44a1 1 0 0 0 1-1v-2a1 1 0 0 0-1-1z" fill="#CDEDE2"/><ellipse fill="#90C5B3" cx="23" cy="11" rx="4" ry="4"/><path fill="#90C6B3" d="M5 23v-3h6v3zM15 23v-3h6v3zM25 23v-3h6v3zM35 23v-3h6v3z"/></g></svg>