<svg width="46" height="46" viewBox="0 0 46 46" xmlns="http://www.w3.org/2000/svg"><title>nonprofit-activate</title><g fill="none" fill-rule="evenodd"><path d="M19 38C8.523 38 0 29.477 0 19S8.523 0 19 0s19 8.523 19 19-8.523 19-19 19zm0-34C10.729 4 4 10.729 4 19s6.729 15 15 15 15-6.729 15-15S27.271 4 19 4z" fill="#48B691"/><path d="M19 31c-6.617 0-12-5.383-12-12S12.383 7 19 7s12 5.383 12 12-5.383 12-12 12zm0-20c-4.411 0-8 3.589-8 8s3.589 8 8 8 8-3.589 8-8-3.589-8-8-8z" fill="#48B691"/><ellipse fill="#48B691" cx="19" cy="19" rx="4" ry="4"/><path d="M45.707 36.293L36.414 27l5.293-5.293a1 1 0 0 0-.617-1.703l-22-2a.998.998 0 0 0-1.086 1.087l2 22a1 1 0 0 0 1.703.616L27 36.414l9.293 9.293a.997.997 0 0 0 1.414 0l8-8a1 1 0 0 0 0-1.414z" fill="#326151"/></g></svg>