<svg width="45" height="44" viewBox="0 0 45 44" xmlns="http://www.w3.org/2000/svg"><title>users-color_add-29</title><g fill="none" fill-rule="evenodd"><path d="M41.25 35.797L28 30V20H16v10l-.125.062-13.121 5.735C1.233 36.46 0 38.35 0 40.009v2.988C0 43.551.45 44 1.002 44h41.996A.995.995 0 0 0 44 42.997V40.01c0-1.662-1.229-3.547-2.75-4.212z" fill="#326151"/><path d="M22 26c-6.065 0-11-4.935-11-11v-4c0-6.065 4.935-11 11-11s11 4.935 11 11v4c0 6.065-4.935 11-11 11z" fill="#669585"/><ellipse fill="#48B691" cx="37" cy="33" rx="8" ry="8"/><path d="M40 32h-2v-2a1 1 0 1 0-2 0v2h-2a1 1 0 1 0 0 2h2v2a1 1 0 0 0 2 0v-2h2a1 1 0 0 0 0-2z" fill="#FFF"/></g></svg>