<?xml version="1.0" encoding="UTF-8"?>
<svg width="48px" height="48px" viewBox="0 0 48 48" version="1.1" xmlns="http://www.w3.org/2000/svg" xmlns:xlink="http://www.w3.org/1999/xlink">
    <!-- Generator: Sketch 51.1 (57501) - http://www.bohemiancoding.com/sketch -->
    <title>Product Icon / On Light / 9 normal</title>
    <desc>Created with Sketch.</desc>
    <defs></defs>
    <g id="Product-Icon-/-On-Light-/-9-normal" stroke="none" stroke-width="1" fill="none" fill-rule="evenodd">
        <g id="Group-4" transform="translate(6.000000, 6.000000)">
            <g id="Group-3">
                <path d="M1.83877724,4.19601852 C1.07719011,4.27835226 0.5,4.92130442 0.5,5.68732909 L0.5,21.1234817 C0.5,21.1773397 0.502900677,21.2311585 0.508689429,21.2847045 C0.597730303,22.1083326 1.33759468,22.7038332 2.16122276,22.6147923 L34.1612228,19.1553328 C34.9228099,19.0729991 35.5,18.4300469 35.5,17.6640223 L35.5,2.22786963 C35.5,2.17401168 35.4970993,2.12019282 35.4913106,2.06664686 C35.4022697,1.24301878 34.6624053,0.647518183 33.8387772,0.736559057 L1.83877724,4.19601852 Z" id="Rectangle-48" stroke="#4C4C4C" fill="#FFFFFF"></path>
                <path d="M4.30816351,8.71977097 L34.9729963,5.77084028" id="Path-12" stroke="#A6A6A6"></path>
                <path d="M0.5,6.94554157 C0.5,17.1619888 0.5,17.5309333 0.5,28.4603606 C0.5,29.196108 1.0336329,29.8232468 1.75989326,29.9410188 L33.7598933,35.130208 C33.8392809,35.1430816 33.9195753,35.1495497 34,35.1495497 C34.8284271,35.1495497 35.5,34.4779769 35.5,33.6495497 L35.5,15.3375518 C35.5,14.5972413 34.959903,13.9676432 34.2282098,13.8550148 C16.5997697,11.1413215 7.11271446,9.59816158 5.63354178,9.20126136 C5.43762692,9.14869234 4.69916176,8.95514905 4.52335824,8.90783028 C3.6923911,8.68416957 3.14291246,8.50421379 2.58353143,8.25414687 C1.87897662,7.93918114 1.21115804,7.5247617 0.5,6.94554157 Z" id="Rectangle-46" stroke="#202020" fill="#FFFFFF"></path>
            </g>
            <path d="M22.8648649,28.6409266 C22.8648649,25.6854569 20.4689833,23.2895753 17.5135135,23.2895753 C14.5580438,23.2895753 12.6486486,24.5526413 12.6486486,27.5081111" id="Oval-7" stroke="#202020" stroke-linecap="round"></path>
            <path d="M17.41624,23.2895753 C19.1050798,23.2895753 20.5714286,22.1915485 20.5714286,20.5027086 C20.5714286,18.8138688 19.2996269,17.1737452 17.6107871,17.1737452 C15.9219472,17.1737452 14.4555985,18.1327758 14.4555985,19.8216157 C14.4555985,21.5104555 15.7274001,23.2895753 17.41624,23.2895753 Z" id="Oval-7" stroke="#202020" fill="#FFFFFF"></path>
        </g>
    </g>
</svg>