<?xml version="1.0" encoding="UTF-8"?>
<svg width="48px" height="48px" viewBox="0 0 48 48" version="1.1" xmlns="http://www.w3.org/2000/svg" xmlns:xlink="http://www.w3.org/1999/xlink">
    <!-- Generator: Sketch 51.1 (57501) - http://www.bohemiancoding.com/sketch -->
    <title>Product Icon / On Light / 8 chose</title>
    <desc>Created with Sketch.</desc>
    <defs>
        <linearGradient x1="0%" y1="0%" x2="100%" y2="100%" id="linearGradient-1">
            <stop stop-color="#FFFFFF" offset="0%"></stop>
            <stop stop-color="#F3FDFF" offset="100%"></stop>
        </linearGradient>
    </defs>
    <g id="Product-Icon-/-On-Light-/-8-chose" stroke="none" stroke-width="1" fill="none" fill-rule="evenodd">
        <g id="Group-51" transform="translate(6.000000, 6.000000)">
            <path d="M1.83877724,3.93783638 C1.07719011,4.02017012 0.5,4.66312228 0.5,5.42914695 L0.5,20.8652996 C0.5,20.9191575 0.502900677,20.9729764 0.508689429,21.0265224 C0.597730303,21.8501504 1.33759468,22.445651 2.16122276,22.3566102 L34.1612228,18.8971507 C34.9228099,18.814817 35.5,18.1718648 35.5,17.4058401 L35.5,1.96968749 C35.5,1.91582954 35.4970993,1.86201068 35.4913106,1.80846473 C35.4022697,0.984836642 34.6624053,0.389336047 33.8387772,0.478376921 L1.83877724,3.93783638 Z" id="Rectangle-48" stroke="#23B5D3" fill="#FFFFFF"></path>
            <path d="M4,8.94893069 L34.6648328,6" id="Path-12" stroke="#90D8E6"></path>
            <path d="M0.5,7.10770373 C0.5,17.3241509 0.5,17.6930954 0.5,28.6225227 C0.5,29.3582702 1.0336329,29.985409 1.75989326,30.1031809 L33.7598933,35.2923701 C33.8392809,35.3052438 33.9195753,35.3117119 34,35.3117119 C34.8284271,35.3117119 35.5,34.640139 35.5,33.8117119 L35.5,15.4997139 C35.5,14.7594034 34.959903,14.1298054 34.2282098,14.017177 C16.5997697,11.3034836 7.11271446,9.76032374 5.63354178,9.36342352 C5.43762692,9.31085451 4.69916176,9.11731121 4.52335824,9.06999244 C3.6923911,8.84633173 3.14291246,8.66637595 2.58353143,8.41630903 C1.87897662,8.1013433 1.21115804,7.68692386 0.5,7.10770373 Z" id="Rectangle-46" stroke="#23B5D3" fill="url(#linearGradient-1)"></path>
            <path d="M22.2162162,28.3513514 C22.2162162,25.3958816 19.8203346,23 16.8648649,23 C13.9093951,23 12,24.263066 12,27.2185358" id="Oval-7" stroke="#23B5D3" stroke-linecap="round"></path>
            <path d="M16.9606415,23.1158301 C18.6494814,23.1158301 20.1158301,22.0178033 20.1158301,20.3289635 C20.1158301,18.6401236 18.8440285,17 17.1551886,17 C15.4663487,17 14,17.9590307 14,19.6478705 C14,21.3367104 15.2718017,23.1158301 16.9606415,23.1158301 Z" id="Oval-7" stroke="#23B5D3" fill="#FFFFFF"></path>
        </g>
    </g>
</svg>