<?xml version="1.0" encoding="UTF-8"?>
<svg width="48px" height="48px" viewBox="0 0 48 48" version="1.1" xmlns="http://www.w3.org/2000/svg" xmlns:xlink="http://www.w3.org/1999/xlink">
    <!-- Generator: Sketch 51.1 (57501) - http://www.bohemiancoding.com/sketch -->
    <title>Product Icon / On Light / 8 normal</title>
    <desc>Created with Sketch.</desc>
    <defs>
        <path d="M7.60678295,22.3564963 L26.6942054,28.2428785 C27.0102353,28.3403392 27.2576406,28.5877445 27.3551012,28.9037744 L33.2414834,47.9911968 C33.4042392,48.5189553 33.108346,49.0787277 32.5805876,49.2414834 C32.3885854,49.3006951 32.183199,49.3006951 31.9911968,49.2414834 L12.9037744,43.3551012 C12.5877445,43.2576406 12.3403392,43.0102353 12.2428785,42.6942054 L6.35649632,23.6067829 C6.19374055,23.0790245 6.4896337,22.5192521 7.01739218,22.3564963 C7.20939435,22.2972846 7.41478077,22.2972846 7.60678295,22.3564963 Z" id="path-1"></path>
        <path d="M7.60678295,14.3564963 L26.6942054,20.2428785 C27.0102353,20.3403392 27.2576406,20.5877445 27.3551012,20.9037744 L33.2414834,39.9911968 C33.4042392,40.5189553 33.108346,41.0787277 32.5805876,41.2414834 C32.3885854,41.3006951 32.183199,41.3006951 31.9911968,41.2414834 L12.9037744,35.3551012 C12.5877445,35.2576406 12.3403392,35.0102353 12.2428785,34.6942054 L6.35649632,15.6067829 C6.19374055,15.0790245 6.4896337,14.5192521 7.01739218,14.3564963 C7.20939435,14.2972846 7.41478077,14.2972846 7.60678295,14.3564963 Z" id="path-2"></path>
        <path d="M7.60678295,6.35649632 L26.6942054,12.2428785 C27.0102353,12.3403392 27.2576406,12.5877445 27.3551012,12.9037744 L33.2414834,31.9911968 C33.4042392,32.5189553 33.108346,33.0787277 32.5805876,33.2414834 C32.3885854,33.3006951 32.183199,33.3006951 31.9911968,33.2414834 L12.9037744,27.3551012 C12.5877445,27.2576406 12.3403392,27.0102353 12.2428785,26.6942054 L6.35649632,7.60678295 C6.19374055,7.07902447 6.4896337,6.51925208 7.01739218,6.35649632 C7.20939435,6.29728464 7.41478077,6.29728464 7.60678295,6.35649632 Z" id="path-3"></path>
    </defs>
    <g id="Product-Icon-/-On-Light-/-8-normal" stroke="none" stroke-width="1" fill="none" fill-rule="evenodd">
        <g id="Group-5" transform="translate(4.000000, -4.000000)">
            <g id="Rectangle-49" transform="translate(19.798990, 35.798990) rotate(-45.000000) translate(-19.798990, -35.798990) ">
                <path stroke="#787878" stroke-width="1" d="M7.45943525,22.8342919 C7.36343417,22.8046861 7.26074096,22.8046861 7.16473987,22.8342919 C6.90086063,22.9156698 6.75291406,23.195556 6.83429194,23.4594353 L12.7206741,42.5468577 C12.7694045,42.7048726 12.8931071,42.8285753 13.0511221,42.8773056 L32.1385445,48.7636878 C32.2345456,48.7932936 32.3372388,48.7932936 32.4332399,48.7636878 C32.6971191,48.6823099 32.8450657,48.4024237 32.7636878,48.1385445 L26.8773056,29.0511221 C26.8285753,28.8931071 26.7048726,28.7694045 26.5468577,28.7206741 L7.45943525,22.8342919 Z" stroke-linejoin="square" fill="#FFFFFF" fill-rule="evenodd"></path>
                <path stroke="#FFFFFF" stroke-width="2" d="M7.90147833,21.4009051 L26.9889008,27.2872873 C27.6209606,27.4822086 28.1157712,27.9770192 28.3106925,28.609079 L34.1970747,47.6965014 C34.5225862,48.7520184 33.9307999,49.8715631 32.875283,50.1970747 C32.4912786,50.315498 32.0805058,50.315498 31.6965014,50.1970747 L12.609079,44.3106925 C11.9770192,44.1157712 11.4822086,43.6209606 11.2872873,42.9889008 L5.40090507,23.9014783 C5.07539354,22.8459614 5.66717985,21.7264166 6.72269679,21.4009051 C7.10670114,21.2824817 7.51747398,21.2824817 7.90147833,21.4009051 Z"></path>
            </g>
            <g id="Rectangle-49" transform="translate(19.798990, 27.798990) rotate(-45.000000) translate(-19.798990, -27.798990) ">
                <path stroke="#484848" stroke-width="1" d="M7.45943525,14.8342919 C7.36343417,14.8046861 7.26074096,14.8046861 7.16473987,14.8342919 C6.90086063,14.9156698 6.75291406,15.195556 6.83429194,15.4594353 L12.7206741,34.5468577 C12.7694045,34.7048726 12.8931071,34.8285753 13.0511221,34.8773056 L32.1385445,40.7636878 C32.2345456,40.7932936 32.3372388,40.7932936 32.4332399,40.7636878 C32.6971191,40.6823099 32.8450657,40.4024237 32.7636878,40.1385445 L26.8773056,21.0511221 C26.8285753,20.8931071 26.7048726,20.7694045 26.5468577,20.7206741 L7.45943525,14.8342919 Z" stroke-linejoin="square" fill="#FFFFFF" fill-rule="evenodd"></path>
                <path stroke="#FFFFFF" stroke-width="2" d="M7.90147833,13.4009051 L26.9889008,19.2872873 C27.6209606,19.4822086 28.1157712,19.9770192 28.3106925,20.609079 L34.1970747,39.6965014 C34.5225862,40.7520184 33.9307999,41.8715631 32.875283,42.1970747 C32.4912786,42.315498 32.0805058,42.315498 31.6965014,42.1970747 L12.609079,36.3106925 C11.9770192,36.1157712 11.4822086,35.6209606 11.2872873,34.9889008 L5.40090507,15.9014783 C5.07539354,14.8459614 5.66717985,13.7264166 6.72269679,13.4009051 C7.10670114,13.2824817 7.51747398,13.2824817 7.90147833,13.4009051 Z"></path>
            </g>
            <g id="Rectangle-49" transform="translate(19.798990, 19.798990) rotate(-45.000000) translate(-19.798990, -19.798990) ">
                <path stroke="#202020" stroke-width="1" d="M7.45943525,6.83429194 C7.36343417,6.8046861 7.26074096,6.8046861 7.16473987,6.83429194 C6.90086063,6.91566982 6.75291406,7.19555602 6.83429194,7.45943525 L12.7206741,26.5468577 C12.7694045,26.7048726 12.8931071,26.8285753 13.0511221,26.8773056 L32.1385445,32.7636878 C32.2345456,32.7932936 32.3372388,32.7932936 32.4332399,32.7636878 C32.6971191,32.6823099 32.8450657,32.4024237 32.7636878,32.1385445 L26.8773056,13.0511221 C26.8285753,12.8931071 26.7048726,12.7694045 26.5468577,12.7206741 L7.45943525,6.83429194 Z" stroke-linejoin="square" fill="#FFFFFF" fill-rule="evenodd"></path>
                <path stroke="#FFFFFF" stroke-width="2" d="M7.90147833,5.40090507 L26.9889008,11.2872873 C27.6209606,11.4822086 28.1157712,11.9770192 28.3106925,12.609079 L34.1970747,31.6965014 C34.5225862,32.7520184 33.9307999,33.8715631 32.875283,34.1970747 C32.4912786,34.315498 32.0805058,34.315498 31.6965014,34.1970747 L12.609079,28.3106925 C11.9770192,28.1157712 11.4822086,27.6209606 11.2872873,26.9889008 L5.40090507,7.90147833 C5.07539354,6.84596139 5.66717985,5.7264166 6.72269679,5.40090507 C7.10670114,5.28248173 7.51747398,5.28248173 7.90147833,5.40090507 Z"></path>
            </g>
        </g>
    </g>
</svg>