<?xml version="1.0" encoding="UTF-8"?>
<svg width="48px" height="48px" viewBox="0 0 48 48" version="1.1" xmlns="http://www.w3.org/2000/svg" xmlns:xlink="http://www.w3.org/1999/xlink">
    <!-- Generator: Sketch 51.1 (57501) - http://www.bohemiancoding.com/sketch -->
    <title>Industry / 旅游 / chose</title>
    <desc>Created with Sketch.</desc>
    <defs>
        <linearGradient x1="0%" y1="0%" x2="100%" y2="100%" id="linearGradient-1">
            <stop stop-color="#FFFFFF" offset="0%"></stop>
            <stop stop-color="#F3FDFF" offset="100%"></stop>
        </linearGradient>
    </defs>
    <g id="Industry-/-旅游-/-chose" stroke="none" stroke-width="1" fill="none" fill-rule="evenodd">
        <g id="Group-13" transform="translate(6.000000, 3.000000)" stroke="#35C8E6">
            <path d="M24,-3.10862447e-15 L29,-3.10862447e-15 C30.1045695,-3.31153059e-15 31,0.8954305 31,2 L31,6.02050781 L22,6.02050781 L22,2 C22,0.8954305 22.8954305,-2.01753992e-15 24,-2.22044605e-15 Z" id="Rectangle-10-Copy-3"></path>
            <path d="M7,-3.10862447e-15 L12,-3.10862447e-15 C13.1045695,-3.31153059e-15 14,0.8954305 14,2 L14,6.02050781 L5,6.02050781 L5,2 C5,0.8954305 5.8954305,-2.01753992e-15 7,-2.22044605e-15 Z" id="Rectangle-10-Copy-4"></path>
            <rect id="Rectangle-9" x="0" y="5" width="36" height="38" rx="4"></rect>
            <rect id="Rectangle-9" fill="url(#linearGradient-1)" x="0" y="5" width="36" height="19" rx="4"></rect>
            <rect id="Rectangle-10" fill="#FFFFFF" x="8.5" y="19.5" width="5" height="9" rx="2"></rect>
            <rect id="Rectangle-10-Copy" fill="#FFFFFF" x="22.5" y="19.5" width="5" height="9" rx="2"></rect>
        </g>
    </g>
</svg>