<?xml version="1.0" encoding="UTF-8"?>
<svg width="48px" height="48px" viewBox="0 0 48 48" version="1.1" xmlns="http://www.w3.org/2000/svg" xmlns:xlink="http://www.w3.org/1999/xlink">
    <!-- Generator: Sketch 51.1 (57501) - http://www.bohemiancoding.com/sketch -->
    <title>Industry / 旅游 / normal</title>
    <desc>Created with Sketch.</desc>
    <defs></defs>
    <g id="Industry-/-旅游-/-normal" stroke="none" stroke-width="1" fill="none" fill-rule="evenodd">
        <g id="Group-14" transform="translate(6.000000, 3.000000)" stroke="#212121">
            <g id="Group-2">
                <rect id="Rectangle-9" x="0.5" y="5.5" width="35" height="37" rx="4"></rect>
                <rect id="Rectangle-9" x="0.5" y="5.5" width="35" height="18" rx="4"></rect>
                <rect id="Rectangle-10" fill="#FFFFFF" x="8.5" y="19.5" width="5" height="9" rx="2"></rect>
                <path d="M22.5,5.52050781 L30.5,5.52050781 L30.5,2 C30.5,1.17157288 29.8284271,0.5 29,0.5 L24,0.5 C23.1715729,0.5 22.5,1.17157288 22.5,2 L22.5,5.52050781 Z" id="Rectangle-10-Copy-3"></path>
                <path d="M5.5,5.52050781 L13.5,5.52050781 L13.5,2 C13.5,1.17157288 12.8284271,0.5 12,0.5 L7,0.5 C6.17157288,0.5 5.5,1.17157288 5.5,2 L5.5,5.52050781 Z" id="Rectangle-10-Copy-4"></path>
                <rect id="Rectangle-10-Copy" fill="#FFFFFF" x="22.5" y="19.5" width="5" height="9" rx="2"></rect>
            </g>
        </g>
    </g>
</svg>